<svg width="301" height="56" viewBox="0 0 301 56" fill="none" xmlns="http://www.w3.org/2000/svg">
<g clip-path="url(#clip0_2932_23598)">
<path d="M0 28L28 0L56 28L28 56L0 28Z" fill="#1A0D4D"/>
<path d="M28 21.6358C27.9995 15.4946 31.1458 10.5399 31.7264 9.67787C31.7725 9.6094 31.8681 9.60491 31.919 9.66984C32.5237 10.4403 35.6364 14.7412 35.6364 21.6358C35.6364 27.8727 32.4981 31.1694 31.9117 31.731C31.8608 31.7797 31.7828 31.7761 31.7385 31.7213C31.191 31.0439 28.0005 26.8717 28 21.6358Z" fill="white"/>
<path d="M27.3652 25.4542C26.9563 23.7472 26.7755 21.1238 26.7369 20.4998C26.7324 20.426 26.6676 20.3715 26.5945 20.383C25.3116 20.5834 15.2728 22.4314 15.2734 31.1815C15.2741 41.376 21.8292 43.9087 28.0023 43.9087C32.7705 43.9087 35.8648 41.1161 36.2366 40.7634C36.2611 40.7401 36.2743 40.7079 36.2743 40.6742V33.2178C36.2743 33.1475 36.2173 33.0906 36.1471 33.0906H28.7652C28.6949 33.0906 28.638 33.1475 28.638 33.2178V36.0731C28.638 36.1661 28.7322 36.2305 28.8184 36.1957C29.7495 35.8208 33.9347 34.3952 33.0925 39.4542C32.4569 43.2724 22.9537 45.3508 21.0023 37.5451C19.2062 30.3608 27.1853 29.3932 28.467 29.2847C28.554 29.2774 28.6057 29.1887 28.5743 29.1073C28.3608 28.5554 27.6725 26.7369 27.3652 25.4542Z" fill="white"/>
<path d="M32.5619 28.7451C32.4472 29.0319 32.3262 29.2477 32.199 29.3924C32.0792 29.5296 31.982 29.5158 31.9072 29.3513C30.1912 25.6747 30.1924 21.9983 31.9109 18.3219C31.9265 18.2883 31.9513 18.2601 31.9826 18.2405C32.014 18.2207 32.0504 18.2106 32.0876 18.2109C32.1249 18.2113 32.1615 18.2223 32.1932 18.2426C32.2247 18.263 32.2502 18.2918 32.2663 18.3256C33.8501 21.8224 33.9486 25.2956 32.5619 28.7451Z" fill="#1A0D4D"/>
<path d="M73.3066 17.9799L71.3199 17.9052C71.2877 17.9052 71.2721 17.889 71.2735 17.8567L71.3442 16.4515C71.3454 16.4259 71.3589 16.4132 71.3845 16.4132L82.848 16.3809C82.9085 16.3809 82.9388 16.4105 82.9388 16.4697V20.7942C82.9388 20.8615 82.9051 20.8952 82.8378 20.8952L81.2853 20.8932C81.2274 20.8932 81.1971 20.8642 81.1944 20.8064L81.0712 18.218C81.0673 18.1521 81.0329 18.1192 80.9683 18.1192H75.6707C75.6033 18.1192 75.5697 18.1528 75.5697 18.2201V31.5328C75.5697 31.5934 75.6 31.6257 75.6606 31.6298L77.829 31.759C77.8773 31.7616 77.8996 31.7872 77.8955 31.8357L77.7684 33.148C77.7669 33.1651 77.759 33.1811 77.7462 33.1927C77.7335 33.2043 77.7168 33.2106 77.6997 33.2105H71.4834C71.435 33.2105 71.4087 33.1863 71.4047 33.1378L71.2775 31.658C71.277 31.6521 71.2776 31.646 71.2795 31.6402C71.2813 31.6345 71.2843 31.6293 71.2883 31.6247C71.2922 31.6201 71.2971 31.6164 71.3025 31.6139C71.308 31.6113 71.3139 31.6098 71.3199 31.6096L73.2944 31.5592C73.3658 31.5578 73.4014 31.5207 73.4014 31.448V18.0788C73.4014 18.0156 73.3698 17.9826 73.3066 17.9799Z" fill="#1A0D4D"/>
<path d="M106.017 26.2913C107.679 26.8686 108.813 27.8316 108.631 29.7799C108.181 34.5991 99.7725 34.7727 97.5678 31.5586C97.5503 31.533 97.5503 31.5068 97.5678 31.4798L98.3188 30.3189C98.322 30.3138 98.3263 30.3096 98.3315 30.3066C98.3368 30.3035 98.3426 30.3019 98.3486 30.3016C98.3546 30.3015 98.3605 30.3028 98.3659 30.3054C98.3712 30.3081 98.376 30.3121 98.3794 30.3169C99.619 31.8695 101.981 32.3237 103.833 32.031C107.075 31.5142 107.721 27.5592 103.606 27.5107C102.811 27.5025 102.034 27.5019 101.275 27.5086C101.233 27.5086 101.212 27.4884 101.212 27.448V26.1015C101.212 26.061 101.232 26.0416 101.273 26.0428C102.187 26.0469 103.34 26.164 104.147 25.8389C105.785 25.1808 106.588 22.4794 104.539 21.7971C103.013 21.2883 101.589 21.5024 100.267 22.4391C100.246 22.4542 100.228 22.4741 100.215 22.4971C100.203 22.5203 100.196 22.546 100.194 22.5724L100.136 23.9311C100.134 23.9594 100.12 23.9735 100.091 23.9735H98.5288C98.5133 23.9735 98.4984 23.9674 98.4874 23.9563C98.4764 23.9454 98.4703 23.9305 98.4703 23.915L98.5389 20.4122C98.5415 20.2627 98.6176 20.188 98.7671 20.188H99.7583C99.8687 20.188 99.9367 20.2412 99.9623 20.3475L100.085 20.8563C100.106 20.937 100.15 20.9538 100.219 20.9067C101.602 19.9647 103.145 19.6738 104.846 20.0345C106.487 20.3819 107.747 21.3065 107.731 23.1256C107.72 24.4177 107.144 25.4318 106.003 26.1681C105.925 26.2192 105.929 26.2602 106.017 26.2913Z" fill="#1A0D4D"/>
<path d="M297.295 31.6447C297.302 31.6449 297.309 31.6431 297.314 31.6394C297.32 31.6357 297.325 31.6305 297.327 31.6243C297.328 31.6181 297.33 31.6113 297.328 31.6049C297.326 31.5984 297.323 31.5926 297.318 31.5882L293.728 27.9966C293.713 27.9806 293.702 27.9587 293.702 27.9356C293.702 27.9126 293.713 27.8902 293.728 27.8734L294.684 26.9185C294.699 26.9029 294.721 26.894 294.742 26.8937C294.764 26.8933 294.784 26.9014 294.801 26.9164L300.332 32.4079C300.354 32.4294 300.365 32.4584 300.365 32.4887C300.365 32.5189 300.354 32.5479 300.332 32.5694L294.912 37.9902C294.904 37.9982 294.894 38.0047 294.884 38.009C294.873 38.0133 294.862 38.0156 294.85 38.0156C294.839 38.0156 294.829 38.0133 294.817 38.009C294.807 38.0047 294.798 37.9982 294.791 37.9902L293.806 37.007C293.764 36.9653 293.764 36.9243 293.806 36.8838L297.306 33.381C297.387 33.3003 297.369 33.2598 297.256 33.2598H264.857C264.791 33.2598 264.747 33.2295 264.72 33.1691L264.147 31.7901C264.115 31.7107 264.072 31.7053 264.02 31.7739C263.238 32.8171 262.15 33.416 260.758 33.5708C259.203 33.7425 257.336 33.5083 256.258 32.3433C255.194 31.1905 255.092 29.0586 256.073 27.8714C257.649 25.9676 261.567 25.7758 263.828 25.5679C263.89 25.5611 263.926 25.5267 263.935 25.4649C264.169 23.8316 263.889 21.8106 261.977 21.5077C260.604 21.2911 259.382 21.6 258.31 22.4344C258.268 22.4667 258.247 22.5099 258.244 22.5637L258.17 24.1303C258.169 24.16 258.154 24.1747 258.125 24.1747H256.564C256.53 24.1747 256.515 24.1573 256.516 24.1223L256.582 20.2783C256.585 20.1504 256.651 20.0865 256.778 20.0865H257.781C257.904 20.0865 257.978 20.1464 258.004 20.2662L258.139 20.8961C258.156 20.9808 258.202 21.0003 258.276 20.9546C259.845 19.9559 261.472 19.6564 263.156 20.0562C265.33 20.573 266.051 22.2831 266.051 24.3585C266.051 26.7543 266.052 29.1494 266.058 31.5438C266.058 31.6111 266.091 31.6447 266.158 31.6447H297.295ZM262.13 31.7659C262.804 31.5209 263.331 31.1125 263.709 30.5404C263.861 30.3076 263.937 30.0168 263.937 29.6682C263.936 28.8027 263.935 27.9313 263.935 27.0538C263.935 26.985 263.9 26.9514 263.83 26.9528C262.731 26.9743 261.637 27.0673 260.552 27.2314C259.051 27.4575 257.225 28.1137 257.502 30.0417C257.812 32.1737 260.503 32.3575 262.13 31.7659Z" fill="#1A0D4D"/>
<path d="M92.3677 31.8687C91.7177 32.7624 90.8429 33.3243 89.7432 33.5546C88.4551 33.825 86.8683 33.7464 85.669 33.1628C83.4179 32.0666 83.0626 28.8322 85.1239 27.3181C86.8319 26.0623 90.048 25.7939 92.2446 25.6424C92.3092 25.6383 92.3442 25.604 92.3496 25.5394C92.5132 23.7426 92.3456 21.9276 90.2095 21.5925C88.9363 21.3919 87.7741 21.686 86.7229 22.4747C86.6636 22.5191 86.632 22.5783 86.628 22.6524L86.5533 24.2332C86.552 24.2601 86.5371 24.2736 86.5088 24.2736L84.9503 24.2756C84.914 24.2756 84.8958 24.2581 84.8958 24.2231L84.9685 20.2802C84.9697 20.2182 85.0008 20.1872 85.0614 20.1872H86.2343C86.315 20.1872 86.3629 20.227 86.3776 20.3064L86.5008 20.9888C86.5036 21.0056 86.5108 21.0213 86.5214 21.0345C86.5321 21.0477 86.546 21.058 86.5619 21.0645C86.5778 21.071 86.5951 21.0733 86.6124 21.0714C86.6296 21.0695 86.646 21.0633 86.6603 21.0533C87.6064 20.3804 88.6381 20.0163 89.7553 19.9612C92.9068 19.8057 94.4392 21.4633 94.4392 24.5602C94.4405 26.9277 94.4412 29.2556 94.4412 31.5437C94.4412 31.7105 94.5246 31.794 94.6916 31.794L95.6889 31.7981C95.8787 31.7981 95.9716 31.8929 95.9675 32.0827L95.9493 33.0881C95.9466 33.2699 95.8545 33.3607 95.6727 33.3607H92.8301C92.7654 33.3607 92.7285 33.3284 92.7191 33.2638L92.495 31.897C92.4774 31.7866 92.435 31.7772 92.3677 31.8687ZM87.7282 31.907C89.3273 32.2482 91.1565 31.9394 92.1012 30.5261C92.2506 30.3014 92.3247 30.0201 92.3233 29.6823C92.3206 28.8074 92.32 27.9298 92.3214 27.0495C92.3214 26.9795 92.287 26.9459 92.2184 26.9486C91.1188 26.9728 90.0251 27.0684 88.9376 27.2354C87.4437 27.4634 85.671 28.0832 85.8729 29.9306C85.994 31.047 86.6542 31.6769 87.7282 31.907Z" fill="#1A0D4D"/>
<path d="M129.574 32.5072V37.9481C129.574 38.0113 129.606 38.0444 129.669 38.0471L131.048 38.1198C131.077 38.1224 131.091 38.138 131.09 38.1662L131.02 39.5794C131.018 39.6063 131.004 39.6198 130.978 39.6198H126.049C126.022 39.6198 126.008 39.6057 126.007 39.5774L125.934 38.1096C125.931 38.0719 125.949 38.0518 125.986 38.0491L127.361 37.9906C127.423 37.9878 127.453 37.9556 127.453 37.8936V22.0613C127.453 21.9967 127.423 21.963 127.359 21.9603L125.978 21.8876C125.972 21.8874 125.967 21.886 125.961 21.8835C125.956 21.881 125.951 21.8776 125.947 21.8733C125.944 21.8689 125.94 21.8638 125.938 21.8584C125.937 21.8529 125.936 21.8471 125.936 21.8412L126.005 20.3311C126.006 20.3029 126.021 20.2887 126.049 20.2887H129.253C129.31 20.2887 129.343 20.317 129.35 20.3735L129.513 21.5485C129.527 21.6467 129.569 21.6608 129.639 21.5908C130.535 20.6959 131.631 20.1716 132.925 20.0181C138.199 19.3963 140.173 23.1918 139.43 27.803C138.827 31.5461 136.517 33.9587 132.376 33.5004C131.416 33.3941 130.512 33.0469 129.667 32.4587C129.604 32.4156 129.574 32.4318 129.574 32.5072ZM132.528 21.5767C131.371 21.7006 130.423 22.2706 129.681 23.2868C129.644 23.3353 129.625 23.3948 129.625 23.4563V30.6417C129.625 30.7144 129.651 30.7843 129.699 30.8375C130.568 31.7985 132.297 32.065 133.513 31.9197C137.111 31.4896 137.696 28.1563 137.432 25.1845C137.184 22.4025 135.174 21.2901 132.528 21.5767Z" fill="#1A0D4D"/>
<path d="M154.284 24.3804C155.679 30.0272 152.235 34.8908 146.078 33.3766C142.239 32.4318 141.302 28.5574 141.804 25.1031C142.214 22.2585 143.974 20.401 146.939 20.0356C150.348 19.6177 153.398 20.7908 154.284 24.3804ZM147.973 21.4751C144.298 21.572 143.737 24.8588 143.929 27.7055C144.123 30.6087 146.096 32.5509 149.111 31.9513C151.157 31.5434 152.189 29.7244 152.296 27.756C152.389 26.046 152.394 24.3278 151.412 22.9833C150.647 21.9361 149.501 21.4334 147.973 21.4751Z" fill="#1A0D4D"/>
<path d="M212.473 27.2952C212.608 29.6351 213.719 31.537 216.186 31.9165C217.99 32.1938 219.518 31.6688 220.767 30.3418C220.806 30.3014 220.844 30.3014 220.882 30.3418L221.784 31.2947C221.803 31.3146 221.815 31.341 221.817 31.3689C221.819 31.3967 221.81 31.4242 221.792 31.4461C220.275 33.4065 217.638 33.9455 215.277 33.465C210.943 32.5828 209.742 28.3734 210.644 24.5333C211.498 20.8892 214.649 19.4195 218.151 20.1179C221.13 20.7115 222.046 23.1444 221.933 25.8921C221.915 26.3565 221.833 26.7616 221.688 27.1075C221.66 27.172 221.61 27.2044 221.54 27.2044H212.558C212.497 27.2044 212.469 27.2347 212.473 27.2952ZM212.53 25.5569C212.528 25.5737 212.529 25.5908 212.534 25.6068C212.539 25.623 212.548 25.6379 212.56 25.6505C212.571 25.6631 212.584 25.6731 212.6 25.68C212.616 25.6868 212.632 25.6903 212.649 25.6902H219.877C219.952 25.6902 219.996 25.6538 220.01 25.5811C220.542 22.6981 218.468 21.0729 215.734 21.5574C213.646 21.9269 212.782 23.5804 212.53 25.5569Z" fill="#1A0D4D"/>
<path d="M113.98 22.0153V31.6293C113.98 31.6447 113.986 31.6595 113.996 31.6708C114.007 31.682 114.021 31.6889 114.037 31.6899L115.444 31.7626C115.452 31.7631 115.46 31.7652 115.467 31.7688C115.474 31.7725 115.481 31.7776 115.486 31.7838C115.491 31.7901 115.495 31.7973 115.498 31.8051C115.5 31.8128 115.501 31.8211 115.5 31.8291L115.377 33.1556C115.376 33.1706 115.369 33.1845 115.357 33.1945C115.346 33.2047 115.332 33.2102 115.317 33.2102H110.417C110.401 33.2102 110.386 33.2041 110.375 33.1931C110.363 33.1822 110.357 33.1673 110.356 33.1516L110.283 31.6717C110.283 31.6638 110.284 31.6558 110.287 31.6484C110.29 31.6409 110.294 31.6342 110.3 31.6283C110.305 31.6224 110.312 31.6177 110.319 31.6146C110.326 31.6112 110.334 31.6093 110.342 31.6091L111.753 31.5587C111.769 31.5582 111.784 31.5516 111.795 31.5402C111.806 31.5289 111.812 31.5138 111.812 31.4981L111.81 22.0212C111.809 22.0062 111.803 21.992 111.793 21.9812C111.782 21.9703 111.768 21.9637 111.753 21.9627L110.338 21.89C110.33 21.8895 110.322 21.8875 110.315 21.8839C110.308 21.8805 110.301 21.8755 110.296 21.8695C110.291 21.8636 110.287 21.8566 110.284 21.8489C110.282 21.8414 110.281 21.8334 110.281 21.8255L110.358 20.3456C110.359 20.3306 110.366 20.3164 110.376 20.306C110.387 20.2956 110.402 20.2896 110.417 20.2891H124.065C124.081 20.2891 124.096 20.2954 124.107 20.3068C124.119 20.3182 124.125 20.3336 124.125 20.3496V21.8294C124.125 21.8448 124.119 21.8597 124.109 21.8709C124.098 21.8823 124.084 21.889 124.069 21.89L122.667 21.9627C122.652 21.9637 122.638 21.9706 122.627 21.9819C122.617 21.9931 122.611 22.0079 122.611 22.0233V31.6273C122.611 31.6431 122.617 31.6581 122.628 31.6694C122.639 31.6807 122.654 31.6874 122.669 31.6879L124.178 31.7626C124.186 31.7631 124.194 31.7652 124.201 31.7688C124.208 31.7725 124.215 31.7776 124.22 31.7838C124.225 31.7901 124.229 31.7973 124.232 31.8051C124.234 31.8128 124.235 31.8211 124.234 31.8291L124.113 33.1556C124.111 33.1706 124.104 33.1845 124.093 33.1945C124.082 33.2047 124.067 33.2102 124.052 33.2102H120.552C120.535 33.2102 120.52 33.2038 120.509 33.1924C120.497 33.181 120.491 33.1656 120.491 33.1496V22.0153C120.491 21.9992 120.485 21.9838 120.473 21.9724C120.462 21.961 120.447 21.9547 120.43 21.9547H114.041C114.024 21.9547 114.009 21.961 113.998 21.9724C113.986 21.9838 113.98 21.9992 113.98 22.0153Z" fill="#1A0D4D"/>
<path d="M194.067 23.0066L193.794 33.0002C193.792 33.1402 193.72 33.2102 193.58 33.2102H170.916C170.911 33.2102 170.904 33.209 170.899 33.2067C170.894 33.2046 170.889 33.2013 170.885 33.1971C170.88 33.193 170.877 33.1882 170.875 33.1827C170.872 33.1773 170.872 33.1716 170.872 33.1658L170.74 22.8208C170.739 22.6822 170.711 22.6761 170.656 22.8026L166.217 33.1092C166.186 33.1764 166.135 33.2102 166.063 33.2102H164.286C164.21 33.2102 164.156 33.1758 164.127 33.1072L159.667 23.0529C159.579 22.8564 159.534 22.8652 159.53 23.0793L159.334 31.5808C159.333 31.6522 159.367 31.6893 159.438 31.6919L160.735 31.7626C160.771 31.7652 160.789 31.7841 160.785 31.8191L160.657 33.1658C160.657 33.1778 160.651 33.1892 160.642 33.1974C160.633 33.2056 160.622 33.2102 160.609 33.2102H156.177C156.147 33.2102 156.13 33.1953 156.129 33.1658L156 31.6676C155.999 31.6604 156 31.653 156.003 31.646C156.006 31.6391 156.009 31.6326 156.015 31.6273C156.02 31.6218 156.025 31.6174 156.031 31.6142C156.039 31.6111 156.045 31.6093 156.053 31.6091L157.426 31.5587C157.495 31.556 157.53 31.5202 157.533 31.4516L157.943 22.0677C157.945 22.0018 157.913 21.9674 157.847 21.9647L156.314 21.89C156.284 21.8888 156.269 21.8732 156.27 21.8437L156.339 20.3314C156.34 20.3032 156.356 20.2891 156.382 20.2891H160.556C160.614 20.2891 160.655 20.316 160.678 20.3699L165.126 31.2437C165.158 31.3231 165.191 31.3231 165.223 31.2437L169.731 20.392C169.743 20.3616 169.765 20.3356 169.793 20.3173C169.82 20.299 169.853 20.2892 169.886 20.2891H174.039C174.053 20.2891 174.066 20.2944 174.074 20.3038C174.085 20.3134 174.09 20.3261 174.09 20.3396V21.8456C174.09 21.8726 174.076 21.8867 174.048 21.8881L172.715 21.9588C172.647 21.9627 172.612 21.9991 172.612 22.0677L172.743 31.6031C172.743 31.665 172.774 31.6959 172.836 31.6959H191.959C192.026 31.6959 192.062 31.6623 192.065 31.595L192.474 22.0718C192.477 22.0032 192.444 21.9674 192.375 21.9647L190.841 21.89C190.813 21.8888 190.801 21.8746 190.802 21.8476L190.866 20.3376C190.867 20.3066 190.883 20.2911 190.915 20.2911L195.136 20.2891C195.208 20.2891 195.258 20.3227 195.287 20.39L199.71 31.1993C199.716 31.2122 199.725 31.2233 199.737 31.2311C199.748 31.2388 199.762 31.2429 199.776 31.2429C199.791 31.2429 199.804 31.2388 199.817 31.2311C199.828 31.2233 199.837 31.2122 199.843 31.1993L204.335 20.388C204.362 20.322 204.411 20.2891 204.482 20.2891H208.563C208.577 20.2891 208.59 20.2944 208.599 20.3038C208.607 20.3134 208.614 20.3261 208.614 20.3396V21.8456C208.614 21.8726 208.6 21.8867 208.571 21.8881L207.243 21.9588C207.176 21.9627 207.143 21.9985 207.144 22.0657L207.275 31.5001C207.276 31.6226 207.337 31.6872 207.458 31.694L208.777 31.7646C208.807 31.7659 208.823 31.7814 208.819 31.8111L208.751 33.1678C208.749 33.196 208.735 33.2102 208.707 33.2102H205.597C205.47 33.2102 205.407 33.1469 205.405 33.0204L205.27 22.9984C205.268 22.8545 205.237 22.8484 205.181 22.9802L200.811 33.1273C200.801 33.1518 200.783 33.1728 200.761 33.1875C200.739 33.2022 200.714 33.21 200.687 33.2102H198.82C198.745 33.2102 198.693 33.1758 198.662 33.1072L194.166 22.9864C194.161 22.9762 194.152 22.968 194.142 22.9632C194.131 22.9582 194.12 22.9568 194.109 22.9591C194.097 22.9614 194.088 22.9673 194.081 22.9758C194.073 22.9843 194.068 22.9951 194.067 23.0066Z" fill="#1A0D4D"/>
<path d="M236.177 31.6455H238.093C238.159 31.6455 238.191 31.6784 238.188 31.7444L238.044 36.9956C238.044 37.0091 238.038 37.022 238.029 37.0314C238.02 37.0408 238.008 37.046 237.994 37.046H236.437C236.408 37.046 236.392 37.0313 236.391 37.0016L236.185 33.3615C236.181 33.2943 236.146 33.2606 236.078 33.2606H225.428C225.363 33.2606 225.329 33.2935 225.326 33.3596L225.114 37.0016C225.112 37.0313 225.097 37.046 225.066 37.046H223.716C223.687 37.046 223.672 37.0313 223.672 37.0016L223.598 31.7544C223.596 31.6818 223.631 31.6455 223.702 31.6455H225.469C225.528 31.6455 225.57 31.6193 225.596 31.5667C227.018 28.5787 227.394 25.4252 227.441 22.1565C227.443 22.0691 227.399 22.024 227.312 22.0212L225.327 21.9608C225.293 21.9594 225.275 21.9412 225.276 21.9062L225.341 20.3314C225.343 20.3032 225.357 20.2891 225.385 20.2891H235.975C236.042 20.2891 236.077 20.3227 236.077 20.39V31.5446C236.077 31.6119 236.11 31.6455 236.177 31.6455ZM229.006 22.0112C229.063 25.3182 228.687 28.4637 227.431 31.5446C227.403 31.6119 227.426 31.6455 227.5 31.6455H233.856C233.922 31.6455 233.956 31.6119 233.956 31.5446V22.0052C233.956 21.9379 233.922 21.9042 233.856 21.9042H229.111C229.041 21.9042 229.006 21.9399 229.006 22.0112Z" fill="#1A0D4D"/>
<path d="M249.689 23.2226L242.041 33.1859C242.035 33.1934 242.029 33.1994 242.02 33.2036C242.011 33.2078 242.002 33.2099 241.993 33.2102H240.527C240.51 33.2102 240.495 33.2036 240.482 33.1918C240.471 33.18 240.464 33.1641 240.464 33.1476V22.0212C240.464 22.0057 240.458 21.991 240.447 21.9798C240.436 21.9684 240.421 21.9617 240.406 21.9608L239.042 21.8921C239.033 21.8918 239.025 21.8899 239.017 21.8863C239.01 21.8829 239.002 21.8778 238.997 21.8716C238.991 21.8655 238.987 21.8581 238.984 21.8502C238.982 21.8423 238.98 21.8339 238.98 21.8255L239.042 20.3496C239.042 20.3334 239.049 20.318 239.061 20.3066C239.072 20.2954 239.087 20.2891 239.104 20.2891H242.521C242.539 20.2891 242.554 20.2957 242.566 20.3074C242.577 20.3191 242.585 20.335 242.585 20.3517V29.776C242.584 29.7892 242.589 29.8023 242.596 29.8133C242.604 29.8241 242.614 29.8324 242.627 29.8366C242.64 29.8409 242.654 29.841 242.666 29.8371C242.679 29.833 242.689 29.8251 242.698 29.8143L249.948 20.3132C249.953 20.3059 249.96 20.2999 249.969 20.2957C249.977 20.2915 249.987 20.2892 249.996 20.2891H253.374C253.39 20.2891 253.406 20.2957 253.418 20.3074C253.43 20.3191 253.436 20.335 253.436 20.3517V21.8275C253.436 21.8434 253.43 21.8587 253.42 21.8704C253.408 21.882 253.393 21.889 253.378 21.89L252.031 21.9608C252.014 21.9618 252 21.9688 251.989 21.9804C251.979 21.9921 251.972 22.0074 251.972 22.0233V31.6293C251.972 31.6448 251.979 31.6597 251.99 31.6709C252 31.6821 252.016 31.6889 252.031 31.6899L253.43 31.7605C253.439 31.761 253.446 31.7632 253.454 31.767C253.462 31.7707 253.468 31.7761 253.474 31.7824C253.479 31.7888 253.483 31.7963 253.486 31.8043C253.488 31.8123 253.49 31.8209 253.488 31.8291L253.365 33.1535C253.364 33.1691 253.357 33.1836 253.344 33.194C253.333 33.2044 253.319 33.2102 253.302 33.2102H248.401C248.385 33.2102 248.368 33.2036 248.357 33.1918C248.345 33.18 248.339 33.1641 248.339 33.1476L248.34 31.8797C248.341 31.8644 248.346 31.8499 248.357 31.8387C248.368 31.8275 248.382 31.8206 248.397 31.8191L249.745 31.704C249.76 31.7025 249.774 31.6956 249.785 31.6844C249.796 31.6732 249.801 31.6587 249.802 31.6434V23.2609C249.802 23.2476 249.799 23.2345 249.791 23.2236C249.783 23.2128 249.772 23.2045 249.759 23.2003C249.746 23.196 249.734 23.1958 249.721 23.1999C249.708 23.2039 249.697 23.2118 249.689 23.2226Z" fill="#1A0D4D"/>
</g>
<defs>
<clipPath id="clip0_2932_23598">
<rect width="300.364" height="56" fill="white"/>
</clipPath>
</defs>
</svg>
