<svg width="180" height="54" viewBox="0 0 7 10" fill="none" xmlns="http://www.w3.org/2000/svg">
<path d="M2.35177 4.09177L4.21189 4.09037C4.22745 4.09037 4.24253 4.08414 4.25358 4.0731C4.26478 4.06205 4.271 4.04696 4.271 4.03125L4.2696 0.264189C4.2696 0.256411 4.27116 0.24879 4.27411 0.241634C4.27707 0.234479 4.28142 0.227945 4.28687 0.2225C4.29247 0.2169 4.29884 0.212543 4.306 0.209588C4.31331 0.206632 4.32093 0.205078 4.32871 0.205078L6.16192 0.206479C6.17747 0.206479 6.19257 0.212699 6.20361 0.223743C6.21465 0.234788 6.22103 0.249878 6.22103 0.265589V9.78335C6.22103 9.79891 6.21465 9.814 6.20361 9.82504C6.19257 9.83624 6.17747 9.84246 6.16192 9.84246L4.32996 9.84371C4.3144 9.84371 4.29931 9.83749 4.28827 9.82644C4.27722 9.8154 4.271 9.80031 4.271 9.78459L4.2696 5.8752C4.2696 5.85949 4.26338 5.84456 4.25234 5.83351C4.24114 5.82231 4.2262 5.81608 4.21049 5.81608L2.35052 5.81484C2.33481 5.81484 2.31973 5.82107 2.30868 5.83211C2.29764 5.84316 2.29141 5.85824 2.29141 5.87395V9.78459C2.29141 9.80031 2.28519 9.8154 2.27399 9.82644C2.26295 9.83749 2.24801 9.84371 2.2323 9.84371L0.395045 9.84246C0.379334 9.84246 0.364404 9.83624 0.35336 9.82504C0.34216 9.814 0.335938 9.79891 0.335938 9.78335L0.337332 0.265589C0.337332 0.249878 0.343555 0.234788 0.3546 0.223743C0.365644 0.212699 0.380735 0.206479 0.396446 0.206479L2.2323 0.205078C2.24008 0.205078 2.2477 0.206632 2.25485 0.209588C2.26201 0.212543 2.26855 0.2169 2.27399 0.2225C2.27959 0.227945 2.28395 0.234479 2.2869 0.241634C2.28986 0.24879 2.29141 0.256411 2.29141 0.264189L2.29266 4.03265C2.29266 4.04043 2.29421 4.04805 2.29717 4.05521C2.30012 4.06236 2.30448 4.0689 2.31008 4.0745C2.31553 4.07994 2.32206 4.0843 2.32921 4.08726C2.33637 4.09021 2.34399 4.09177 2.35177 4.09177Z" fill="#1A0D4D"/>
</svg>
