<svg width="235" height="56" viewBox="0 0 235 56" fill="none" xmlns="http://www.w3.org/2000/svg">
<g clip-path="url(#clip0_2932_23618)">
<path d="M28.3633 56C43.8274 56 56.3633 43.464 56.3633 28C56.3633 12.5359 43.8274 0 28.3633 0C12.8993 0 0.363281 12.5359 0.363281 28C0.363281 43.464 12.8993 56 28.3633 56Z" fill="#1A0D4D"/>
<path d="M17.2825 14.8047V24.3289C18.732 22.6007 20.4702 21.7299 22.4862 21.7299C23.525 21.7299 24.455 21.9276 25.2884 22.3218C26.1252 22.7127 26.751 23.2145 27.1726 23.8229C27.5976 24.4378 27.8841 25.1109 28.039 25.8528C28.1937 26.591 28.2706 27.7407 28.2706 29.2986V39.483H23.7643V30.3111C23.7643 28.4905 23.683 27.3375 23.5118 26.8477C23.3405 26.3547 23.0396 25.9671 22.607 25.6818C22.1732 25.3887 21.633 25.2436 20.9808 25.2436C20.2351 25.2436 19.5643 25.4312 18.9824 25.8014C18.3883 26.1749 17.96 26.7327 17.6899 27.478C17.4143 28.2248 17.2772 29.3271 17.2825 30.7865L17.2772 39.483H12.7773V14.8047H17.2825Z" fill="white"/>
<path d="M35.0242 14.8047V24.3289C36.4748 22.6007 38.2116 21.7299 40.2276 21.7299C41.2622 21.7299 42.1978 21.9276 43.0343 22.3218C43.8668 22.7127 44.4926 23.2145 44.9131 23.8229C45.3382 24.4378 45.6257 25.1109 45.7795 25.8528C45.9344 26.591 46.0114 27.7407 46.0114 29.2986V39.483H41.5104V30.3111C41.5104 28.4905 41.4257 27.3375 41.2533 26.8477C41.0822 26.3547 40.7824 25.9671 40.3475 25.6818C39.9182 25.3887 39.3736 25.2436 38.7212 25.2436C37.9756 25.2436 37.3058 25.4312 36.7229 25.8014C36.1354 26.1749 35.7062 26.7327 35.4316 27.478C35.1614 28.2248 35.0242 29.3271 35.0242 30.7865V39.483H30.5234V14.8047H35.0242Z" fill="white"/>
<path d="M77.9941 18.1816V22.5155C77.9941 23.272 77.9667 23.9921 77.9121 24.6757C77.8665 25.3593 77.83 25.8424 77.8026 26.125H78.0214C78.3495 25.5963 78.7369 25.1679 79.1835 24.8398C79.6393 24.5117 80.1405 24.2701 80.6874 24.1152C81.2343 23.9602 81.8222 23.8827 82.4511 23.8827C83.554 23.8827 84.5155 24.0787 85.3359 24.4707C86.1562 24.8534 86.7942 25.4596 87.25 26.289C87.7057 27.1093 87.9335 28.1757 87.9335 29.4882V39.455H83.7636V30.5273C83.7636 29.4336 83.5631 28.6087 83.1621 28.0527C82.7611 27.4967 82.1412 27.2186 81.3026 27.2186C80.4642 27.2186 79.8034 27.4146 79.3202 27.8066C78.8372 28.1893 78.4954 28.759 78.2948 29.5155C78.0943 30.263 77.9941 31.179 77.9941 32.2636V39.455H73.8242V18.1816H77.9941Z" fill="#1A0D4D"/>
<path d="M97.4082 23.8828C98.8209 23.8828 100.038 24.1563 101.058 24.7032C102.079 25.2409 102.868 26.0248 103.424 27.0547C103.98 28.0847 104.258 29.3426 104.258 30.8282V32.8516H94.4003C94.4459 34.0275 94.7968 34.9525 95.453 35.627C96.1184 36.2924 97.039 36.6251 98.2148 36.6251C99.19 36.6251 100.083 36.5248 100.894 36.3242C101.706 36.1238 102.54 35.823 103.396 35.422V38.6485C102.64 39.0222 101.847 39.2957 101.018 39.4688C100.197 39.642 99.1992 39.7285 98.0234 39.7285C96.4922 39.7285 95.1341 39.446 93.9492 38.8809C92.7734 38.3158 91.8483 37.4545 91.1737 36.297C90.5085 35.1393 90.1758 33.681 90.1758 31.922C90.1758 30.1355 90.4765 28.6498 91.078 27.4649C91.6888 26.271 92.5364 25.3776 93.6211 24.7852C94.7057 24.1837 95.9681 23.8828 97.4082 23.8828ZM97.4355 26.8497C96.6243 26.8497 95.9498 27.1094 95.412 27.629C94.8835 28.1485 94.578 28.9643 94.4961 30.0763H100.348C100.339 29.4565 100.225 28.905 100.006 28.422C99.7962 27.9389 99.4771 27.556 99.0487 27.2735C98.6295 26.9909 98.0918 26.8497 97.4355 26.8497Z" fill="#1A0D4D"/>
<path d="M112.789 23.8555C114.84 23.8555 116.412 24.3021 117.506 25.1953C118.6 26.0885 119.146 27.4466 119.146 29.2695V39.455H116.234L115.428 37.3769H115.318C114.881 37.9238 114.434 38.3704 113.978 38.7167C113.523 39.0632 112.999 39.3183 112.406 39.4824C111.814 39.6464 111.094 39.7284 110.246 39.7284C109.344 39.7284 108.532 39.5553 107.812 39.2089C107.102 38.8626 106.541 38.3339 106.131 37.6229C105.721 36.903 105.516 35.9914 105.516 34.8886C105.516 33.2663 106.085 32.0722 107.225 31.3067C108.364 30.5318 110.073 30.1034 112.352 30.0215L115.004 29.9394V29.2695C115.004 28.4675 114.794 27.8794 114.375 27.5058C113.956 27.1321 113.372 26.9453 112.625 26.9453C111.887 26.9453 111.162 27.0501 110.451 27.2598C109.74 27.4694 109.029 27.7337 108.318 28.0527L106.937 25.2363C107.749 24.8079 108.656 24.4707 109.658 24.2246C110.67 23.9784 111.714 23.8555 112.789 23.8555ZM115.004 32.3729L113.391 32.4277C112.042 32.4642 111.103 32.7056 110.574 33.1524C110.055 33.599 109.795 34.1868 109.795 34.916C109.795 35.554 109.982 36.0098 110.355 36.2831C110.729 36.5475 111.217 36.6796 111.818 36.6796C112.711 36.6796 113.464 36.4154 114.074 35.8867C114.694 35.358 115.004 34.6061 115.004 33.6308V32.3729Z" fill="#1A0D4D"/>
<path d="M127.176 39.7284C125.471 39.7284 124.081 39.0631 123.006 37.7324C121.94 36.3926 121.406 34.4284 121.406 31.8398C121.406 29.2239 121.949 27.246 123.033 25.9062C124.118 24.5572 125.535 23.8827 127.285 23.8827C128.014 23.8827 128.657 23.983 129.213 24.1836C129.769 24.384 130.248 24.6529 130.649 24.9902C131.058 25.3274 131.405 25.7056 131.687 26.125H131.825C131.77 25.8333 131.701 25.4049 131.62 24.8398C131.546 24.2655 131.51 23.6777 131.51 23.0762V18.1816H135.694V39.455H132.494L131.687 37.4726H131.51C131.246 37.8919 130.913 38.2747 130.511 38.621C130.119 38.9583 129.651 39.2272 129.104 39.4277C128.556 39.6282 127.914 39.7284 127.176 39.7284ZM128.639 36.4062C129.778 36.4062 130.58 36.0689 131.044 35.3945C131.519 34.7109 131.77 33.6855 131.797 32.3183V31.8671C131.797 30.3815 131.569 29.2467 131.113 28.4629C130.658 27.6698 129.81 27.2734 128.57 27.2734C127.65 27.2734 126.93 27.6698 126.41 28.4629C125.891 29.2558 125.631 30.3997 125.631 31.8945C125.631 33.3892 125.891 34.5149 126.41 35.2714C126.939 36.028 127.682 36.4062 128.639 36.4062Z" fill="#1A0D4D"/>
<path d="M149.257 18.1816V22.5155C149.257 23.272 149.229 23.9921 149.174 24.6757C149.128 25.3593 149.092 25.8424 149.064 26.125H149.283C149.612 25.5963 149.999 25.1679 150.445 24.8398C150.901 24.5117 151.402 24.2701 151.95 24.1152C152.497 23.9602 153.085 23.8827 153.714 23.8827C154.816 23.8827 155.778 24.0787 156.598 24.4707C157.419 24.8534 158.056 25.4596 158.512 26.289C158.968 27.1093 159.195 28.1757 159.195 29.4882V39.455H155.026V30.5273C155.026 29.4336 154.825 28.6087 154.424 28.0527C154.023 27.4967 153.403 27.2186 152.564 27.2186C151.726 27.2186 151.065 27.4146 150.583 27.8066C150.099 28.1893 149.758 28.759 149.557 29.5155C149.356 30.263 149.257 31.179 149.257 32.2636V39.455H145.086V18.1816H149.257Z" fill="#1A0D4D"/>
<path d="M176.399 24.1699V39.4551H173.199L172.639 37.5001H172.42C172.092 38.0196 171.682 38.4434 171.189 38.7715C170.697 39.0996 170.155 39.3412 169.563 39.4961C168.97 39.6511 168.355 39.7285 167.717 39.7285C166.623 39.7285 165.671 39.5372 164.859 39.1544C164.048 38.7624 163.414 38.1563 162.959 37.336C162.512 36.5156 162.289 35.4492 162.289 34.1368V24.1699H166.459V33.0977C166.459 34.1915 166.655 35.0164 167.047 35.5723C167.439 36.1283 168.063 36.4063 168.92 36.4063C169.768 36.4063 170.433 36.2149 170.916 35.832C171.399 35.4402 171.737 34.8705 171.927 34.123C172.129 33.3665 172.228 32.446 172.228 31.3613V24.1699H176.399Z" fill="#1A0D4D"/>
<path d="M188.335 23.8828C189.965 23.8828 191.279 24.3295 192.271 25.2227C193.265 26.1068 193.762 27.5287 193.762 29.4883V39.4551H189.592V30.5275C189.592 29.4337 189.391 28.6088 188.99 28.0528C188.598 27.4968 187.979 27.2188 187.131 27.2188C185.856 27.2188 184.985 27.6517 184.521 28.5176C184.055 29.3835 183.823 30.6322 183.823 32.2637V39.4551H179.652V24.1699H182.838L183.399 26.1251H183.631C183.959 25.5964 184.365 25.168 184.848 24.8399C185.34 24.5118 185.882 24.2702 186.475 24.1153C187.076 23.9603 187.696 23.8828 188.335 23.8828Z" fill="#1A0D4D"/>
<path d="M203.372 36.4063C203.827 36.4063 204.269 36.3607 204.698 36.2696C205.136 36.1784 205.569 36.0644 205.996 35.9277V39.0313C205.549 39.2317 204.995 39.3959 204.329 39.5234C203.672 39.6601 202.952 39.7285 202.169 39.7285C201.257 39.7285 200.437 39.5827 199.708 39.291C198.987 38.9903 198.418 38.4752 197.998 37.7461C197.589 37.0077 197.384 35.9824 197.384 34.6699V27.3008H195.387V25.5372L197.684 24.1426L198.887 20.916H201.553V24.1699H205.832V27.3008H201.553V34.6699C201.553 35.2533 201.717 35.6907 202.046 35.9824C202.383 36.265 202.825 36.4063 203.372 36.4063Z" fill="#1A0D4D"/>
<path d="M214.284 23.8828C215.696 23.8828 216.913 24.1563 217.934 24.7032C218.955 25.2409 219.744 26.0248 220.3 27.0547C220.855 28.0847 221.134 29.3426 221.134 30.8282V32.8516H211.276C211.322 34.0275 211.672 34.9525 212.329 35.627C212.994 36.2924 213.915 36.6251 215.091 36.6251C216.066 36.6251 216.959 36.5248 217.77 36.3242C218.582 36.1238 219.415 35.823 220.272 35.422V38.6485C219.516 39.0222 218.723 39.2957 217.893 39.4688C217.072 39.642 216.074 39.7285 214.898 39.7285C213.367 39.7285 212.009 39.446 210.824 38.8809C209.648 38.3158 208.723 37.4545 208.05 36.297C207.384 35.1393 207.051 33.681 207.051 31.922C207.051 30.1355 207.352 28.6498 207.953 27.4649C208.564 26.271 209.412 25.3776 210.496 24.7852C211.582 24.1837 212.843 23.8828 214.284 23.8828ZM214.31 26.8497C213.5 26.8497 212.825 27.1094 212.288 27.629C211.759 28.1485 211.453 28.9643 211.372 30.0763H217.224C217.214 29.4565 217.1 28.905 216.881 28.422C216.671 27.9389 216.353 27.556 215.924 27.2735C215.506 26.9909 214.967 26.8497 214.31 26.8497Z" fill="#1A0D4D"/>
<path d="M231.937 23.8828C232.147 23.8828 232.388 23.8966 232.662 23.9239C232.944 23.9421 233.172 23.9695 233.345 24.0059L233.031 27.9161C232.894 27.8705 232.698 27.8386 232.443 27.8204C232.197 27.793 231.983 27.7794 231.801 27.7794C231.263 27.7794 230.738 27.8477 230.228 27.9844C229.727 28.1211 229.276 28.3445 228.875 28.6544C228.474 28.9551 228.155 29.3562 227.918 29.8575C227.69 30.3497 227.576 30.9557 227.576 31.6758V39.4551H223.406V24.1699H226.564L227.18 26.7403H227.385C227.685 26.2208 228.059 25.7468 228.506 25.3184C228.962 24.8809 229.476 24.5346 230.051 24.2794C230.634 24.015 231.263 23.8828 231.937 23.8828Z" fill="#1A0D4D"/>
</g>
<defs>
<clipPath id="clip0_2932_23618">
<rect width="234.182" height="56" fill="white" transform="translate(0.363281)"/>
</clipPath>
</defs>
</svg>
