<svg width="316" height="56" viewBox="0 0 316 56" fill="none" xmlns="http://www.w3.org/2000/svg">
<path d="M31.4609 0.166016V28.9897C31.4609 30.3074 30.4729 31.2954 29.1552 31.2954H25.6963C25.5317 31.2954 25.3672 31.46 25.3672 31.6245V55.8361C26.1906 55.8361 27.0141 56.0007 28.0027 56.0007C43.4851 56.0007 56.0029 43.4829 56.0029 28.0004C56.0017 13.6718 45.2959 1.81287 31.4609 0.166016ZM30.8021 43.3189C28.8255 43.3189 27.3432 41.6721 27.3432 39.8601C27.3432 37.8835 28.99 36.4012 30.8021 36.4012C32.7787 36.4012 34.261 38.048 34.261 39.8601C34.4255 41.6715 32.778 43.3189 30.8021 43.3189ZM39.0369 43.3189C37.0603 43.3189 35.578 41.6721 35.578 39.8601C35.578 37.8835 37.2249 36.4012 39.0369 36.4012C41.0135 36.4012 42.4958 38.048 42.4958 39.8601C42.4958 41.6715 41.0135 43.3189 39.0369 43.3189ZM47.2725 43.3189C45.2959 43.3189 43.8136 41.6721 43.8136 39.8601C43.8136 37.8835 45.4604 36.4012 47.2725 36.4012C49.2491 36.4012 50.7313 38.048 50.7313 39.8601C50.7313 41.6715 49.2491 43.3189 47.2725 43.3189Z" fill="#1A0D4D"/>
<path d="M28.0002 0C12.5178 0 0 12.5178 0 28.0003C0 41.5061 9.38806 52.7062 22.0705 55.3416V30.1414C22.0705 28.9882 23.0584 28.0003 24.2116 27.8357H27.6705C27.8351 27.8357 27.9996 27.6711 27.9996 27.5066V0H28.0002ZM22.5648 23.0591C20.5882 23.0591 19.1059 21.4122 19.1059 19.6002C19.1059 17.6236 20.7527 16.1413 22.5648 16.1413C24.5414 16.1413 26.0236 17.7881 26.0236 19.6002C26.0236 21.4122 24.5414 23.0591 22.5648 23.0591ZM294.165 25.8591V15.3179H287.082V43.3181H294.165V31.9534H308.329V43.3181H315.247V15.3179H308.329V25.8591H294.165ZM191.718 18.447C190.564 15.9767 188.259 14.659 185.953 14.659C183.647 14.659 181.341 15.9767 180.188 18.447L168.824 43.3175H176.235L178.705 37.3883H193.2L195.67 43.3175H203.082L191.718 18.447ZM181.012 31.7883L185.294 21.5768C185.459 21.2477 185.623 21.2477 185.788 21.2477C185.953 21.2477 186.283 21.2477 186.283 21.5768L190.565 31.7883H181.012ZM108.376 10.2121C105.082 10.2121 102.941 12.0242 101.458 15.4824L92.3996 36.5649L83.3406 15.4824C81.8583 12.0235 79.7172 10.2121 76.4228 10.2121C73.2937 10.2121 70.1639 12.3533 70.1639 17.1299V43.1535H77.0817V17.9533L86.3052 38.8712C87.4584 41.8358 89.5995 43.6479 92.3996 43.6479C95.3641 43.6479 97.3407 41.8358 98.4939 38.8712L107.717 17.9533V43.3181H114.635V17.2945C114.635 12.5178 111.506 10.2121 108.376 10.2121ZM126.988 37.3883C126.659 37.3883 126.33 37.0592 126.33 36.7294V31.7883H143.789V26.0236H126.33V21.7413C126.33 21.4122 126.659 21.0825 126.988 21.0825H144.282V15.1533H123.53C121.059 15.1533 119.412 17.1299 119.412 19.2711V38.8712C119.412 41.0124 121.224 42.989 123.53 42.989H144.282V37.0598H126.988V37.3883ZM155.977 43.3181V21.9065C155.977 21.5774 156.306 21.2477 156.636 21.2477H173.93V15.3185H153.177C150.707 15.3185 149.06 17.2951 149.06 19.4362V43.1542H155.977L155.977 43.3181ZM282.471 29.318C282.471 19.6002 278.189 14.9887 267.647 14.9887H265.177C254.636 14.9887 250.353 19.6008 250.353 29.318C250.353 38.8712 254.636 43.6472 265.177 43.6472H267.483C278.189 43.4827 282.471 38.8706 282.471 29.318ZM267.482 37.7181H265.176C259.412 37.7181 257.106 35.0826 257.106 29.318C257.106 23.7179 259.083 20.9179 265.176 20.9179H267.482C273.411 20.9179 275.552 23.7179 275.552 29.318C275.553 35.0826 273.412 37.7181 267.482 37.7181ZM230.918 10.871H217.082C206.706 10.871 202.589 16.1413 202.589 25.2002C202.589 26.6825 202.753 28.0003 202.918 29.1534C204.071 35.5769 207.859 39.5301 217.577 39.5301H220.706V43.1535H227.624V39.5301H230.588C240.306 39.5301 244.094 35.5769 245.247 29.1534C245.412 28.0003 245.576 26.6825 245.576 25.2002C245.412 16.1413 241.129 10.871 230.918 10.871ZM220.377 33.7649H217.247C212.471 33.7649 210.824 31.9528 209.836 29.1528C209.507 28.1648 209.507 26.6819 209.507 25.1996C209.507 19.2704 212.307 16.7995 216.26 16.7995H220.542V33.7642H220.377V33.7649ZM238.165 29.318C237.177 32.118 235.365 33.93 230.753 33.93H227.624V16.8008H231.906C235.86 16.8008 238.66 19.2717 238.66 25.2009C238.495 26.8471 238.494 28.1648 238.165 29.318Z" fill="#1A0D4D"/>
</svg>
