<svg width="316" height="56" viewBox="0 0 316 56" fill="none" xmlns="http://www.w3.org/2000/svg">
<path d="M28.0627 0C12.5803 0 0.0625 12.5178 0.0625 28.0003C0.0625 41.5061 9.45056 52.7062 22.133 55.3416V30.1414C22.133 28.9882 23.1209 28.0003 24.2741 27.8357H27.733C27.8976 27.8357 28.0621 27.6711 28.0621 27.5066V0H28.0627ZM22.6273 23.0591C20.6507 23.0591 19.1684 21.4122 19.1684 19.6002C19.1684 17.6236 20.8152 16.1413 22.6273 16.1413C24.6039 16.1413 26.0861 17.7881 26.0861 19.6002C26.0861 21.4122 24.6039 23.0591 22.6273 23.0591ZM294.227 25.8591V15.3179H287.145V43.3181H294.227V31.9534H308.392V43.3181H315.31V15.3179H308.392V25.8591H294.227ZM191.78 18.447C190.627 15.9767 188.321 14.659 186.015 14.659C183.71 14.659 181.403 15.9767 180.251 18.447L168.886 43.3175H176.298L178.768 37.3883H193.262L195.733 43.3175H203.145L191.78 18.447ZM181.074 31.7883L185.357 21.5768C185.521 21.2477 185.686 21.2477 185.851 21.2477C186.015 21.2477 186.345 21.2477 186.345 21.5768L190.627 31.7883H181.074ZM108.439 10.2121C105.144 10.2121 103.003 12.0242 101.521 15.4824L92.4621 36.5649L83.4031 15.4824C81.9208 12.0235 79.7797 10.2121 76.4853 10.2121C73.3562 10.2121 70.2264 12.3533 70.2264 17.1299V43.1535H77.1442V17.9533L86.3677 38.8712C87.5209 41.8358 89.662 43.6479 92.4621 43.6479C95.4266 43.6479 97.4032 41.8358 98.5564 38.8712L107.78 17.9533V43.3181H114.698V17.2945C114.698 12.5178 111.569 10.2121 108.439 10.2121ZM127.051 37.3883C126.722 37.3883 126.392 37.0592 126.392 36.7294V31.7883H143.851V26.0236H126.392V21.7413C126.392 21.4122 126.721 21.0825 127.051 21.0825H144.345V15.1533H123.592C121.122 15.1533 119.474 17.1299 119.474 19.2711V38.8712C119.474 41.0124 121.286 42.989 123.592 42.989H144.345V37.0598H127.051V37.3883ZM156.039 43.3181V21.9065C156.039 21.5774 156.368 21.2477 156.698 21.2477H173.992V15.3185H153.24C150.77 15.3185 149.122 17.2951 149.122 19.4362V43.1542H156.04L156.039 43.3181ZM282.533 29.318C282.533 19.6002 278.251 14.9887 267.71 14.9887H265.24C254.698 14.9887 250.416 19.6008 250.416 29.318C250.416 38.8712 254.698 43.6472 265.24 43.6472H267.545C278.251 43.4827 282.533 38.8706 282.533 29.318ZM267.545 37.7181H265.239C259.474 37.7181 257.169 35.0826 257.169 29.318C257.169 23.7179 259.145 20.9179 265.239 20.9179H267.545C273.474 20.9179 275.615 23.7179 275.615 29.318C275.616 35.0826 273.474 37.7181 267.545 37.7181ZM230.98 10.871H217.145C206.768 10.871 202.651 16.1413 202.651 25.2002C202.651 26.6825 202.816 28.0003 202.98 29.1534C204.133 35.5769 207.921 39.5301 217.639 39.5301H220.768V43.1535H227.686V39.5301H230.651C240.368 39.5301 244.156 35.5769 245.31 29.1534C245.474 28.0003 245.639 26.6825 245.639 25.2002C245.474 16.1413 241.192 10.871 230.98 10.871ZM220.439 33.7649H217.31C212.533 33.7649 210.887 31.9528 209.899 29.1528C209.569 28.1648 209.569 26.6819 209.569 25.1996C209.569 19.2704 212.369 16.7995 216.323 16.7995H220.605V33.7642H220.439V33.7649ZM238.227 29.318C237.239 32.118 235.427 33.93 230.816 33.93H227.687V16.8008H231.969C235.922 16.8008 238.722 19.2717 238.722 25.2009C238.557 26.8471 238.557 28.1648 238.227 29.318Z" fill="#1A0D4D"/>
</svg>
