<svg width="153" height="56" viewBox="0 0 153 56" fill="none" xmlns="http://www.w3.org/2000/svg">
<g clip-path="url(#clip0_2932_23568)">
<path d="M56 0H0V56H56V0Z" fill="#1A0D4D"/>
<path d="M17.035 4.30664L12.9192 12.8542L8.80356 4.30664H4.3125V17.2266H7.4602V7.98114L11.4837 15.7911H14.3549L18.3783 7.98114V17.2266H21.5327V4.30664H17.035Z" fill="white"/>
<path d="M37.3125 4.30664V6.88143H42.9362L42.9231 17.2266H46.0708L46.0839 6.88143H51.7142V4.30664H37.3125Z" fill="white"/>
<path d="M48.5588 47.3801C48.4797 47.8938 48.2756 48.3218 47.9397 48.6379C47.6237 48.9409 47.2022 49.1516 46.6754 49.2767C46.1552 49.3952 45.3978 49.4676 44.5879 49.4676C43.7779 49.4676 43.014 49.3623 42.3885 49.145C41.7827 48.9409 41.3019 48.5786 40.9661 48.0716C40.6237 47.5645 40.4524 46.827 40.4524 45.8919V44.5683C40.4524 43.6266 40.6237 42.8956 40.9661 42.3886C41.3019 41.8815 41.7827 41.5259 42.3885 41.3152C43.014 41.1045 43.7516 40.9925 44.5879 40.9925C45.4242 40.9925 46.1552 41.065 46.6754 41.1836C47.2022 41.3021 47.6237 41.5193 47.9397 41.8222C48.269 42.145 48.4797 42.5664 48.5588 43.0801H51.713C51.6275 42.0133 51.2652 41.1045 50.6331 40.3801C50.0536 39.7151 49.2567 39.2278 48.2624 38.9314C47.2945 38.6417 46.03 38.4902 44.5945 38.4902C43.0866 38.4902 41.776 38.7075 40.6961 39.1355C39.603 39.5701 38.7601 40.2946 38.174 41.289C37.6142 42.2438 37.3245 43.5147 37.3047 45.0753V45.2203L37.476 45.2268L37.3047 45.2334V45.3782C37.3245 46.939 37.6142 48.2099 38.174 49.1647C38.7534 50.1591 39.603 50.8834 40.6961 51.3181C41.7694 51.7461 43.0799 51.9635 44.5945 51.9635C46.1025 51.9635 47.3009 51.812 48.2624 51.5222C49.2567 51.2259 50.0536 50.7386 50.6331 50.0735C51.2652 49.3491 51.6275 48.4404 51.713 47.3736L48.5588 47.3801Z" fill="white"/>
<path d="M84.1323 36.9084L78.6341 20.6277V36.9084H73.4414V15.832H82.3912L87.6145 31.5629L92.8683 15.832H101.513V36.9084H95.8312V20.5666L90.333 36.9084H84.1323Z" fill="#1A0D4D"/>
<path d="M112.741 20.4444H104.219V15.832H126.975V20.4444H118.422V36.9084H112.741V20.4444Z" fill="#1A0D4D"/>
<path d="M127.891 26.4007C127.891 18.2145 132.442 15.4043 140.139 15.4043C147.195 15.4043 151.441 17.4203 152.022 23.1323H146.279C145.79 20.4443 143.713 19.8028 140.139 19.8028C136.321 19.8028 133.633 20.7803 133.633 25.1788V27.5919C133.633 31.8683 136.23 32.9374 140.17 32.9374C143.56 32.9374 145.699 32.3265 146.31 29.8218H152.052C151.38 35.2588 147.165 37.3359 140.139 37.3359C132.442 37.3359 127.891 34.6785 127.891 26.4007Z" fill="#1A0D4D"/>
</g>
<defs>
<clipPath id="clip0_2932_23568">
<rect width="152.727" height="56" fill="white"/>
</clipPath>
</defs>
</svg>
