<svg width="166" height="23" viewBox="0 0 166 23" fill="none" xmlns="http://www.w3.org/2000/svg">
<path d="M122.712 13.9692L129.691 22.029H125.158L119.76 15.8165V22.029H116.002V6.99973H119.76V12.4543L125.068 6.99973H129.511L122.711 13.9692H122.712ZM10.274 11.0597C13.0168 11.0597 14.2696 9.72647 14.2696 7.72659C14.2696 5.7267 13.0168 4.39344 10.274 4.39344H4.84657V11.0597H10.274ZM10.3935 0.818359C15.1056 0.818359 18.2071 3.27201 18.2071 7.72659C18.2071 12.1812 15.1056 14.6359 10.3935 14.6359H4.84657V22.029H0.910156V0.818359H10.3935ZM27.0916 18.8776C29.2979 18.8776 31.3561 17.2723 31.3561 14.5144C31.3561 11.7565 29.2979 10.1512 27.0916 10.1512C24.8853 10.1512 22.8272 11.7575 22.8272 14.5144C22.8272 17.2712 24.8853 18.8776 27.0916 18.8776ZM27.0916 6.57504C31.1476 6.57504 35.1729 9.24156 35.1729 14.5144C35.1729 19.7872 31.1476 22.4526 27.0916 22.4526C23.0356 22.4526 19.0103 19.7872 19.0103 14.5144C19.0103 9.24156 23.0356 6.57504 27.0916 6.57504ZM44.7666 18.8776C42.5 18.8776 40.8302 17.211 40.8302 14.5144C40.8302 11.8177 42.5593 10.1512 44.7666 10.1512C46.1084 10.1512 47.2714 10.7877 48.1962 12.2113L51.4173 10.3329C50.3432 7.99968 48.0174 6.57608 44.7973 6.57608C40.5921 6.57608 37.0144 9.72751 37.0144 14.5144C37.0144 19.3012 40.4143 22.4537 44.7973 22.4537C47.9581 22.4537 50.0755 20.9989 51.5665 18.4238L48.465 16.697C47.5698 17.97 46.6163 18.8786 44.7677 18.8786M84.7756 15.5153C84.5968 17.8184 84.1482 18.3335 83.3736 18.3335C82.8442 18.3335 82.5949 18.2743 82.2321 18.1777L82.2505 22.0664C82.2505 22.0664 82.7175 22.2117 83.582 22.2117C86.7724 22.2117 87.966 20.1205 88.2645 15.6669L88.6221 10.4243H92.8559V21.9999H96.6135V7.00077H85.401L84.7746 15.5153H84.7756ZM77.845 12.5155C77.4873 10.6371 76.0863 9.48557 73.9985 9.48557C72.0303 9.48557 70.5393 10.8188 70.0018 12.5155H77.845ZM74.1171 6.57712C78.3519 6.57712 81.3338 9.69844 81.3338 14.0918V15.425H69.9415C70.1796 17.7281 71.7902 19.1818 73.9975 19.1818C75.9953 19.1818 76.8302 18.3034 77.7551 17.1217L80.737 18.6367C79.246 21.2118 77.1879 22.4547 73.9372 22.4547C69.8219 22.4547 66.3331 19.2732 66.3331 14.5154C66.3331 9.75762 69.823 6.57712 74.116 6.57712M110.227 12.5155C109.87 10.6371 108.468 9.48557 106.381 9.48557C104.413 9.48557 102.922 10.8188 102.384 12.5155H110.227ZM106.499 6.57712C110.734 6.57712 113.716 9.69844 113.716 14.0918V15.425H102.324C102.562 17.7281 104.173 19.1818 106.38 19.1818C108.378 19.1818 109.213 18.3034 110.137 17.1217L113.119 18.6367C111.628 21.2118 109.57 22.4547 106.32 22.4547C102.204 22.4547 98.7156 19.2732 98.7156 14.5154C98.7156 9.75762 102.204 6.57712 106.498 6.57712M52.7335 10.3339H57.1471V22.03H60.9047V10.3339H65.3184V7.00077H52.7335V10.3339ZM137.15 18.8786C139.356 18.8786 141.414 17.2733 141.414 14.5154C141.414 11.7575 139.356 10.1522 137.15 10.1522C134.943 10.1522 132.885 11.7585 132.885 14.5154C132.885 17.2723 134.943 18.8786 137.15 18.8786ZM137.15 6.57608C141.206 6.57608 145.231 9.2426 145.231 14.5154C145.231 19.7882 141.206 22.4547 137.15 22.4547C133.094 22.4547 129.068 19.7882 129.068 14.5154C129.068 9.2426 133.094 6.57608 137.15 6.57608ZM160.183 6.99766L156.104 17.5235L152.026 6.99766H147.114V21.9999H150.686V12.502L154.645 21.9999H157.561L161.52 12.502V21.9999H165.092V6.99766H160.181H160.183Z" fill="#1A0D4D"/>
</svg>
