<svg width="205" height="56" viewBox="0 0 205 56" fill="none" xmlns="http://www.w3.org/2000/svg">
<g clip-path="url(#clip0_2932_23632)">
<path d="M0 28C0 43.464 12.536 56 28 56C43.464 56 56 43.464 56 28C56 12.536 43.464 0 28 0C12.536 0 0 12.536 0 28Z" fill="#1A0D4D"/>
<path d="M32.4596 23.2562L29.1862 26.5296C28.7592 26.9566 28.0572 26.9566 27.6302 26.5296L20.5234 19.4134C20.0964 18.9864 20.0964 18.2938 20.5234 17.8574L23.7968 14.5838C24.2238 14.157 24.926 14.157 25.353 14.5838L32.4692 21.7002C32.8962 22.127 32.8962 22.8292 32.4596 23.2562ZM33.6932 24.4897L20.6752 37.5077C20.2482 37.9346 20.2482 38.6367 20.6752 39.0637L23.8822 42.2707C24.3092 42.6977 25.0114 42.6977 25.4384 42.2707L38.4564 29.2528C38.8832 28.8258 38.8832 28.1237 38.4564 27.6967L35.2492 24.4897C34.8223 24.0627 34.1202 24.0532 33.6932 24.4897Z" fill="white"/>
<path d="M109.34 19.5605H115.27L120.052 32.2188L124.794 19.5605H130.515V36.4382H126.714V23.5318L121.763 36.4382H117.857L112.906 23.6102V36.4382H109.353V19.5605H109.34Z" fill="#1A0D4D"/>
<path d="M155.334 19.5605H168.41V36.4382H164.36V23.1137H159.032C158.992 25.4782 158.927 28.6656 158.861 30.4422C158.717 34.8707 157.424 36.4382 153.636 36.4382H151.82V32.885H152.826C154.538 32.885 155.086 32.1143 155.203 29.7107C155.295 27.1242 155.334 22.0034 155.334 19.5605Z" fill="#1A0D4D"/>
<path d="M189.09 19.5605H204.466V23.1137H198.783V36.4382H194.773V23.1137H189.09V19.5605Z" fill="#1A0D4D"/>
<path d="M98.8632 19.209H97.4132C93.9384 19.209 91.2995 21.3251 90.6986 24.4734L94.3955 25.0612C94.905 23.559 96.0676 22.5401 97.5306 22.4748C97.805 22.4617 98.0924 22.4617 98.3667 22.4748C100.548 22.5531 101.541 23.5982 101.541 26.1847C97.4001 26.1847 94.5784 25.9888 92.4884 27.3604C90.79 28.4839 90.0586 29.7248 90.0586 31.6843C90.0586 34.5321 92.2663 36.779 95.8324 36.779H96.3289C98.8501 36.779 100.888 35.7992 101.711 34.6104V36.4262H105.434V26.2631C105.447 22.3441 103.344 19.209 98.8632 19.209ZM96.5901 33.4869C95.0095 33.4479 94.095 32.5203 94.095 31.3708C94.095 30.4171 94.5261 29.9339 95.1009 29.6073C95.7019 29.2545 96.4856 29.137 97.6874 29.0978C98.8501 29.0586 99.7906 29.0063 101.606 29.0063C101.606 31.8803 99.7906 33.3303 97.5438 33.4869C97.2303 33.5001 96.9167 33.5001 96.5901 33.4869Z" fill="#1A0D4D"/>
<path d="M188.147 29.1354V27.5548C188.147 22.1074 184.724 19.2988 180.309 19.2988H179.446C174.691 19.2988 171.661 22.5384 171.504 27.1106C171.478 27.7768 171.478 28.0642 171.504 28.9786C171.609 33.5246 174.808 36.5944 179.067 36.712C179.851 36.7381 179.747 36.7381 180.478 36.712C184.188 36.6075 186.997 34.4652 187.834 31.6696L184.241 31.0425C183.365 32.793 181.694 33.4723 180.347 33.5376C180.047 33.5507 179.747 33.5507 179.434 33.5376C177.33 33.4462 175.463 31.8133 175.463 29.4227V29.1614L188.147 29.1354ZM179.381 22.4731C179.707 22.447 180.047 22.447 180.387 22.4731C182.151 22.5645 184.005 23.7142 184.188 25.9871H175.501C175.697 23.9492 177.33 22.5907 179.381 22.4731Z" fill="#1A0D4D"/>
<path d="M150.712 26.5097C150.62 22.4208 147.328 19.2988 142.977 19.2988H141.398C137.048 19.2988 133.755 22.4339 133.664 26.5358C133.638 27.6722 133.638 28.3385 133.664 29.475C133.755 33.5768 137.048 36.712 141.398 36.712H142.977C147.328 36.712 150.62 33.5899 150.712 29.475C150.725 28.3254 150.725 27.6461 150.712 26.5097ZM146.727 29.253C146.675 31.6435 144.95 33.2633 142.612 33.3809C142.325 33.407 142.037 33.407 141.751 33.3809C139.399 33.2633 137.688 31.6435 137.636 29.253C137.609 28.2601 137.609 27.6984 137.636 26.7056C137.688 24.3411 139.399 22.7213 141.751 22.6037C142.037 22.5776 142.325 22.5776 142.612 22.6037C144.95 22.7213 146.687 24.3411 146.727 26.7317C146.754 27.7245 146.754 28.2732 146.727 29.253Z" fill="#1A0D4D"/>
<path d="M83.7882 30.4809C83.3179 32.0485 82.0639 33.1196 80.3657 33.3548C79.9084 33.4201 79.4512 33.4201 79.007 33.3548C76.9038 33.0673 75.4277 31.4867 75.3756 29.2659C75.3493 28.2732 75.3493 27.7114 75.3756 26.7187C75.4277 24.4848 76.9822 22.852 79.1246 22.6168C79.4773 22.5776 79.817 22.5776 80.1697 22.6168C81.9724 22.8128 83.3179 23.8971 83.8144 25.53L87.7332 24.7722C86.8842 21.5718 83.9842 19.2988 80.2742 19.2988H79.1507C74.7877 19.2988 71.4958 22.4208 71.4043 26.5227C71.3913 27.6592 71.3913 28.3254 71.4043 29.4619C71.4958 33.5638 74.7877 36.6989 79.1377 36.6989H80.2612C84.0494 36.6989 86.9756 34.3344 87.7463 31.0164L83.7882 30.4809Z" fill="#1A0D4D"/>
</g>
<defs>
<clipPath id="clip0_2932_23632">
<rect width="204.909" height="56" fill="white"/>
</clipPath>
</defs>
</svg>
