<svg width="282" height="56" viewBox="0 0 282 56" fill="none" xmlns="http://www.w3.org/2000/svg">
<g clip-path="url(#clip0_2932_23663)">
<path d="M80.2054 14.1798H73.707V10.1738H91.4346V14.1798H84.937V25.1889H80.2054V14.1798Z" fill="#1A0D4D"/>
<path d="M109.607 10.1738V25.1889H105.033V16.4506L97.1469 25.1889H93.1094V10.1738H97.684V18.9114L105.57 10.1738H109.607Z" fill="#1A0D4D"/>
<path d="M117.489 25.1889H112.914V10.1738H117.489V15.6626H124.838V10.1738H129.412V25.1889H124.838V19.6055H117.489V25.1889Z" fill="#1A0D4D"/>
<path d="M137.293 21.5576H141.205C141.993 21.5576 142.498 21.5576 143.002 21.3368C143.728 21.0213 144.17 20.3588 144.17 19.57C144.17 18.8136 143.728 18.1827 142.971 17.9303C142.435 17.741 141.836 17.741 141.205 17.741H137.293V21.5576ZM132.719 25.185V10.1699H137.293V14.2082H141.993C143.128 14.2082 144.327 14.2398 145.337 14.6176C147.451 15.4063 148.776 17.1415 148.776 19.6331C148.776 22.2517 147.23 24.1754 144.864 24.838C143.981 25.0904 143.034 25.185 141.993 25.185H132.719Z" fill="#1A0D4D"/>
<path d="M155.45 25.1889H150.875V10.1738H155.45V15.8204H156.712L162.232 10.1738H167.972L160.654 17.3663L168.256 25.1889H162.169L156.712 19.5108H155.45V25.1889Z" fill="#1A0D4D"/>
<path d="M182.801 17.7109C182.801 15.2509 180.813 13.4526 177.785 13.4526C174.726 13.4526 172.77 15.2509 172.77 17.7109C172.77 20.1718 174.726 22.0008 177.785 22.0008C180.813 22.0008 182.801 20.1718 182.801 17.7109ZM187.596 17.7109C187.596 22.1901 183.904 25.6606 177.785 25.6606C171.634 25.6606 167.943 22.1901 167.943 17.7109C167.943 13.2317 171.634 9.76208 177.785 9.76208C183.904 9.76208 187.596 13.2317 187.596 17.7109ZM207.219 17.6793C207.219 15.6601 205.863 14.2097 202.676 14.0835V21.1174C205.863 20.9912 207.219 19.6985 207.219 17.6793ZM198.102 14.0835C194.948 14.2097 193.561 15.6601 193.561 17.6793C193.561 19.6985 194.948 20.9912 198.102 21.1174V14.0835ZM211.888 17.6793C211.888 21.9692 208.45 24.2092 202.676 24.3354V25.849H198.102V24.3354C192.362 24.2092 188.924 21.9692 188.924 17.6793C188.924 13.3894 192.362 10.9601 198.102 10.8347V9.32031H202.676V10.8347C208.45 10.9601 211.888 13.3894 211.888 17.6793ZM231.512 17.6793C231.512 15.6601 230.155 14.2097 226.969 14.0835V21.1174C230.155 20.9912 231.512 19.6985 231.512 17.6793ZM222.395 14.0835C219.241 14.2097 217.854 15.6601 217.854 17.6793C217.854 19.6985 219.241 20.9912 222.395 21.1174V14.0835ZM236.18 17.6793C236.18 21.9692 232.742 24.2092 226.969 24.3354V25.849H222.395V24.3354C216.655 24.2092 213.217 21.9692 213.217 17.6793C213.217 13.3894 216.655 10.9601 222.395 10.8347V9.32031H226.969V10.8347C232.742 10.9601 236.18 13.3894 236.18 17.6793ZM83.2688 37.8077C80.3347 37.8077 78.5372 39.7323 78.5372 42.1923C78.5372 44.6532 80.3347 46.6084 83.2688 46.6084C85.6027 46.6084 87.2748 45.4419 87.748 43.7382H92.5743C91.8802 47.4918 88.6945 50.1104 83.3942 50.1419C77.4014 50.1419 73.7109 46.6715 73.7109 42.1923C73.7109 37.65 77.4014 34.1804 83.3942 34.2435C88.6314 34.2435 91.9433 36.8928 92.6058 40.6156H87.7165C87.2432 38.9435 85.6027 37.8077 83.2688 37.8077Z" fill="#1A0D4D"/>
<path d="M100.002 38.6583H93.5039V34.6523H111.231V38.6583H104.734V49.6674H100.002V38.6583Z" fill="#1A0D4D"/>
<path d="M121.648 42.0967C122.5 42.0967 122.942 42.0336 123.32 41.9074C124.109 41.655 124.519 40.9302 124.519 40.173C124.519 39.4789 124.172 38.8164 123.446 38.5324C123.036 38.3747 122.531 38.28 121.648 38.28H117.485V42.0967H121.648ZM125.685 35.1259C127.736 35.8515 129.25 37.6806 129.25 40.2045C129.25 42.7277 127.704 44.5891 125.623 45.2516C124.55 45.5979 123.446 45.6294 122.31 45.6294H117.485V49.6678H112.91V34.6527H122.31C123.478 34.6527 124.55 34.7158 125.685 35.1259ZM140.568 44.1787L138.391 38.122H138.045L135.868 44.1787H140.568ZM133.88 49.6674H128.708L134.859 34.6523H141.546L147.697 49.6674H142.556L141.672 47.4905H134.733L133.88 49.6674Z" fill="#1A0D4D"/>
<path d="M154.374 34.6523L157.433 39.1631L160.777 34.6523H165.825L159.926 42.0018L166.045 49.6674H160.273L157.086 45.219L153.617 49.6674H148.633L154.437 42.2857L148.759 34.6523H154.374Z" fill="#1A0D4D"/>
<path d="M180.881 42.191C180.881 39.731 178.893 37.9327 175.865 37.9327C172.806 37.9327 170.85 39.731 170.85 42.191C170.85 44.6519 172.806 46.4809 175.865 46.4809C178.893 46.4809 180.881 44.6519 180.881 42.191ZM185.675 42.191C185.675 46.6702 181.984 50.1407 175.865 50.1407C169.714 50.1407 166.023 46.6702 166.023 42.191C166.023 37.7118 169.714 34.2422 175.865 34.2422C181.984 34.2422 185.675 37.7118 185.675 42.191ZM199.551 46.0711C200.119 45.8503 200.371 45.4086 200.371 44.8722C200.371 44.3675 200.119 43.9573 199.614 43.7688C199.362 43.6734 199.014 43.6418 198.51 43.6418H192.391V46.1973H198.51C198.951 46.1973 199.299 46.1658 199.551 46.0711ZM199.362 40.4561C199.929 40.2037 200.182 39.7621 200.182 39.2573C200.182 38.7525 199.929 38.3116 199.394 38.1215C199.141 38.0276 198.794 37.9961 198.352 37.9961H192.391V40.5823H198.352C198.794 40.5823 199.141 40.5508 199.362 40.4561ZM202.263 41.8759C204.156 42.4122 205.008 43.8942 205.008 45.377C205.008 47.1438 203.968 48.6258 202.295 49.2568C201.475 49.5723 200.497 49.667 199.173 49.667H188.037V34.6519H198.951C200.34 34.6519 201.318 34.7465 202.075 34.9989C203.809 35.5668 204.693 36.8919 204.693 38.5001C204.693 40.1406 203.62 41.2764 202.263 41.8759ZM217.465 44.1782L215.288 38.1216H214.942L212.765 44.1782H217.465ZM210.778 49.667H205.605L211.756 34.6519H218.443L224.595 49.667H219.453L218.569 47.4901H211.63L210.778 49.667Z" fill="#1A0D4D"/>
<path d="M230.704 49.6674H226.129V34.6523H230.704V40.1411H238.053V34.6523H242.627V49.6674H238.053V44.084H230.704V49.6674Z" fill="#1A0D4D"/>
<path d="M262.435 34.6523V49.6674H257.862V40.9291L249.975 49.6674H245.938V34.6523H250.512V43.3899L258.398 34.6523H262.435Z" fill="#1A0D4D"/>
<path d="M270.313 38.0904V40.5828H280.376V43.5792H270.313V46.2286H281.007V49.6674H265.738V34.6523H281.007V38.0904H270.313Z" fill="#1A0D4D"/>
<path d="M32.7861 47.7042C31.7584 46.682 31.0265 46.57 28.2572 46.57C24.9493 46.57 22.7006 44.6305 22.7006 41.5292V35.3227H42.8693V41.5292C42.8693 44.6305 40.6253 46.57 37.3111 46.57C34.5411 46.57 33.8091 46.682 32.7861 47.7042ZM22.7006 34.7658V25.2979C22.7006 24.4153 22.4467 23.5351 22.1406 22.7227H29.4869C30.162 23.6486 31.3846 24.2694 32.7861 24.2694C34.183 24.2694 35.4063 23.6486 36.0823 22.7227H43.4293C43.1185 23.5351 42.8669 24.4153 42.8669 25.2979V34.7658H22.7006Z" fill="#1A0D4D"/>
<path d="M23.871 48.8732V50.7646L22.2304 51.4248C23.6194 52.0557 25.3396 52.6828 27.3651 53.1458L28.2958 50.1139C26.309 49.703 24.9255 49.2794 23.871 48.8732ZM32.7882 51.4346C30.8479 51.4346 29.216 51.2343 28.5637 51.0821L27.5794 54.2638C29.1261 54.6432 30.9346 54.92 32.7882 54.92C34.6362 54.92 36.4455 54.6432 37.9985 54.2638L37.011 51.0821C36.3548 51.2343 34.73 51.4346 32.7882 51.4346ZM41.703 48.8732C40.6484 49.2794 39.265 49.703 37.279 50.1139L38.212 53.1458C40.2399 52.6828 41.9569 52.0557 43.342 51.4248L41.703 50.7646V48.8732ZM17.3617 18.6295C15.1106 21.0359 16.0855 22.4746 16.5398 22.9186C15.7022 22.7388 14.452 21.6709 14.736 20.6368C14.4694 20.9571 14.1973 21.3033 13.9157 21.6614C13.3565 22.4052 12.8564 23.1363 12.4132 23.8446C11.7309 25.8732 12.9826 27.9689 15.1106 28.898C12.7444 28.5502 11.6828 26.4451 11.6899 25.105C10.5588 27.2401 10.0201 29.1891 10.069 30.8265C10.0903 31.4338 10.1432 32.004 10.2228 32.5388C10.7663 33.5705 11.6394 33.9491 13.1932 34.1368C11.779 34.2259 11.0329 34.1604 10.4161 33.5168C11.3799 37.6529 15.8781 41.2354 17.7111 44.3035C15.8781 41.9184 12.0811 38.3699 10.7505 35.801C10.648 36.7293 10.8956 39.1066 12.0519 40.5697C10.3506 38.8976 10.2181 36.3626 10.3285 34.879C9.8971 33.8118 9.6242 32.6185 9.58792 31.2618C9.55321 30.0133 9.64155 28.9327 9.83163 27.9578C8.75659 29.4856 7.20516 30.074 6.44087 32.3992C6.58916 29.3996 8.82995 29.3531 10.5036 25.7147C11.1536 24.1215 12.0953 22.7483 13.1404 21.1874C11.8137 21.622 10.8215 21.9311 9.2882 23.6127C10.3774 21.0359 16.6739 18.1397 19.5575 15.3358C18.693 15.5187 15.1556 15.6087 13.6885 14.6283C16.3489 15.3492 22.2676 14.5257 24.5028 12.9972C22.9585 15.2167 19.6009 15.3421 15.5113 19.7566C16.0382 19.3473 16.7323 18.9269 17.3617 18.6295ZM20.4346 18.374C23.005 16.9866 29.2873 13.9318 25.0289 10.6373C24.4476 10.1909 23.8103 9.78861 23.2724 9.28697C22.6067 9.80044 23.5224 11.0719 23.7504 11.5372C23.7504 11.5372 22.333 11.6808 21.9923 11.6808C19.8028 11.6713 17.5052 10.3746 18.6678 7.88697C17.7963 8.06759 17.689 8.90444 17.4224 9.62376C16.8632 9.24517 15.893 8.43278 15.1437 8.54793C15.7534 10.4937 18.3137 12.2471 20.2997 12.6446C18.29 13.7386 14.5672 14.5518 12.608 12.1982C11.2324 14.857 13.1483 15.9699 15.0246 17.3636C7.87716 20.625 8.93169 24.2847 4.2411 27.1652C4.85079 27.4507 7.56245 26.8773 7.8038 26.8426C6.78555 28.1637 6.30994 28.7213 6.01259 29.3626C5.72865 29.9652 5.5993 30.6451 5.31693 32.1097C5.09687 33.2684 4.69304 34.4215 3.28516 35.1889C3.83727 36.1867 5.06296 35.4066 5.57563 35.2733C5.50623 35.3782 5.33428 36.5834 4.87366 37.1624C7.28245 37.007 6.16718 31.9283 8.57755 33.1516C9.25744 33.494 9.46093 34.2929 9.14702 34.9476C7.56482 38.2122 11.1622 41.0902 10.9658 43.951C11.85 43.9439 12.7657 43.921 13.3446 42.7261C13.6444 43.3216 14.1129 44.1592 14.3716 44.9676L15.0925 43.7412C15.5357 45.7698 17.4295 47.647 19.9874 47.8142C18.7672 45.8842 20.2287 43.2466 17.2646 40.4443C17.6338 40.1469 18.488 39.5711 18.7932 39.1791C15.1548 39.6066 11.3586 36.7293 13.082 35.3633C14.2091 34.4712 14.7013 36.3231 16.4412 36.0116L15.7613 35.424C16.0003 35.1889 16.2724 34.879 16.5556 34.6487C15.8173 34.5595 15.0097 34.0863 15.0097 34.0863L15.4498 33.3583C11.1883 33.3528 11.0794 30.0929 12.8107 29.9628C13.6254 29.9036 14.676 31.4022 17.2994 31.0899C16.9641 30.6853 16.8301 30.0764 16.6715 29.6236C17.3057 29.5653 18.0502 29.5716 18.6489 29.2798C17.368 29.1141 17.043 28.6851 15.9774 27.8766L17.2165 27.4231C15.4198 26.5279 15.5302 24.9646 15.4734 23.3367C16.4136 23.8777 17.5194 24.7162 18.6978 24.3257C18.9786 24.2311 19.1584 24.1025 19.1647 23.8099C17.4792 23.1466 16.401 20.5532 20.4346 18.374ZM55.7422 27.958C55.9308 28.9321 56.0262 30.0142 55.986 31.262C55.945 32.6186 55.6752 33.812 55.2453 34.8791C55.355 36.3619 55.2225 38.8977 53.5235 40.569C54.6751 39.1052 54.9251 36.7287 54.8242 35.8012C53.488 38.3693 49.695 41.9186 47.8597 44.3037C49.695 41.2355 54.1948 37.6523 55.1594 33.517C54.5386 34.1606 53.7964 34.2261 52.3815 34.1377C53.9345 33.9492 54.8052 33.5706 55.3495 32.539C55.4299 32.0034 55.4828 31.4339 55.5041 30.825C55.5561 29.1892 55.0135 27.2403 53.8832 25.1052C53.8935 26.4452 52.8326 28.5503 50.4633 28.899C52.5873 27.969 53.8414 25.8734 53.1591 23.844C52.7175 23.1365 52.2206 22.4053 51.6582 21.6616C51.379 21.3035 51.1053 20.958 50.8363 20.637C51.1211 21.671 49.8709 22.7382 49.0325 22.9188C49.4884 22.4747 50.4593 21.0361 48.2114 18.6297C48.8424 18.927 49.5373 19.3474 50.0618 19.7568C45.973 15.3422 42.6185 15.2176 41.0687 12.9965C43.3071 14.5251 49.2265 15.3501 51.8838 14.6276C50.4175 15.608 46.8793 15.5189 46.0132 15.3359C48.896 18.1399 55.1988 21.0361 56.2849 23.6113C54.7532 21.9313 53.7562 21.6221 52.4359 21.1883C53.4802 22.7492 54.4203 24.1216 55.0679 25.7133C56.7463 29.3525 58.9863 29.3982 59.1338 32.4001C58.3687 30.0726 56.8181 29.485 55.7422 27.958ZM60.2538 32.1099C59.9714 30.6436 59.846 29.9653 59.5621 29.3635C59.2679 28.7215 58.7899 28.1631 57.7661 26.8427C58.0091 26.8774 60.7262 27.4508 61.3336 27.1653C56.6438 24.2849 57.6983 20.6252 50.5477 17.3638C52.4264 15.9701 54.3407 14.8587 52.9667 12.1968C51.0075 14.5519 47.2823 13.7379 45.275 12.6448C47.2649 12.2472 49.8212 10.4947 50.4309 8.5473C49.6785 8.43293 48.7083 9.24454 48.1499 9.62234C47.8833 8.9046 47.7792 8.06617 46.9084 7.88477C48.0718 10.3748 45.7719 11.6715 43.576 11.6809C43.24 11.6809 41.8243 11.5374 41.8243 11.5374C42.0514 11.072 42.9648 9.79981 42.2975 9.28634C41.7612 9.78798 41.127 10.1902 40.5442 10.6374C36.2834 13.932 42.572 16.9875 45.1409 18.3741C49.1674 20.5534 48.0955 23.1459 46.41 23.8093C46.4147 24.1019 46.5969 24.2312 46.8785 24.3251C48.0505 24.7163 49.1611 23.8779 50.0973 23.3368C50.0437 24.9632 50.1557 26.5272 48.3589 27.4232L49.5949 27.8768C48.5285 28.6852 48.2067 29.1143 46.9258 29.2799C47.5205 29.571 48.2714 29.5654 48.9031 29.6254C48.7407 30.075 48.6034 30.6854 48.2729 31.0901C50.8986 31.4016 51.9532 29.903 52.7632 29.963C54.4882 30.0931 54.3864 33.3529 50.1225 33.3577L50.565 34.0872C50.565 34.0872 49.7581 34.5589 49.0167 34.6488C49.2983 34.8791 49.5759 35.1875 49.8126 35.4234L49.1327 36.011C50.8687 36.3225 51.3656 34.4706 52.4919 35.3626C54.2145 36.7287 50.4199 39.6068 46.7791 39.1793C47.0859 39.5697 47.9377 40.1463 48.31 40.4452C45.3436 43.2468 46.8004 45.8843 45.5873 47.8167C48.1389 47.6471 50.0334 45.7699 50.4822 43.7405L51.2015 44.967C51.4594 44.1586 51.9327 43.3217 52.2277 42.7262C52.8026 43.9212 53.7247 43.9448 54.612 43.9511C54.4117 41.0896 58.0067 38.2123 56.4284 34.947C56.1137 34.2939 56.3172 33.4941 56.9963 33.151C59.4091 31.9285 58.2891 37.0071 60.701 37.1625C60.2396 36.5836 60.0669 35.3784 60.0022 35.2735C60.5117 35.4068 61.7358 36.1892 62.2879 35.1875C60.8832 34.4217 60.4778 33.267 60.2538 32.1099Z" fill="white"/>
<path d="M36.084 22.7227C35.4097 23.6478 34.1856 24.2694 32.7887 24.2694C32.4646 24.2694 32.1498 24.2331 31.8533 24.1747C31.9353 24.5572 32.1325 24.95 32.5395 25.29C32.3738 26.3974 32.8526 27.4338 34.0404 27.7059C34.1682 28.2698 34.516 28.6973 35.1052 28.8984L34.2771 29.8552C33.9584 30.2219 33.5412 30.3387 33.2068 30.2969L29.5068 29.8757C29.6661 29.4647 29.2386 28.9891 28.0682 29.1934L29.5202 25.1267L28.6353 23.2401L26.956 24.6748L26.8322 28.9402L26.1097 28.5885C25.1782 28.1838 24.903 29.8812 25.7903 29.8883L26.1476 29.8922C26.1239 30.0665 26.1791 30.2598 26.318 30.3221C26.1508 30.3891 26.1003 30.7054 26.3093 30.8166C26.0987 30.9184 26.0687 31.2402 26.2399 31.3798C26.0569 31.6945 26.0222 32.3728 26.6689 32.5447C27.2029 32.6843 27.5373 32.1125 27.6462 31.7805L33.4031 33.563C34.2132 33.7972 34.7976 33.6655 35.4744 33.0724L36.9761 31.7584C36.7876 32.6173 37.0952 33.3926 37.7483 33.6482C37.7483 33.6482 37.6449 34.4345 37.6852 34.7619L39.6988 34.7658H42.8703V25.2987C42.8703 24.4161 43.1211 23.5351 43.4319 22.7227H39.6988H36.084ZM27.4619 38.6524L27.5747 38.7936C27.7309 38.9853 27.8216 38.9403 28.0014 38.8378L28.2625 38.699C28.4266 38.5759 29.4969 38.9829 29.5576 38.094C29.6767 38.7589 28.8864 40.1573 29.3612 40.939L30.004 41.9927L27.9044 42.0219C27.6741 42.0219 27.5542 42.1607 27.4911 42.2877L26.9422 43.4266C26.7994 43.7264 26.8097 44.0395 26.9895 44.2469L27.361 44.665C27.361 44.665 27.6654 44.4055 27.7632 44.0687L27.5984 43.8991C27.4619 43.7682 27.4619 43.6467 27.5377 43.4826L27.8752 42.7807C28.0062 42.5046 28.1379 42.4462 28.4368 42.5157L30.1342 42.8824C30.2588 42.9116 30.4599 42.9731 30.5798 42.7649C30.7872 42.3958 31.1564 42.3721 31.5279 42.4281C32.4601 42.5677 34.6102 42.7917 35.3784 41.8957C36.2792 43.0906 38.0388 43.0906 37.9229 43.7169L37.5514 45.7715H38.1114L38.4521 43.6712C38.49 43.4266 38.6406 43.0899 38.3764 42.9021C38.2692 42.8177 38.2195 42.7759 37.9742 42.354C37.6547 41.794 37.6705 40.9563 37.3621 40.2346C37.6547 39.8892 37.9702 39.7724 38.2479 39.8355C38.8678 39.9878 39.0358 41.0573 39.9168 41.9312C39.8166 41.5431 39.7748 41.1172 39.5666 40.7481C39.5666 40.7481 40.1771 41.2221 40.3348 41.7774C40.435 42.126 40.5383 42.3792 40.8515 42.5409C41.0581 42.6158 41.3058 42.5157 41.5542 42.2183C41.5542 42.2183 40.9729 41.3917 40.5478 40.8522C39.9649 40.1092 39.1849 39.3655 38.1224 39.4514C37.788 39.4798 37.4646 39.6313 37.1578 39.8142C35.9519 39.1383 35.0141 39.8537 34.641 39.8537L32.3805 39.7188C31.9356 39.6912 31.5862 39.1754 31.5862 39.1754C31.5279 37.2635 29.993 36.5016 29.4622 36.5016C29.4622 36.5016 29.5126 36.1569 29.373 36.037L28.8998 36.6293L27.5897 36.1522L28.6174 36.993L27.503 38.2881C27.3878 38.4158 27.4067 38.583 27.4619 38.6524Z" fill="white"/>
<path d="M25.9775 41.3377C25.6628 41.5822 25.6754 41.9237 25.8663 42.3047L26.0564 42.6588L26.5501 42.2826L26.4381 42.0397C26.3584 41.8693 26.3608 41.6958 26.5004 41.5861L27.2079 41.0522C27.4059 40.9078 27.4682 40.8921 27.6804 40.9236L29.1742 41.2375C29.1742 41.2375 28.9486 40.9078 28.8721 40.5726L27.4658 40.3873C27.2663 40.3612 27.1464 40.4472 26.9721 40.5781L25.9775 41.3377ZM35.5286 45.7716H36.0917L36.9964 43.5387C37.0287 43.4621 37.0721 43.4259 37.1068 43.3628C36.699 43.2026 36.4624 43.0883 36.1233 42.8935C36.3496 43.1979 36.5279 43.3296 36.4332 43.6104L35.5286 45.7716ZM33.7624 14.5283L35.8793 13.7167C35.8793 13.7167 35.8793 13.9754 35.2688 14.3895C34.7262 14.7657 33.7624 15.1672 33.7624 15.1672V14.5283ZM33.7624 12.9808L36.1672 12.1219C36.1672 12.1219 35.8793 12.4263 35.2688 12.8459C34.7262 13.2182 33.7624 13.6197 33.7624 13.6197V12.9808ZM33.7624 11.5264L36.3928 10.5562C36.3928 10.5562 35.8793 10.9735 35.2688 11.3915C34.7262 11.7677 33.7624 12.1676 33.7624 12.1676V11.5264ZM36.0071 15.5812L37.0522 9.57031L33.0904 10.9159V17.1161L36.0071 15.5812Z" fill="white"/>
<path d="M28.9594 20.8986L29.0477 21.0374H29.8633L29.872 21.1794C29.8822 21.315 29.9122 21.4562 29.9579 21.5982C30.0849 21.9878 30.335 22.394 30.7404 22.7221C31.2081 23.0991 31.8848 23.3736 32.7871 23.3736C34.7377 23.3736 35.6203 22.1109 35.7054 21.1794L35.7102 21.0374H36.5297L36.6164 20.8986C37.387 19.6934 38.3264 18.3549 39.4204 18.1648L36.4405 16.4375L32.7879 18.4243L29.1329 16.4375L26.1562 18.1648C27.2455 18.3549 28.1857 19.6934 28.9594 20.8986Z" fill="white"/>
<path d="M31.8087 12.9799V13.6188C31.8087 13.6188 30.8456 13.2189 30.3038 12.845C29.6886 12.4246 29.403 12.121 29.403 12.121L31.8087 12.9799ZM31.8087 11.5255V12.1667C31.8087 12.1667 30.8456 11.7668 30.3038 11.3906C29.6886 10.971 29.1743 10.5561 29.1743 10.5561L31.8087 11.5255ZM31.8087 15.1679C31.8087 15.1679 30.8456 14.7656 30.3038 14.3902C29.6886 13.9761 29.6886 13.7158 29.6886 13.7158L31.8087 14.5274V15.1679ZM32.4752 17.1152V10.915L28.5173 9.56864L29.5584 15.5804L32.4752 17.1152ZM32.7854 6.91724C30.5217 6.91724 28.8251 7.65865 28.4568 8.52783L32.7854 10.2378L37.11 8.52783C36.7432 7.65865 35.0482 6.91724 32.7854 6.91724ZM32.7862 4.43597C34.4543 4.43597 36.1241 4.94075 37.2472 5.59698C37.431 4.99281 37.6282 4.56137 37.8932 4.06684L36.8671 4.22459L36.0397 2.45467L34.4914 3.27732L32.7862 1.5918L31.0793 3.27732L29.5326 2.45467L28.6974 4.22459L27.6752 4.06684C27.9418 4.56137 28.1358 4.99281 28.3227 5.59698C29.449 4.94075 31.1125 4.43597 32.7862 4.43597ZM61.0311 18.0609C61.5911 17.9891 62.0398 17.8046 62.5888 17.3937C61.4065 17.0789 58.9291 16.1837 56.8137 16.5852C56.1141 16.6767 55.7268 16.9614 55.9769 17.1223C57.1118 17.8756 58.5166 19.6226 59.5356 21.6623C60.4324 20.5494 60.057 19.0871 59.8685 18.6675C61.6581 19.7457 62.125 20.2702 62.9556 20.0651C62.5139 19.3868 61.8892 18.7763 61.0311 18.0609ZM6.03086 21.6624C7.05148 19.6227 8.45621 17.8756 9.59435 17.1224C9.84753 16.9615 9.45553 16.6768 8.76066 16.5853C6.64291 16.1838 4.16077 17.079 2.97846 17.3937C3.53294 17.8039 3.97621 17.9892 4.53937 18.061C3.67886 18.7772 3.05576 19.3869 2.61328 20.0644C3.44855 20.2702 3.91311 19.7457 5.70038 18.666C5.51503 19.0879 5.13722 20.5494 6.03086 21.6624Z" fill="white"/>
<path d="M15.0901 43.7392L14.3692 44.9657C14.1105 44.1573 13.642 43.3204 13.3422 42.7241C12.7633 43.9199 11.8476 43.9435 10.9634 43.949C11.1598 41.0883 7.56241 38.2102 9.14461 34.9457C9.4601 34.2926 9.25503 33.492 8.57514 33.1497C6.16478 31.9272 7.28005 37.0058 4.87126 37.1604C5.33188 36.5815 5.50382 35.3771 5.57323 35.2714C5.06055 35.4055 3.83407 36.1879 3.28275 35.187C4.69064 34.4204 5.09447 33.2665 5.3161 32.1086C5.59689 30.6431 5.72624 29.964 6.01019 29.3622C6.30754 28.7194 6.78314 28.1618 7.8014 26.8414C7.56005 26.8761 4.84838 27.4488 4.2379 27.1632C8.9285 24.2836 7.87317 20.6231 15.0222 17.3625C13.1474 15.9688 11.2308 14.8566 12.6056 12.1963C14.5648 14.5498 18.2876 13.7366 20.2973 12.6427C18.3113 12.2452 15.751 10.4934 15.1421 8.546C15.8906 8.43085 16.8608 9.24324 17.4184 9.62183C17.6874 8.90172 17.7938 8.06566 18.6654 7.88583C17.5028 10.3727 19.8004 11.6694 21.9899 11.6796C22.3306 11.6796 23.748 11.5361 23.748 11.5361C23.52 11.0699 22.6043 9.79851 23.27 9.28504C23.8079 9.78668 24.4452 10.1889 25.0265 10.6354C29.2849 13.9299 23.0011 16.9862 20.4306 18.3728C16.3986 20.5513 17.4768 23.1454 19.1623 23.808C19.156 24.1006 18.9762 24.2299 18.6954 24.3238C17.517 24.7142 16.4112 23.875 15.471 23.3347C15.5278 24.9627 15.4166 26.5259 17.2141 27.4212L15.975 27.8731C17.0406 28.6839 17.3656 29.1122 18.6465 29.2786C18.0478 29.5697 17.3048 29.5634 16.6691 29.6233C16.8292 30.0752 16.9617 30.6841 17.2969 31.0888C14.6736 31.4003 13.623 29.9017 12.8083 29.9617C11.077 30.0918 11.1858 33.3516 15.4474 33.3564L15.0057 34.0859C15.0057 34.0859 15.8126 34.5576 16.5524 34.6475C16.27 34.8763 15.9979 35.187 15.7589 35.4221L16.4396 36.0097C14.6989 36.3212 14.2067 34.4693 13.0796 35.3613C11.3562 36.7274 15.1524 39.6055 18.7908 39.178C18.4856 39.5692 17.6314 40.145 17.2622 40.4431C20.2263 43.2447 18.7648 45.883 19.9842 47.8146C17.4271 47.6443 15.5341 45.7679 15.0901 43.7392ZM18.4248 40.5883C19.2483 39.9344 19.9305 39.6086 19.8958 38.0288C18.6591 38.6606 15.1547 38.6275 13.6909 36.6115C13.276 36.0373 13.72 35.7494 14.1184 36.2005C15.12 37.3379 16.9783 36.8228 17.655 36.4947C17.5478 36.1027 17.2465 35.594 16.9941 35.3771C17.2465 35.1271 17.965 34.7556 18.1101 34.1167C17.7268 33.9093 16.24 33.7602 16.24 33.7602C16.479 33.5291 16.7764 33.2097 16.5981 32.3578C15.079 32.8248 13.2034 32.1906 12.7759 31.6283C12.3571 31.0754 12.7846 30.5572 13.138 30.9239C13.8936 31.7182 17.6258 32.6292 19.0132 31.2465C18.4982 31.1045 17.9287 30.6431 17.8278 30.3576C19.111 30.229 20.1348 29.4703 20.22 28.5262C19.5101 28.5262 18.1669 28.4749 17.7102 28.131C18.327 27.9031 18.7159 27.6806 18.9107 26.9905C16.5611 26.8485 16.3749 25.1039 16.3615 24.8144C17.8917 25.697 20.586 25.3042 19.8895 23.132C18.6165 23.0642 17.334 21.0056 20.8336 19.1142C24.0162 17.3908 27.6333 15.5342 27.3131 12.4778C27.1056 10.521 23.8844 9.18724 23.4767 8.19738C22.1327 8.83704 21.8621 9.58003 22.4687 10.8246C22.4687 10.8246 19.4746 11.122 19.238 9.27873C19.1347 8.45293 19.6868 7.67918 20.2799 7.08921C19.9431 7.08921 17.6874 6.48504 17.0075 8.32279C15.7424 7.45913 14.6618 7.49147 13.8092 8.40245C15.1682 9.20854 16.0097 11.9778 18.2576 12.7949C16.6581 13.6617 14.0726 13.2989 12.5646 10.6354C11.1362 12.7862 10.3151 14.9166 13.3769 17.1905C7.80376 19.7263 7.84399 24.5738 2.99723 26.8832C3.4894 28.2028 4.52579 28.2028 5.84613 27.9961C3.75047 30.7181 5.53774 33.5685 2.21875 34.7335C2.5303 35.844 3.1534 36.7306 4.37672 36.4064C4.02968 36.9483 3.80016 36.9372 3.25751 37.5335C5.07159 38.6764 7.22168 37.8482 7.7099 34.1837C7.79509 33.5291 8.6974 33.9392 8.38506 34.5813C6.31858 38.8554 11.5463 42.0711 9.69593 45.2071C11.327 45.1384 12.5701 45.0107 13.2492 44.4617C13.582 45.1187 13.7816 45.7702 13.7098 46.413C14.6121 46.2301 14.9386 45.6977 15.0009 45.0848C15.5917 46.8082 17.7024 48.6467 21.0781 48.6467C19.2861 46.0952 20.9551 43.5042 18.4248 40.5883Z" fill="#1A0D4D"/>
<path d="M10.4166 33.5179C11.0326 34.1616 11.7795 34.227 13.1937 34.1387C11.6399 33.9502 10.766 33.5716 10.2226 32.5399C10.1429 32.0052 10.0909 31.4357 10.0696 30.8276C10.0207 29.1902 10.5594 27.2412 11.6896 25.1061C11.6825 26.4454 12.7426 28.5505 15.1112 28.9007C12.9832 27.97 11.7314 25.8743 12.4129 23.8457C12.857 23.1374 13.357 22.4063 13.9162 21.6625C14.1962 21.3044 14.4699 20.959 14.7365 20.6379C14.4518 21.6712 15.7019 22.7399 16.538 22.919C16.0852 22.4757 15.1112 21.037 17.3606 18.6306C16.7328 18.928 16.0387 19.3484 15.5118 19.7577C19.599 15.3432 22.9583 15.2194 24.5026 12.9983C22.2673 14.5268 16.3487 15.3519 13.6883 14.6294C15.1561 15.6098 18.6936 15.5199 19.558 15.3377C16.6744 18.1408 10.3772 21.037 9.28715 23.6138C10.8204 21.9315 11.8135 21.6231 13.1409 21.1901C12.0958 22.7502 11.1541 24.1226 10.5034 25.7158C8.82969 29.3542 6.5889 29.4008 6.44141 32.4011C7.20569 30.0751 8.75634 29.4852 9.83217 27.959C9.64208 28.9338 9.55296 30.0152 9.58687 31.2637C9.62473 32.6204 9.89763 33.8129 10.3291 34.8809C10.2186 36.3637 10.3512 38.8987 12.0517 40.5708C10.8954 39.1077 10.6485 36.7305 10.751 35.8021C12.0808 38.371 15.8786 41.9195 17.7132 44.3047C15.8786 41.2365 11.3804 37.6549 10.4166 33.5179ZM52.4374 21.1898C53.7578 21.6236 54.754 21.9312 56.2872 23.6136C55.2004 21.0368 48.8968 18.1414 46.0132 15.3374C46.8792 15.5188 50.4175 15.6095 51.8845 14.6291C49.2273 15.3516 43.3079 14.5266 41.0702 12.998C42.6169 15.2191 45.9738 15.3437 50.0618 19.7583C49.5373 19.3489 48.8424 18.9285 48.2122 18.6304C50.4593 21.0368 49.4892 22.4762 49.0333 22.9203C49.8709 22.7397 51.121 21.6709 50.8371 20.6385C51.1061 20.9595 51.379 21.3042 51.659 21.6623C52.2213 22.4068 52.7174 23.1372 53.1591 23.8455C53.8414 25.8741 52.5873 27.9698 50.464 28.9005C52.8326 28.5519 53.8942 26.4451 53.8816 25.1067C55.0142 27.2418 55.5561 29.1907 55.5048 30.8273C55.4827 31.4355 55.4307 32.0049 55.3502 32.5397C54.8052 33.5713 53.9329 33.9499 52.3814 34.1392C53.7972 34.2276 54.5386 34.1613 55.1594 33.5177C54.1955 37.6546 49.6958 41.237 47.8596 44.3044C49.6958 41.9201 53.488 38.3708 54.8241 35.8027C54.9267 36.7302 54.6774 39.1075 53.5235 40.5706C55.224 38.8984 55.355 36.3635 55.2461 34.8791C55.6752 33.8127 55.9449 32.6201 55.9859 31.2635C56.027 30.0157 55.9315 28.9336 55.7422 27.9595C56.8189 29.4865 58.3687 30.0757 59.1338 32.4017C58.9871 29.4005 56.7471 29.354 55.0679 25.7156C54.4211 24.1223 53.4817 22.7507 52.4374 21.1898Z" fill="#1A0D4D"/>
<path d="M60.0009 35.2722C60.0656 35.3771 60.2383 36.5823 60.6998 37.1613C58.2878 37.0059 59.4062 31.9272 56.9943 33.1506C56.3152 33.4929 56.1117 34.2926 56.4272 34.9465C58.0039 38.2111 54.4104 41.0891 54.6123 43.9499C53.7234 43.9444 52.8014 43.9199 52.228 42.725C51.9314 43.3205 51.4582 44.1581 51.2003 44.965L50.4794 43.7401C50.0314 45.7687 48.1376 47.6459 45.5861 47.8154C46.7991 45.8831 45.3408 43.2455 48.3096 40.444C47.9357 40.145 47.0847 39.5685 46.7771 39.178C50.4186 39.6055 54.2132 36.7275 52.4906 35.3622C51.3627 34.4701 50.8674 36.322 49.1314 36.0105L49.8113 35.4229C49.5739 35.1871 49.2971 34.8779 49.0147 34.6476C49.7569 34.5584 50.563 34.0868 50.563 34.0868L50.1213 33.3572C54.3844 33.3517 54.4869 30.0918 52.7612 29.9617C51.9519 29.9026 50.8974 31.4011 48.2717 31.0888C48.6022 30.6842 48.7394 30.0753 48.9019 29.6241C48.2701 29.5642 47.5192 29.5705 46.923 29.2787C48.2054 29.113 48.5265 28.684 49.5936 27.8755L48.3585 27.422C50.1544 26.526 50.0424 24.9635 50.0968 23.3356C49.1598 23.8766 48.0493 24.7151 46.8764 24.3246C46.5956 24.23 46.4127 24.1014 46.4071 23.8088C48.0934 23.1455 49.1669 20.5521 45.1389 18.3729C42.57 16.9863 36.2822 13.9307 40.5429 10.6362C41.125 10.1898 41.7583 9.78673 42.2947 9.28588C42.9627 9.79935 42.0494 11.0708 41.823 11.5361C41.823 11.5361 43.2388 11.6797 43.5748 11.6797C45.7706 11.6702 48.0706 10.3735 46.9064 7.88351C47.778 8.06492 47.8821 8.90335 48.1487 9.62109C48.7071 9.24408 49.6764 8.43168 50.4289 8.54605C49.8192 10.4942 47.2621 12.246 45.2737 12.6435C47.2811 13.7375 51.007 14.5507 52.9654 12.1971C54.3386 14.8575 52.4252 15.9688 50.5464 17.3625C57.6971 20.6223 56.6409 24.2836 61.3315 27.1641C60.725 27.4496 58.0078 26.8762 57.7649 26.8415C58.7887 28.1626 59.2658 28.7202 59.56 29.3623C59.8448 29.9641 59.9702 30.6424 60.2518 32.1086C60.4765 33.2673 60.8812 34.4204 62.2859 35.1871C61.7338 36.188 60.5105 35.4055 60.0009 35.2722ZM59.7217 27.9954C61.0413 28.202 62.0793 28.202 62.5722 26.8833C57.7231 24.5739 57.7649 19.7271 52.1933 17.1906C55.2551 14.9174 54.4301 12.7871 53.0072 10.6362C51.5008 13.299 48.9066 13.6618 47.315 12.795C49.5573 11.9786 50.4036 9.20937 51.7634 8.40171C50.9132 7.49073 49.8279 7.45997 48.5612 8.32205C47.8773 6.48509 45.6247 7.08926 45.2871 7.08926C45.8787 7.67923 46.4371 8.45219 46.3306 9.27957C46.098 11.122 43.1016 10.8247 43.1016 10.8247C43.7065 9.58087 43.4376 8.83788 42.0928 8.19743C41.6818 9.18729 38.4662 10.5218 38.258 12.4771C37.9346 15.5342 41.5549 17.3909 44.7358 19.1143C48.2338 21.0057 46.9506 23.0642 45.6839 23.1329C44.9803 25.3058 47.6738 25.6978 49.2071 24.8152C49.2008 25.1039 49.006 26.8486 46.6572 26.9921C46.8551 27.6815 47.2432 27.9031 47.8576 28.1311C47.3978 28.4749 46.0585 28.5262 45.3494 28.5262C45.4323 29.4711 46.46 30.2291 47.7448 30.3584C47.6415 30.6424 47.0705 31.1046 46.5578 31.2466C47.9452 32.6292 51.6759 31.7182 52.4354 30.9247C52.7832 30.558 53.2068 31.0762 52.7935 31.6275C52.3636 32.1915 50.4896 32.8256 48.9697 32.3587C48.7954 33.2089 49.088 33.5307 49.3286 33.7602C49.3286 33.7602 47.8411 33.9085 47.4569 34.1175C47.6013 34.7564 48.3222 35.1279 48.5762 35.3771C48.3222 35.5948 48.0217 36.1036 47.9128 36.4948C48.5951 36.8237 50.4518 37.3371 51.4487 36.2014C51.8525 35.7494 52.2934 36.0373 51.8809 36.6107C50.4163 38.6275 46.9096 38.6598 45.6728 38.0296C45.6381 39.6095 46.3212 39.9344 47.1438 40.5883C44.6096 43.5042 46.2841 46.096 44.4929 48.6476C47.8663 48.6476 49.9762 46.8067 50.5685 45.0856C50.6355 45.6985 50.9589 46.2309 51.8589 46.4131C51.7894 45.7695 51.9898 45.1188 52.3171 44.4618C53.0001 45.0115 54.2456 45.1393 55.8735 45.2071C54.0271 42.0719 59.2532 38.8555 57.1804 34.5821C56.8736 33.9393 57.7743 33.5307 57.8611 34.1846C58.3462 37.849 60.4986 38.6764 62.3143 37.5335C61.7677 36.938 61.5421 36.9491 61.1943 36.4064C62.416 36.7314 63.0376 35.8441 63.3515 34.7335C60.0356 33.5694 61.8213 30.7189 59.7217 27.9954ZM25.9768 41.3348L26.9714 40.5791C27.1489 40.4443 27.2656 40.3583 27.4675 40.3843L28.8715 40.5697C28.948 40.9049 29.1736 41.2346 29.1736 41.2346L27.6797 40.9207C27.4675 40.8954 27.4052 40.9049 27.2073 41.0484L26.4998 41.5832C26.3586 41.6928 26.3546 41.8664 26.4351 42.0367L26.5495 42.2828L26.0557 42.6567L25.8656 42.3017C25.6748 41.9208 25.6621 41.5769 25.9768 41.3348ZM28.2579 38.6957L27.9984 38.8329C27.8193 38.937 27.7286 38.982 27.5717 38.7887L27.4597 38.6468C27.4044 38.5797 27.3855 38.4125 27.5007 38.2847L28.6128 36.9896L27.5874 36.1488L28.8928 36.63L29.3708 36.0337C29.5096 36.1536 29.4615 36.4975 29.4615 36.4975C29.9907 36.4975 31.5256 37.2602 31.5839 39.1736C31.5839 39.1736 31.9333 39.6871 32.375 39.7131L34.6363 39.8504C35.0118 39.8504 35.9496 39.135 37.1555 39.8109C37.4584 39.6287 37.7857 39.4812 38.1194 39.4434C39.1826 39.3645 39.9619 40.1059 40.5455 40.8497C40.9706 41.3884 41.5527 42.215 41.5527 42.215C41.3027 42.5123 41.0558 42.6125 40.8484 42.5376C40.5361 42.3759 40.4327 42.1227 40.3326 41.7741C40.174 41.2188 39.5643 40.7448 39.5643 40.7448C39.771 41.1171 39.8144 41.5398 39.9145 41.9279C39.0304 41.054 38.8639 39.9844 38.2456 39.8377C37.9703 39.7691 37.6524 39.8866 37.3575 40.229C37.6682 40.953 37.6524 41.7906 37.9719 42.3506C38.2156 42.7702 38.2653 42.8081 38.3741 42.8988C38.636 43.0865 38.4877 43.4233 38.4483 43.6678L38.1131 45.7698H37.5491L37.9206 43.7136C38.0342 43.0865 36.2769 43.0865 35.3762 41.8924C34.6079 42.7892 32.4579 42.5644 31.5256 42.4248C31.1517 42.3688 30.7849 42.3924 30.5775 42.7631C30.4576 42.9698 30.2541 42.9075 30.1319 42.8791L28.4345 42.5123C28.1356 42.4429 28.007 42.5013 27.8737 42.7758L27.5354 43.4785C27.4597 43.6434 27.4652 43.7633 27.6 43.8966L27.7602 44.0685C27.6631 44.4045 27.3571 44.6616 27.3571 44.6616L26.9872 44.2452C26.8074 44.0346 26.7971 43.7293 26.9399 43.432L27.4888 42.2844C27.5543 42.1574 27.671 42.0194 27.9013 42.0194L30.0017 41.987L29.3589 40.9396C28.8802 40.154 29.6736 38.754 29.5553 38.0931C29.4962 38.9796 28.4243 38.575 28.2579 38.6957ZM36.9962 43.5353L36.09 45.7698H35.5276L36.4331 43.6063C36.5269 43.3263 36.3487 43.1962 36.1223 42.8909C36.4591 43.081 36.6989 43.2048 37.1059 43.3602C37.0711 43.4233 37.0286 43.4588 36.9962 43.5353ZM25.9469 43.2821L26.9667 42.4177L26.8121 42.1085C26.7009 41.8861 26.76 41.8735 26.8776 41.7851L27.4155 41.3837C27.5393 41.2819 27.671 41.2945 27.8233 41.33L29.4402 41.7094H27.7349C27.3406 41.7362 27.2262 41.8861 27.0834 42.1787L26.9667 42.4177L26.5282 43.3192C26.3799 43.6284 26.3018 44.0433 26.693 44.5086L27.003 44.8777L26.3744 46.1484H26.9036L27.3382 45.2674C27.3729 45.235 28.0141 44.6498 28.1506 44.0433C27.9652 43.891 27.8327 43.7861 27.9353 43.5748L28.1317 43.1536C28.1963 43.014 28.22 42.9564 28.4069 42.9935L30.1019 43.3602C30.3141 43.4186 30.6248 43.5117 30.8512 43.1701C31.0831 42.8152 31.1154 42.8539 31.6533 42.9075L32.5194 42.9998C33.7033 43.1118 34.884 42.8152 35.3446 42.4516C35.5047 42.8191 35.825 43.0984 35.9756 43.3847C36.03 43.4911 35.9385 43.641 35.8652 43.8271L34.8935 46.1484H36.392L37.2399 44.0299C37.3188 43.8271 37.4332 43.6655 37.5207 43.5842L37.0349 46.1484H38.4885L38.875 43.6118C38.9594 43.0487 38.9089 42.8657 38.6384 42.6338C38.0318 42.1227 38.046 41.0484 37.8504 40.3962C37.9529 40.3362 38.0721 40.307 38.2156 40.3236C38.5335 40.352 38.7709 41.162 39.1439 41.6826C39.8885 42.7284 40.9052 43.8831 42.0678 42.2568C41.9558 42.0714 41.8335 41.9019 41.6931 41.741L41.3682 41.36C41.1789 41.1494 40.2789 40.1193 39.9027 39.7478C39.0501 38.8881 37.7392 39.019 37.2171 39.4363C36.0348 38.8163 34.787 39.467 34.492 39.4434L32.4563 39.3203C32.3632 39.314 32.222 39.2833 32.1234 39.1247L32.5012 39.0001C32.1471 37.5268 31.2574 36.2924 29.702 36.081C29.702 36.081 29.6105 35.6149 29.3731 35.5257L28.9086 36.0723C28.7768 36.0905 28.6349 36.1307 28.5181 36.182L26.5321 35.4429L28.0236 36.9486C28.0236 36.9486 27.2499 38.0442 27.0298 38.2682C26.8831 38.4724 26.8973 38.6326 27.0613 38.8282L27.35 39.2083C27.5007 39.4047 27.6631 39.3968 27.9013 39.2746L28.2287 39.105C28.3706 38.9859 28.8494 39.221 29.0537 39.034C28.9228 39.4623 28.8565 39.874 28.8273 40.2013L27.4888 40.0412C27.1962 40.0018 27.0637 40.0412 26.8855 40.18L25.7442 41.0587C25.3711 41.3458 25.2559 41.8388 25.4847 42.3191L25.9469 43.2821ZM30.3041 14.3881C30.8459 14.7628 31.809 15.1658 31.809 15.1658V14.5254L29.6896 13.7137C29.6896 13.7137 29.6896 13.974 30.3041 14.3881ZM31.8091 13.6167V12.9778L29.4035 12.1188C29.4035 12.1188 29.689 12.4241 30.3042 12.8429C30.8461 13.2152 31.8091 13.6167 31.8091 13.6167ZM31.8091 12.1647V11.5234L29.1748 10.5541C29.1748 10.5541 29.689 10.9705 30.3042 11.3886C30.8461 11.7648 31.8091 12.1647 31.8091 12.1647Z" fill="#1A0D4D"/>
<path d="M39.2106 20.8971H41.9042C41.793 20.5051 41.3741 20.1115 40.587 20.1115C39.8448 20.1115 39.3968 20.5422 39.2106 20.8971ZM36.3923 10.5547L33.7619 11.524V12.1653C33.7619 12.1653 34.7258 11.7654 35.2684 11.3892C35.8812 10.9711 36.3923 10.5547 36.3923 10.5547ZM35.8801 13.7144L33.7616 14.526V15.1665C33.7616 15.1665 34.7254 14.7642 35.2689 14.3888C35.8801 13.9747 35.8801 13.7144 35.8801 13.7144ZM36.1666 12.1202L33.7618 12.9792V13.618C33.7618 13.618 34.7264 13.2174 35.2682 12.8435C35.8803 12.4247 36.1666 12.1202 36.1666 12.1202ZM24.9766 20.1114C24.191 20.1114 23.7729 20.5057 23.6602 20.8969H26.3568C26.1644 20.5412 25.7235 20.1114 24.9766 20.1114Z" fill="#1A0D4D"/>
<path d="M32.788 10.2379L28.4594 8.52789C28.8278 7.6587 30.5243 6.91729 32.788 6.91729C35.0509 6.91729 36.7459 7.6587 37.1126 8.52789L32.788 10.2379ZM36.0084 15.5807L33.0924 17.1148V10.9146L37.0543 9.56901L36.0084 15.5807ZM39.4189 18.1646C38.3257 18.3547 37.3855 19.6932 36.6157 20.8976L36.529 21.0364H35.7079L35.7039 21.1784C35.6195 22.1099 34.737 23.3734 32.7856 23.3734C31.8849 23.3734 31.2066 23.0973 30.7389 22.7211C30.3343 22.393 30.0819 21.9868 29.9564 21.598C29.9115 21.4568 29.8807 21.3148 29.8697 21.1784L29.8626 21.0364H29.047L28.9587 20.8976C28.1842 19.6932 27.2448 18.3547 26.1555 18.1646L29.1314 16.4365L32.788 18.4233L36.4398 16.4365L39.4189 18.1646ZM43.4335 22.7211C43.1212 23.5335 42.8696 24.4145 42.8696 25.2971V34.7643H41.7693C41.2684 34.2792 40.8465 32.6663 40.8465 32.6663C40.5728 33.2475 40.8867 34.4228 41.1793 34.7643H39.762C39.4102 34.2887 39.1065 32.6079 39.1065 32.6079C38.6822 33.0914 38.9504 34.3999 39.213 34.7643H38.2713C38.2129 34.0915 38.4053 33.3588 38.4053 33.3588C37.9116 33.2681 37.3879 33.0086 37.3887 32.4604C37.6379 32.6939 37.7397 32.6899 38.0851 32.6828L38.4858 32.3673C37.1576 32.4107 37.0953 30.9523 38.1482 30.2709C37.0953 30.304 36.3097 29.6785 36.693 28.5609C35.9437 28.1736 35.6803 26.9069 36.2332 26.3493C35.8325 25.9147 35.7655 25.0621 36.0234 24.4792C35.4926 24.4792 34.8955 24.2678 34.5626 23.9058C34.5374 23.9176 34.5066 23.9263 34.479 23.9358C35.1424 23.6644 35.7039 23.2441 36.0841 22.7211H43.4335ZM42.8719 41.5277C42.8719 43.5019 41.9602 45.0028 40.4426 45.8333L40.9869 44.7283H40.4608L39.7628 46.1441C39.0403 46.4186 38.2192 46.5684 37.3137 46.5684C34.5437 46.5684 33.8118 46.6804 32.7888 47.7011C31.7611 46.6804 31.0299 46.5684 28.2646 46.5684C27.3639 46.5684 26.5452 46.421 25.8266 46.1504H25.844L26.5428 44.7283H26.0175L25.4047 45.9722C25.258 45.9028 25.1168 45.8286 24.9811 45.7474L25.4835 44.7283H24.9606L24.5868 45.4871C23.3997 44.6148 22.7033 43.251 22.7033 41.5277V35.3195H42.8719V41.5277ZM29.1433 30.1896L29.9927 30.2953C30.0566 30.7599 29.9352 31.551 29.6315 31.9911L28.8081 31.7537C29.0273 31.2315 29.0825 30.7449 29.1433 30.1896ZM27.9184 29.5673C27.9184 29.5673 28.6992 29.5303 28.9201 29.6123C29.0825 29.6809 28.9713 29.9538 28.7615 29.923C28.5415 29.897 27.9184 29.5673 27.9184 29.5673ZM27.8671 26.47L27.1659 29.0255L27.4049 24.902L28.4918 23.9728L29.0447 25.1859L27.647 29.1895L28.0162 26.4944C28.0509 26.3075 27.8979 26.2854 27.8671 26.47ZM27.3284 30.7315C26.9616 30.8774 26.5862 30.6779 26.7014 30.4412C26.8709 30.595 27.3465 30.5201 27.3465 30.5201L27.3284 30.7315ZM26.6382 31.0722C26.8094 31.2355 27.3213 31.1732 27.3213 31.1732L27.3402 31.2757C27.1162 31.5746 26.4955 31.4398 26.6382 31.0722ZM25.8337 29.4254C25.6381 29.2936 25.7257 29.0097 25.9434 29.0097C26.1808 29.0152 26.4994 29.2857 26.8141 29.4206C26.8141 29.4206 25.9915 29.531 25.8337 29.4254ZM26.613 31.693C26.613 31.693 26.8488 31.7908 27.147 31.8144C27.1123 31.9785 26.9861 32.1362 26.785 32.0905C26.6177 32.0534 26.5428 31.846 26.613 31.693ZM27.1659 30.1478C26.7708 30.2756 26.5972 29.9901 26.6146 29.7472C27.3875 29.4656 27.733 29.647 27.9586 29.7921C28.1668 29.923 28.3395 30.2953 28.6195 30.5288C28.5738 30.8459 28.476 31.3049 28.3624 31.6117C27.5721 31.4082 27.5303 30.711 27.8253 30.2874C27.6604 30.0942 27.4846 30.0453 27.1659 30.1478ZM30.5961 30.3742L31.4424 30.4752C31.5252 30.9405 31.3667 31.9296 31.0481 32.4012L30.1844 32.1512C30.5299 31.6985 30.6568 30.894 30.5961 30.3742ZM32.0521 30.5524L32.7509 30.6392C32.8621 31.2197 32.7888 32.2238 32.4189 32.7948L31.6073 32.5598C31.9614 32.0747 32.1302 31.0777 32.0521 30.5524ZM33.3038 30.7078H33.3196C33.501 30.7354 33.6919 30.7039 33.8662 30.6321C34.244 31.1732 34.5398 32.4012 34.0863 33.1679C33.8291 33.1726 33.5775 33.1269 33.3417 33.0598L33.1548 33.0038C33.5365 32.4107 33.4821 31.3633 33.3038 30.7078ZM34.3718 30.2953L34.8687 29.8095C35.3719 30.2504 36.0344 31.2355 35.8278 32.1701L35.2875 32.6663C35.1763 32.7735 35.0603 32.8532 34.9428 32.925C35.2804 32.0905 34.8497 30.8041 34.3718 30.2953ZM37.2775 30.573C37.171 30.7173 37.0819 30.8869 37.0259 31.0691L36.4241 31.622C36.5447 30.7425 35.9524 29.6998 35.4129 29.2755L36.0533 28.6477L36.1803 28.777C35.9666 29.3378 36.3854 30.4412 37.2775 30.573ZM35.6803 26.313C35.364 26.9172 35.3963 27.6136 35.7686 28.2454L35.5202 28.4891C34.4412 28.3543 34.0145 26.7444 34.0145 26.7444C33.9924 26.8888 33.9798 27.0308 33.9821 27.1743C33.3527 26.9416 32.9536 26.3816 32.986 25.615C33.2242 25.7475 33.4931 25.8414 33.7771 25.8903L33.8512 25.4202C33.0964 25.2884 32.6555 24.8168 32.4883 24.2607C32.452 24.2568 32.4197 24.2489 32.3857 24.2465C32.5206 24.2568 32.6515 24.2678 32.7888 24.2678C33.2368 24.2678 33.6603 24.1984 34.0594 24.0817C34.3726 24.5265 34.9294 24.8468 35.487 24.9091C35.4003 25.2743 35.4421 25.7388 35.6803 26.313ZM29.4895 22.7211C30.0109 23.4341 30.8564 23.9618 31.8565 24.1684C31.9417 24.5447 32.1444 24.9564 32.5419 25.2884C32.3771 26.3958 32.8527 27.4299 34.0444 27.7043C34.1683 28.2683 34.5193 28.6958 35.1053 28.8977L34.2771 29.8536C33.9616 30.2204 33.5483 30.3371 33.206 30.2953L29.5069 29.8741C29.6662 29.4632 29.2403 28.9884 28.0706 29.1919L29.5242 25.1252L28.6369 23.2385L26.9553 24.674L26.8315 28.9395L26.1177 28.5869C25.1783 28.1823 24.9046 29.8804 25.7967 29.8875L26.1508 29.8907C26.1287 30.065 26.1808 30.259 26.318 30.3174C26.1508 30.3876 26.1003 30.7039 26.3125 30.8167C26.0988 30.9168 26.0696 31.2386 26.2415 31.379C26.0546 31.693 26.027 32.3713 26.6753 32.5432C27.2053 32.6828 27.5374 32.111 27.647 31.7789L33.4024 33.5615C34.218 33.7957 34.7977 33.664 35.4736 33.0709L36.9762 31.7576C36.7869 32.6158 37.0968 33.3911 37.7507 33.6466C37.7507 33.6466 37.6568 34.418 37.686 34.7643H22.7033V25.2971C22.7033 24.4145 22.4493 23.5335 22.1456 22.7211H29.4895ZM28.5178 9.56901L32.4772 10.9146V17.1148L29.5597 15.5807L28.5178 9.56901ZM38.1388 8.83155C38.1388 7.3156 35.5935 5.95898 32.7856 5.95898C29.9762 5.95898 27.4301 7.3156 27.4301 8.83155L27.4885 9.20225L28.6061 15.6391L23.2988 18.7333C22.7332 19.0638 22.0257 19.9787 21.9366 20.8976H22.9052C23.0653 19.9795 23.7917 18.9597 25.146 19.0228C26.3709 19.0874 27.0965 19.8328 27.8182 20.8976L28.0035 21.1784L28.2701 21.598H20.4648C21.0383 22.7503 21.5833 23.9713 21.5833 25.2971V41.5277C21.5833 45.7032 24.7903 47.6916 28.2646 47.6916C30.9463 47.6916 31.3083 47.5701 32.7888 49.0506C34.2653 47.5701 34.6257 47.6916 37.3137 47.6916C40.7842 47.6916 43.9935 45.7032 43.9935 41.5277V25.2971C43.9935 23.9713 44.537 22.7503 45.1104 21.598H37.2995L37.5685 21.1784L37.7546 20.8976C38.4724 19.8328 39.2004 19.0874 40.4269 19.0228C41.7764 18.9597 42.5052 19.9795 42.6653 20.8976H43.6315C43.5463 19.9787 42.8349 19.0638 42.2717 18.7333L36.9635 15.6391L38.0843 9.20225L38.1388 8.83155Z" fill="#1A0D4D"/>
<path d="M42.4112 28.8404L42.4199 28.3664C40.9623 28.3317 40.6294 26.6146 40.6294 26.6146C40.2027 27.8789 41.3148 28.8215 42.4112 28.8404ZM40.5726 31.7493L40.4259 31.3005C39.1844 31.6176 38.5424 29.6497 38.5424 29.6497C38.1448 31.0797 39.5314 32.0924 40.5726 31.7493ZM41.4353 29.9246C39.9509 30.1596 39.3428 28.4331 39.3428 28.4331C39.1779 29.3733 39.786 30.3268 40.7688 30.427C40.5472 31.6551 41.6861 32.2829 42.6728 31.8459L42.5308 31.4184C41.6735 31.7063 40.8698 30.8584 41.4353 29.9246ZM40.5472 24.9989L40.5606 24.5233C38.6022 24.1202 38.7654 22.7715 38.7654 22.7715C38.3427 24.0413 39.454 24.9784 40.5472 24.9989Z" fill="#1A0D4D"/>
<path d="M28.1387 44.7285L27.4375 46.1506H27.9644L28.664 44.7285H28.1387Z" fill="#1A0D4D"/>
<path d="M29.191 44.7285L28.4922 46.1506H29.0238L29.7179 44.7285H29.191Z" fill="#1A0D4D"/>
<path d="M33.4355 44.7285L32.7383 46.1506H33.2636L33.964 44.7285H33.4355Z" fill="#1A0D4D"/>
<path d="M34.4965 44.7285L33.793 46.1506H34.323L35.0194 44.7285H34.4965Z" fill="#1A0D4D"/>
<path d="M32.377 44.7285L31.6758 46.1506H32.2019L32.903 44.7285H32.377Z" fill="#1A0D4D"/>
<path d="M38.5703 46.1506H39.098L39.7976 44.7285H39.2699L38.5703 46.1506Z" fill="#1A0D4D"/>
<path d="M30.2535 44.7285L29.5547 46.1506H30.0831L30.7827 44.7285H30.2535Z" fill="#1A0D4D"/>
<path d="M31.3129 44.7285L30.6133 46.1506H31.1449L31.8437 44.7285H31.3129Z" fill="#1A0D4D"/>
<path d="M28.9141 37.0847C28.8186 37.0847 28.7335 37.1793 28.7335 37.2992C28.7335 37.4167 28.8186 37.5129 28.9141 37.5129C29.015 37.5129 29.0994 37.4167 29.0994 37.2992C29.0994 37.1793 29.015 37.0847 28.9141 37.0847ZM28.6991 4.22346L29.5344 2.45513L31.0811 3.2762L32.7879 1.59067L34.4955 3.2762L36.0415 2.45513L36.8657 4.22346L37.8942 4.06572C37.63 4.56025 37.432 4.99011 37.249 5.59586C36.1258 4.93963 34.4561 4.43484 32.7879 4.43484C31.1142 4.43484 29.4492 4.93963 28.3237 5.59586C28.1368 4.99011 27.942 4.56025 27.6762 4.06572L28.6991 4.22346ZM32.7879 4.99879C34.9609 4.99879 36.7008 5.7189 37.6623 6.49265C37.6623 6.49265 37.9502 4.7669 38.9235 3.25253L37.1717 3.44814L36.2568 1.49997L34.4955 2.41569L32.7879 0.720703L31.0811 2.41569L29.3151 1.49997L28.3994 3.44814L26.6484 3.25253C27.6249 4.7669 27.9088 6.49265 27.9088 6.49265C28.8679 5.7189 30.6126 4.99879 32.7879 4.99879Z" fill="#1A0D4D"/>
<path d="M34.5758 1.51246C34.8298 1.53375 35.0554 1.3413 35.0774 1.09048C35.1019 0.83809 34.7304 0.158203 34.7304 0.158203C34.7304 0.158203 34.1743 0.756851 34.157 1.0124C34.1325 1.26322 34.3242 1.48722 34.5758 1.51246ZM37.445 2.55248C37.6706 2.67394 37.9466 2.58482 38.0681 2.35766C38.1911 2.13445 38.1115 1.36701 38.1115 1.36701C38.1115 1.36701 37.3724 1.69986 37.2502 1.92701C37.1342 2.15023 37.2194 2.42944 37.445 2.55248ZM30.9957 1.51246C31.2545 1.48722 31.4422 1.26322 31.4193 1.0124C31.3956 0.756851 30.8459 0.158203 30.8459 0.158203C30.8459 0.158203 30.4752 0.83809 30.4988 1.09048C30.5194 1.3413 30.7465 1.53375 30.9957 1.51246ZM28.1311 2.55248C28.3567 2.42944 28.4427 2.15023 28.322 1.92701C28.2029 1.69986 27.4615 1.36701 27.4615 1.36701C27.4615 1.36701 27.3834 2.13445 27.5073 2.35766C27.6256 2.58482 27.9056 2.67394 28.1311 2.55248ZM59.8707 18.6673C60.0592 19.0877 60.4346 20.5484 59.5386 21.6621C58.5188 19.6225 57.1149 17.8754 55.9791 17.1222C55.7306 16.9613 56.1163 16.6765 56.8167 16.5851C58.9321 16.1836 61.4087 17.0788 62.591 17.3935C62.0413 17.8036 61.5949 17.989 61.0341 18.0584C61.8922 18.7769 62.5161 19.3858 62.9586 20.0641C62.1273 20.27 61.6611 19.7447 59.8707 18.6673ZM62.5398 18.3211C63.1502 18.1034 63.6235 17.5213 63.8585 16.981C62.3031 16.7578 58.1726 15.0226 54.7755 16.4352C56.0469 15.2284 57.1906 15.0715 57.2986 13.3355C57.8255 13.7156 58.7168 13.9294 59.2192 13.0239C58.8682 11.9899 57.9848 12.8267 57.8602 12.5428C57.6875 12.1461 58.9763 12.6643 59.2515 11.3211C58.2491 10.9772 57.9493 11.7951 57.7711 11.605C57.6054 11.4252 58.4076 11.0797 57.8168 9.99677C56.7741 10.6072 57.3168 11.295 57.0967 11.3723C56.8301 11.4772 57.0391 10.638 55.8868 10.6759C55.774 11.9158 56.9705 11.9536 56.7741 12.1508C56.5367 12.3906 56.2244 11.4394 55.3528 11.9221C55.3694 12.9222 56.1786 13.4719 57.0155 13.2353C56.8782 15.1362 55.1359 14.7812 53.8369 16.9226C56.5872 18.3329 57.831 20.7914 59.5244 22.4919C60.0829 22.0959 61.0372 20.3315 61.0372 20.3315C62.8694 21.7505 64.1574 20.3378 64.1574 20.3378C63.5265 19.6919 63.5036 19.2013 62.5398 18.3211ZM38.2106 53.1466L37.2775 50.1147C39.2651 49.7038 40.6478 49.281 41.7039 48.874V50.7654L43.3421 51.4256C41.9579 52.0566 40.24 52.6836 38.2106 53.1466ZM32.7889 54.9212C30.9353 54.9212 29.1268 54.6436 27.5801 54.2642L28.5644 51.0833C29.2167 51.2347 30.8486 51.435 32.7889 51.435C34.7307 51.435 36.3555 51.2347 37.0109 51.0833L37.9992 54.2642C36.4462 54.6436 34.6369 54.9212 32.7889 54.9212ZM22.2309 51.4256L23.8714 50.7654V48.874C24.9268 49.281 26.3094 49.7038 28.297 50.1147L27.3655 53.1466C25.3409 52.6836 23.6183 52.0566 22.2309 51.4256ZM42.2111 50.3726V48.0514C40.4175 48.874 38.1341 49.5405 35.1992 49.8039L35.0651 50.6345C35.3144 50.6692 35.6307 50.6999 36.0534 50.7275C34.965 50.875 33.5594 50.9484 32.7889 50.9484C32.0175 50.9484 30.6135 50.875 29.5243 50.7275C29.9455 50.6999 30.2586 50.6692 30.5078 50.6345L30.3753 49.8039C27.4397 49.5405 25.1539 48.874 23.3651 48.0514V50.3726L20.9318 51.3711C22.7333 52.3082 24.8077 53.0724 27.2054 53.69L26.9215 54.6617C28.2947 55.064 30.4881 55.4765 32.7889 55.4765C35.0888 55.4765 37.2815 55.064 38.6547 54.6617L38.3715 53.69C40.7661 53.0724 42.8452 52.3082 44.6467 51.3711L42.2111 50.3726ZM2.61369 20.0644C3.05774 19.3861 3.68005 18.7772 4.54293 18.0602C3.97819 17.9892 3.53572 17.8039 2.98124 17.393C4.16355 17.079 6.64805 16.1838 8.76343 16.5845C9.45831 16.6768 9.85031 16.9607 9.59633 17.1208C8.45898 17.8757 7.05425 19.6227 6.03363 21.6608C5.14 20.5479 5.5178 19.0879 5.70315 18.6675C3.91588 19.7457 3.45132 20.2695 2.61369 20.0644ZM4.53662 20.3318C4.53662 20.3318 5.49335 22.0954 6.04862 22.4905C7.74518 20.7916 8.99059 18.3331 11.7377 16.9229C10.4379 14.7815 8.69166 15.1411 8.5631 13.2355C9.39757 13.4714 10.206 12.92 10.2226 11.9215C9.34867 11.442 9.03712 12.3955 8.80208 12.151C8.60569 11.9499 9.80219 11.916 9.68941 10.6777C8.53549 10.6414 8.74608 11.4775 8.47555 11.3726C8.25943 11.2937 8.80208 10.6059 7.75464 9.99701C7.16625 11.0847 7.97076 11.4238 7.80433 11.6052C7.62608 11.7953 7.32479 10.9774 6.32388 11.3213C6.59521 12.6645 7.88873 12.1463 7.71363 12.5422C7.59138 12.827 6.70642 11.9893 6.35938 13.0234C6.85786 13.9288 7.7507 13.7151 8.27363 13.3365C8.38563 15.0788 9.52535 15.2247 10.8007 16.4354C7.40445 15.0228 3.27307 16.7564 1.71138 16.9836C1.95194 17.5207 2.4236 18.1036 3.03487 18.3166C2.07183 19.2047 2.04895 19.6929 1.41797 20.3381C1.41797 20.3381 2.70281 21.7507 4.53662 20.3318ZM31.3 19.0374V20.0596C31.6525 19.636 32.3332 19.7196 32.3332 19.7196V21.1906C32.3332 21.1906 32.3088 21.9163 32.0524 22.2278H32.7891H33.5258C33.2694 21.9163 33.2458 21.1906 33.2458 21.1906V19.7196C33.2458 19.7196 33.9249 19.636 34.2766 20.0596V19.0374H32.7891H31.3Z" fill="#1A0D4D"/>
</g>
<defs>
<clipPath id="clip0_2932_23663">
<rect width="280.789" height="56" fill="white" transform="translate(0.789062)"/>
</clipPath>
</defs>
</svg>
