<svg width="291" height="56" viewBox="0 0 291 56" fill="none" xmlns="http://www.w3.org/2000/svg">
<path d="M50.0501 0.512204C49.1503 2.4271 48.408 4.45166 47.8147 6.37218C47.7598 6.55116 47.6478 6.70745 47.4957 6.8175C47.3435 6.92756 47.1595 6.98541 46.9711 6.98234C36.0581 6.77146 25.2464 6.91206 14.3926 6.99079C13.9127 6.99454 13.4722 6.91861 13.071 6.76303C13.0511 6.7553 13.0329 6.74366 13.0176 6.7288C13.0022 6.71395 12.99 6.69617 12.9816 6.67652C12.9732 6.65688 12.9689 6.63575 12.9688 6.61439C12.9687 6.59302 12.9728 6.57186 12.981 6.55212C13.7665 4.67191 14.4516 2.76545 15.0365 0.832754C15.2811 0.0313668 16.7771 -0.00518531 17.3451 0.000438462C22.3587 0.036993 27.3694 -0.0276766 32.3886 0.0482443C37.2279 0.121353 42.0813 0.208518 46.9176 0.0707356C47.9074 0.0426168 48.8926 0.0838584 49.873 0.19446C49.9082 0.198108 49.9419 0.210193 49.9715 0.22972C50.0009 0.249245 50.0255 0.275651 50.0427 0.306728C50.06 0.337803 50.0698 0.372658 50.0711 0.408397C50.0723 0.444136 50.0651 0.479724 50.0501 0.512204Z" fill="#1A0D4D"/>
<path d="M11.5706 10.6543L46.1314 10.7415C46.1453 10.7416 46.1588 10.745 46.171 10.7514C46.1832 10.7578 46.1937 10.767 46.2016 10.7783C46.2097 10.7895 46.2148 10.8025 46.2168 10.8162C46.2187 10.8298 46.2175 10.8437 46.213 10.8568L43.9129 17.1778C43.9065 17.1945 43.8955 17.2086 43.8809 17.2187C43.8662 17.2287 43.849 17.2341 43.8314 17.2341L9.33512 17.2595C9.3211 17.2598 9.30721 17.2567 9.29464 17.2505C9.28208 17.2442 9.27119 17.2351 9.26291 17.2237C9.25464 17.2125 9.24921 17.1993 9.24709 17.1854C9.24498 17.1716 9.24624 17.1574 9.25076 17.1441L11.489 10.7133C11.4948 10.6963 11.5058 10.6814 11.5204 10.6709C11.535 10.6603 11.5525 10.6545 11.5706 10.6543Z" fill="#1A0D4D"/>
<path d="M170.616 24.0946C169.836 23.9792 168.928 23.9286 168.262 23.7514C162.79 22.2978 162.67 13.8733 168.422 12.7626C169.105 12.6314 169.808 12.532 170.532 12.4646C170.577 12.4609 170.619 12.4415 170.651 12.4097C170.682 12.3778 170.703 12.3356 170.709 12.2902L170.815 11.3567C170.822 11.3032 170.847 11.2538 170.886 11.2173C170.925 11.1807 170.976 11.1594 171.029 11.157L173.297 11.0783C173.342 11.0768 173.386 11.0842 173.428 11.1001C173.47 11.116 173.507 11.14 173.538 11.1708C173.571 11.2015 173.596 11.2383 173.613 11.279C173.63 11.3196 173.638 11.3633 173.638 11.4073C173.636 12.0372 173.955 12.4046 174.598 12.5096C176.573 12.8329 178.129 13.0494 179.341 14.8687C180.626 16.8014 180.689 18.8757 179.535 21.0914C178.404 23.2594 176.576 23.8415 174.274 24.0608C174.147 24.0722 174.027 24.1226 173.929 24.205C173.831 24.2875 173.761 24.3982 173.728 24.5219L173.523 25.2868C173.51 25.3299 173.486 25.368 173.45 25.3954C173.414 25.4227 173.37 25.4378 173.327 25.4386L171.207 25.478C171.113 25.4797 171.022 25.4451 170.953 25.3818C170.885 25.3184 170.844 25.2309 170.838 25.1378L170.779 24.2688C170.771 24.1677 170.717 24.1095 170.616 24.0946ZM170.846 21.8198L170.796 14.6607C170.794 14.6216 170.779 14.5844 170.751 14.5571C170.723 14.5297 170.686 14.5144 170.647 14.5144H170.588C170.13 14.5175 169.678 14.6078 169.256 14.7802C168.834 14.9525 168.453 15.2036 168.131 15.5191C167.811 15.8344 167.557 16.2081 167.385 16.6186C167.212 17.0291 167.125 17.4682 167.13 17.9113L167.134 18.6254C167.14 19.5192 167.514 20.3739 168.17 21.0012C168.828 21.6287 169.715 21.9778 170.637 21.9716H170.696C170.717 21.9716 170.737 21.9677 170.756 21.9599C170.773 21.9523 170.79 21.9411 170.804 21.9269C170.818 21.9128 170.829 21.896 170.835 21.8776C170.843 21.8593 170.846 21.8395 170.846 21.8198ZM173.711 15.0093L173.554 21.4514C173.552 21.5066 173.562 21.5617 173.582 21.6132C173.602 21.6648 173.632 21.712 173.669 21.7519C173.708 21.7919 173.753 21.824 173.804 21.8462C173.854 21.8684 173.909 21.8804 173.965 21.8815L174.083 21.8843C174.962 21.9056 175.813 21.5662 176.45 20.9409C177.087 20.3154 177.457 19.4552 177.479 18.5495L177.491 18.0996C177.502 17.6509 177.427 17.2046 177.27 16.7858C177.115 16.3672 176.88 15.9846 176.58 15.6598C176.279 15.3349 175.92 15.0743 175.522 14.8927C175.124 14.7111 174.696 14.6122 174.26 14.6016L174.142 14.5988C174.086 14.5973 174.032 14.6068 173.98 14.6266C173.929 14.6465 173.881 14.6763 173.842 14.7145C173.801 14.7527 173.769 14.7984 173.747 14.849C173.725 14.8996 173.713 14.9541 173.711 15.0093Z" fill="#1A0D4D"/>
<path d="M233.589 19.3868C233.589 21.0193 232.94 22.5848 231.786 23.7392C230.632 24.8936 229.065 25.542 227.434 25.542H226.253C224.62 25.542 223.055 24.8936 221.901 23.7392C220.746 22.5848 220.098 21.0193 220.098 19.3868V17.3622C220.098 15.7298 220.746 14.1642 221.901 13.0099C223.055 11.8555 224.62 11.207 226.253 11.207H227.434C229.065 11.207 230.632 11.8555 231.786 13.0099C232.94 14.1642 233.589 15.7298 233.589 17.3622V19.3868ZM226.811 23.5316C227.844 23.5333 228.837 22.9983 229.568 22.044C230.301 21.0898 230.713 19.7945 230.714 18.4432C230.716 17.7741 230.616 17.1113 230.422 16.4928C230.227 15.8743 229.941 15.3121 229.58 14.8384C229.219 14.3646 228.792 13.9886 228.319 13.7317C227.847 13.4748 227.34 13.3421 226.83 13.3413C225.797 13.3394 224.805 13.8745 224.074 14.8288C223.341 15.783 222.929 17.0783 222.926 18.4296C222.924 19.0987 223.025 19.7614 223.22 20.38C223.414 20.9985 223.7 21.5607 224.06 22.0343C224.421 22.5082 224.85 22.8841 225.321 23.1411C225.794 23.3979 226.3 23.5306 226.811 23.5316Z" fill="#1A0D4D"/>
<path d="M78.9418 31.2351C78.9495 31.2558 79.0009 31.2847 79.0966 31.3222C82.9488 32.8294 85.8367 35.8438 86.2332 40.101C86.9671 47.9715 82.3809 53.2691 74.4289 53.3872C69.2737 53.4621 64.1186 53.4782 58.9635 53.4349C58.5885 53.4312 58.1714 53.39 57.7122 53.3113C57.6312 53.2974 57.5578 53.2552 57.5047 53.1926C57.4518 53.1297 57.4227 53.0504 57.4226 52.9683C57.4245 41.2951 57.4366 29.6117 57.4591 17.918C57.4647 15.9235 57.4291 13.9552 57.3523 12.0131C57.3391 11.6606 57.5088 11.4807 57.8613 11.4732C62.4277 11.3888 66.9661 11.3635 71.4764 11.3973C74.2377 11.417 76.9876 11.76 79.4846 13.0197C81.9899 14.2795 84.1439 16.8495 84.5544 19.6783C85.2686 24.6131 83.6377 28.7719 79.0515 30.9567C79.0011 30.9816 78.9617 31.024 78.9414 31.0757C78.921 31.1275 78.9211 31.1844 78.9418 31.2351ZM65.3015 18.7756L65.2565 27.5712C65.2561 27.6521 65.2716 27.7323 65.3023 27.8071C65.3329 27.882 65.3779 27.9501 65.4348 28.0075C65.4917 28.0649 65.5594 28.1106 65.6341 28.1419C65.7086 28.1732 65.7885 28.1895 65.8694 28.1898L71.5186 28.218C72.7863 28.2247 74.0045 27.7813 74.9052 26.9857C75.8058 26.1898 76.3153 25.1069 76.3212 23.9749L76.3268 22.4845C76.3299 21.924 76.2092 21.3682 75.9717 20.8491C75.7341 20.3299 75.3846 19.8575 74.9428 19.4588C74.501 19.0601 73.9756 18.7429 73.3967 18.5253C72.8179 18.3078 72.1969 18.1941 71.5691 18.1909L65.9201 18.1627C65.8392 18.1622 65.759 18.1778 65.6841 18.2084C65.6093 18.2391 65.5412 18.2842 65.4838 18.3411C65.4264 18.3979 65.3807 18.4657 65.3494 18.5402C65.3181 18.6147 65.3018 18.6949 65.3015 18.7756ZM65.4279 35.8551L65.4843 46.1635C65.485 46.2808 65.5322 46.3931 65.6154 46.4758C65.6986 46.5584 65.8111 46.6049 65.9285 46.6049L72.317 46.5712C73.704 46.564 75.0313 46.041 76.0073 45.1172C76.9834 44.1934 77.5281 42.9443 77.5219 41.6447L77.5163 40.25C77.5093 38.9504 76.9517 37.7069 75.9662 36.793C74.9806 35.8792 73.6478 35.3698 72.2609 35.3771L65.8722 35.4079C65.8137 35.4079 65.7557 35.4196 65.7016 35.4421C65.6474 35.4645 65.5984 35.4975 65.5571 35.539C65.5158 35.5806 65.4832 35.6299 65.4609 35.6842C65.4388 35.7385 65.4276 35.7965 65.4279 35.8551Z" fill="#1A0D4D"/>
<path d="M107.19 18.6503C107.156 18.6765 107.139 18.7122 107.139 18.7571L107.142 53.0735C107.142 53.1478 107.113 53.2192 107.062 53.2723C107.01 53.3253 106.94 53.3559 106.867 53.3573C104.949 53.4099 103.017 53.4353 101.071 53.4334C100.43 53.4334 99.8164 53.3855 99.2296 53.29C99.155 53.2779 99.087 53.2399 99.038 53.1827C98.989 53.1254 98.9622 53.0528 98.9624 52.9778C98.9286 41.6037 98.7037 30.1931 98.9596 18.8528C98.9604 18.8113 98.9529 18.7699 98.9373 18.7313C98.9219 18.6927 98.8991 18.6577 98.8698 18.6283C98.8407 18.5989 98.806 18.5757 98.7678 18.5602C98.7297 18.5446 98.6888 18.537 98.6475 18.5378C95.4851 18.5715 92.3096 18.5575 89.1208 18.4956C88.4985 18.4844 87.8958 18.4404 87.3128 18.3634C87.2144 18.3513 87.1237 18.3038 87.0574 18.2299C86.9913 18.1559 86.9541 18.0605 86.9529 17.9615L86.8516 11.8568C86.8508 11.7966 86.8622 11.7369 86.8847 11.6812C86.9073 11.6254 86.9409 11.5747 86.9832 11.532C87.0257 11.4894 87.0761 11.4556 87.1318 11.4326C87.1873 11.4097 87.247 11.3981 87.3072 11.3984L120.077 11.4153C120.116 11.4156 120.154 11.4252 120.188 11.4434C120.223 11.4616 120.252 11.4878 120.274 11.5198C120.296 11.5519 120.31 11.5887 120.315 11.6273C120.32 11.6659 120.315 11.7051 120.302 11.7415C119.61 13.5955 118.972 15.4907 118.387 17.4271C118.282 17.7759 118.118 18.0907 117.895 18.372C117.835 18.4488 117.755 18.4919 117.656 18.5012C117.277 18.535 116.764 18.5529 116.115 18.5547C113.262 18.5641 110.409 18.5519 107.556 18.5182C107.417 18.5163 107.295 18.5603 107.19 18.6503Z" fill="#1A0D4D"/>
<path d="M131.4 27.6698C131.67 27.7729 131.988 27.8188 132.354 27.8076C134.86 27.7308 137.367 27.7382 139.875 27.8302C148.767 28.1536 152.999 34.6236 152.003 43.093C151.356 48.6099 147.198 52.6085 141.697 53.137C140.213 53.2795 139.137 53.3564 138.469 53.3677C133.449 53.4483 128.457 53.453 123.493 53.3817C123.137 53.3761 122.959 53.1952 122.959 52.839L122.914 11.8389C122.914 11.738 122.954 11.6412 123.024 11.5695C123.095 11.4979 123.191 11.4573 123.291 11.4565C131.681 11.4059 140.061 11.4115 148.452 11.4368C148.871 11.4387 149.335 11.4865 149.841 11.5802C149.863 11.5843 149.884 11.5931 149.903 11.606C149.921 11.619 149.937 11.6358 149.948 11.6552C149.96 11.6747 149.967 11.6964 149.969 11.7189C149.971 11.7414 149.969 11.7641 149.962 11.7855L147.881 18.191C147.868 18.2276 147.848 18.261 147.82 18.2882C147.792 18.3156 147.758 18.3363 147.721 18.3484C147.316 18.4853 146.95 18.5538 146.624 18.5538C141.579 18.5519 136.536 18.5312 131.493 18.4919C131.455 18.4916 131.417 18.4987 131.381 18.513C131.346 18.5275 131.314 18.5488 131.287 18.5757C131.259 18.6026 131.238 18.6347 131.223 18.67C131.208 18.7053 131.201 18.7432 131.201 18.7815L131.218 27.4055C131.217 27.4626 131.235 27.5186 131.267 27.5657C131.3 27.613 131.346 27.6493 131.4 27.6698ZM131.24 34.9976L131.164 45.9078C131.163 46.0236 131.209 46.135 131.29 46.2178C131.371 46.3005 131.481 46.3477 131.597 46.3492L138.27 46.397C138.982 46.4023 139.688 46.2669 140.349 45.9988C141.009 45.7307 141.61 45.3352 142.117 44.8346C142.624 44.334 143.028 43.7384 143.305 43.0815C143.583 42.4247 143.728 41.7197 143.733 41.0067L143.739 40.0788C143.744 39.3657 143.609 38.6586 143.341 37.9978C143.073 37.3371 142.678 36.7356 142.178 36.2277C141.678 35.7198 141.083 35.3155 140.427 35.038C139.771 34.7603 139.066 34.6147 138.354 34.6096L131.681 34.5646C131.566 34.5639 131.454 34.609 131.371 34.69C131.289 34.7712 131.242 34.8818 131.24 34.9976Z" fill="#1A0D4D"/>
<path d="M190.55 22.6035C190.506 22.4805 190.426 22.3739 190.32 22.2988C190.214 22.2236 190.086 22.1837 189.957 22.1844L185.104 22.2098C184.958 22.2104 184.816 22.254 184.696 22.335C184.575 22.4161 184.482 22.531 184.426 22.6653L183.438 25.0386C183.393 25.1492 183.31 25.243 183.2 25.3074C183.09 25.3718 182.957 25.4037 182.824 25.3985L180.857 25.3338C180.584 25.3245 180.503 25.1951 180.616 24.9457C181.887 22.1451 183.16 18.4813 184.004 16.3301C184.583 14.8549 185.152 13.3758 185.714 11.893C186 11.1366 188.126 11.3784 188.778 11.4572C188.892 11.4716 189.001 11.5166 189.091 11.5874C189.181 11.6582 189.251 11.7521 189.293 11.8593L194.342 24.7855C194.498 25.1829 194.363 25.3834 193.935 25.3872L192.172 25.4041C191.749 25.4079 191.466 25.2092 191.323 24.808L190.55 22.6035ZM185.48 19.8732C185.468 19.9093 185.466 19.9476 185.473 19.985C185.477 20.0225 185.493 20.058 185.515 20.0888C185.536 20.1196 185.566 20.145 185.599 20.1627C185.633 20.1803 185.67 20.1901 185.708 20.1908L189.321 20.2444C189.36 20.2448 189.399 20.2361 189.433 20.2188C189.469 20.2016 189.498 20.1762 189.522 20.1448C189.545 20.1135 189.561 20.077 189.567 20.0386C189.573 20.0001 189.57 19.9608 189.558 19.9238L187.688 14.2775C187.671 14.228 187.64 14.185 187.598 14.1546C187.556 14.1243 187.504 14.1083 187.451 14.109C187.4 14.1096 187.349 14.1268 187.308 14.1581C187.266 14.1895 187.235 14.2332 187.221 14.2831L185.48 19.8732Z" fill="#1A0D4D"/>
<path d="M199.634 16.7486C199.525 16.786 199.46 16.845 199.436 16.9257C199.413 17.0119 199.443 17.0419 199.53 17.0157C199.751 16.9463 199.811 16.8431 199.712 16.7064C200.222 16.2996 200.588 15.9481 200.808 15.6519C201.703 14.4503 202.759 13.1793 203.976 11.839C204.091 11.7128 204.229 11.6111 204.383 11.54C204.539 11.469 204.705 11.4301 204.875 11.4256L207.371 11.3638C207.712 11.3544 207.771 11.4791 207.549 11.7377C206.132 13.4024 204.613 15.1073 202.991 16.8526C202.756 17.1076 202.515 17.4553 202.266 17.8958C202.219 17.9801 202.218 18.0655 202.263 18.1517C202.358 18.3391 202.476 18.5088 202.614 18.6607C204.433 20.6711 205.839 22.6001 207.956 24.7793C208.322 25.1579 208.242 25.3558 207.715 25.3726L205.617 25.4373C205.113 25.4541 204.686 25.2808 204.335 24.9171C202.661 23.1868 201.168 21.3197 199.853 19.3159C199.836 19.2908 199.814 19.2704 199.788 19.2561C199.762 19.242 199.732 19.2347 199.702 19.2347C199.673 19.2347 199.643 19.242 199.617 19.2561C199.59 19.2704 199.569 19.2908 199.552 19.3159C199.483 19.4207 199.449 19.5876 199.45 19.8163C199.477 21.5521 199.447 23.2553 199.363 24.9255C199.357 25.0338 199.31 25.1358 199.234 25.2119C199.156 25.2878 199.054 25.332 198.945 25.336L197.01 25.3951C196.949 25.3967 196.89 25.3761 196.843 25.3374C196.797 25.2987 196.764 25.2442 196.755 25.1842C196.691 24.8261 196.657 24.4428 196.654 24.0342C196.632 19.8987 196.622 15.7879 196.626 11.7012C196.626 11.6519 196.643 11.6042 196.674 11.5666C196.706 11.529 196.75 11.5039 196.8 11.4959C197.674 11.3535 198.547 11.3713 199.418 11.5494C199.519 11.57 199.569 11.6328 199.569 11.7377C199.547 13.3293 199.491 14.9208 199.401 16.5123C199.393 16.6622 199.471 16.7411 199.634 16.7486Z" fill="#1A0D4D"/>
<path d="M212.121 13.8389L209.005 13.8249C208.946 13.8245 208.888 13.8125 208.834 13.7895C208.779 13.7666 208.73 13.7331 208.688 13.6911C208.647 13.6491 208.613 13.5993 208.591 13.5445C208.569 13.4898 208.559 13.4312 208.559 13.3721L208.563 11.8847C208.563 11.8256 208.576 11.7671 208.597 11.7125C208.621 11.6579 208.653 11.6083 208.695 11.5665C208.737 11.5248 208.787 11.4916 208.842 11.469C208.896 11.4464 208.955 11.4348 209.014 11.4348L218.917 11.3926C218.979 11.3921 219.04 11.4043 219.097 11.4285C219.153 11.4526 219.205 11.4883 219.248 11.5331C219.29 11.578 219.323 11.6311 219.343 11.6891C219.365 11.7472 219.374 11.809 219.37 11.8706L219.278 13.3665C219.27 13.4795 219.22 13.5856 219.139 13.6638C219.057 13.7419 218.948 13.7864 218.836 13.7883L215.571 13.8502C215.453 13.8524 215.341 13.9008 215.258 13.9849C215.176 14.069 215.129 14.1822 215.129 14.3001L215.121 24.9178C215.121 25.0365 215.075 25.1505 214.991 25.2349C214.907 25.3192 214.793 25.3669 214.673 25.3677L212.934 25.3789C212.874 25.3792 212.815 25.3679 212.76 25.3451C212.704 25.3226 212.654 25.2893 212.612 25.2471C212.57 25.205 212.538 25.1549 212.514 25.0998C212.493 25.0448 212.48 24.9858 212.48 24.9262L212.57 14.2945C212.572 14.2349 212.561 14.1758 212.538 14.1206C212.516 14.0653 212.483 14.0151 212.441 13.9727C212.399 13.9303 212.349 13.8967 212.295 13.8737C212.239 13.8507 212.18 13.8389 212.121 13.8389Z" fill="#1A0D4D"/>
<path d="M239.167 20.3873L239.156 25.1C239.156 25.1648 239.131 25.2268 239.086 25.273C239.041 25.3194 238.979 25.346 238.914 25.3475L236.608 25.4206C236.565 25.4222 236.52 25.4147 236.479 25.3989C236.437 25.3832 236.4 25.3592 236.367 25.3286C236.336 25.2978 236.31 25.261 236.293 25.2204C236.275 25.1797 236.266 25.136 236.266 25.0916L236.176 11.7408C236.174 11.6624 236.204 11.5868 236.258 11.5301C236.313 11.4734 236.387 11.44 236.465 11.4371C239.704 11.3218 245.494 10.5823 245.682 15.4609C245.828 19.2795 242.694 20.109 239.6 19.9712C239.545 19.9686 239.489 19.9773 239.436 19.997C239.383 20.0168 239.335 20.047 239.295 20.0859C239.254 20.1248 239.223 20.1716 239.201 20.2234C239.178 20.2752 239.167 20.331 239.167 20.3873ZM239.17 13.9313L239.133 17.4349C239.133 17.4903 239.142 17.5452 239.164 17.5967C239.184 17.6482 239.214 17.6951 239.253 17.7348C239.292 17.7745 239.338 17.8062 239.388 17.828C239.439 17.8499 239.494 17.8616 239.55 17.8622L239.957 17.8652C240.699 17.8729 241.413 17.6884 241.941 17.352C242.47 17.0157 242.77 16.5549 242.775 16.0711L242.781 15.3738C242.784 15.134 242.714 14.8958 242.575 14.6727C242.437 14.4497 242.233 14.2462 241.977 14.0738C241.718 13.9015 241.41 13.7637 241.073 13.6683C240.734 13.5729 240.37 13.5218 240.003 13.5179L239.595 13.5151C239.483 13.5143 239.376 13.5577 239.296 13.6356C239.217 13.7136 239.172 13.8199 239.17 13.9313Z" fill="#1A0D4D"/>
<path d="M256.552 16.0095C256.67 15.8109 256.734 15.5934 256.746 15.3572C256.748 15.341 256.743 15.3249 256.735 15.3106C256.728 15.2965 256.717 15.2848 256.701 15.2771C256.687 15.2694 256.67 15.266 256.655 15.2672C256.637 15.2684 256.622 15.2743 256.608 15.2841C256.409 15.4322 256.348 15.6271 256.426 15.8689C256.395 15.8353 256.365 15.8155 256.336 15.8099C256.309 15.8062 256.281 15.8193 256.253 15.8493C256.006 16.1136 255.858 16.2926 255.81 16.3864C254.155 19.5601 252.568 22.4028 251.051 24.9147C250.61 25.6487 248.785 25.4603 248.065 25.359C247.965 25.3449 247.875 25.2949 247.808 25.2185C247.743 25.1422 247.705 25.0443 247.705 24.9429L247.699 11.7467C247.699 11.563 247.793 11.4693 247.976 11.4655L250.199 11.4121C250.246 11.411 250.292 11.4193 250.336 11.4364C250.379 11.4536 250.42 11.4794 250.453 11.5122C250.487 11.545 250.512 11.5841 250.53 11.6273C250.547 11.6705 250.557 11.7169 250.557 11.7636L250.484 20.3061C250.476 21.0409 250.691 21.1122 251.128 20.5198C251.478 20.0418 251.849 19.4166 252.241 18.6443C253.57 16.0199 254.853 13.7188 256.09 11.7411C256.23 11.5162 256.459 11.3943 256.777 11.3756C257.642 11.3249 258.506 11.3484 259.366 11.4459C259.455 11.4571 259.498 11.5058 259.498 11.5921L259.465 25.0216C259.465 25.0935 259.441 25.163 259.394 25.2184C259.349 25.2738 259.285 25.3116 259.215 25.3253C258.44 25.4733 257.664 25.4838 256.886 25.3562C256.804 25.3424 256.728 25.2994 256.673 25.235C256.619 25.1706 256.589 25.0891 256.588 25.0048L256.552 16.0095ZM250.44 21.6069C250.456 21.6121 250.473 21.6098 250.493 21.6C250.512 21.5901 250.532 21.5729 250.552 21.5493C250.572 21.5258 250.593 21.4964 250.611 21.4628C250.63 21.4291 250.645 21.3919 250.659 21.3533C250.687 21.2754 250.701 21.1963 250.7 21.1335C250.698 21.0708 250.681 21.0294 250.65 21.0187C250.635 21.0134 250.617 21.0157 250.599 21.0255C250.58 21.0355 250.56 21.0526 250.54 21.0761C250.519 21.0997 250.499 21.1291 250.481 21.1627C250.462 21.1963 250.445 21.2337 250.432 21.2723C250.404 21.3502 250.389 21.4292 250.39 21.4921C250.393 21.5547 250.411 21.596 250.44 21.6069Z" fill="#1A0D4D"/>
<path d="M265.685 16.9837L270.723 17.0259C270.988 17.0277 271.12 16.8957 271.117 16.6294L271.086 11.7733C271.086 11.7276 271.095 11.6824 271.112 11.6401C271.129 11.5978 271.154 11.5593 271.187 11.5269C271.219 11.4945 271.257 11.4688 271.299 11.4512C271.341 11.4336 271.386 11.4246 271.433 11.4246L273.825 11.4077C273.921 11.4077 273.968 11.4556 273.968 11.5512L273.923 24.9555C273.923 25.0502 273.889 25.1417 273.827 25.2134C273.766 25.2849 273.68 25.3322 273.585 25.3462C272.857 25.4587 272.131 25.454 271.409 25.3322C271.195 25.2966 271.086 25.17 271.086 24.9527V19.7422C271.086 19.6566 271.053 19.5745 270.992 19.5135C270.933 19.4525 270.851 19.4175 270.765 19.416L265.867 19.3485C265.822 19.3477 265.777 19.3561 265.735 19.3732C265.693 19.3903 265.654 19.4157 265.621 19.4479C265.588 19.4801 265.563 19.5183 265.545 19.5606C265.528 19.6031 265.518 19.6485 265.518 19.6944L265.521 25.051C265.521 25.2778 265.409 25.3912 265.184 25.3912L262.942 25.3941C262.865 25.3941 262.788 25.3627 262.732 25.3067C262.676 25.2509 262.645 25.1751 262.645 25.0959L262.617 11.7199C262.616 11.642 262.647 11.5671 262.701 11.5113C262.756 11.4554 262.83 11.4233 262.91 11.4218L265.339 11.3965C265.371 11.3961 265.402 11.4021 265.431 11.4141C265.459 11.4262 265.486 11.4439 265.509 11.4665C265.531 11.489 265.548 11.5158 265.56 11.5453C265.573 11.5748 265.577 11.6065 265.577 11.6383L265.504 16.8037C265.504 16.8272 265.509 16.8506 265.518 16.8723C265.526 16.8943 265.54 16.914 265.556 16.9308C265.573 16.9476 265.593 16.9608 265.615 16.97C265.637 16.979 265.661 16.9837 265.685 16.9837Z" fill="#1A0D4D"/>
<path d="M279.439 25.288L277.839 25.3499C277.779 25.3521 277.72 25.3425 277.664 25.3213C277.608 25.3002 277.556 25.2681 277.514 25.227C277.471 25.1858 277.437 25.1365 277.412 25.0818C277.388 25.027 277.376 24.968 277.374 24.9085L277.234 11.8894C277.234 11.8304 277.245 11.772 277.267 11.7174C277.29 11.6628 277.323 11.6132 277.363 11.5714C277.405 11.5296 277.455 11.4964 277.51 11.4738C277.564 11.4511 277.622 11.4395 277.681 11.4395L284.947 11.4704C285.007 11.4707 285.068 11.4833 285.124 11.5075C285.179 11.5317 285.23 11.567 285.27 11.6112C285.312 11.6554 285.345 11.7076 285.365 11.7646C285.385 11.8216 285.395 11.8822 285.392 11.9428L285.322 13.2559C285.315 13.3682 285.267 13.4739 285.186 13.552C285.105 13.6302 284.998 13.6751 284.886 13.6777L280.395 13.7818C280.279 13.7847 280.17 13.8323 280.087 13.9146C280.006 13.9969 279.96 14.1075 279.96 14.2232L279.869 24.8438C279.868 24.9589 279.823 25.0695 279.743 25.1522C279.663 25.235 279.554 25.2837 279.439 25.288Z" fill="#1A0D4D"/>
<path d="M256.549 16.0083C256.478 15.9876 256.436 15.9408 256.423 15.8676C256.345 15.6258 256.408 15.4308 256.605 15.2828C256.619 15.273 256.635 15.2671 256.652 15.2659C256.669 15.2646 256.684 15.2681 256.7 15.2758C256.714 15.2835 256.726 15.2951 256.734 15.3093C256.742 15.3235 256.745 15.3397 256.744 15.3559C256.733 15.592 256.667 15.8095 256.549 16.0083Z" fill="#1A0D4D"/>
<path d="M199.635 16.7472C199.661 16.734 199.688 16.72 199.713 16.7051C199.812 16.8418 199.752 16.9449 199.531 17.0143C199.444 17.0406 199.414 17.0106 199.437 16.9244C199.461 16.8437 199.526 16.7847 199.635 16.7472Z" fill="#1A0D4D"/>
<path d="M250.432 21.272C250.373 21.4344 250.378 21.5842 250.44 21.6066C250.504 21.629 250.602 21.5154 250.659 21.353C250.717 21.1906 250.714 21.0408 250.65 21.0184C250.588 20.996 250.49 21.1096 250.432 21.272Z" fill="#1A0D4D"/>
<path d="M7.96529 21.1192L41.9694 21.2147C42.0206 21.2148 42.071 21.2274 42.1164 21.2511C42.1616 21.2747 42.2007 21.3089 42.2302 21.3508C42.2596 21.3926 42.2786 21.4408 42.2856 21.4916C42.2926 21.5423 42.2873 21.5939 42.2704 21.6421L40.1783 27.5414C40.1562 27.6036 40.1155 27.6576 40.0616 27.6959C40.0078 27.7342 39.9434 27.7548 39.8775 27.7552L5.71578 27.8535C5.66394 27.8536 5.61283 27.8412 5.56686 27.8172C5.52089 27.7933 5.48142 27.7584 5.45184 27.716C5.42225 27.6733 5.40344 27.6242 5.39701 27.5727C5.39058 27.5214 5.39672 27.4691 5.41491 27.4206L7.66161 21.3299C7.68426 21.2677 7.72561 21.214 7.77999 21.1764C7.83436 21.1386 7.8991 21.1185 7.96529 21.1192Z" fill="#1A0D4D"/>
</svg>
