<svg width="131" height="24" viewBox="0 0 131 24" fill="none" xmlns="http://www.w3.org/2000/svg">
<path d="M61.2642 10.277C60.7717 10.277 60.3449 10.3755 59.9837 10.5396C59.6226 10.7038 59.2943 10.9336 59.0316 11.2619C58.769 11.5574 58.572 11.9186 58.4078 12.3454C58.2436 12.7722 58.1123 13.2319 58.0467 13.7572H64.219V13.396C64.219 12.9692 64.1534 12.5424 64.022 12.1484C63.8907 11.7544 63.7266 11.4261 63.4967 11.1635C63.2669 10.9008 62.9386 10.671 62.5775 10.5068C62.2163 10.3427 61.7895 10.277 61.2642 10.277ZM61.7895 23.935C60.509 23.935 59.3271 23.738 58.3093 23.3112C57.2915 22.8844 56.4051 22.3263 55.7156 21.604C54.9933 20.8817 54.468 20.028 54.074 19.0431C53.7129 18.0581 53.5159 17.0075 53.5159 15.8912V15.3003C53.5159 14.0527 53.7129 12.8707 54.074 11.8201C54.4352 10.7695 54.9605 9.85018 55.6171 9.09505C56.2737 8.33991 57.0945 7.74894 58.0795 7.32213C59.0316 6.89531 60.1151 6.69832 61.297 6.69832C62.5118 6.69832 63.5624 6.89531 64.4817 7.2893C65.401 7.68328 66.1561 8.24142 66.7799 8.96372C67.4037 9.68602 67.8634 10.5396 68.1917 11.5574C68.52 12.5752 68.6513 13.6915 68.6513 14.9063V16.7449H58.0467C58.1123 17.303 58.2765 17.7955 58.4735 18.2223C58.7033 18.6491 58.966 19.0431 59.3271 19.3386C59.6554 19.6669 60.0822 19.8967 60.5419 20.0609C61.0015 20.225 61.5268 20.3235 62.085 20.3235C62.9058 20.3235 63.6281 20.1594 64.3175 19.8639C65.007 19.5684 65.598 19.0759 66.0905 18.4521L68.2902 20.9145C68.0275 21.3085 67.6992 21.6696 67.3052 22.0308C66.9112 22.3919 66.4188 22.7202 65.8935 22.9829C65.3353 23.2784 64.7444 23.4754 64.0549 23.6724C63.3326 23.8694 62.5774 23.935 61.7895 23.935ZM46.9167 19.0431C46.9167 18.8133 46.8838 18.5834 46.7853 18.3865C46.6868 18.1895 46.5227 18.0253 46.26 17.8283C45.9974 17.6642 45.6691 17.5 45.2094 17.3358C44.7826 17.1717 44.1916 17.0403 43.5022 16.8762C42.6485 16.6792 41.8606 16.4494 41.1383 16.1867C40.416 15.9241 39.7922 15.5629 39.2669 15.1689C38.7415 14.775 38.3147 14.2825 38.0192 13.7243C37.7238 13.1662 37.5596 12.5424 37.5596 11.8201C37.5596 11.1306 37.7238 10.474 38.0192 9.85018C38.3147 9.22637 38.7416 8.66823 39.3325 8.20859C39.8907 7.71611 40.613 7.35496 41.4338 7.0923C42.2546 6.82965 43.2067 6.66549 44.2245 6.66549C45.3079 6.66549 46.26 6.79682 47.1465 7.05947C48.033 7.32213 48.7553 7.68328 49.3462 8.17575C49.9372 8.66823 50.3968 9.22637 50.7252 9.88301C51.0535 10.5396 51.2176 11.2619 51.2176 12.0499H46.7853C46.7853 11.4261 46.5884 10.9008 46.1615 10.474C45.7347 10.0472 45.1109 9.85018 44.2245 9.85018C43.4693 9.85018 42.9112 10.0143 42.4844 10.3427C42.0576 10.671 41.8606 11.0978 41.8606 11.6231C41.8606 11.8858 41.9262 12.0827 42.0247 12.2797C42.1232 12.4767 42.3202 12.6409 42.55 12.805C42.7799 12.9692 43.1082 13.1005 43.5022 13.2319C43.8961 13.3632 44.3886 13.4945 44.9468 13.593C45.8332 13.7572 46.6869 13.987 47.442 14.2496C48.1971 14.5123 48.8866 14.8406 49.4447 15.2346C50.0029 15.6286 50.4297 16.1211 50.758 16.712C51.0863 17.303 51.2505 17.9925 51.2505 18.8133C51.2505 19.5356 51.0863 20.225 50.758 20.8488C50.4297 21.4726 49.97 21.9979 49.3462 22.4576C48.7224 22.9172 48.0001 23.2784 47.1465 23.5082C46.2929 23.7709 45.3079 23.9022 44.2573 23.9022C43.0753 23.9022 42.0576 23.738 41.1711 23.4097C40.2846 23.0814 39.5295 22.6546 38.9057 22.1293C38.2819 21.604 37.8223 20.9802 37.5268 20.3235C37.2313 19.6669 37.0671 18.9774 37.0671 18.3208H41.2696C41.3024 18.7476 41.4009 19.1088 41.5651 19.4371C41.7292 19.7654 41.9591 19.9952 42.2217 20.1922C42.4844 20.3892 42.8127 20.5205 43.1738 20.619C43.535 20.7175 43.929 20.7503 44.323 20.7503C45.1766 20.7503 45.8332 20.5862 46.26 20.2579C46.7197 19.9952 46.9167 19.5684 46.9167 19.0431ZM26.9878 20.5534C27.3817 20.5534 27.7101 20.5205 28.0384 20.422C28.3667 20.3235 28.6622 20.225 28.892 20.0609C29.1547 19.8967 29.3845 19.7326 29.5486 19.5356C29.7456 19.3386 29.877 19.1416 30.0083 18.9446V16.0882H28.1697C27.5787 16.0882 27.0863 16.1539 26.6594 16.2852C26.2326 16.4165 25.8715 16.5807 25.6088 16.8105C25.3462 17.0403 25.1163 17.303 24.985 17.6313C24.8537 17.9596 24.788 18.288 24.788 18.6491C24.788 19.2072 24.985 19.6669 25.379 20.028C25.773 20.3564 26.2983 20.5534 26.9878 20.5534ZM30.6649 23.6395C30.4679 23.2456 30.3038 22.7531 30.2053 22.1621C29.7456 22.6546 29.1875 23.0814 28.498 23.4426C27.8086 23.8037 26.9878 23.9679 26.0028 23.9679C25.2148 23.9679 24.4597 23.8365 23.7702 23.6067C23.0808 23.3441 22.4898 23.0157 21.9645 22.5889C21.472 22.1621 21.0452 21.6368 20.7825 21.013C20.4871 20.3564 20.3557 19.6997 20.3557 18.9774C20.3557 18.091 20.5199 17.3358 20.8482 16.6464C21.1765 15.9569 21.669 15.3988 22.2928 14.9391C22.9494 14.4795 23.7374 14.1183 24.6895 13.8557C25.6417 13.593 26.7579 13.4617 28.0384 13.4617H30.0083V12.5096C30.0083 11.7544 29.8113 11.1306 29.4173 10.671C29.0233 10.2113 28.3995 9.9815 27.5459 9.9815C26.7908 9.9815 26.1998 10.1457 25.773 10.5068C25.3462 10.868 25.1492 11.3604 25.1492 11.9842H20.7169C20.7169 11.2619 20.881 10.5725 21.2094 9.94867C21.5377 9.29204 22.0302 8.7339 22.6211 8.24142C23.2449 7.74894 23.9672 7.38779 24.8537 7.0923C25.7401 6.79682 26.6923 6.66549 27.7757 6.66549C28.7278 6.66549 29.6471 6.79682 30.4679 7.02664C31.2887 7.2893 32.011 7.65044 32.602 8.14292C33.193 8.6354 33.6526 9.22637 33.9809 9.9815C34.3093 10.7038 34.4734 11.5574 34.4734 12.5424V19.6012C34.4734 20.0609 34.4734 20.4877 34.5062 20.8817C34.5391 21.2428 34.5719 21.604 34.6376 21.8995C34.7032 22.1949 34.7689 22.4904 34.8346 22.7202C34.9331 22.9501 34.9987 23.1799 35.13 23.4097V23.6395H30.6649ZM18.2545 16.1867C18.1888 17.3358 17.9262 18.3864 17.4994 19.3386C17.0725 20.2907 16.4816 21.1115 15.7264 21.801C14.9713 22.4904 14.052 23.0157 12.9686 23.4097C11.8851 23.8037 10.6375 24.0007 9.25857 24.0007C7.81397 24.0007 6.53353 23.738 5.38442 23.2456C4.2353 22.7531 3.28318 22.0308 2.46239 21.1115C1.67442 20.1922 1.05062 19.0431 0.623805 17.7298C0.196991 16.318 0 14.8406 0 13.199V11.7216C0 10.08 0.229823 8.56974 0.656636 7.25646C1.08345 5.91036 1.70725 4.79408 2.52805 3.84195C3.34885 2.92266 4.30097 2.20036 5.45008 1.67505C6.5992 1.18258 7.87964 0.919922 9.2914 0.919922C10.6703 0.919922 11.918 1.11691 13.0014 1.51089C14.0849 1.90488 14.9713 2.46302 15.7264 3.15249C16.4816 3.84195 17.0725 4.69558 17.4665 5.6477C17.8933 6.63266 18.156 7.68328 18.2545 8.79956H13.6909C13.6252 8.14292 13.5267 7.55195 13.3297 7.02664C13.1656 6.50133 12.9029 6.07452 12.5418 5.7462C12.2134 5.38505 11.7538 5.1224 11.2285 4.95824C10.7032 4.79408 10.0465 4.69558 9.2914 4.69558C7.71548 4.69558 6.56636 5.25372 5.81123 6.40284C5.0561 7.55195 4.66212 9.29204 4.66212 11.6888V13.199C4.66212 14.3481 4.76061 15.3659 4.92477 16.2524C5.08893 17.1388 5.35159 17.8611 5.71274 18.4521C6.07389 19.0431 6.53353 19.4699 7.12451 19.7654C7.71548 20.0609 8.40495 20.1922 9.22574 20.1922C9.94804 20.1922 10.5718 20.1265 11.0972 19.9295C11.6225 19.7654 12.0821 19.5027 12.4104 19.1744C12.7716 18.8461 13.0342 18.4193 13.2312 17.9268C13.4282 17.4343 13.5595 16.8434 13.5924 16.1867H18.2545Z" fill="#21303F"/>
<path d="M121.181 16.9741L119.572 18.5828V23.6389H115.14V0H119.572V13.0999L120.426 11.9836L124.694 6.99318H130.045L124.037 13.9207L130.571 23.6389H125.449L121.181 16.9741ZM101.088 15.4966C101.088 16.1861 101.153 16.8099 101.285 17.4009C101.416 17.9918 101.613 18.5171 101.876 18.944C102.138 19.3708 102.5 19.7319 102.926 19.9946C103.353 20.2572 103.911 20.3886 104.535 20.3886C105.159 20.3886 105.684 20.2572 106.111 19.9946C106.538 19.7319 106.899 19.4036 107.195 18.944C107.457 18.5171 107.687 17.9918 107.785 17.4009C107.917 16.8099 107.982 16.1533 107.982 15.4966V15.1683C107.982 14.5117 107.917 13.8879 107.785 13.2969C107.654 12.7059 107.457 12.1806 107.195 11.7538C106.932 11.2941 106.571 10.9658 106.111 10.7032C105.684 10.4405 105.126 10.3092 104.502 10.3092C103.878 10.3092 103.353 10.4405 102.926 10.7032C102.5 10.9658 102.138 11.327 101.876 11.7538C101.613 12.2134 101.416 12.7059 101.285 13.2969C101.153 13.8879 101.088 14.5117 101.088 15.1683V15.4966ZM96.6227 15.1683C96.6227 13.9535 96.7868 12.8372 97.148 11.7866C97.5091 10.736 98.0016 9.84955 98.6582 9.09441C99.3149 8.33928 100.136 7.74831 101.121 7.3215C102.106 6.89468 103.222 6.66486 104.469 6.66486C105.717 6.66486 106.866 6.89468 107.851 7.3215C108.836 7.74831 109.657 8.33928 110.346 9.09441C111.003 9.84955 111.528 10.736 111.889 11.7866C112.251 12.8372 112.415 13.9535 112.415 15.1683V15.4966C112.415 16.7114 112.251 17.8277 111.889 18.8783C111.528 19.8961 111.036 20.8154 110.346 21.5705C109.69 22.3256 108.836 22.9166 107.884 23.3434C106.899 23.7702 105.783 23.9672 104.535 23.9672C103.288 23.9672 102.138 23.7702 101.186 23.3434C100.201 22.9166 99.3805 22.3256 98.7239 21.5705C98.0673 20.8154 97.542 19.9289 97.1808 18.8783C96.8197 17.8605 96.6555 16.7114 96.6555 15.4966V15.1683H96.6227ZM83.2601 15.4966C83.2601 16.1861 83.3258 16.8099 83.4571 17.4009C83.5884 17.9918 83.7854 18.5171 84.0481 18.944C84.3107 19.3708 84.6719 19.7319 85.0987 19.9946C85.5255 20.2572 86.0837 20.3886 86.7075 20.3886C87.3313 20.3886 87.8566 20.2572 88.2834 19.9946C88.7102 19.7319 89.0714 19.4036 89.3668 18.944C89.6295 18.5171 89.8593 17.9918 89.9578 17.4009C90.0891 16.8099 90.1548 16.1533 90.1548 15.4966V15.1683C90.1548 14.5117 90.0891 13.8879 89.9578 13.2969C89.8265 12.7059 89.6295 12.1806 89.3668 11.7538C89.1042 11.2941 88.743 10.9658 88.2834 10.7032C87.8566 10.4405 87.2984 10.3092 86.6746 10.3092C86.0508 10.3092 85.5255 10.4405 85.0987 10.7032C84.6719 10.9658 84.3107 11.327 84.0481 11.7538C83.7854 12.2134 83.5884 12.7059 83.4571 13.2969C83.3258 13.8879 83.2601 14.5117 83.2601 15.1683V15.4966ZM78.795 15.1683C78.795 13.9535 78.9592 12.8372 79.3203 11.7866C79.6815 10.736 80.1739 9.84955 80.8306 9.09441C81.4872 8.33928 82.308 7.74831 83.2929 7.3215C84.2779 6.89468 85.3942 6.66486 86.6418 6.66486C87.8894 6.66486 89.0385 6.89468 90.0235 7.3215C91.0084 7.74831 91.8292 8.33928 92.5187 9.09441C93.1753 9.84955 93.7006 10.736 94.0618 11.7866C94.4229 12.8372 94.5871 13.9535 94.5871 15.1683V15.4966C94.5871 16.7114 94.4229 17.8277 94.0618 18.8783C93.7006 19.8961 93.2082 20.8154 92.5187 21.5705C91.8621 22.3256 91.0084 22.9166 90.0563 23.3434C89.0713 23.7702 87.9551 23.9672 86.7075 23.9672C85.4599 23.9672 84.3107 23.7702 83.3586 23.3434C82.3737 22.9166 81.5529 22.3256 80.8962 21.5705C80.2396 20.8154 79.7143 19.9289 79.3531 18.8783C78.992 17.8605 78.8278 16.7114 78.8278 15.4966V15.1683H78.795ZM75.8401 23.6389H71.375V0H75.8401V23.6389Z" fill="#FAA700"/>
</svg>
