<svg width="141" height="24" viewBox="0 0 141 24" fill="none" xmlns="http://www.w3.org/2000/svg">
<path d="M61.2642 10.277C60.7717 10.277 60.3449 10.3755 59.9837 10.5396C59.6226 10.7038 59.2943 10.9336 59.0316 11.2619C58.769 11.5574 58.572 11.9186 58.4078 12.3454C58.2436 12.7722 58.1123 13.2319 58.0467 13.7572H64.219V13.396C64.219 12.9692 64.1534 12.5424 64.022 12.1484C63.8907 11.7544 63.7266 11.4261 63.4967 11.1635C63.2669 10.9008 62.9386 10.671 62.5775 10.5068C62.2163 10.3427 61.7895 10.277 61.2642 10.277ZM61.7895 23.935C60.509 23.935 59.3271 23.738 58.3093 23.3112C57.2915 22.8844 56.4051 22.3263 55.7156 21.604C54.9933 20.8817 54.468 20.028 54.074 19.0431C53.7129 18.0581 53.5159 17.0075 53.5159 15.8912V15.3003C53.5159 14.0527 53.7129 12.8707 54.074 11.8201C54.4352 10.7695 54.9605 9.85018 55.6171 9.09505C56.2737 8.33991 57.0945 7.74894 58.0795 7.32213C59.0316 6.89531 60.1151 6.69832 61.297 6.69832C62.5118 6.69832 63.5624 6.89531 64.4817 7.2893C65.401 7.68328 66.1561 8.24142 66.7799 8.96372C67.4037 9.68602 67.8634 10.5396 68.1917 11.5574C68.52 12.5752 68.6513 13.6915 68.6513 14.9063V16.7449H58.0467C58.1123 17.303 58.2765 17.7955 58.4735 18.2223C58.7033 18.6491 58.966 19.0431 59.3271 19.3386C59.6554 19.6669 60.0822 19.8967 60.5419 20.0609C61.0015 20.225 61.5268 20.3235 62.085 20.3235C62.9058 20.3235 63.6281 20.1594 64.3175 19.8639C65.007 19.5684 65.598 19.0759 66.0905 18.4521L68.2902 20.9145C68.0275 21.3085 67.6992 21.6696 67.3052 22.0308C66.9112 22.3919 66.4188 22.7202 65.8935 22.9829C65.3353 23.2784 64.7444 23.4754 64.0549 23.6724C63.3326 23.8694 62.5774 23.935 61.7895 23.935ZM46.9167 19.0431C46.9167 18.8133 46.8838 18.5834 46.7853 18.3865C46.6868 18.1895 46.5227 18.0253 46.26 17.8283C45.9974 17.6642 45.6691 17.5 45.2094 17.3358C44.7826 17.1717 44.1916 17.0403 43.5022 16.8762C42.6485 16.6792 41.8606 16.4494 41.1383 16.1867C40.416 15.9241 39.7922 15.5629 39.2669 15.1689C38.7415 14.775 38.3147 14.2825 38.0192 13.7243C37.7238 13.1662 37.5596 12.5424 37.5596 11.8201C37.5596 11.1306 37.7238 10.474 38.0192 9.85018C38.3147 9.22637 38.7416 8.66823 39.3325 8.20859C39.8907 7.71611 40.613 7.35496 41.4338 7.0923C42.2546 6.82965 43.2067 6.66549 44.2245 6.66549C45.3079 6.66549 46.26 6.79682 47.1465 7.05947C48.033 7.32213 48.7553 7.68328 49.3462 8.17575C49.9372 8.66823 50.3968 9.22637 50.7252 9.88301C51.0535 10.5396 51.2176 11.2619 51.2176 12.0499H46.7853C46.7853 11.4261 46.5884 10.9008 46.1615 10.474C45.7347 10.0472 45.1109 9.85018 44.2245 9.85018C43.4693 9.85018 42.9112 10.0143 42.4844 10.3427C42.0576 10.671 41.8606 11.0978 41.8606 11.6231C41.8606 11.8858 41.9262 12.0827 42.0247 12.2797C42.1232 12.4767 42.3202 12.6409 42.55 12.805C42.7799 12.9692 43.1082 13.1005 43.5022 13.2319C43.8961 13.3632 44.3886 13.4945 44.9468 13.593C45.8332 13.7572 46.6868 13.987 47.442 14.2496C48.1971 14.5123 48.8866 14.8406 49.4447 15.2346C50.0029 15.6286 50.4297 16.1211 50.758 16.712C51.0863 17.303 51.2505 17.9925 51.2505 18.8133C51.2505 19.5356 51.0863 20.225 50.758 20.8488C50.4297 21.4726 49.97 21.9979 49.3462 22.4576C48.7224 22.9172 48.0001 23.2784 47.1465 23.5082C46.2929 23.7709 45.3079 23.9022 44.2573 23.9022C43.0754 23.9022 42.0576 23.738 41.1711 23.4097C40.2846 23.0814 39.5295 22.6546 38.9057 22.1293C38.2819 21.604 37.8223 20.9802 37.5268 20.3235C37.2313 19.6669 37.0671 18.9774 37.0671 18.3208H41.2696C41.3024 18.7476 41.4009 19.1088 41.5651 19.4371C41.7292 19.7654 41.9591 19.9952 42.2217 20.1922C42.4844 20.3892 42.8127 20.5205 43.1738 20.619C43.535 20.7175 43.929 20.7503 44.323 20.7503C45.1766 20.7503 45.8332 20.5862 46.26 20.2579C46.7197 19.9952 46.9167 19.5684 46.9167 19.0431ZM26.9878 20.5534C27.3817 20.5534 27.7101 20.5205 28.0384 20.422C28.3667 20.3235 28.6622 20.225 28.892 20.0609C29.1547 19.8967 29.3845 19.7326 29.5486 19.5356C29.7456 19.3386 29.877 19.1416 30.0083 18.9446V16.0882H28.1697C27.5787 16.0882 27.0863 16.1539 26.6594 16.2852C26.2326 16.4165 25.8715 16.5807 25.6088 16.8105C25.3462 17.0403 25.1163 17.303 24.985 17.6313C24.8537 17.9596 24.788 18.288 24.788 18.6491C24.788 19.2072 24.985 19.6669 25.379 20.028C25.773 20.3564 26.2983 20.5534 26.9878 20.5534ZM30.6649 23.6395C30.4679 23.2456 30.3038 22.7531 30.2053 22.1621C29.7456 22.6546 29.1875 23.0814 28.498 23.4426C27.8086 23.8037 26.9878 23.9679 26.0028 23.9679C25.2148 23.9679 24.4597 23.8365 23.7702 23.6067C23.0808 23.3441 22.4898 23.0157 21.9645 22.5889C21.472 22.1621 21.0452 21.6368 20.7825 21.013C20.4871 20.3564 20.3557 19.6997 20.3557 18.9774C20.3557 18.091 20.5199 17.3358 20.8482 16.6464C21.1765 15.9569 21.669 15.3988 22.2928 14.9391C22.9494 14.4795 23.7374 14.1183 24.6895 13.8557C25.6417 13.593 26.7579 13.4617 28.0384 13.4617H30.0083V12.5096C30.0083 11.7544 29.8113 11.1306 29.4173 10.671C29.0233 10.2113 28.3995 9.9815 27.5459 9.9815C26.7908 9.9815 26.1998 10.1457 25.773 10.5068C25.3462 10.868 25.1492 11.3604 25.1492 11.9842H20.7169C20.7169 11.2619 20.881 10.5725 21.2094 9.94867C21.5377 9.29204 22.0302 8.7339 22.6211 8.24142C23.2449 7.74894 23.9672 7.38779 24.8537 7.0923C25.7401 6.79682 26.6923 6.66549 27.7757 6.66549C28.7278 6.66549 29.6471 6.79682 30.4679 7.02664C31.2887 7.2893 32.011 7.65044 32.602 8.14292C33.193 8.6354 33.6526 9.22637 33.9809 9.9815C34.3093 10.7038 34.4734 11.5574 34.4734 12.5424V19.6012C34.4734 20.0609 34.4734 20.4877 34.5062 20.8817C34.5391 21.2428 34.5719 21.604 34.6376 21.8995C34.7032 22.1949 34.7689 22.4904 34.8346 22.7202C34.9331 22.9501 34.9987 23.1799 35.13 23.4097V23.6395H30.6649ZM18.2545 16.1867C18.1888 17.3358 17.9262 18.3865 17.4994 19.3386C17.0725 20.2907 16.4816 21.1115 15.7264 21.801C14.9713 22.4904 14.052 23.0157 12.9686 23.4097C11.8851 23.8037 10.6375 24.0007 9.25857 24.0007C7.81397 24.0007 6.53353 23.738 5.38442 23.2456C4.2353 22.7531 3.28318 22.0308 2.46239 21.1115C1.67442 20.1922 1.05062 19.0431 0.623805 17.7298C0.196991 16.318 0 14.8406 0 13.199V11.7216C0 10.08 0.229823 8.56974 0.656636 7.25646C1.08345 5.91036 1.70725 4.79408 2.52805 3.84195C3.34885 2.92266 4.30097 2.20036 5.45008 1.67505C6.5992 1.18258 7.87964 0.919922 9.2914 0.919922C10.6703 0.919922 11.918 1.11691 13.0014 1.51089C14.0849 1.90488 14.9713 2.46302 15.7264 3.15249C16.4816 3.84195 17.0725 4.69558 17.4665 5.6477C17.8933 6.63266 18.156 7.68328 18.2545 8.79956H13.6909C13.6252 8.14292 13.5267 7.55195 13.3297 7.02664C13.1656 6.50133 12.9029 6.07452 12.5418 5.7462C12.2134 5.38505 11.7538 5.1224 11.2285 4.95824C10.7032 4.79408 10.0465 4.69558 9.2914 4.69558C7.71548 4.69558 6.56636 5.25372 5.81123 6.40284C5.0561 7.55195 4.66212 9.29204 4.66212 11.6888V13.199C4.66212 14.3481 4.76061 15.3659 4.92477 16.2524C5.08893 17.1388 5.35159 17.8611 5.71274 18.4521C6.07389 19.0431 6.53353 19.4699 7.12451 19.7654C7.71548 20.0609 8.40495 20.1922 9.22574 20.1922C9.94804 20.1922 10.5718 20.1265 11.0972 19.9295C11.6225 19.7654 12.0821 19.5027 12.4104 19.1744C12.7716 18.8461 13.0342 18.4193 13.2312 17.9268C13.4282 17.4343 13.5595 16.8434 13.5924 16.1867H18.2545Z" fill="#24313E"/>
<path d="M131.177 16.9741L129.569 18.5828V23.6389H125.136V0H129.569V13.0999L130.422 11.9836L134.69 6.99318H140.042L134.034 13.9207L140.567 23.6389H135.445L131.177 16.9741ZM111.084 15.4966C111.084 16.1861 111.15 16.8099 111.281 17.4009C111.413 17.9918 111.61 18.5171 111.872 18.944C112.135 19.3708 112.496 19.7319 112.923 19.9946C113.35 20.2572 113.908 20.3886 114.532 20.3886C115.155 20.3886 115.681 20.2572 116.107 19.9946C116.534 19.7319 116.895 19.4036 117.191 18.944C117.454 18.5171 117.683 17.9918 117.782 17.4009C117.913 16.8099 117.979 16.1533 117.979 15.4966V15.1683C117.979 14.5117 117.913 13.8879 117.782 13.2969C117.651 12.7059 117.454 12.1806 117.191 11.7538C116.928 11.2941 116.567 10.9658 116.107 10.7032C115.681 10.4405 115.123 10.3092 114.499 10.3092C113.875 10.3092 113.35 10.4405 112.923 10.7032C112.496 10.9658 112.135 11.327 111.872 11.7538C111.61 12.2134 111.413 12.7059 111.281 13.2969C111.15 13.8879 111.084 14.5117 111.084 15.1683V15.4966ZM106.619 15.1683C106.619 13.9535 106.783 12.8372 107.144 11.7866C107.506 10.736 107.998 9.84955 108.655 9.09441C109.311 8.33928 110.132 7.74831 111.117 7.3215C112.102 6.89468 113.218 6.66486 114.466 6.66486C115.714 6.66486 116.863 6.89468 117.848 7.3215C118.833 7.74831 119.653 8.33928 120.343 9.09441C120.999 9.84955 121.525 10.736 121.886 11.7866C122.247 12.8372 122.411 13.9535 122.411 15.1683V15.4966C122.411 16.7114 122.247 17.8277 121.886 18.8783C121.525 19.8961 121.032 20.8154 120.343 21.5705C119.686 22.3256 118.833 22.9166 117.88 23.3434C116.895 23.7702 115.779 23.9672 114.532 23.9672C113.284 23.9672 112.135 23.7702 111.183 23.3434C110.198 22.9166 109.377 22.3256 108.72 21.5705C108.064 20.8154 107.538 19.9289 107.177 18.8783C106.816 17.8605 106.652 16.7114 106.652 15.4966V15.1683H106.619ZM93.2565 15.4966C93.2565 16.1861 93.3222 16.8099 93.4535 17.4009C93.5849 17.9918 93.7818 18.5171 94.0445 18.944C94.3072 19.3708 94.6683 19.7319 95.0951 19.9946C95.5219 20.2572 96.0801 20.3886 96.7039 20.3886C97.3277 20.3886 97.853 20.2572 98.2798 19.9946C98.7066 19.7319 99.0678 19.4036 99.3633 18.944C99.6259 18.5171 99.8557 17.9918 99.9542 17.4009C100.086 16.8099 100.151 16.1533 100.151 15.4966V15.1683C100.151 14.5117 100.086 13.8879 99.9542 13.2969C99.8229 12.7059 99.6259 12.1806 99.3633 11.7538C99.1006 11.2941 98.7395 10.9658 98.2798 10.7032C97.853 10.4405 97.2949 10.3092 96.671 10.3092C96.0472 10.3092 95.5219 10.4405 95.0951 10.7032C94.6683 10.9658 94.3072 11.327 94.0445 11.7538C93.7818 12.2134 93.5849 12.7059 93.4535 13.2969C93.3222 13.8879 93.2565 14.5117 93.2565 15.1683V15.4966ZM88.7914 15.1683C88.7914 13.9535 88.9556 12.8372 89.3167 11.7866C89.6779 10.736 90.1703 9.84955 90.827 9.09441C91.4836 8.33928 92.3044 7.74831 93.2894 7.3215C94.2743 6.89468 95.3906 6.66486 96.6382 6.66486C97.8858 6.66486 99.0349 6.89468 100.02 7.3215C101.005 7.74831 101.826 8.33928 102.515 9.09441C103.172 9.84955 103.697 10.736 104.058 11.7866C104.419 12.8372 104.584 13.9535 104.584 15.1683V15.4966C104.584 16.7114 104.419 17.8277 104.058 18.8783C103.697 19.8961 103.205 20.8154 102.515 21.5705C101.858 22.3256 101.005 22.9166 100.053 23.3434C99.0678 23.7702 97.9515 23.9672 96.7039 23.9672C95.4563 23.9672 94.3072 23.7702 93.355 23.3434C92.3701 22.9166 91.5493 22.3256 90.8926 21.5705C90.236 20.8154 89.7107 19.9289 89.3496 18.8783C88.9884 17.8605 88.8242 16.7114 88.8242 15.4966V15.1683H88.7914Z" fill="#5B9AEC"/>
<path d="M85.8687 15.4642C85.8687 16.7118 85.7374 17.8609 85.4748 18.9115C85.2121 19.9621 84.8181 20.8486 84.26 21.6037C83.7347 22.3588 83.0452 22.9498 82.2245 23.3437C81.4037 23.7705 80.4516 23.9675 79.3682 23.9675C78.416 23.9675 77.5624 23.7705 76.873 23.4094C76.1835 23.0483 75.5597 22.5229 75.0344 21.8663L74.8374 23.6392H70.832V0.000722836H75.2642V8.47118C75.7567 7.88021 76.3477 7.45341 77.0043 7.1251C77.6609 6.79679 78.4489 6.66546 79.3353 6.66546C80.4187 6.66546 81.3709 6.86245 82.1916 7.28926C83.0124 7.71606 83.7019 8.30702 84.2272 9.02931C84.7853 9.78443 85.1793 10.6709 85.4419 11.7215C85.7046 12.7721 85.8359 13.8883 85.8359 15.1359V15.4642H85.8687ZM81.4365 15.1359C81.4365 14.4793 81.4037 13.8555 81.3052 13.2645C81.2067 12.6736 81.0425 12.1483 80.8127 11.7215C80.5829 11.2947 80.2546 10.9335 79.8278 10.6709C79.401 10.4082 78.9085 10.2769 78.2519 10.2769C77.4968 10.2769 76.9058 10.4411 76.4133 10.7365C75.9537 11.032 75.5926 11.4588 75.3299 12.017V18.5832C75.5926 19.1413 75.9537 19.5681 76.4133 19.8636C76.873 20.1591 77.4968 20.3233 78.2847 20.3233C78.9085 20.3233 79.4338 20.1919 79.8278 19.9621C80.2218 19.6995 80.5501 19.3712 80.8127 18.9443C81.0425 18.5175 81.2067 17.9922 81.3052 17.4013C81.4037 16.8103 81.4365 16.1537 81.4365 15.4314V15.1359Z" fill="#5B9AEC"/>
</svg>
