<svg width="28" height="29" viewBox="0 0 28 29" fill="none" xmlns="http://www.w3.org/2000/svg">
<path d="M10.5 13.3333L14 16.8333L25.6667 5.16667M18.6667 4H9.1C7.13982 4 6.15972 4 5.41103 4.38148C4.75247 4.71703 4.21703 5.25247 3.88148 5.91103C3.5 6.65972 3.5 7.63982 3.5 9.6V19.4C3.5 21.3602 3.5 22.3403 3.88148 23.089C4.21703 23.7475 4.75247 24.283 5.41103 24.6185C6.15972 25 7.13982 25 9.1 25H18.9C20.8602 25 21.8403 25 22.589 24.6185C23.2475 24.283 23.783 23.7475 24.1185 23.089C24.5 22.3403 24.5 21.3602 24.5 19.4V14.5" stroke="white" stroke-width="2" stroke-linecap="round" stroke-linejoin="round"/>
</svg>
