<svg width="120" height="24" viewBox="0 0 120 24" fill="none" xmlns="http://www.w3.org/2000/svg">
<path d="M6.11112 6.5999C7.52414 6.5999 8.65745 7.11578 9.51099 8.14754C10.3717 9.17925 10.802 10.7126 10.802 12.7474C10.802 14.0945 10.6012 15.2301 10.1996 16.1544C9.80505 17.0715 9.24918 17.7665 8.53185 18.2394C7.8218 18.7051 6.99336 18.9379 6.04657 18.9379C5.44406 18.9379 4.92046 18.8592 4.47575 18.7015C4.03104 18.5439 3.65089 18.3397 3.3353 18.0889C3.01969 17.831 2.75431 17.5515 2.53912 17.2506H2.3885C2.42436 17.5372 2.45664 17.8561 2.48533 18.2072C2.52119 18.551 2.53912 18.8663 2.53912 19.1529V24H0V6.8256H2.06573L2.42078 8.46995H2.53912C2.76148 8.1332 3.03045 7.82153 3.34605 7.53493C3.66882 7.24833 4.05614 7.02264 4.50802 6.85784C4.96708 6.68588 5.50144 6.5999 6.11112 6.5999ZM5.4333 8.66341C4.73755 8.66341 4.17808 8.80317 3.75489 9.0826C3.33888 9.35484 3.03404 9.76684 2.84037 10.3185C2.65389 10.8702 2.55347 11.5616 2.53912 12.3928V12.7474C2.53912 13.6287 2.62878 14.3775 2.8081 14.9937C2.99459 15.6027 3.29943 16.0684 3.72261 16.3908C4.15298 16.706 4.73396 16.8637 5.46558 16.8637C6.08242 16.8637 6.59169 16.6953 6.99336 16.3586C7.4022 16.0218 7.70703 15.5418 7.90788 14.9185C8.10871 14.2951 8.20915 13.5607 8.20915 12.7152C8.20915 11.4327 7.9796 10.4368 7.52055 9.72742C7.06867 9.01807 6.37292 8.66341 5.4333 8.66341ZM19.7643 6.5999C19.9651 6.5999 20.1839 6.61065 20.4207 6.63215C20.6573 6.65364 20.8617 6.6823 21.0339 6.71813L20.7971 9.0826C20.6465 9.03958 20.46 9.00737 20.2377 8.98586C20.0225 8.96435 19.8288 8.95364 19.6568 8.95364C19.2048 8.95364 18.7745 9.02878 18.3656 9.17925C17.9568 9.32262 17.5945 9.54473 17.2789 9.84568C16.9633 10.1394 16.716 10.5084 16.5366 10.9526C16.3573 11.3968 16.2677 11.9127 16.2677 12.5003V18.723H13.7285V6.8256H15.7082L16.0524 8.92133H16.1708C16.4075 8.49862 16.7015 8.11171 17.0531 7.76063C17.4045 7.40955 17.8062 7.13011 18.2581 6.92233C18.7171 6.70737 19.2192 6.5999 19.7643 6.5999ZM27.9089 6.5999C29.4151 6.5999 30.552 6.93307 31.3195 7.59942C32.0941 8.26575 32.4815 9.30471 32.4815 10.7162V18.723H30.6847L30.2005 17.0357H30.1145C29.7774 17.4656 29.4295 17.8203 29.0709 18.0997C28.7122 18.3791 28.2962 18.5869 27.8228 18.723C27.3566 18.8663 26.7864 18.9379 26.1122 18.9379C25.402 18.9379 24.7672 18.809 24.2078 18.551C23.6483 18.286 23.2072 17.8847 22.8844 17.3473C22.5617 16.81 22.4002 16.1294 22.4002 15.3053C22.4002 14.0801 22.8558 13.1594 23.7667 12.5432C24.6847 11.9271 26.0691 11.5867 27.9197 11.5222L29.9854 11.447V10.8237C29.9854 9.99965 29.7917 9.41217 29.4044 9.06109C29.0242 8.70998 28.4863 8.53445 27.7906 8.53445C27.1952 8.53445 26.6178 8.62042 26.0584 8.79236C25.4989 8.96435 24.9537 9.17575 24.423 9.42647L23.6052 7.6424C24.1862 7.33431 24.8462 7.08354 25.5849 6.89008C26.3309 6.69663 27.1055 6.5999 27.9089 6.5999ZM29.9746 13.0376L28.4361 13.0914C27.1737 13.1344 26.2878 13.3493 25.7786 13.7362C25.2693 14.1231 25.0147 14.6533 25.0147 15.3269C25.0147 15.9143 25.1904 16.3443 25.5419 16.6165C25.8934 16.8816 26.356 17.0142 26.9298 17.0142C27.8049 17.0142 28.5293 16.767 29.1031 16.2726C29.6841 15.7711 29.9746 15.0366 29.9746 14.0693V13.0376ZM38.7432 18.723L34.2136 6.8256H36.8926L39.3457 13.8114C39.5035 14.2556 39.6469 14.7357 39.7761 15.2516C39.9052 15.7675 39.9949 16.201 40.045 16.5521H40.1311C40.1814 16.1866 40.2782 15.7496 40.4216 15.2408C40.5651 14.725 40.7121 14.2485 40.8627 13.8114L43.3158 6.8256H45.984L41.4544 18.723H38.7432ZM58.3354 12.7474C58.3354 13.7362 58.2062 14.6139 57.948 15.3806C57.6898 16.1473 57.3133 16.7957 56.8184 17.3258C56.3234 17.8489 55.7281 18.2501 55.0324 18.5295C54.3366 18.8019 53.5512 18.9379 52.6761 18.9379C51.8584 18.9379 51.1089 18.8019 50.4275 18.5295C49.7461 18.2501 49.1544 17.8489 48.6523 17.3258C48.1573 16.7957 47.7736 16.1473 47.501 15.3806C47.2285 14.6139 47.0922 13.7362 47.0922 12.7474C47.0922 11.4363 47.3181 10.3257 47.77 9.41577C48.229 8.49862 48.8818 7.80004 49.7282 7.31998C50.5745 6.83993 51.5823 6.5999 52.7514 6.5999C53.8488 6.5999 54.8171 6.83993 55.6564 7.31998C56.4956 7.80004 57.1519 8.49862 57.6252 9.41577C58.0987 10.3328 58.3354 11.4435 58.3354 12.7474ZM49.6959 12.7474C49.6959 13.6144 49.7999 14.356 50.0079 14.9722C50.2231 15.5884 50.553 16.0612 50.9978 16.3908C51.4425 16.7132 52.0163 16.8744 52.7192 16.8744C53.4221 16.8744 53.9959 16.7132 54.4407 16.3908C54.8854 16.0612 55.2117 15.5884 55.4197 14.9722C55.6277 14.356 55.7317 13.6144 55.7317 12.7474C55.7317 11.8805 55.6277 11.1461 55.4197 10.5442C55.2117 9.93522 54.8854 9.47309 54.4407 9.15784C53.9959 8.83538 53.4185 8.67415 52.7084 8.67415C51.6612 8.67415 50.8973 9.02528 50.4168 9.72742C49.9362 10.4296 49.6959 11.4363 49.6959 12.7474ZM73.7681 16.8959C74.098 16.8959 74.4244 16.8673 74.7472 16.81C75.0699 16.7455 75.364 16.6702 75.6294 16.5843V18.4973C75.3497 18.6192 74.9875 18.723 74.5428 18.809C74.098 18.895 73.6354 18.9379 73.1548 18.9379C72.4806 18.9379 71.8745 18.8269 71.3366 18.6048C70.7986 18.3755 70.3719 17.9851 70.0563 17.4333C69.7407 16.8816 69.5828 16.1185 69.5828 15.1442V8.74934H67.9582V7.62091L69.7012 6.72887L70.5296 4.18173H72.122V6.8256H75.5326V8.74934H72.122V15.1119C72.122 15.7137 72.2727 16.1616 72.5738 16.4553C72.8751 16.7491 73.2732 16.8959 73.7681 16.8959ZM82.7949 6.5999C83.8565 6.5999 84.7674 6.81844 85.5277 7.2555C86.288 7.69255 86.8726 8.31233 87.2814 9.11482C87.6903 9.91731 87.8947 10.8774 87.8947 11.9951V13.3493H79.9437C79.9725 14.5029 80.2809 15.3913 80.8691 16.0147C81.4644 16.638 82.2964 16.9497 83.3652 16.9497C84.1255 16.9497 84.8069 16.878 85.4094 16.7347C86.0191 16.5843 86.6466 16.3658 87.2923 16.0791V18.1319C86.6968 18.4114 86.0908 18.6156 85.4739 18.7445C84.857 18.8735 84.1183 18.9379 83.2575 18.9379C82.0884 18.9379 81.0591 18.7123 80.1697 18.2609C79.2875 17.8024 78.5953 17.1216 78.0933 16.2189C77.5983 15.3161 77.3509 14.1948 77.3509 12.8549C77.3509 11.5222 77.5769 10.3901 78.0287 9.45869C78.4806 8.52727 79.1154 7.81795 79.933 7.33073C80.7507 6.84351 81.7047 6.5999 82.7949 6.5999ZM82.7949 8.5022C81.9988 8.5022 81.3533 8.76015 80.8583 9.276C80.3705 9.79185 80.0837 10.5478 79.9975 11.5437H85.4201C85.4129 10.949 85.3125 10.4225 85.1188 9.96384C84.9324 9.50531 84.6455 9.14704 84.2582 8.88911C83.878 8.63117 83.3902 8.5022 82.7949 8.5022ZM95.5443 18.9379C94.4183 18.9379 93.4428 18.7194 92.6179 18.2824C91.7931 17.8453 91.1583 17.1754 90.7136 16.2726C90.2689 15.3698 90.0466 14.2234 90.0466 12.8334C90.0466 11.3861 90.2903 10.2039 90.7781 9.2868C91.2659 8.36965 91.9401 7.69255 92.8009 7.2555C93.6687 6.81844 94.6621 6.5999 95.781 6.5999C96.4911 6.5999 97.1331 6.67156 97.7069 6.81486C98.2879 6.95098 98.7788 7.11936 99.1804 7.31998L98.4283 9.34053C97.9903 9.16134 97.542 9.01087 97.0829 8.88911C96.6238 8.76735 96.1827 8.7064 95.7596 8.7064C95.0638 8.7064 94.4828 8.8605 94.0166 9.16855C93.5575 9.4766 93.2132 9.93522 92.9837 10.5442C92.7614 11.1532 92.6502 11.9092 92.6502 12.8119C92.6502 13.6861 92.7649 14.424 92.9945 15.0259C93.224 15.6206 93.5647 16.072 94.0166 16.3801C94.4685 16.681 95.0243 16.8315 95.6843 16.8315C96.3369 16.8315 96.9215 16.7527 97.4379 16.595C97.9544 16.4374 98.4423 16.2332 98.901 15.9824V18.1749C98.4493 18.4329 97.9651 18.6227 97.4487 18.7445C96.9323 18.8735 96.2975 18.9379 95.5443 18.9379ZM104.227 2V6.20225C104.227 6.63931 104.212 7.06563 104.184 7.48119C104.162 7.89676 104.137 8.21918 104.108 8.44846H104.248C104.5 8.03289 104.808 7.69255 105.174 7.42745C105.539 7.15519 105.948 6.95098 106.4 6.81486C106.859 6.67872 107.347 6.61064 107.863 6.61064C108.774 6.61064 109.549 6.7647 110.188 7.07279C110.826 7.37372 111.313 7.84303 111.651 8.48071C111.994 9.11842 112.167 9.94593 112.167 10.9633V18.723H109.639V11.4363C109.639 10.512 109.449 9.82057 109.069 9.36204C108.688 8.89631 108.1 8.66341 107.304 8.66341C106.537 8.66341 105.927 8.82458 105.475 9.14704C105.031 9.46229 104.711 9.93162 104.518 10.5549C104.323 11.1711 104.227 11.9235 104.227 12.8119V18.723H101.698V2H104.227Z" fill="#2E2E2E"/>
<path d="M61.418 12.6932C61.418 11.4895 61.5327 10.3144 61.7622 9.16806C61.999 8.02166 62.3575 6.929 62.8382 5.89008C63.3187 4.85117 63.9248 3.89106 64.6564 3.00977H66.862C65.8363 4.37828 65.0617 5.89367 64.538 7.55594C64.0216 9.21818 63.7634 10.9235 63.7634 12.6717C63.7634 13.8109 63.8782 14.9395 64.1077 16.0571C64.3372 17.1749 64.6816 18.2496 65.1406 19.2814C65.5996 20.3203 66.1663 21.2948 66.8405 22.2047H64.6564C63.9248 21.3449 63.3187 20.4063 62.8382 19.3889C62.3575 18.3715 61.999 17.2967 61.7622 16.1647C61.5327 15.0325 61.418 13.8755 61.418 12.6932ZM120.001 12.6825C120.001 13.8719 119.886 15.0325 119.657 16.1647C119.427 17.2967 119.072 18.3715 118.591 19.3889C118.118 20.4063 117.508 21.3449 116.762 22.2047H114.589C115.263 21.2948 115.83 20.3203 116.289 19.2814C116.748 18.2425 117.093 17.1642 117.322 16.0464C117.551 14.9287 117.667 13.8002 117.667 12.661C117.667 11.5002 117.547 10.3538 117.311 9.22178C117.082 8.08973 116.737 7.00065 116.278 5.95457C115.819 4.90132 115.249 3.91972 114.568 3.00977H116.762C117.508 3.89106 118.118 4.85117 118.591 5.89008C119.072 6.929 119.427 8.02166 119.657 9.16806C119.886 10.3073 120.001 11.4788 120.001 12.6825Z" fill="#5837D0"/>
</svg>
