<svg width="120" height="24" viewBox="0 0 120 24" fill="none" xmlns="http://www.w3.org/2000/svg">
<path d="M6.11112 5.5999C7.52414 5.5999 8.65745 6.11578 9.51099 7.14754C10.3717 8.17925 10.802 9.7126 10.802 11.7474C10.802 13.0945 10.6012 14.2301 10.1996 15.1544C9.80505 16.0715 9.24918 16.7665 8.53185 17.2394C7.8218 17.7051 6.99336 17.9379 6.04657 17.9379C5.44406 17.9379 4.92046 17.8592 4.47575 17.7015C4.03104 17.5439 3.65089 17.3397 3.3353 17.0889C3.01969 16.831 2.75431 16.5515 2.53912 16.2506H2.3885C2.42436 16.5372 2.45664 16.8561 2.48533 17.2072C2.52119 17.551 2.53912 17.8663 2.53912 18.1529V23H0V5.8256H2.06573L2.42078 7.46995H2.53912C2.76148 7.1332 3.03045 6.82153 3.34605 6.53493C3.66882 6.24833 4.05614 6.02264 4.50802 5.85784C4.96708 5.68588 5.50144 5.5999 6.11112 5.5999ZM5.4333 7.66341C4.73755 7.66341 4.17808 7.80317 3.75489 8.0826C3.33888 8.35484 3.03404 8.76684 2.84037 9.31851C2.65389 9.87018 2.55347 10.5616 2.53912 11.3928V11.7474C2.53912 12.6287 2.62878 13.3775 2.8081 13.9937C2.99459 14.6027 3.29943 15.0684 3.72261 15.3908C4.15298 15.706 4.73396 15.8637 5.46558 15.8637C6.08242 15.8637 6.59169 15.6953 6.99336 15.3586C7.4022 15.0218 7.70703 14.5418 7.90788 13.9185C8.10871 13.2951 8.20915 12.5607 8.20915 11.7152C8.20915 10.4327 7.9796 9.43677 7.52055 8.72742C7.06867 8.01807 6.37292 7.66341 5.4333 7.66341ZM19.7643 5.5999C19.9651 5.5999 20.1839 5.61065 20.4207 5.63215C20.6573 5.65364 20.8617 5.6823 21.0339 5.71813L20.7971 8.0826C20.6465 8.03958 20.46 8.00737 20.2377 7.98586C20.0225 7.96435 19.8288 7.95364 19.6568 7.95364C19.2048 7.95364 18.7745 8.02878 18.3656 8.17925C17.9568 8.32262 17.5945 8.54473 17.2789 8.84568C16.9633 9.13942 16.716 9.5084 16.5366 9.95262C16.3573 10.3968 16.2677 10.9127 16.2677 11.5003V17.723H13.7285V5.8256H15.7082L16.0524 7.92133H16.1708C16.4075 7.49862 16.7015 7.11171 17.0531 6.76063C17.4045 6.40955 17.8062 6.13011 18.2581 5.92233C18.7171 5.70737 19.2192 5.5999 19.7643 5.5999ZM27.9089 5.5999C29.4151 5.5999 30.552 5.93307 31.3195 6.59942C32.0941 7.26575 32.4815 8.30471 32.4815 9.7162V17.723H30.6847L30.2005 16.0357H30.1145C29.7774 16.4656 29.4295 16.8203 29.0709 17.0997C28.7122 17.3791 28.2962 17.5869 27.8228 17.723C27.3566 17.8663 26.7864 17.9379 26.1122 17.9379C25.402 17.9379 24.7672 17.809 24.2078 17.551C23.6483 17.286 23.2072 16.8847 22.8844 16.3473C22.5617 15.81 22.4002 15.1294 22.4002 14.3053C22.4002 13.0801 22.8558 12.1594 23.7667 11.5432C24.6847 10.9271 26.0691 10.5867 27.9197 10.5222L29.9854 10.447V9.82366C29.9854 8.99965 29.7917 8.41217 29.4044 8.06109C29.0242 7.70998 28.4863 7.53445 27.7906 7.53445C27.1952 7.53445 26.6178 7.62042 26.0584 7.79236C25.4989 7.96435 24.9537 8.17575 24.423 8.42647L23.6052 6.6424C24.1862 6.33431 24.8462 6.08354 25.5849 5.89008C26.3309 5.69663 27.1055 5.5999 27.9089 5.5999ZM29.9746 12.0376L28.4361 12.0914C27.1737 12.1344 26.2878 12.3493 25.7786 12.7362C25.2693 13.1231 25.0147 13.6533 25.0147 14.3269C25.0147 14.9143 25.1904 15.3443 25.5419 15.6165C25.8934 15.8816 26.356 16.0142 26.9298 16.0142C27.8049 16.0142 28.5293 15.767 29.1031 15.2726C29.6841 14.7711 29.9746 14.0366 29.9746 13.0693V12.0376ZM38.7432 17.723L34.2136 5.8256H36.8926L39.3457 12.8114C39.5035 13.2556 39.6469 13.7357 39.7761 14.2516C39.9052 14.7675 39.9949 15.201 40.045 15.5521H40.1311C40.1814 15.1866 40.2782 14.7496 40.4216 14.2408C40.5651 13.725 40.7121 13.2485 40.8627 12.8114L43.3158 5.8256H45.984L41.4544 17.723H38.7432ZM58.3354 11.7474C58.3354 12.7362 58.2062 13.6139 57.948 14.3806C57.6898 15.1473 57.3133 15.7957 56.8184 16.3258C56.3234 16.8489 55.7281 17.2501 55.0324 17.5295C54.3366 17.8019 53.5512 17.9379 52.6761 17.9379C51.8584 17.9379 51.1089 17.8019 50.4275 17.5295C49.7461 17.2501 49.1544 16.8489 48.6523 16.3258C48.1573 15.7957 47.7736 15.1473 47.501 14.3806C47.2285 13.6139 47.0922 12.7362 47.0922 11.7474C47.0922 10.4363 47.3181 9.32571 47.77 8.41577C48.229 7.49862 48.8818 6.80004 49.7282 6.31998C50.5745 5.83993 51.5823 5.5999 52.7514 5.5999C53.8488 5.5999 54.8171 5.83993 55.6564 6.31998C56.4956 6.80004 57.1519 7.49862 57.6252 8.41577C58.0987 9.33282 58.3354 10.4435 58.3354 11.7474ZM49.6959 11.7474C49.6959 12.6144 49.7999 13.356 50.0079 13.9722C50.2231 14.5884 50.553 15.0612 50.9978 15.3908C51.4425 15.7132 52.0163 15.8744 52.7192 15.8744C53.4221 15.8744 53.9959 15.7132 54.4407 15.3908C54.8854 15.0612 55.2117 14.5884 55.4197 13.9722C55.6277 13.356 55.7317 12.6144 55.7317 11.7474C55.7317 10.8805 55.6277 10.1461 55.4197 9.54422C55.2117 8.93522 54.8854 8.47309 54.4407 8.15784C53.9959 7.83538 53.4185 7.67415 52.7084 7.67415C51.6612 7.67415 50.8973 8.02528 50.4168 8.72742C49.9362 9.42956 49.6959 10.4363 49.6959 11.7474ZM73.7681 15.8959C74.098 15.8959 74.4244 15.8673 74.7472 15.81C75.0699 15.7455 75.364 15.6702 75.6294 15.5843V17.4973C75.3497 17.6192 74.9875 17.723 74.5428 17.809C74.098 17.895 73.6354 17.9379 73.1548 17.9379C72.4806 17.9379 71.8745 17.8269 71.3366 17.6048C70.7986 17.3755 70.3719 16.9851 70.0563 16.4333C69.7407 15.8816 69.5828 15.1185 69.5828 14.1442V7.74934H67.9582V6.62091L69.7012 5.72887L70.5296 3.18173H72.122V5.8256H75.5326V7.74934H72.122V14.1119C72.122 14.7137 72.2727 15.1616 72.5738 15.4553C72.8751 15.7491 73.2732 15.8959 73.7681 15.8959ZM82.7949 5.5999C83.8565 5.5999 84.7674 5.81844 85.5277 6.2555C86.288 6.69255 86.8726 7.31233 87.2814 8.11482C87.6903 8.91731 87.8947 9.87738 87.8947 10.9951V12.3493H79.9437C79.9725 13.5029 80.2809 14.3913 80.8691 15.0147C81.4644 15.638 82.2964 15.9497 83.3652 15.9497C84.1255 15.9497 84.8069 15.878 85.4094 15.7347C86.0191 15.5843 86.6466 15.3658 87.2923 15.0791V17.1319C86.6968 17.4114 86.0908 17.6156 85.4739 17.7445C84.857 17.8735 84.1183 17.9379 83.2575 17.9379C82.0884 17.9379 81.0591 17.7123 80.1697 17.2609C79.2875 16.8024 78.5953 16.1216 78.0933 15.2189C77.5983 14.3161 77.3509 13.1948 77.3509 11.8549C77.3509 10.5222 77.5769 9.39014 78.0287 8.45869C78.4806 7.52727 79.1154 6.81795 79.933 6.33073C80.7507 5.84351 81.7047 5.5999 82.7949 5.5999ZM82.7949 7.5022C81.9988 7.5022 81.3533 7.76015 80.8583 8.276C80.3705 8.79185 80.0837 9.54782 79.9975 10.5437H85.4201C85.4129 9.94902 85.3125 9.42246 85.1188 8.96384C84.9324 8.50531 84.6455 8.14704 84.2582 7.88911C83.878 7.63117 83.3902 7.5022 82.7949 7.5022ZM95.5443 17.9379C94.4183 17.9379 93.4428 17.7194 92.6179 17.2824C91.7931 16.8453 91.1583 16.1754 90.7136 15.2726C90.2689 14.3698 90.0466 13.2234 90.0466 11.8334C90.0466 10.3861 90.2903 9.20385 90.7781 8.2868C91.2659 7.36965 91.9401 6.69255 92.8009 6.2555C93.6687 5.81844 94.6621 5.5999 95.781 5.5999C96.4911 5.5999 97.1331 5.67156 97.7069 5.81486C98.2879 5.95098 98.7788 6.11936 99.1804 6.31998L98.4283 8.34053C97.9903 8.16134 97.542 8.01087 97.0829 7.88911C96.6238 7.76735 96.1827 7.7064 95.7596 7.7064C95.0638 7.7064 94.4828 7.8605 94.0166 8.16855C93.5575 8.4766 93.2132 8.93522 92.9837 9.54422C92.7614 10.1532 92.6502 10.9092 92.6502 11.8119C92.6502 12.6861 92.7649 13.424 92.9945 14.0259C93.224 14.6206 93.5647 15.072 94.0166 15.3801C94.4685 15.681 95.0243 15.8315 95.6843 15.8315C96.3369 15.8315 96.9215 15.7527 97.4379 15.595C97.9544 15.4374 98.4423 15.2332 98.901 14.9824V17.1749C98.4493 17.4329 97.9651 17.6227 97.4487 17.7445C96.9323 17.8735 96.2975 17.9379 95.5443 17.9379ZM104.227 1V5.20225C104.227 5.63931 104.212 6.06563 104.184 6.48119C104.162 6.89676 104.137 7.21918 104.108 7.44846H104.248C104.5 7.03289 104.808 6.69255 105.174 6.42745C105.539 6.15519 105.948 5.95098 106.4 5.81486C106.859 5.67872 107.347 5.61064 107.863 5.61064C108.774 5.61064 109.549 5.7647 110.188 6.07279C110.826 6.37372 111.313 6.84303 111.651 7.48071C111.994 8.11842 112.167 8.94593 112.167 9.96332V17.723H109.639V10.4363C109.639 9.512 109.449 8.82057 109.069 8.36204C108.688 7.89631 108.1 7.66341 107.304 7.66341C106.537 7.66341 105.927 7.82458 105.475 8.14704C105.031 8.46229 104.711 8.93162 104.518 9.55492C104.323 10.1711 104.227 10.9235 104.227 11.8119V17.723H101.698V1H104.227Z" fill="white"/>
<path d="M61.418 11.6932C61.418 10.4895 61.5327 9.31442 61.7622 8.16806C61.999 7.02166 62.3575 5.929 62.8382 4.89008C63.3187 3.85117 63.9248 2.89106 64.6564 2.00977H66.862C65.8363 3.37828 65.0617 4.89367 64.538 6.55594C64.0216 8.21818 63.7634 9.92352 63.7634 11.6717C63.7634 12.8109 63.8782 13.9395 64.1077 15.0571C64.3372 16.1749 64.6816 17.2496 65.1406 18.2814C65.5996 19.3203 66.1663 20.2948 66.8405 21.2047H64.6564C63.9248 20.3449 63.3187 19.4063 62.8382 18.3889C62.3575 17.3715 61.999 16.2967 61.7622 15.1647C61.5327 14.0325 61.418 12.8755 61.418 11.6932ZM120.001 11.6825C120.001 12.8719 119.886 14.0325 119.657 15.1647C119.427 16.2967 119.072 17.3715 118.591 18.3889C118.118 19.4063 117.508 20.3449 116.762 21.2047H114.589C115.263 20.2948 115.83 19.3203 116.289 18.2814C116.748 17.2425 117.093 16.1642 117.322 15.0464C117.551 13.9287 117.667 12.8002 117.667 11.661C117.667 10.5002 117.547 9.35384 117.311 8.22178C117.082 7.08973 116.737 6.00065 116.278 4.95457C115.819 3.90132 115.249 2.91972 114.568 2.00977H116.762C117.508 2.89106 118.118 3.85117 118.591 4.89008C119.072 5.929 119.427 7.02166 119.657 8.16806C119.886 9.30731 120.001 10.4788 120.001 11.6825Z" fill="#EEFF2D"/>
</svg>
