<svg width="113" height="22" viewBox="0 0 113 22" fill="none" xmlns="http://www.w3.org/2000/svg">
<path d="M6.11112 4.5999C7.52414 4.5999 8.65745 5.11578 9.51099 6.14754C10.3717 7.17925 10.802 8.7126 10.802 10.7474C10.802 12.0945 10.6012 13.2301 10.1996 14.1544C9.80505 15.0715 9.24918 15.7665 8.53185 16.2394C7.8218 16.7051 6.99336 16.9379 6.04657 16.9379C5.44406 16.9379 4.92046 16.8592 4.47575 16.7015C4.03104 16.5439 3.65089 16.3397 3.3353 16.0889C3.01969 15.831 2.75431 15.5515 2.53912 15.2506H2.3885C2.42436 15.5372 2.45664 15.8561 2.48533 16.2072C2.52119 16.551 2.53912 16.8663 2.53912 17.1529V22H0V4.8256H2.06573L2.42078 6.46995H2.53912C2.76148 6.1332 3.03045 5.82153 3.34605 5.53493C3.66882 5.24833 4.05614 5.02264 4.50802 4.85784C4.96708 4.68588 5.50144 4.5999 6.11112 4.5999ZM5.4333 6.66341C4.73755 6.66341 4.17808 6.80317 3.75489 7.0826C3.33888 7.35484 3.03404 7.76684 2.84037 8.31851C2.65389 8.87018 2.55347 9.56162 2.53912 10.3928V10.7474C2.53912 11.6287 2.62878 12.3775 2.8081 12.9937C2.99459 13.6027 3.29943 14.0684 3.72261 14.3908C4.15298 14.706 4.73396 14.8637 5.46558 14.8637C6.08242 14.8637 6.59169 14.6953 6.99336 14.3586C7.4022 14.0218 7.70703 13.5418 7.90788 12.9185C8.10871 12.2951 8.20915 11.5607 8.20915 10.7152C8.20915 9.43265 7.9796 8.43677 7.52055 7.72742C7.06867 7.01807 6.37292 6.66341 5.4333 6.66341ZM19.7643 4.5999C19.9651 4.5999 20.1839 4.61065 20.4207 4.63215C20.6573 4.65364 20.8617 4.6823 21.0339 4.71813L20.7971 7.0826C20.6465 7.03958 20.46 7.00737 20.2377 6.98586C20.0225 6.96435 19.8288 6.95364 19.6568 6.95364C19.2048 6.95364 18.7745 7.02878 18.3656 7.17925C17.9568 7.32262 17.5945 7.54473 17.2789 7.84568C16.9633 8.13942 16.716 8.5084 16.5366 8.95262C16.3573 9.39684 16.2677 9.91269 16.2677 10.5003V16.723H13.7285V4.8256H15.7082L16.0524 6.92133H16.1708C16.4075 6.49862 16.7015 6.11171 17.0531 5.76063C17.4045 5.40955 17.8062 5.13011 18.2581 4.92233C18.7171 4.70737 19.2192 4.5999 19.7643 4.5999ZM27.9089 4.5999C29.4151 4.5999 30.552 4.93307 31.3195 5.59942C32.0941 6.26575 32.4815 7.30471 32.4815 8.7162V16.723H30.6847L30.2005 15.0357H30.1145C29.7774 15.4656 29.4295 15.8203 29.0709 16.0997C28.7122 16.3791 28.2962 16.5869 27.8228 16.723C27.3566 16.8663 26.7864 16.9379 26.1122 16.9379C25.402 16.9379 24.7672 16.809 24.2078 16.551C23.6483 16.286 23.2072 15.8847 22.8844 15.3473C22.5617 14.81 22.4002 14.1294 22.4002 13.3053C22.4002 12.0801 22.8558 11.1594 23.7667 10.5432C24.6847 9.9271 26.0691 9.58673 27.9197 9.5222L29.9854 9.44696V8.82366C29.9854 7.99965 29.7917 7.41217 29.4044 7.06109C29.0242 6.70998 28.4863 6.53445 27.7906 6.53445C27.1952 6.53445 26.6178 6.62042 26.0584 6.79236C25.4989 6.96435 24.9537 7.17575 24.423 7.42647L23.6052 5.6424C24.1862 5.33431 24.8462 5.08354 25.5849 4.89008C26.3309 4.69663 27.1055 4.5999 27.9089 4.5999ZM29.9746 11.0376L28.4361 11.0914C27.1737 11.1344 26.2878 11.3493 25.7786 11.7362C25.2693 12.1231 25.0147 12.6533 25.0147 13.3269C25.0147 13.9143 25.1904 14.3443 25.5419 14.6165C25.8934 14.8816 26.356 15.0142 26.9298 15.0142C27.8049 15.0142 28.5293 14.767 29.1031 14.2726C29.6841 13.7711 29.9746 13.0366 29.9746 12.0693V11.0376ZM38.7432 16.723L34.2136 4.8256H36.8926L39.3457 11.8114C39.5035 12.2556 39.6469 12.7357 39.7761 13.2516C39.9052 13.7675 39.9949 14.201 40.045 14.5521H40.1311C40.1814 14.1866 40.2782 13.7496 40.4216 13.2408C40.5651 12.725 40.7121 12.2485 40.8627 11.8114L43.3158 4.8256H45.984L41.4544 16.723H38.7432ZM58.3354 10.7474C58.3354 11.7362 58.2062 12.6139 57.948 13.3806C57.6898 14.1473 57.3133 14.7957 56.8184 15.3258C56.3234 15.8489 55.7281 16.2501 55.0324 16.5295C54.3366 16.8019 53.5512 16.9379 52.6761 16.9379C51.8584 16.9379 51.1089 16.8019 50.4275 16.5295C49.7461 16.2501 49.1544 15.8489 48.6523 15.3258C48.1573 14.7957 47.7736 14.1473 47.501 13.3806C47.2285 12.6139 47.0922 11.7362 47.0922 10.7474C47.0922 9.43626 47.3181 8.32571 47.77 7.41577C48.229 6.49862 48.8818 5.80004 49.7282 5.31998C50.5745 4.83993 51.5823 4.5999 52.7514 4.5999C53.8488 4.5999 54.8171 4.83993 55.6564 5.31998C56.4956 5.80004 57.1519 6.49862 57.6252 7.41577C58.0987 8.33282 58.3354 9.44346 58.3354 10.7474ZM49.6959 10.7474C49.6959 11.6144 49.7999 12.356 50.0079 12.9722C50.2231 13.5884 50.553 14.0612 50.9978 14.3908C51.4425 14.7132 52.0163 14.8744 52.7192 14.8744C53.4221 14.8744 53.9959 14.7132 54.4407 14.3908C54.8854 14.0612 55.2117 13.5884 55.4197 12.9722C55.6277 12.356 55.7317 11.6144 55.7317 10.7474C55.7317 9.88047 55.6277 9.14611 55.4197 8.54422C55.2117 7.93522 54.8854 7.47309 54.4407 7.15784C53.9959 6.83538 53.4185 6.67415 52.7084 6.67415C51.6612 6.67415 50.8973 7.02528 50.4168 7.72742C49.9362 8.42956 49.6959 9.43626 49.6959 10.7474ZM73.7681 14.8959C74.098 14.8959 74.4244 14.8673 74.7472 14.81C75.0699 14.7455 75.364 14.6702 75.6294 14.5843V16.4973C75.3497 16.6192 74.9875 16.723 74.5428 16.809C74.098 16.895 73.6354 16.9379 73.1548 16.9379C72.4806 16.9379 71.8745 16.8269 71.3366 16.6048C70.7986 16.3755 70.3719 15.9851 70.0563 15.4333C69.7407 14.8816 69.5828 14.1185 69.5828 13.1442V6.74934H67.9582V5.62091L69.7012 4.72887L70.5296 2.18173H72.122V4.8256H75.5326V6.74934H72.122V13.1119C72.122 13.7137 72.2727 14.1616 72.5738 14.4553C72.8751 14.7491 73.2732 14.8959 73.7681 14.8959ZM82.7949 4.5999C83.8565 4.5999 84.7674 4.81844 85.5277 5.2555C86.288 5.69255 86.8726 6.31233 87.2814 7.11482C87.6903 7.91731 87.8947 8.87738 87.8947 9.99513V11.3493H79.9437C79.9725 12.5029 80.2809 13.3913 80.8691 14.0147C81.4644 14.638 82.2964 14.9497 83.3652 14.9497C84.1255 14.9497 84.8069 14.878 85.4094 14.7347C86.0191 14.5843 86.6466 14.3658 87.2923 14.0791V16.1319C86.6968 16.4114 86.0908 16.6156 85.4739 16.7445C84.857 16.8735 84.1183 16.9379 83.2575 16.9379C82.0884 16.9379 81.0591 16.7123 80.1697 16.2609C79.2875 15.8024 78.5953 15.1216 78.0933 14.2189C77.5983 13.3161 77.3509 12.1948 77.3509 10.8549C77.3509 9.5222 77.5769 8.39014 78.0287 7.45869C78.4806 6.52727 79.1154 5.81795 79.933 5.33073C80.7507 4.84351 81.7047 4.5999 82.7949 4.5999ZM82.7949 6.5022C81.9988 6.5022 81.3533 6.76015 80.8583 7.276C80.3705 7.79185 80.0837 8.54782 79.9975 9.54371H85.4201C85.4129 8.94902 85.3125 8.42246 85.1188 7.96384C84.9324 7.50531 84.6455 7.14704 84.2582 6.88911C83.878 6.63117 83.3902 6.5022 82.7949 6.5022ZM95.5443 16.9379C94.4183 16.9379 93.4428 16.7194 92.6179 16.2824C91.7931 15.8453 91.1583 15.1754 90.7136 14.2726C90.2689 13.3698 90.0466 12.2234 90.0466 10.8334C90.0466 9.38613 90.2903 8.20385 90.7781 7.2868C91.2659 6.36965 91.9401 5.69255 92.8009 5.2555C93.6687 4.81844 94.6621 4.5999 95.781 4.5999C96.4911 4.5999 97.1331 4.67156 97.7069 4.81486C98.2879 4.95098 98.7788 5.11936 99.1804 5.31998L98.4283 7.34053C97.9903 7.16134 97.542 7.01087 97.0829 6.88911C96.6238 6.76735 96.1827 6.7064 95.7596 6.7064C95.0638 6.7064 94.4828 6.8605 94.0166 7.16855C93.5575 7.4766 93.2132 7.93522 92.9837 8.54422C92.7614 9.15322 92.6502 9.90919 92.6502 10.8119C92.6502 11.6861 92.7649 12.424 92.9945 13.0259C93.224 13.6206 93.5647 14.072 94.0166 14.3801C94.4685 14.681 95.0243 14.8315 95.6843 14.8315C96.3369 14.8315 96.9215 14.7527 97.4379 14.595C97.9544 14.4374 98.4423 14.2332 98.901 13.9824V16.1749C98.4493 16.4329 97.9651 16.6227 97.4487 16.7445C96.9323 16.8735 96.2975 16.9379 95.5443 16.9379ZM104.227 0V4.20225C104.227 4.63931 104.212 5.06563 104.184 5.48119C104.162 5.89676 104.137 6.21918 104.108 6.44846H104.248C104.5 6.03289 104.808 5.69255 105.174 5.42745C105.539 5.15519 105.948 4.95098 106.4 4.81486C106.859 4.67872 107.347 4.61064 107.863 4.61064C108.774 4.61064 109.549 4.7647 110.188 5.07279C110.826 5.37372 111.313 5.84303 111.651 6.48071C111.994 7.11842 112.167 7.94593 112.167 8.96332V16.723H109.639V9.43626C109.639 8.512 109.449 7.82057 109.069 7.36204C108.688 6.89631 108.1 6.66341 107.304 6.66341C106.537 6.66341 105.927 6.82458 105.475 7.14704C105.031 7.46229 104.711 7.93162 104.518 8.55492C104.323 9.17113 104.227 9.92349 104.227 10.8119V16.723H101.698V0H104.227Z" fill="#2E2E2E"/>
</svg>
