<svg width="952" height="461" viewBox="0 0 952 461" fill="none" xmlns="http://www.w3.org/2000/svg">
<g opacity="0.3" clip-path="url(#clip0_2932_39791)">
<path d="M160.183 200.79C162.08 199.321 163.27 198.342 163.598 198.059C163.086 198.367 162.668 198.758 162.211 199.125L154.997 204.601C157.124 203.101 158.632 201.997 160.183 200.79Z" fill="#5837D0"/>
<path d="M184.059 179.285C185.599 177.709 186.411 176.825 186.622 176.566C186.434 176.718 186.309 176.884 186.139 177.056L179.844 183.477C181.253 182.096 182.665 180.701 184.059 179.285Z" fill="#5837D0"/>
<path d="M180.638 183.725C180.864 183.501 182.911 181.536 183.205 180.991C182.652 181.066 175.44 188.124 175.381 188.192C175.378 188.207 175.35 188.233 175.322 188.259C175.697 188.179 178.679 185.596 180.638 183.725Z" fill="#5837D0"/>
<path d="M202.577 159.017C202.733 158.81 204.17 157.084 204.408 156.591C203.909 156.837 199.058 162.876 199.024 162.933C199.017 162.963 199.011 162.994 198.986 163.004C199.39 162.786 201.708 160.064 202.574 159.032L202.577 159.017Z" fill="#5837D0"/>
<path d="M199.991 164.494C200.401 164.037 201.713 162.477 201.859 161.997C201.859 161.997 201.823 161.957 201.826 161.942C201.087 162.265 196.466 167.426 195.926 168.398C195.923 168.413 195.916 168.444 195.91 168.474C195.91 168.474 195.95 168.499 195.968 168.519C196.457 168.318 198.412 166.366 200.034 164.503L199.991 164.494Z" fill="#5837D0"/>
<path d="M223.287 130.566C223.707 129.952 224.174 129.331 224.511 128.683C224.249 128.868 221.126 133.497 221.117 133.543C221.113 133.559 221.11 133.574 221.104 133.605C221.289 133.468 222.798 131.294 223.309 130.571L223.287 130.566Z" fill="#5837D0"/>
<path d="M220.327 136.861C220.455 136.68 221.627 135.042 221.611 134.799C221.233 134.895 218.09 139.201 217.689 140.043C217.682 140.073 217.676 140.104 217.672 140.119C217.978 139.944 219.347 138.22 220.306 136.856L220.327 136.861Z" fill="#5837D0"/>
<path d="M218.427 143.33C218.58 143.139 219.839 141.407 219.719 141.126C219.103 141.188 215.66 145.639 215.36 146.534C215.353 146.564 215.344 146.61 215.359 146.645C215.812 146.613 217.591 144.432 218.406 143.326L218.427 143.33Z" fill="#5837D0"/>
<path d="M243.315 99.0003C243.549 98.6342 243.758 98.2789 243.967 97.9235C243.802 98.1763 243.655 98.4489 243.49 98.7016L242.395 100.5C242.333 100.583 242.299 100.639 242.258 100.726C242.255 100.742 242.248 100.772 242.227 100.768C242.595 100.19 242.944 99.5931 243.312 99.0156L243.315 99.0003Z" fill="#5837D0"/>
<path d="M239.887 105.915C240.055 105.647 240.601 104.755 240.608 104.613C240.436 104.689 238.756 107.354 238.477 107.934C238.474 107.949 238.468 107.98 238.464 107.995C238.6 107.88 239.348 106.776 239.887 105.915Z" fill="#5837D0"/>
<path d="M237.535 113.055C237.735 112.746 238.38 111.7 238.33 111.513C238.008 111.557 235.974 114.627 235.743 115.298C235.74 115.313 235.734 115.343 235.73 115.359C235.961 115.327 236.994 113.82 237.517 113.035L237.535 113.055Z" fill="#5837D0"/>
<path d="M236.234 120.386C236.374 120.144 237.165 118.937 237.057 118.707C236.564 118.715 234.28 122.019 234.122 122.769C234.115 122.799 234.109 122.83 234.105 122.845C234.464 122.841 235.655 121.223 236.215 120.367L236.234 120.386Z" fill="#5837D0"/>
<path d="M259.382 71.9044L259.158 72.2245L258.826 72.8416L259.06 72.4755L259.382 71.9044Z" fill="#5837D0"/>
<path d="M256.483 79.3935L256.141 79.8486L255.666 80.723L256.014 80.2373L256.483 79.3935Z" fill="#5837D0"/>
<path d="M254.382 87.7688C254.482 87.614 254.773 87.0842 254.749 86.9834C254.571 86.9779 253.58 88.606 253.509 88.9425C253.509 88.9425 253.506 88.9578 253.502 88.9731C253.662 88.9588 254.204 88.0827 254.382 87.7688Z" fill="#5837D0"/>
<path d="M253.609 95.8829C253.685 95.739 254.096 95.0589 254.012 94.9293C253.727 94.9012 252.527 96.7731 252.477 97.2257C252.474 97.241 252.467 97.2716 252.507 97.2959C252.712 97.2753 253.288 96.4541 253.606 95.8982L253.609 95.8829Z" fill="#5837D0"/>
<path d="M32.8853 247.541C35.8583 247.545 37.6257 247.646 38.6855 247.709C33.6783 247.916 28.547 247.968 23.3163 247.856C25.2735 247.694 28.9992 247.52 32.8639 247.536L32.8853 247.541Z" fill="#5837D0"/>
<path d="M62.4348 243.897C66.7928 243.378 71.8637 242.978 71.2429 244.013C71.2397 244.028 71.1904 244.05 71.1839 244.08C63.8959 245.452 56.3727 246.454 48.5435 247.104C49.0438 245.58 60.2097 244.163 62.4348 243.897Z" fill="#5837D0"/>
<path d="M89.7327 237.239C96.1869 235.58 96.6224 235.847 96.86 235.993C97.1425 237.411 82.8698 242.214 78.395 241.59C77.2005 241.211 79.1199 240.273 84.1533 238.778C85.7768 238.29 87.8886 237.713 89.7541 237.243L89.7327 237.239Z" fill="#5837D0"/>
<path d="M121.272 227.113C124.528 225.562 125.614 225.184 125.973 225.068C122.124 227.101 118.212 229.008 114.193 230.78C116.315 229.518 119.211 228.084 121.25 227.108L121.272 227.113Z" fill="#5837D0"/>
<path d="M114.947 227.728C119.429 225.877 120.135 225.706 120.543 225.681C120.558 225.716 120.594 225.755 120.613 225.775C119.562 227.151 108.92 232.24 105.454 232.452C105.39 232.439 105.283 232.416 105.197 232.398C105.196 232.19 105.18 231.739 114.947 227.728Z" fill="#5837D0"/>
<path d="M143.611 213.529C147.342 211.104 147.723 210.993 148.009 210.909C148.03 210.914 148.07 210.938 148.088 210.958C147.894 211.349 146.672 212.369 145.684 213.135C143.174 214.859 140.631 216.527 138.033 218.136C137.235 218.527 136.943 218.641 136.605 218.762C136.537 218.763 136.445 218.776 136.381 218.762C136.426 218.548 136.513 218.135 143.635 213.518L143.611 213.529Z" fill="#5837D0"/>
<path d="M138.384 215.51C141.12 213.914 142.593 213.08 142.802 213.006C142.386 213.813 132.987 219.58 130.44 220.417C130.394 220.423 130.348 220.43 130.324 220.44C130.327 220.425 130.309 220.405 130.294 220.37C130.519 220.151 133.223 218.533 138.405 215.514L138.384 215.51Z" fill="#5837D0"/>
<path d="M164.445 197.535C167.157 195.279 167.509 194.986 167.821 194.78C167.764 195.263 160.814 201.291 158.717 202.542C158.689 202.568 158.643 202.574 158.618 202.585C158.617 202.377 159.053 202.006 164.445 197.535Z" fill="#5837D0"/>
<path d="M162.212 199.124C157.134 203.165 154.586 204.961 153.704 205.542C153.697 205.572 153.651 205.579 153.626 205.589C154.038 205.229 154.525 204.932 154.973 204.611L162.187 199.135L162.212 199.124Z" fill="#5837D0"/>
<path d="M188.443 174.937C190.563 172.62 190.804 172.432 190.944 172.301L190.959 172.336C188.787 174.786 186.58 177.196 184.358 179.572C184.492 179.36 184.729 178.979 188.446 174.922L188.443 174.937Z" fill="#5837D0"/>
<path d="M186.139 177.056C183.728 179.583 181.435 181.976 179.422 183.884C179.416 183.914 179.37 183.921 179.363 183.951C179.509 183.79 179.676 183.634 179.847 183.462L186.142 177.041L186.139 177.056Z" fill="#5837D0"/>
<path d="M206.241 153.607C206.85 152.841 207.444 152.04 208.056 151.258C207.729 151.748 204.519 155.944 203.154 157.541C203.151 157.557 203.123 157.583 203.119 157.598C203.999 156.186 205.201 154.937 206.245 153.592L206.241 153.607Z" fill="#5837D0"/>
<path d="M243.494 98.6874C243.123 99.2802 242.773 99.8775 242.399 100.486L243.494 98.6874Z" fill="#5837D0"/>
<path d="M844.23 240.296C844.859 239.326 845.798 238.901 846.059 239.467C846.35 240.104 845.578 241.539 844.55 241.961C843.787 242.184 843.641 241.498 843.983 240.723C844.058 240.579 844.13 240.451 844.205 240.307L844.23 240.296Z" fill="#5837D0"/>
<path d="M819.919 248.175C820.641 247.082 821.796 246.59 822.123 247.266C822.428 247.938 821.631 249.703 820.345 250.182C819.377 250.426 819.237 249.501 819.737 248.505C819.781 248.402 819.853 248.274 819.919 248.175Z" fill="#5837D0"/>
<path d="M795.17 255.467C796.057 254.121 797.451 253.552 797.853 254.404C798.282 255.341 797.228 257.371 795.733 257.887C794.51 258.172 794.344 257.051 794.929 255.864C794.998 255.751 795.076 255.592 795.166 255.483L795.17 255.467Z" fill="#5837D0"/>
<path d="M770.08 262.258C771.077 260.71 772.797 260.082 773.28 261.079C773.833 262.17 772.542 264.582 770.792 265.139C769.275 265.443 769.101 263.936 769.946 262.469C769.981 262.412 770.046 262.314 770.08 262.258Z" fill="#5837D0"/>
<path d="M744.784 268.554C745.936 266.8 747.77 266.164 748.355 267.31C749.01 268.55 747.635 271.152 745.609 271.747C743.886 272.071 743.672 270.221 744.784 268.554Z" fill="#5837D0"/>
<path d="M719.213 274.347C720.486 272.443 722.602 271.738 723.297 273.003C724.033 274.389 722.51 277.374 720.232 277.997C718.098 278.361 718.095 276.044 719.216 274.332L719.213 274.347Z" fill="#5837D0"/>
<path d="M693.577 279.695C694.935 277.601 697.253 276.891 698.002 278.327C698.753 279.748 697.373 283.003 694.724 283.691C692.348 284.037 692.387 281.521 693.577 279.695Z" fill="#5837D0"/>
<path d="M667.828 284.62C669.325 282.395 671.803 281.672 672.639 283.222C673.563 284.886 671.814 288.304 669.128 288.952C666.759 289.267 666.389 286.777 667.828 284.62Z" fill="#5837D0"/>
<path d="M642.004 289.08C643.607 286.67 646.383 285.913 647.321 287.613C648.257 289.328 646.697 293.121 643.529 293.827C640.915 294.138 640.459 291.422 642.004 289.08Z" fill="#5837D0"/>
<path d="M616.235 293.154C617.904 290.646 620.863 289.864 621.886 291.694C622.991 293.668 621 297.594 617.889 298.248C615.103 298.523 614.6 295.605 616.235 293.154Z" fill="#5837D0"/>
<path d="M590.464 296.812C592.36 293.969 595.763 293.312 596.711 295.605C597.647 297.847 595.516 301.695 592.276 302.322C589.067 302.588 588.867 299.191 590.443 296.807L590.464 296.812Z" fill="#5837D0"/>
<path d="M564.803 300.06C566.727 297.191 570.159 296.397 571.359 298.551C572.692 300.925 570.47 305.313 566.822 305.966C563.598 306.197 562.944 302.831 564.827 300.049L564.803 300.06Z" fill="#5837D0"/>
<path d="M539.279 302.972C541.417 299.828 545.218 299.192 546.297 301.816C547.263 304.128 545.252 308.577 541.387 309.2C538.016 309.384 537.33 305.852 539.279 302.972Z" fill="#5837D0"/>
<path d="M513.841 305.47C516.111 302.13 520.15 301.528 521.322 304.347C522.345 306.815 520.313 311.467 516.089 312.094C512.434 312.25 511.79 308.52 513.863 305.474L513.841 305.47Z" fill="#5837D0"/>
<path d="M488.636 307.617C490.948 304.286 495.23 303.703 496.417 306.557C497.481 309.146 495.258 313.965 490.955 314.544C486.951 314.658 486.679 310.431 488.636 307.617Z" fill="#5837D0"/>
<path d="M463.532 309.37C466.039 305.856 470.493 305.309 471.751 308.355C472.977 311.345 470.199 316.144 465.954 316.655C461.987 316.697 461.221 312.589 463.532 309.37Z" fill="#5837D0"/>
<path d="M438.664 310.773C441.332 307.134 445.999 306.632 447.29 309.844C448.428 312.72 445.875 317.933 441.119 318.432C436.984 318.423 436.238 314.112 438.664 310.773Z" fill="#5837D0"/>
<path d="M414.047 311.814C416.838 308.121 421.652 307.666 422.941 310.989C424.219 314.262 421.196 319.265 416.505 319.666C412.117 319.588 411.476 315.203 414.047 311.814Z" fill="#5837D0"/>
<path d="M389.626 312.466C392.593 308.682 397.636 308.307 398.921 311.758C400.081 314.846 397.327 320.273 392.06 320.648C387.154 320.477 387.206 315.567 389.647 312.471L389.626 312.466Z" fill="#5837D0"/>
<path d="M365.525 312.768C368.648 308.985 373.813 308.668 375.061 312.19C376.183 315.351 373.242 320.818 367.813 321.111C363.144 320.878 362.644 316.251 365.525 312.768Z" fill="#5837D0"/>
<path d="M341.604 312.645C344.936 308.826 350.309 308.584 351.515 312.194C352.594 315.457 349.428 321.036 343.777 321.219C338.925 320.899 338.539 316.152 341.607 312.629L341.604 312.645Z" fill="#5837D0"/>
<path d="M317.963 312.136C321.519 308.316 327.096 308.166 328.216 311.869C329.233 315.215 325.79 320.832 319.913 320.919C314.554 320.46 315.04 315.29 317.963 312.136Z" fill="#5837D0"/>
<path d="M294.654 311.231C298.504 307.394 304.083 307.34 305.134 311.156C306.074 314.55 302.325 320.134 296.293 320.109C291.259 319.59 291.19 314.719 294.651 311.247L294.654 311.231Z" fill="#5837D0"/>
<path d="M271.589 309.899C275.718 306.12 281.498 306.172 282.408 310.023C283.224 313.47 279.123 319.028 272.915 318.886C267.729 318.24 267.869 313.332 271.586 309.914L271.589 309.899Z" fill="#5837D0"/>
<path d="M248.86 308.143C253.278 304.474 259.143 304.656 259.897 308.505C260.65 312.355 255.669 317.424 249.737 317.132C244.375 316.369 244.787 311.551 248.86 308.143Z" fill="#5837D0"/>
<path d="M226.514 305.956C231.213 302.441 237.183 302.757 237.744 306.566C238.248 310.012 233.371 315.326 226.874 314.851C221.495 313.957 222.182 309.213 226.517 305.941L226.514 305.956Z" fill="#5837D0"/>
<path d="M204.474 303.273C209.653 299.812 215.638 300.275 215.959 304.161C216.235 307.622 210.876 312.787 204.237 312.138C198.345 311.024 200.285 306.065 204.477 303.258L204.474 303.273Z" fill="#5837D0"/>
<path d="M182.904 300.149C188.418 296.902 194.527 297.519 194.576 301.316C194.616 305.159 188.223 309.706 181.859 308.924C176.228 307.737 177.821 303.152 182.904 300.149Z" fill="#5837D0"/>
<path d="M162.12 296.806C168.111 293.739 174.069 294.436 173.729 298.167C173.408 301.598 167.043 306.232 160.12 305.235C154.643 303.953 156.727 299.583 162.142 296.81L162.12 296.806Z" fill="#5837D0"/>
<path d="M142.09 293.188C148.474 290.38 154.448 291.209 153.697 294.773C152.92 298.459 145.522 302.364 138.995 301.291C133.031 299.778 136.846 295.47 142.093 293.173L142.09 293.188Z" fill="#5837D0"/>
<path d="M122.841 289.339C129.77 286.806 135.59 287.73 134.374 291.164C133.118 294.685 125.13 298.21 118.635 296.984C112.846 295.381 117.244 291.387 122.841 289.339Z" fill="#5837D0"/>
<path d="M104.423 285.183C111.507 283.082 117.062 283.885 116.056 286.853C114.99 289.999 106.137 293.916 98.9317 292.349C93.3005 290.635 98.4149 286.952 104.426 285.168L104.423 285.183Z" fill="#5837D0"/>
<path d="M86.8181 280.753C94.5026 278.986 99.9214 279.905 98.4297 282.737C96.7096 286.018 86.6825 289.032 79.987 287.381C75.2646 285.81 78.7359 283.027 84.8294 281.276C85.4013 281.109 86.2066 280.895 86.8181 280.753Z" fill="#5837D0"/>
<path d="M70.0526 276.068C78.1436 274.707 83.5056 275.789 81.5537 278.365C79.1977 281.479 68.6037 283.895 61.8217 282.018C57.2387 280.317 61.2437 278.077 66.8979 276.713C67.6294 276.532 68.984 276.258 70.0526 276.068Z" fill="#5837D0"/>
<path d="M54.1805 271.059C62.3953 270.171 67.5249 271.189 65.8775 273.382C63.6115 276.387 51.491 278.513 44.4245 276.288C40.3467 274.63 44.1331 272.792 49.68 271.724C51.0774 271.46 52.6247 271.227 54.1805 271.059Z" fill="#5837D0"/>
<path d="M39.2194 265.764C47.9873 265.328 52.9284 266.498 50.765 268.486C47.7756 271.211 34.7553 272.62 27.8688 270.178C22.9329 267.923 31.4468 266.57 33.2211 266.321C33.8903 266.223 36.26 265.907 39.2194 265.764Z" fill="#5837D0"/>
<path d="M25.2608 260.169C33.993 260.221 38.842 261.403 37.0194 263.048C34.3396 265.471 19.7242 266.703 12.2183 263.699C8.44379 261.768 13.9273 260.895 16.4533 260.581C18.8593 260.306 22.1559 260.154 25.2822 260.174L25.2608 260.169Z" fill="#5837D0"/>
<path d="M12.3456 254.299C21.6458 254.838 26.3245 256.192 23.9828 257.647C20.2217 260.002 4.27448 259.915 -2.52256 256.836C-6.05074 254.798 0.0481099 254.295 2.82656 254.161C5.46688 254.047 9.01283 254.092 12.3488 254.284L12.3456 254.299Z" fill="#5837D0"/>
<path d="M0.557028 248.17C9.75732 249.183 14.2732 250.566 12.3139 251.799C9.0681 253.831 -8.98046 253.317 -16.1421 249.634C-19.028 247.731 -14.0717 247.45 -10.8501 247.442C-9.70987 247.443 -5.47121 247.49 0.560252 248.155L0.557028 248.17Z" fill="#5837D0"/>
<path d="M804.033 224.998C804.924 223.636 806.343 223.057 806.763 223.928C807.213 224.869 806.118 226.987 804.623 227.503C803.305 227.816 803.273 226.483 803.818 225.384C803.886 225.27 803.964 225.111 804.033 224.998Z" fill="#5837D0"/>
<path d="M778.674 231.907C779.73 230.292 781.428 229.66 781.926 230.692C782.399 231.734 781.316 234.221 779.394 234.855C777.753 235.212 777.79 233.446 778.537 232.134C778.574 232.062 778.636 231.979 778.674 231.907Z" fill="#5837D0"/>
<path d="M753.094 238.353C754.25 236.584 756.108 235.937 756.715 237.087C757.349 238.323 755.926 241.043 753.897 241.653C752.174 241.977 751.98 240.035 753.094 238.353Z" fill="#5837D0"/>
<path d="M727.275 244.268C728.558 242.318 730.72 241.608 731.409 242.903C732.157 244.339 730.574 247.392 728.268 248.04C726.11 248.416 726.119 246.038 727.275 244.268Z" fill="#5837D0"/>
<path d="M701.332 249.808C702.715 247.703 705.082 246.972 705.83 248.408C706.557 249.839 705.106 253.224 702.453 253.927C700.096 254.292 700.107 251.691 701.335 249.793L701.332 249.808Z" fill="#5837D0"/>
<path d="M675.325 254.902C676.857 252.621 679.363 251.871 680.192 253.451C681.085 255.157 679.267 258.688 676.582 259.336C674.187 259.662 673.852 257.115 675.329 254.886L675.325 254.902Z" fill="#5837D0"/>
<path d="M649.233 259.561C650.867 257.11 653.671 256.327 654.603 258.057C655.613 259.948 653.642 263.782 650.677 264.482C648.016 264.8 647.604 261.982 649.229 259.576L649.233 259.561Z" fill="#5837D0"/>
<path d="M623.241 263.843C624.972 261.252 627.957 260.46 628.952 262.315C630.046 264.335 627.963 268.385 624.799 269.076C622.009 269.366 621.544 266.377 623.241 263.843Z" fill="#5837D0"/>
<path d="M597.261 267.745C599.092 265 602.328 264.181 603.429 266.17C604.644 268.359 602.413 272.682 598.979 273.38C595.764 273.676 595.629 270.181 597.264 267.73L597.261 267.745Z" fill="#5837D0"/>
<path d="M571.433 271.245C573.419 268.293 576.882 267.458 578.03 269.649C579.293 272.04 576.951 276.674 573.318 277.362C570.067 277.619 569.506 274.13 571.433 271.245Z" fill="#5837D0"/>
<path d="M545.805 274.455C547.86 271.39 551.476 270.57 552.711 272.876C554.061 275.381 551.617 280.186 547.788 280.848C544.408 281.078 543.794 277.418 545.805 274.455Z" fill="#5837D0"/>
<path d="M520.301 277.273C522.474 274.073 526.317 273.238 527.634 275.688C529.083 278.358 526.468 283.446 522.394 284.105C518.821 284.294 518.163 280.417 520.301 277.273Z" fill="#5837D0"/>
<path d="M495.105 279.79C497.371 276.466 501.343 275.658 502.723 278.233C504.211 281.039 501.523 286.256 497.296 286.898C493.169 287.067 493.129 282.697 495.105 279.79Z" fill="#5837D0"/>
<path d="M470.072 281.957C472.506 278.476 476.63 277.684 478.092 280.405C479.679 283.376 476.805 288.841 472.336 289.464C468.38 289.557 467.707 285.325 470.072 281.957Z" fill="#5837D0"/>
<path d="M445.356 283.793C447.96 280.14 452.263 279.354 453.75 282.272C455.24 285.174 452.732 291.02 447.681 291.649C443.576 291.71 442.902 287.27 445.36 283.778L445.356 283.793Z" fill="#5837D0"/>
<path d="M420.996 285.335C423.677 281.634 428.126 280.895 429.618 283.893C431.24 287.127 428.071 292.93 423.308 293.459C418.769 293.461 418.664 288.55 420.996 285.335Z" fill="#5837D0"/>
<path d="M396.894 286.484C399.673 282.741 404.389 282.009 405.887 285.089C407.417 288.224 404.597 294.387 399.163 294.919C394.324 294.858 394.46 289.758 396.897 286.469L396.894 286.484Z" fill="#5837D0"/>
<path d="M373.182 287.381C376.134 283.562 380.879 282.9 382.375 286.092C384.013 289.568 380.455 295.625 375.313 296.042C370.533 295.913 370.624 290.708 373.203 287.385L373.182 287.381Z" fill="#5837D0"/>
<path d="M349.773 287.894C352.922 283.988 357.839 283.363 359.306 286.692C360.944 290.377 357.206 296.443 351.807 296.806C347.086 296.61 346.742 291.664 349.795 287.898L349.773 287.894Z" fill="#5837D0"/>
<path d="M326.743 288.102C330.101 284.161 335.14 283.594 336.566 287.01C337.986 290.457 334.519 296.932 328.576 297.228C323.362 296.928 323.882 291.493 326.765 288.107L326.743 288.102Z" fill="#5837D0"/>
<path d="M304.141 287.972C307.652 284.047 312.785 283.563 314.137 287.012C315.626 290.873 311.357 297.018 305.66 297.207C300.793 296.852 300.751 291.747 304.141 287.972Z" fill="#5837D0"/>
<path d="M281.913 287.455C285.663 283.564 290.939 283.143 292.19 286.65C293.449 290.223 289.372 296.728 283.136 296.82C278.154 296.376 278.306 291.2 281.938 287.444L281.913 287.455Z" fill="#5837D0"/>
<path d="M260.104 286.628C264.169 282.724 269.445 282.415 270.566 286.006C271.805 289.99 266.856 296.072 260.913 296.05C255.864 295.497 256.28 290.344 260.101 286.644L260.104 286.628Z" fill="#5837D0"/>
<path d="M238.763 285.403C243.051 281.61 248.393 281.41 249.361 284.986C250.341 288.611 245.517 294.944 239.067 294.782C233.535 294.079 235.051 288.695 238.763 285.403Z" fill="#5837D0"/>
<path d="M217.862 283.776C222.461 280.097 227.919 279.985 228.66 283.576C229.431 287.238 224.154 293.491 217.58 293.175C211.988 292.332 213.853 286.989 217.862 283.776Z" fill="#5837D0"/>
<path d="M197.607 281.855C202.595 278.242 207.986 278.228 208.504 281.82C209.008 285.473 203.182 291.578 196.544 291.138C191.036 290.216 193.375 284.957 197.607 281.855Z" fill="#5837D0"/>
<path d="M178.25 279.802C183.512 276.374 188.869 276.417 189.05 279.906C189.233 283.492 182.858 289.337 176.264 288.794C171.165 287.847 173.191 283.113 178.271 279.807L178.25 279.802Z" fill="#5837D0"/>
<path d="M159.72 277.542C165.446 274.244 170.695 274.376 170.528 277.823C170.321 281.774 163.024 286.898 156.741 286.261C151.251 285.151 154.832 280.362 159.72 277.542Z" fill="#5837D0"/>
<path d="M142.028 275.121C148.08 272.083 153.289 272.303 152.73 275.588C152.154 279.062 144.642 284.252 137.993 283.441C132.675 282.256 136.83 277.716 142.028 275.121Z" fill="#5837D0"/>
<path d="M125.197 272.437C131.392 269.781 136.311 269.892 135.941 272.705C135.492 276.11 126.87 281.37 119.971 280.363C114.761 279.088 119.517 274.882 125.219 272.442L125.197 272.437Z" fill="#5837D0"/>
<path d="M109.212 269.562C115.771 267.19 120.686 267.427 119.95 270.068C119.015 273.338 109.566 278.168 102.725 276.997C97.7334 275.641 103.138 271.748 109.215 269.546L109.212 269.562Z" fill="#5837D0"/>
<path d="M94.1179 266.492C101.153 264.412 105.906 264.775 104.731 267.275C103.113 270.705 92.7854 274.615 86.3284 273.317C82.0202 272.01 86.5185 268.916 93.1369 266.796C93.4261 266.697 93.8073 266.586 94.1147 266.507L94.1179 266.492Z" fill="#5837D0"/>
<path d="M79.8876 263.139C87.0313 261.498 91.5492 261.811 90.6202 263.884C89.3051 266.834 77.6571 270.961 70.6672 269.327C66.6813 267.976 71.238 265.454 77.8069 263.675C78.4248 263.502 79.2729 263.297 79.8844 263.154L79.8876 263.139Z" fill="#5837D0"/>
<path d="M66.6146 259.591C74.2173 258.318 78.5744 258.757 77.2088 260.674C75.23 263.484 62.8171 266.89 55.9184 265.037C52.2762 263.646 56.9963 261.621 63.2789 260.246C64.2406 260.033 65.6134 259.779 66.6114 259.606L66.6146 259.591Z" fill="#5837D0"/>
<path d="M54.3144 255.797C61.891 254.966 66.1101 255.424 65.0456 256.973C63.2436 259.581 48.9649 262.61 42.0236 260.427C38.6609 258.983 43.7104 257.412 49.5719 256.443C51.494 256.129 53.2158 255.917 54.3144 255.797Z" fill="#5837D0"/>
<path d="M43.0448 251.76C51.0493 251.339 55.1226 251.958 53.6643 253.36C51.1097 255.825 35.85 257.992 29.0128 255.528C25.4908 253.779 33.193 252.671 36.6729 252.286C37.5873 252.191 40.0608 251.914 43.0234 251.756L43.0448 251.76Z" fill="#5837D0"/>
<path d="M38.6904 247.695C40.3413 247.82 45.358 248.206 43.3087 249.548C39.9878 251.724 23.6037 252.967 17.2131 250.293C15.2783 249.182 17.3315 248.353 23.3201 247.842C28.5544 247.939 33.6614 247.897 38.6904 247.695Z" fill="#5837D0"/>
<path d="M736.377 213.818C737.168 212.611 738.42 212.188 738.831 212.994C739.254 213.85 738.31 215.68 736.951 216.08C735.649 216.317 735.707 214.875 736.373 213.834L736.377 213.818Z" fill="#5837D0"/>
<path d="M710.181 219.496C711.106 218.078 712.637 217.602 713.108 218.548C713.58 219.494 712.587 221.761 710.857 222.227C709.31 222.46 709.337 220.74 710.159 219.492L710.181 219.496Z" fill="#5837D0"/>
<path d="M683.912 224.789C684.951 223.251 686.695 222.724 687.254 223.785C687.813 224.845 686.726 227.348 684.744 227.841C683.129 228.075 682.924 226.291 683.912 224.789Z" fill="#5837D0"/>
<path d="M657.62 229.631C658.824 227.84 660.78 227.262 661.432 228.518C662.129 229.879 660.714 232.664 658.597 233.16C656.575 233.421 656.549 231.21 657.601 229.611L657.62 229.631Z" fill="#5837D0"/>
<path d="M631.427 234.128C632.7 232.223 634.883 231.629 635.604 232.979C636.386 234.47 634.837 237.467 632.536 237.988C630.339 238.228 630.306 235.84 631.427 234.128Z" fill="#5837D0"/>
<path d="M605.27 238.245C606.705 236.103 609.096 235.473 609.907 237.034C610.785 238.705 609.073 242.051 606.496 242.609C604.259 242.825 603.918 240.309 605.288 238.265L605.27 238.245Z" fill="#5837D0"/>
<path d="M579.254 242.012C580.814 239.705 583.481 239.037 584.331 240.734C585.28 242.595 583.422 246.213 580.639 246.793C577.951 247.025 577.881 244.071 579.254 242.012Z" fill="#5837D0"/>
<path d="M553.501 245.466C555.17 242.958 557.948 242.298 558.894 244.175C559.906 246.161 557.95 250.03 554.968 250.6C552.333 250.795 551.919 247.88 553.519 245.486L553.501 245.466Z" fill="#5837D0"/>
<path d="M527.938 248.574C529.676 245.953 532.727 245.27 533.742 247.242C534.872 249.413 532.747 253.55 529.492 254.142C526.453 254.348 526.369 250.927 527.935 248.59L527.938 248.574Z" fill="#5837D0"/>
<path d="M502.718 251.423C504.57 248.682 507.762 247.965 508.813 250.088C509.981 252.395 507.744 256.748 504.36 257.313C501.15 257.482 501.083 253.874 502.718 251.423Z" fill="#5837D0"/>
<path d="M477.701 253.945C479.708 250.998 483.075 250.302 484.203 252.584C485.453 255.037 483.069 259.662 479.44 260.223C476.012 260.363 475.927 256.527 477.701 253.945Z" fill="#5837D0"/>
<path d="M453.121 256.192C455.212 253.166 458.738 252.455 459.869 254.835C461.003 257.198 458.875 262.198 454.863 262.774C451.332 262.876 451.26 258.867 453.121 256.192Z" fill="#5837D0"/>
<path d="M428.912 258.182C431.087 255.078 434.745 254.379 435.902 256.844C437.164 259.554 434.538 264.48 430.674 264.992C427.013 265.067 426.971 260.92 428.894 258.162L428.912 258.182Z" fill="#5837D0"/>
<path d="M405.059 259.847C407.401 256.586 411.166 255.91 412.38 258.531C413.705 261.366 410.899 266.51 406.814 267.007C402.986 267.03 403.028 262.694 405.062 259.832L405.059 259.847Z" fill="#5837D0"/>
<path d="M381.601 261.229C384.107 257.827 388.049 257.157 389.253 259.935C390.588 262.932 387.559 268.285 383.296 268.776C379.343 268.758 379.43 264.207 381.601 261.229Z" fill="#5837D0"/>
<path d="M358.641 262.378C361.246 258.933 365.271 258.296 366.461 261.135C367.778 264.224 364.598 269.657 360.238 270.08C356.048 270.012 356.379 265.368 358.645 262.363L358.641 262.378Z" fill="#5837D0"/>
<path d="M336.086 263.2C338.873 259.633 343.051 259.013 344.209 262.005C345.364 265.012 342.44 270.819 337.526 271.22C333.236 271.099 333.697 266.259 336.089 263.185L336.086 263.2Z" fill="#5837D0"/>
<path d="M314.054 263.763C316.994 260.213 321.251 259.641 322.338 262.65C323.438 265.71 320.33 271.541 315.287 271.916C311.209 271.743 311.204 267.205 314.054 263.763Z" fill="#5837D0"/>
<path d="M292.468 264.006C295.598 260.4 300.006 259.859 301.006 262.962C302.15 266.446 298.296 272.104 293.45 272.393C289.275 272.152 289.427 267.503 292.468 264.006Z" fill="#5837D0"/>
<path d="M271.418 263.946C274.754 260.319 279.262 259.832 280.2 263.017C281.236 266.591 277.056 272.308 272.073 272.504C267.825 272.183 268.172 267.463 271.418 263.946Z" fill="#5837D0"/>
<path d="M250.935 263.62C254.526 259.951 259.015 259.556 259.824 262.826C260.718 266.433 256.229 272.133 251.173 272.25C246.963 271.857 247.54 267.106 250.957 263.624L250.935 263.62Z" fill="#5837D0"/>
<path d="M231.024 262.938C234.875 259.309 239.439 258.977 240.067 262.257C240.703 265.602 236.26 271.615 230.776 271.642C226.098 271.135 227.677 266.083 231.027 262.923L231.024 262.938Z" fill="#5837D0"/>
<path d="M211.96 262.145C215.792 258.815 220.104 258.302 220.832 261.108C221.702 264.407 216.691 270.78 210.999 270.73C206.463 270.189 208.427 265.219 211.96 262.145Z" fill="#5837D0"/>
<path d="M193.796 261.223C197.96 257.915 202.216 257.454 202.717 260.276C203.323 263.551 197.777 269.811 192.074 269.711C187.635 269.127 190.028 264.247 193.793 261.239L193.796 261.223Z" fill="#5837D0"/>
<path d="M176.549 260.192C180.981 256.988 185.224 256.589 185.475 259.326C185.778 262.553 179.682 268.665 173.995 268.489C169.502 267.845 172.543 263.07 176.528 260.187L176.549 260.192Z" fill="#5837D0"/>
<path d="M160.22 259.05C164.963 255.96 169.102 255.634 169.071 258.328C169.013 261.783 162.006 267.335 156.758 267.092C152.452 266.407 155.995 261.802 160.22 259.05Z" fill="#5837D0"/>
<path d="M144.71 257.744C149.518 254.987 153.498 254.564 153.588 256.788C153.713 259.802 146.152 265.861 140.28 265.501C136.055 264.754 140.079 260.41 144.707 257.759L144.71 257.744Z" fill="#5837D0"/>
<path d="M130.145 256.289C135.297 253.7 139.172 253.351 138.941 255.507C138.662 258.42 130.394 264.122 124.658 263.648C120.602 262.84 125.116 258.823 130.145 256.289Z" fill="#5837D0"/>
<path d="M116.468 254.667C122.008 252.256 125.793 252.016 125.268 254.078C124.545 256.977 115.635 262.224 109.839 261.61C105.87 260.709 111.227 256.933 116.468 254.667Z" fill="#5837D0"/>
<path d="M103.698 252.869C109.224 250.838 112.835 250.577 112.493 252.198C111.938 254.83 101.71 260.071 95.864 259.269C92.1497 258.326 98.009 254.928 103.677 252.864L103.698 252.869Z" fill="#5837D0"/>
<path d="M91.8844 250.89C97.782 249.114 101.327 248.95 100.646 250.484C99.5463 253.049 88.567 257.716 82.7778 256.751C79.6576 255.853 84.3578 253.393 90.036 251.491C90.5897 251.304 91.3307 251.077 91.8812 250.905L91.8844 250.89Z" fill="#5837D0"/>
<path d="M81.0243 248.743C85.6398 247.639 90.3673 246.958 89.8436 248.381C88.9765 250.691 76.4793 255.134 70.5821 253.939C67.7842 252.997 72.8662 250.953 78.0922 249.499C79.0635 249.24 80.0348 248.981 81.0243 248.743Z" fill="#5837D0"/>
<path d="M71.2098 246.403C77.5297 245.275 80.7267 245.278 79.9827 246.367C78.5226 248.52 64.8986 252.262 59.3281 250.896C56.8279 249.921 62.2126 248.244 68.0862 247.006C69.1153 246.792 70.1625 246.597 71.2312 246.407L71.2098 246.403Z" fill="#5837D0"/>
<path d="M71.1807 244.096C69.4092 246.135 54.4988 249.191 49.087 247.602C48.843 247.487 48.4769 247.314 48.5403 247.119C56.3662 246.485 63.8927 245.467 71.1775 244.111L71.1807 244.096Z" fill="#5837D0"/>
<path d="M692.901 193.915C693.437 193.069 694.347 192.782 694.623 193.383C694.902 193.969 694.333 195.287 693.295 195.548C692.487 195.665 692.393 194.734 692.901 193.915Z" fill="#5837D0"/>
<path d="M666.457 198.966C667.114 197.97 668.236 197.631 668.578 198.343C668.95 199.124 668.156 200.666 667 200.949C665.874 201.095 665.89 199.853 666.479 198.97L666.457 198.966Z" fill="#5837D0"/>
<path d="M640.026 203.635C640.842 202.417 642.176 202.027 642.617 202.903C643.113 203.838 642.128 205.755 640.668 206.103C639.41 206.237 639.244 204.796 640.026 203.635Z" fill="#5837D0"/>
<path d="M613.773 207.988C614.692 206.6 616.235 206.175 616.736 207.191C617.24 208.192 616.304 210.407 614.522 210.798C613.104 210.947 612.903 209.354 613.794 207.993L613.773 207.988Z" fill="#5837D0"/>
<path d="M587.597 211.976C588.65 210.376 590.423 209.919 591.002 211.096C591.605 212.373 590.341 214.871 588.467 215.274C586.801 215.434 586.572 213.549 587.594 211.991L587.597 211.976Z" fill="#5837D0"/>
<path d="M561.722 215.708C562.844 213.995 564.829 213.487 565.453 214.769C566.08 216.035 564.883 218.85 562.666 219.293C560.663 219.462 560.707 217.235 561.701 215.703L561.722 215.708Z" fill="#5837D0"/>
<path d="M536.057 219.084C537.368 217.107 539.509 216.6 540.226 218.077C540.947 219.539 539.642 222.651 537.127 223.127C534.967 223.295 534.935 220.796 536.078 219.088L536.057 219.084Z" fill="#5837D0"/>
<path d="M510.712 222.193C512.12 220.077 514.519 219.513 515.3 221.115C516.158 222.878 514.443 226.239 511.888 226.69C509.508 226.844 509.467 224.071 510.712 222.193Z" fill="#5837D0"/>
<path d="M485.755 225.079C487.297 222.752 489.831 222.184 490.661 223.972C491.558 225.871 489.706 229.458 486.992 229.925C484.437 230.057 484.413 227.096 485.752 225.094L485.755 225.079Z" fill="#5837D0"/>
<path d="M461.152 227.657C462.787 225.206 465.548 224.622 466.402 226.511C467.352 228.581 465.353 232.441 462.436 232.912C459.683 233.034 459.689 229.825 461.127 227.668L461.152 227.657Z" fill="#5837D0"/>
<path d="M437.062 230.023C438.811 227.452 441.69 226.845 442.564 228.85C443.431 230.886 441.684 235.039 438.38 235.541C435.498 235.636 435.537 232.273 437.041 230.018L437.062 230.023Z" fill="#5837D0"/>
<path d="M413.366 232.121C415.267 229.359 418.281 228.748 419.208 230.924C420.213 233.261 417.915 237.585 414.686 238.055C411.853 238.128 411.533 234.77 413.366 232.121Z" fill="#5837D0"/>
<path d="M390.207 233.996C392.202 231.109 395.329 230.491 396.27 232.814C397.196 235.102 395.131 239.699 391.494 240.194C388.508 240.252 388.303 236.773 390.207 233.996Z" fill="#5837D0"/>
<path d="M367.502 235.631C369.66 232.604 372.919 231.997 373.859 234.431C374.874 237.042 372.253 241.729 368.736 242.186C365.355 242.208 365.657 238.23 367.502 235.631Z" fill="#5837D0"/>
<path d="M345.339 237.014C347.5 234.083 350.699 233.335 351.807 235.502C353.171 238.154 350.311 243.446 346.46 243.896C343.199 243.88 343.113 240.043 345.336 237.029L345.339 237.014Z" fill="#5837D0"/>
<path d="M323.807 238.178C326.07 235.189 329.357 234.444 330.428 236.683C331.747 239.437 328.681 244.861 324.723 245.289C321.425 245.233 321.458 241.262 323.786 238.174L323.807 238.178Z" fill="#5837D0"/>
<path d="M302.77 239.112C305.205 236.047 308.606 235.294 309.658 237.624C310.955 240.486 307.629 246.08 303.542 246.48C300.116 246.397 300.245 242.286 302.749 239.108L302.77 239.112Z" fill="#5837D0"/>
<path d="M282.412 239.804C284.991 236.689 288.453 235.965 289.425 238.359C290.644 241.38 287.14 246.968 282.903 247.337C279.469 247.188 279.77 243.002 282.412 239.804Z" fill="#5837D0"/>
<path d="M262.64 240.237C265.383 237.093 268.949 236.407 269.843 238.848C270.999 241.952 267.182 247.649 262.802 247.956C259.309 247.763 259.786 243.486 262.64 240.237Z" fill="#5837D0"/>
<path d="M243.624 240.494C246.581 237.283 250.098 236.619 250.841 239.14C251.807 242.299 247.695 248.015 243.367 248.285C239.594 248.048 240.895 243.466 243.62 240.509L243.624 240.494Z" fill="#5837D0"/>
<path d="M225.564 240.68C228.724 237.464 232.262 236.804 232.849 239.324C233.532 242.232 229.405 248.232 224.743 248.496C221.019 248.238 222.658 243.646 225.564 240.68Z" fill="#5837D0"/>
<path d="M208.49 240.851C211.623 237.869 214.966 237.072 215.618 239.175C216.589 242.207 211.608 248.331 207.042 248.566C203.474 248.309 205.412 243.781 208.49 240.851Z" fill="#5837D0"/>
<path d="M192.369 240.937C195.741 237.989 199.103 237.212 199.562 239.274C200.242 242.309 194.777 248.395 190.238 248.604C186.591 248.298 189.109 243.78 192.372 240.922L192.369 240.937Z" fill="#5837D0"/>
<path d="M177.184 240.961C180.795 238.048 184.079 237.318 184.34 239.37C184.713 242.373 178.766 248.309 174.301 248.486C171.076 248.189 173.227 244.137 177.181 240.977L177.184 240.961Z" fill="#5837D0"/>
<path d="M162.928 240.897C166.863 238.035 170.074 237.338 170.092 239.371C170.116 242.332 163.637 248.14 159.21 248.245C155.817 247.897 159.148 243.662 162.928 240.897Z" fill="#5837D0"/>
<path d="M149.596 240.722C153.568 238.108 156.656 237.353 156.783 238.978C156.965 241.509 149.942 247.777 144.988 247.835C141.758 247.457 145.549 243.368 149.599 240.707L149.596 240.722Z" fill="#5837D0"/>
<path d="M137.216 240.461C140.84 238.333 144.479 237.087 144.351 238.865C144.193 241.309 136.495 247.275 131.689 247.268C128.647 246.85 132.874 243.028 137.238 240.465L137.216 240.461Z" fill="#5837D0"/>
<path d="M125.742 240.054C130.011 237.838 132.905 237.155 132.924 238.341C132.959 240.505 124.11 246.628 119.149 246.509C116.205 246.048 121.077 242.457 125.742 240.054Z" fill="#5837D0"/>
<path d="M115.251 239.552C119.772 237.517 122.558 236.922 122.366 238.048C121.995 240.127 112.351 245.778 107.586 245.573C105.172 245.144 109.08 242.517 113.735 240.271C114.182 240.061 114.78 239.772 115.248 239.567L115.251 239.552Z" fill="#5837D0"/>
<path d="M105.726 238.902C110.616 237.025 113.269 236.53 112.823 237.587C111.968 239.627 101.558 244.781 96.887 244.451C94.361 243.919 100.523 241.096 102.469 240.244C103.969 239.602 105.335 239.059 105.723 238.917L105.726 238.902Z" fill="#5837D0"/>
<path d="M97.2145 238.129C100.668 237.02 104.726 235.91 104.394 236.847C103.791 238.541 91.7655 243.611 87.1022 243.139C85.1519 242.632 89.8676 240.734 92.8492 239.637C93.6493 239.343 95.2707 238.758 97.2391 238.118L97.2145 238.129Z" fill="#5837D0"/>
<path d="M649.297 173.252L649.291 173.284L649.234 173.223C649.234 173.223 649.279 173.232 649.301 173.237L649.297 173.252Z" fill="#5837D0"/>
<path d="M622.595 176.969C623.022 176.324 623.735 176.123 623.973 176.588C624.21 177.054 623.77 178.079 622.928 178.253C622.287 178.326 622.197 177.588 622.617 176.973L622.595 176.969Z" fill="#5837D0"/>
<path d="M596.305 181.172C596.896 180.274 597.846 180.011 598.13 180.678C598.43 181.38 597.738 182.752 596.755 182.96C595.795 183.061 595.785 181.941 596.305 181.172Z" fill="#5837D0"/>
<path d="M570.319 185.119C571.007 184.081 572.12 183.789 572.495 184.555C572.879 185.387 572.046 187 570.855 187.244C569.805 187.343 569.659 186.13 570.319 185.119Z" fill="#5837D0"/>
<path d="M544.554 188.747C545.386 187.452 546.754 187.118 547.179 188.07C547.604 189.022 546.752 191.047 545.164 191.368C543.799 191.479 543.825 189.871 544.554 188.747Z" fill="#5837D0"/>
<path d="M519.194 192.154C520.116 190.751 521.649 190.371 522.141 191.433C522.68 192.586 521.548 194.775 519.914 195.102C518.347 195.219 518.396 193.392 519.191 192.169L519.194 192.154Z" fill="#5837D0"/>
<path d="M494.137 195.291C495.214 193.681 496.981 193.255 497.529 194.472C498.122 195.796 496.824 198.35 494.963 198.692C493.171 198.81 493.187 196.72 494.137 195.291Z" fill="#5837D0"/>
<path d="M469.555 198.193C470.794 196.346 472.723 195.89 473.343 197.298C474.001 198.843 472.559 201.654 470.443 202.039C468.609 202.148 468.378 199.958 469.555 198.193Z" fill="#5837D0"/>
<path d="M445.511 200.872C446.788 198.953 448.902 198.472 449.527 199.961C450.233 201.596 448.665 204.684 446.415 205.072C444.289 205.184 444.341 202.606 445.49 200.868L445.511 200.872Z" fill="#5837D0"/>
<path d="M421.972 203.388C423.277 201.442 425.37 200.845 426.131 202.22C427.091 203.924 425.362 207.457 422.881 207.877C420.667 207.985 420.733 205.235 421.972 203.388Z" fill="#5837D0"/>
<path d="M398.93 205.655C400.334 203.555 402.612 202.932 403.439 204.417C404.456 206.277 402.546 210.14 399.838 210.575C397.449 210.663 397.591 207.657 398.93 205.655Z" fill="#5837D0"/>
<path d="M376.526 207.77C378.076 205.508 380.402 204.865 381.244 206.496C382.259 208.467 380.218 212.526 377.4 212.954C374.926 213.024 375.079 209.861 376.526 207.77Z" fill="#5837D0"/>
<path d="M354.684 209.668C356.324 207.298 358.835 206.629 359.66 208.336C360.69 210.455 358.453 214.808 355.496 215.255C352.891 215.312 353.138 211.914 354.706 209.672L354.684 209.668Z" fill="#5837D0"/>
<path d="M333.477 211.396C335.257 208.895 337.814 208.22 338.638 210.04C339.644 212.265 337.243 216.759 334.198 217.203C331.51 217.228 331.847 213.72 333.477 211.396Z" fill="#5837D0"/>
<path d="M312.942 212.928C314.879 210.317 317.552 209.619 318.354 211.545C319.331 213.908 316.723 218.646 313.521 219.089C310.882 219.092 310.964 215.627 312.939 212.944L312.942 212.928Z" fill="#5837D0"/>
<path d="M293.075 214.252C295.151 211.511 297.939 210.805 298.696 212.833C299.66 215.369 296.841 220.254 293.462 220.692C290.762 220.666 290.965 217.051 293.075 214.252Z" fill="#5837D0"/>
<path d="M273.977 215.42C276.173 212.64 279.003 211.942 279.705 214.023C280.584 216.637 277.551 221.589 274.11 221.998C271.346 221.958 271.74 218.287 273.977 215.42Z" fill="#5837D0"/>
<path d="M255.732 216.477C257.958 213.767 260.685 212.921 261.424 214.722C262.482 217.229 259.04 222.846 255.483 223.278C252.495 223.24 253.586 219.124 255.732 216.477Z" fill="#5837D0"/>
<path d="M238.567 217.604C240.962 214.834 243.597 213.999 244.265 215.818C245.143 218.335 241.424 223.989 237.867 224.422C234.968 224.386 236.283 220.269 238.564 217.619L238.567 217.604Z" fill="#5837D0"/>
<path d="M222.438 218.693C224.999 215.879 227.684 215.023 228.192 216.855C228.912 219.483 224.872 225.181 221.223 225.626C218.327 225.575 219.958 221.445 222.438 218.693Z" fill="#5837D0"/>
<path d="M207.291 219.797C209.866 217.129 212.439 216.169 212.997 217.661C213.918 220.076 209.299 226.292 205.511 226.755C202.683 226.702 204.605 222.57 207.27 219.793L207.291 219.797Z" fill="#5837D0"/>
<path d="M193.154 220.891C195.876 218.27 198.424 217.321 198.877 218.775C199.579 221.175 194.524 227.331 190.758 227.799C188.04 227.754 190.293 223.643 193.154 220.891Z" fill="#5837D0"/>
<path d="M179.982 221.948C182.956 219.3 185.458 218.357 185.709 219.816C186.1 221.992 180.811 228.306 176.882 228.804C174.189 228.747 176.957 224.633 179.979 221.964L179.982 221.948Z" fill="#5837D0"/>
<path d="M167.78 222.987C170.751 220.561 173.125 219.592 173.453 220.684C174.004 222.525 168.083 229.186 163.977 229.678C161.418 229.618 164.531 225.673 167.78 222.987Z" fill="#5837D0"/>
<path d="M156.532 223.938C159.744 221.531 162.087 220.603 162.241 221.674C162.507 223.488 155.898 230.019 151.911 230.473C149.58 230.397 152.783 226.87 155.997 224.352C156.158 224.226 156.371 224.064 156.532 223.938Z" fill="#5837D0"/>
<path d="M146.256 224.839C149.704 222.482 151.991 221.606 151.977 222.626C151.939 224.503 144.677 230.737 140.718 231.165C138.788 231.093 141.353 228.471 144.52 226.071C145.08 225.645 145.66 225.225 146.259 224.824L146.256 224.839Z" fill="#5837D0"/>
<path d="M136.935 225.685C140.377 223.567 142.572 222.704 142.647 223.407C142.785 224.874 134.482 231.271 130.531 231.668C128.671 231.579 132.159 228.928 133.268 228.123C134.037 227.551 135.294 226.681 136.938 225.67L136.935 225.685Z" fill="#5837D0"/>
<path d="M128.587 226.451C132.274 224.448 134.339 223.669 134.246 224.321C134.01 225.757 125.06 231.73 121.206 232.084C120.37 232.019 120.797 231.374 122.483 230.164C124.141 228.98 126.716 227.478 128.584 226.466L128.587 226.451Z" fill="#5837D0"/>
<path d="M125.972 225.068C126.671 224.832 126.817 224.879 126.942 224.921C127.419 225.949 116.606 232.056 112.812 232.343C112.726 232.325 112.598 232.297 112.512 232.279C112.464 232.189 112.323 231.904 114.21 230.8C118.207 229.023 122.141 227.12 125.991 225.088L125.972 225.068Z" fill="#5837D0"/>
<path d="M579.648 153.597L579.853 153.896L579.471 154.327L579.297 153.987L579.648 153.597Z" fill="#5837D0"/>
<path d="M554.08 157.251L554.469 157.844L553.719 158.645L553.383 158.014L554.08 157.251Z" fill="#5837D0"/>
<path d="M528.028 161.28C528.433 160.631 529.15 160.414 529.415 160.854C529.728 161.383 529.158 162.605 528.341 162.768C527.543 162.839 527.688 161.831 528.025 161.295L528.028 161.28Z" fill="#5837D0"/>
<path d="M502.978 164.706C503.556 163.869 504.454 163.643 504.748 164.264C505.071 164.956 504.361 166.308 503.382 166.5C502.474 166.565 502.486 165.449 503.002 164.695L502.978 164.706Z" fill="#5837D0"/>
<path d="M478.382 167.876C479.046 166.85 480.1 166.513 480.485 167.233C480.925 168.013 480.163 169.929 478.836 170.176C477.793 170.244 477.694 168.913 478.382 167.876Z" fill="#5837D0"/>
<path d="M454.335 170.906C455.092 169.756 456.309 169.389 456.724 170.18C457.256 171.154 456.278 173.249 454.859 173.509C453.565 173.603 453.612 172 454.335 170.906Z" fill="#5837D0"/>
<path d="M430.804 173.694C431.695 172.332 433.103 171.91 433.574 172.856C434.178 174.022 433.012 176.476 431.36 176.782C429.888 176.872 429.975 174.973 430.804 173.694Z" fill="#5837D0"/>
<path d="M407.903 176.36C408.922 174.817 410.474 174.346 411.03 175.421C411.715 176.732 410.365 179.531 408.483 179.869C406.833 179.952 406.954 177.789 407.907 176.345L407.903 176.36Z" fill="#5837D0"/>
<path d="M385.661 178.877C386.77 177.225 388.418 176.726 389 177.887C389.727 179.319 388.246 182.313 386.247 182.675C384.484 182.766 384.618 180.43 385.661 178.877Z" fill="#5837D0"/>
<path d="M364.038 181.203C365.274 179.371 367.091 178.811 367.688 180.119C368.4 181.723 366.735 185.062 364.594 185.458C362.7 185.538 362.889 182.942 364.035 181.218L364.038 181.203Z" fill="#5837D0"/>
<path d="M343.157 183.416C344.52 181.402 346.384 180.837 346.997 182.276C347.723 184.027 345.955 187.536 343.658 187.931C341.788 188 341.79 185.444 343.178 183.42L343.157 183.416Z" fill="#5837D0"/>
<path d="M322.998 185.476C324.387 183.453 326.294 182.784 327.007 184.069C327.957 185.819 325.949 189.933 323.416 190.389C321.414 190.446 321.504 187.686 323.017 185.496L322.998 185.476Z" fill="#5837D0"/>
<path d="M303.603 187.426C305.071 185.339 307.028 184.649 307.734 185.964C308.69 187.795 306.509 192.096 303.868 192.53C301.71 192.586 302.166 189.471 303.603 187.426Z" fill="#5837D0"/>
<path d="M285.01 189.179C286.593 186.972 288.651 186.224 289.317 187.627C290.265 189.6 287.823 194.181 285.042 194.649C282.727 194.704 283.43 191.37 284.988 189.174L285.01 189.179Z" fill="#5837D0"/>
<path d="M267.495 191.014C269.214 188.692 271.325 187.907 271.913 189.357C272.735 191.399 270.043 196.216 267.254 196.714C264.915 196.78 265.803 193.309 267.495 191.014Z" fill="#5837D0"/>
<path d="M251.1 192.942C252.824 190.701 254.801 189.808 255.442 191.013C256.412 192.879 253.404 198.236 250.493 198.789C248.239 198.873 249.303 195.311 251.121 192.946L251.1 192.942Z" fill="#5837D0"/>
<path d="M235.789 194.936C237.612 192.653 239.592 191.744 240.147 192.932C240.982 194.801 237.689 200.242 234.795 200.814C232.606 200.911 233.904 197.303 235.792 194.921L235.789 194.936Z" fill="#5837D0"/>
<path d="M221.525 196.946C223.53 194.542 225.517 193.602 225.948 194.844C226.645 196.844 222.995 202.385 220.07 202.998C217.878 203.111 219.409 199.456 221.525 196.946Z" fill="#5837D0"/>
<path d="M208.27 199.042C210.407 196.649 212.397 195.694 212.7 196.909C213.219 198.903 209.256 204.442 206.35 205.075C204.243 205.206 206.019 201.555 208.27 199.042Z" fill="#5837D0"/>
<path d="M196.049 201.115C198.213 198.807 200.13 197.773 200.488 198.727C201.042 200.234 196.698 206.523 193.548 207.249C191.53 207.383 193.653 203.677 196.046 201.13L196.049 201.115Z" fill="#5837D0"/>
<path d="M184.85 203.211C187.173 200.889 189.115 199.845 189.323 200.767C189.74 202.501 184.696 208.61 181.731 209.311C179.866 209.461 181.996 206.252 184.051 204.033C184.283 203.779 184.6 203.446 184.829 203.207L184.85 203.211Z" fill="#5837D0"/>
<path d="M174.612 205.317C176.973 203.131 178.759 202.086 179.025 202.733C179.618 204.056 173.837 210.585 170.816 211.338C169.38 211.467 170.819 209.31 172.509 207.446C172.8 207.124 173.588 206.251 174.587 205.328L174.612 205.317Z" fill="#5837D0"/>
<path d="M165.388 207.399C167.948 205.222 169.684 204.199 169.847 204.808C170.144 205.941 164.044 212.499 160.875 213.317C159.826 213.415 160.691 212.176 161.585 211.118C162.507 210.034 163.915 208.654 165.384 207.414L165.388 207.399Z" fill="#5837D0"/>
<path d="M157.123 209.475C159.83 207.346 161.535 206.364 161.551 206.926C161.572 208.097 154.914 214.329 151.899 215.163C151.647 215.19 151.141 215.259 151.887 214.266C152.806 213.086 155.17 210.996 157.123 209.475Z" fill="#5837D0"/>
<path d="M149.847 211.52C153.664 208.794 154.105 208.823 154.258 208.84C154.495 209.944 146.316 216.287 143.721 217.034C143.654 217.036 143.54 217.044 143.454 217.026C142.995 216.45 149.137 212.025 149.826 211.516L149.847 211.52Z" fill="#5837D0"/>
<path d="M145.659 213.146C142.93 215.271 139.759 217.27 138.009 218.147C140.585 216.533 143.149 214.869 145.659 213.146Z" fill="#5837D0"/>
<path d="M537.294 129.522L537.369 129.697L537.189 129.915L537.093 129.735L537.294 129.522Z" fill="#5837D0"/>
<path d="M512.357 133.276L512.457 133.441L512.255 133.655L512.155 133.49L512.357 133.276Z" fill="#5837D0"/>
<path d="M487.973 136.506L488.232 136.976L487.683 137.563L487.428 137.078L487.973 136.506Z" fill="#5837D0"/>
<path d="M464.154 139.601L464.514 140.332L463.733 141.174L463.339 140.499L464.154 139.601Z" fill="#5837D0"/>
<path d="M440.063 143.246C440.486 142.617 441.11 142.413 441.333 142.843C441.6 143.379 441.045 144.524 440.296 144.685C439.661 144.727 439.63 143.922 440.063 143.246Z" fill="#5837D0"/>
<path d="M417.215 146.194C417.754 145.333 418.594 145.063 418.873 145.649C419.2 146.325 418.58 147.888 417.487 148.088C416.671 148.14 416.651 147.066 417.218 146.179L417.215 146.194Z" fill="#5837D0"/>
<path d="M395.076 149.067C395.684 148.093 396.665 147.788 396.995 148.449C397.397 149.301 396.526 151.098 395.383 151.32C394.341 151.388 394.478 149.995 395.076 149.067Z" fill="#5837D0"/>
<path d="M373.639 151.784C374.405 150.588 375.509 150.23 375.875 151.042C376.327 152.08 375.299 154.195 373.923 154.465C372.838 154.523 372.845 153.007 373.617 151.78L373.639 151.784Z" fill="#5837D0"/>
<path d="M352.941 154.404C353.798 153.098 354.989 152.647 355.446 153.446C356.063 154.551 354.827 157.23 353.218 157.545C351.976 157.603 351.992 155.833 352.941 154.404Z" fill="#5837D0"/>
<path d="M333.107 156.948C334.06 155.504 335.331 154.989 335.79 155.885C336.431 157.09 335.03 160.022 333.35 160.354C331.97 160.431 332.064 158.502 333.089 156.928L333.107 156.948Z" fill="#5837D0"/>
<path d="M314.058 159.369C315.111 157.77 316.505 157.201 317.01 158.202C317.664 159.554 316.079 162.831 314.208 163.219C312.668 163.31 313.009 160.953 314.055 159.385L314.058 159.369Z" fill="#5837D0"/>
<path d="M295.979 161.773C297.149 160.039 298.55 159.44 299.017 160.513C299.63 161.952 297.89 165.435 295.948 165.841C294.455 165.925 294.712 163.647 295.979 161.773Z" fill="#5837D0"/>
<path d="M279.036 164.289C280.231 162.544 281.654 161.837 282.16 162.727C282.921 164.101 280.913 168.215 278.803 168.681C277.143 168.81 277.803 166.106 279.036 164.289Z" fill="#5837D0"/>
<path d="M263.271 166.925C264.577 165.075 266.06 164.301 266.513 165.228C267.215 166.67 264.929 171.044 262.781 171.582C261.096 171.722 261.923 168.861 263.274 166.909L263.271 166.925Z" fill="#5837D0"/>
<path d="M248.667 169.693C250.061 167.75 251.553 166.93 251.932 167.889C252.511 169.385 249.984 173.949 247.847 174.537C246.224 174.706 247.212 171.719 248.667 169.693Z" fill="#5837D0"/>
<path d="M235.145 172.53C236.578 170.611 238.019 169.717 238.443 170.461C239.192 171.786 236.279 176.907 233.989 177.59C232.359 177.79 233.575 174.675 235.142 172.545L235.145 172.53Z" fill="#5837D0"/>
<path d="M222.697 175.481C224.232 173.505 225.685 172.549 226.039 173.31C226.644 174.684 223.494 179.867 221.172 180.592C219.653 180.799 220.909 177.916 222.424 175.823C222.514 175.714 222.607 175.59 222.7 175.466L222.697 175.481Z" fill="#5837D0"/>
<path d="M211.303 178.496C212.992 176.424 214.452 175.438 214.689 176.222C215.081 177.439 211.679 182.969 209.295 183.776C207.926 184.015 209.129 181.489 210.439 179.624C210.697 179.247 210.977 178.875 211.278 178.507L211.303 178.496Z" fill="#5837D0"/>
<path d="M200.971 181.59C202.634 179.64 204.061 178.599 204.332 179.119C204.894 180.164 200.824 186 198.519 186.856C197.306 187.095 198.564 184.948 198.972 184.284C199.508 183.438 200.23 182.456 200.971 181.59Z" fill="#5837D0"/>
<path d="M191.663 184.692C193.471 182.693 194.873 181.662 195.061 182.149C195.467 183.193 190.927 189.138 188.631 190.059C188.419 190.111 187.786 190.249 188.611 188.777C189.189 187.733 190.38 186.115 191.685 184.696L191.663 184.692Z" fill="#5837D0"/>
<path d="M183.346 187.86C185.351 185.774 186.71 184.735 186.785 185.23C186.953 186.128 182.075 192.193 179.685 193.239C179.495 193.294 179.141 193.38 179.461 192.712C179.957 191.634 181.825 189.456 183.343 187.875L183.346 187.86Z" fill="#5837D0"/>
<path d="M176.032 191.061C177.883 189.279 179.018 188.352 179.383 188.317C179.773 189.118 173.832 195.342 171.741 196.355C171.67 196.372 171.599 196.389 171.532 196.391C171.241 195.755 175.549 191.55 176.029 191.076L176.032 191.061Z" fill="#5837D0"/>
<path d="M169.739 194.289C172.467 191.845 172.871 191.627 173.068 191.541C173.09 191.545 173.133 191.554 173.154 191.559C172.887 192.509 166.877 198.319 164.815 199.402C164.787 199.428 164.741 199.434 164.692 199.456C164.649 199.447 164.628 199.442 164.585 199.433C164.732 198.841 168.244 195.652 169.739 194.289Z" fill="#5837D0"/>
<path d="M427.062 115.085L427.198 115.289L426.906 115.611L426.826 115.355L427.062 115.085Z" fill="#5837D0"/>
<path d="M405.231 118.073L405.422 118.544L404.923 119.11L404.729 118.654L405.231 118.073Z" fill="#5837D0"/>
<path d="M383.502 121.446C383.836 120.925 384.294 120.766 384.465 121.122C384.681 121.583 384.165 122.544 383.603 122.666C383.149 122.698 383.163 121.998 383.502 121.446Z" fill="#5837D0"/>
<path d="M363.007 124.475C363.436 123.815 364.003 123.567 364.207 123.977C364.463 124.463 363.927 125.836 363.132 126.003C362.54 126.054 362.567 125.181 363.007 124.475Z" fill="#5837D0"/>
<path d="M343.341 127.391C343.874 126.561 344.585 126.264 344.858 126.769C345.185 127.445 344.392 129.194 343.455 129.396C342.636 129.463 342.805 128.237 343.341 127.391Z" fill="#5837D0"/>
<path d="M324.56 130.238C325.158 129.31 326.031 128.775 326.358 129.451C326.738 130.298 325.735 132.403 324.629 132.665C323.743 132.734 323.855 131.351 324.56 130.238Z" fill="#5837D0"/>
<path d="M306.941 133.217C307.639 132.134 308.492 131.691 308.827 132.225C309.324 133.049 308.178 135.619 306.882 135.937C305.9 136.033 306.209 134.357 306.941 133.217Z" fill="#5837D0"/>
<path d="M290.497 136.333C291.301 135.065 292.266 134.517 292.556 135.154C293.021 136.131 291.673 139.025 290.296 139.406C289.197 139.526 289.643 137.623 290.478 136.313L290.497 136.333Z" fill="#5837D0"/>
<path d="M275.311 139.618C276.15 138.293 277.17 137.693 277.461 138.33C277.919 139.337 276.363 142.476 274.927 142.924C273.822 143.074 274.389 141.021 275.311 139.618Z" fill="#5837D0"/>
<path d="M261.299 143.087C262.189 141.725 263.156 141.066 263.472 141.58C264.024 142.464 262.226 146.111 260.682 146.648C259.571 146.829 260.287 144.599 261.299 143.087Z" fill="#5837D0"/>
<path d="M248.399 146.678C249.404 145.197 250.411 144.45 250.721 144.995C251.214 145.946 249.131 149.884 247.55 150.493C246.57 150.686 247.03 148.93 248.041 147.21C248.144 147.04 248.278 146.828 248.399 146.678Z" fill="#5837D0"/>
<path d="M236.617 150.392C237.761 148.78 238.806 147.962 239.042 148.539C239.433 149.548 237.056 153.823 235.436 154.504C234.546 154.7 235.006 153.151 235.871 151.593C236.093 151.176 236.355 150.784 236.613 150.407L236.617 150.392Z" fill="#5837D0"/>
<path d="M225.963 154.25C227.098 152.684 228.106 151.826 228.359 152.215C228.869 152.977 226.178 157.682 224.448 158.467C223.642 158.681 224.199 157.313 224.478 156.732C224.644 156.368 225.135 155.417 225.963 154.25Z" fill="#5837D0"/>
<path d="M216.367 158.202C217.607 156.562 218.628 155.643 218.839 156.023C219.217 156.774 216.082 161.784 214.451 162.623C214.285 162.668 213.806 162.822 214.309 161.602C214.674 160.72 215.49 159.391 216.367 158.202Z" fill="#5837D0"/>
<path d="M207.839 162.267C209.187 160.539 210.211 159.604 210.333 159.982C210.573 160.751 207.137 165.81 205.512 166.729C205.367 166.779 205.1 166.882 205.283 166.33C205.536 165.552 206.584 163.872 207.863 162.257L207.839 162.267Z" fill="#5837D0"/>
<path d="M200.345 166.407C201.09 165.525 202.372 164.006 202.817 163.909C203.237 164.461 199.048 170.015 197.477 170.994C197.428 171.016 197.358 171.033 197.308 171.055C196.97 170.536 200.317 166.433 200.348 166.392L200.345 166.407Z" fill="#5837D0"/>
<path d="M193.885 170.637C195.282 168.998 196.13 168.154 196.373 168.062C196.524 168.621 192.003 174.154 190.527 175.217C190.478 175.238 190.425 175.275 190.379 175.281C190.246 174.854 193.504 171.067 193.885 170.637Z" fill="#5837D0"/>
<path d="M190.977 172.357C190.307 173.413 186.007 178.322 184.492 179.568C184.471 179.564 184.44 179.605 184.412 179.631C184.412 179.631 184.419 179.601 184.376 179.592C186.598 177.217 188.802 174.822 190.977 172.357Z" fill="#5837D0"/>
<path d="M335.792 99.884L335.955 100.382L335.39 101.045L335.258 100.506L335.792 99.884Z" fill="#5837D0"/>
<path d="M318.11 103.682C318.415 103.188 318.757 103.052 318.871 103.252C319.052 103.562 318.611 104.699 318.042 104.85C317.649 104.911 317.804 104.177 318.11 103.682Z" fill="#5837D0"/>
<path d="M302.088 107.334C302.465 106.711 302.949 106.429 303.091 106.715C303.331 107.165 302.632 108.679 301.958 108.904C301.381 108.99 301.717 107.927 302.088 107.334Z" fill="#5837D0"/>
<path d="M287.323 111.188C287.8 110.409 288.325 110.041 288.512 110.32C288.832 110.819 287.906 112.876 287.06 113.177C286.501 113.283 286.746 112.12 287.326 111.172L287.323 111.188Z" fill="#5837D0"/>
<path d="M273.785 115.267C274.325 114.406 274.887 113.965 275.089 114.279C275.405 114.793 274.284 117.145 273.4 117.518C272.789 117.661 273.176 116.352 273.71 115.411C273.741 115.369 273.776 115.312 273.81 115.256L273.785 115.267Z" fill="#5837D0"/>
<path d="M261.444 119.501C262.086 118.471 262.735 117.937 262.903 118.307C263.172 118.939 261.813 121.672 260.843 122.139C260.228 122.297 260.639 121.089 261.037 120.263C261.16 120.001 261.3 119.759 261.465 119.506L261.444 119.501Z" fill="#5837D0"/>
<path d="M250.219 123.943C250.948 122.818 251.631 122.227 251.774 122.609C252.016 123.267 250.452 126.228 249.444 126.767C248.919 126.927 249.222 126.017 249.374 125.618C249.506 125.31 249.77 124.695 250.24 123.947L250.219 123.943Z" fill="#5837D0"/>
<path d="M240.199 128.524C240.863 127.498 241.65 126.625 241.813 126.915C242.147 127.449 240.238 130.992 239.09 131.661C238.992 131.704 238.657 131.809 238.951 130.945C239.125 130.438 239.539 129.535 240.202 128.509L240.199 128.524Z" fill="#5837D0"/>
<path d="M231.237 133.266C232.119 131.95 232.834 131.206 232.954 131.487C233.175 132.029 230.974 135.894 229.832 136.644C229.734 136.687 229.537 136.773 229.624 136.36C229.749 135.764 230.428 134.453 231.241 133.25L231.237 133.266Z" fill="#5837D0"/>
<path d="M223.406 138.166C223.796 137.593 224.766 136.28 225.098 136.19C225.479 136.606 222.608 141.001 221.653 141.71C221.625 141.736 221.576 141.758 221.53 141.764C221.242 141.432 222.952 138.837 223.41 138.151L223.406 138.166Z" fill="#5837D0"/>
<path d="M216.621 143.204C217.159 142.455 218.123 141.172 218.391 141.069C218.604 141.434 215.51 146.037 214.449 146.932C214.424 146.943 214.372 146.98 214.347 146.99C214.173 146.65 216.593 143.23 216.621 143.204Z" fill="#5837D0"/>
<path d="M210.906 148.358C212.557 146.15 212.673 146.127 212.719 146.121C212.613 146.625 209.406 151.125 208.334 152.178C208.307 152.204 208.254 152.241 208.211 152.231C208.302 151.803 210.788 148.493 210.906 148.358Z" fill="#5837D0"/>
<path d="M286.718 86.0548L286.707 86.5317L286.227 87.2134L286.217 86.7319L286.718 86.0548Z" fill="#5837D0"/>
<path d="M274.438 91.2626C274.716 90.7939 275.016 90.5377 275.073 90.6934C275.195 90.9589 274.603 92.1761 274.175 92.4053C273.957 92.487 274.059 92.1091 274.115 91.9454C274.188 91.7052 274.301 91.4893 274.438 91.2626Z" fill="#5837D0"/>
<path d="M263.725 96.2737C264.034 95.7637 264.4 95.2978 264.503 95.4472C264.672 95.7065 263.804 97.4886 263.264 97.8221C263.116 97.8868 263.099 97.7554 263.157 97.4801C263.225 97.1589 263.457 96.6965 263.728 96.2584L263.725 96.2737Z" fill="#5837D0"/>
<path d="M254.186 101.533C254.598 100.853 254.973 100.452 255.058 100.582C255.23 100.826 254.135 102.944 253.557 103.349C253.508 103.371 253.406 103.429 253.433 103.195C253.48 102.869 253.784 102.167 254.186 101.533Z" fill="#5837D0"/>
<path d="M245.795 106.954C245.964 106.685 246.531 105.799 246.764 105.752C247.028 105.983 245.477 108.676 244.911 109.132C244.908 109.147 244.859 109.168 244.837 109.164C244.631 108.977 245.549 107.381 245.795 106.954Z" fill="#5837D0"/>
<path d="M238.544 112.614C238.781 112.232 239.37 111.35 239.567 111.264C239.77 111.466 237.952 114.47 237.422 114.965C237.419 114.981 237.37 115.002 237.345 115.013C237.206 114.824 238.245 113.078 238.544 112.614Z" fill="#5837D0"/>
<path d="M232.378 118.423C232.65 117.985 233.335 116.963 233.492 116.852C233.6 117.083 231.487 120.424 230.907 121.052C230.904 121.068 230.855 121.089 230.83 121.1C230.759 120.909 232.329 118.444 232.357 118.418L232.378 118.423Z" fill="#5837D0"/>
<path d="M227.29 124.412C227.682 123.824 228.032 123.227 228.485 122.667C228.427 122.943 225.977 126.612 225.476 127.289L225.445 127.33C225.458 127.269 225.48 127.162 227.311 124.417L227.29 124.412Z" fill="#5837D0"/>
<path d="M268.405 73.1037L268.319 73.4051L268.017 73.8846L268.103 73.5832L268.405 73.1037Z" fill="#5837D0"/>
<path d="M260.603 78.9355L260.422 79.4726L259.879 80.3486L260.066 79.7809L260.603 78.9355Z" fill="#5837D0"/>
<path d="M253.489 85.7443C253.558 85.631 253.87 85.1057 253.972 85.0472C254.041 85.1418 253.192 86.6242 252.956 86.894C252.956 86.894 252.953 86.9093 252.928 86.9201C252.877 86.8454 253.267 86.1608 253.514 85.7336L253.489 85.7443Z" fill="#5837D0"/>
<path d="M247.844 92.2551C248.022 91.9411 248.136 91.6137 248.418 91.3376C248.379 91.5211 247.262 93.4263 247.01 93.7726C247.007 93.7879 247.007 93.7879 246.982 93.7987C246.977 93.7177 247.61 92.6212 247.844 92.2551Z" fill="#5837D0"/>
<path d="M950.996 193.034L951.041 193.139L950.857 193.373L950.862 193.246L950.996 193.034Z" fill="#5837D0"/>
<path d="M931.987 203.437L932.02 203.492L931.926 203.617L931.893 203.562L931.987 203.437Z" fill="#5837D0"/>
<path d="M911.98 213.071L912.125 213.341L911.702 213.859L911.554 213.604L911.98 213.071Z" fill="#5837D0"/>
<path d="M890.881 222.236L891.173 222.761L890.39 223.715L890.092 223.22L890.881 222.236Z" fill="#5837D0"/>
<path d="M867.816 231.847C868.228 231.167 868.884 230.81 869.08 231.155C869.33 231.559 868.748 232.731 868.006 233.069C867.427 233.267 867.461 232.683 867.619 232.253C867.648 232.115 867.72 231.987 867.816 231.847Z" fill="#5837D0"/>
<path d="M900.434 192.63L900.757 193.114L899.971 194.083L899.682 193.542L900.434 192.63Z" fill="#5837D0"/>
<path d="M877.204 201.746C877.619 201.05 878.336 200.722 878.498 201.124C878.695 201.565 878.154 202.649 877.421 202.942C876.8 203.13 876.816 202.527 877.032 202.029C877.055 201.922 877.12 201.824 877.186 201.726L877.204 201.746Z" fill="#5837D0"/>
<path d="M853.421 209.864C854.047 208.91 854.958 208.511 855.247 209.051C855.566 209.661 854.784 211.142 853.784 211.538C852.954 211.763 852.904 210.937 853.202 210.265C853.274 210.137 853.328 209.988 853.421 209.864Z" fill="#5837D0"/>
<path d="M829.002 217.61C829.734 216.47 830.885 215.994 831.209 216.685C831.529 217.392 830.736 219.142 829.425 219.632C828.362 219.903 828.364 218.833 828.82 217.939C828.864 217.837 828.936 217.708 828.998 217.625L829.002 217.61Z" fill="#5837D0"/>
<path d="M862.886 180.019L863.002 180.108L862.797 180.337L862.716 180.192L862.886 180.019Z" fill="#5837D0"/>
<path d="M838.77 187.076L839.023 187.465L838.483 188.118L838.215 187.694L838.77 187.076Z" fill="#5837D0"/>
<path d="M814.154 193.964L814.528 194.522L813.7 195.481L813.292 194.868L814.154 193.964Z" fill="#5837D0"/>
<path d="M788.114 201.224C788.613 200.45 789.413 200.156 789.643 200.652C789.907 201.203 789.269 202.426 788.427 202.712C787.656 202.869 787.662 201.991 788.046 201.337C788.052 201.307 788.083 201.265 788.114 201.224Z" fill="#5837D0"/>
<path d="M762.42 207.71C763.043 206.771 764.058 206.41 764.355 207.016C764.67 207.641 764.017 209.149 762.821 209.52C761.841 209.713 761.866 208.536 762.42 207.71Z" fill="#5837D0"/>
<path d="M746.031 182.461L746.376 182.949L745.709 183.671L745.368 183.168L746.031 182.461Z" fill="#5837D0"/>
<path d="M719.325 188.526C719.724 187.907 720.348 187.704 720.549 188.129C720.802 188.63 720.262 189.491 719.598 189.67C719.018 189.772 718.954 189.119 719.301 188.537L719.325 188.526Z" fill="#5837D0"/>
<path d="M675.829 167.452L676.016 167.732L675.635 168.162L675.411 167.844L675.829 167.452Z" fill="#5837D0"/>
<path d="M649.594 172.035L649.953 172.559L649.293 173.25C649.293 173.25 649.25 173.241 649.229 173.237L648.924 172.773L649.591 172.051L649.594 172.035Z" fill="#5837D0"/>
</g>
<defs>
<clipPath id="clip0_2932_39791">
<rect width="273.458" height="935.775" fill="white" transform="matrix(-0.206297 0.978489 0.978489 0.206297 35.4141 0)"/>
</clipPath>
</defs>
</svg>
