<svg width="973" height="461" viewBox="0 0 973 461" fill="none" xmlns="http://www.w3.org/2000/svg">
<g opacity="0.3" clip-path="url(#clip0_2932_40210)">
<path d="M181.183 200.79C183.08 199.321 184.27 198.342 184.598 198.059C184.086 198.367 183.668 198.758 183.211 199.125L175.997 204.601C178.124 203.101 179.632 201.997 181.183 200.79Z" fill="#5837D0"/>
<path d="M205.059 179.285C206.599 177.709 207.411 176.825 207.622 176.566C207.434 176.718 207.309 176.884 207.139 177.056L200.844 183.477C202.253 182.096 203.665 180.701 205.059 179.285Z" fill="#5837D0"/>
<path d="M201.638 183.725C201.864 183.501 203.911 181.536 204.205 180.991C203.652 181.066 196.44 188.124 196.381 188.192C196.378 188.207 196.35 188.233 196.322 188.259C196.697 188.179 199.679 185.596 201.638 183.725Z" fill="#5837D0"/>
<path d="M223.577 159.017C223.733 158.81 225.17 157.084 225.408 156.591C224.909 156.837 220.058 162.876 220.024 162.933C220.017 162.963 220.011 162.994 219.986 163.004C220.39 162.786 222.708 160.064 223.574 159.032L223.577 159.017Z" fill="#5837D0"/>
<path d="M220.991 164.494C221.401 164.037 222.713 162.477 222.859 161.997C222.859 161.997 222.823 161.957 222.826 161.942C222.087 162.265 217.466 167.426 216.926 168.398C216.923 168.413 216.916 168.444 216.91 168.474C216.91 168.474 216.95 168.499 216.968 168.519C217.457 168.318 219.412 166.366 221.034 164.503L220.991 164.494Z" fill="#5837D0"/>
<path d="M244.287 130.566C244.707 129.952 245.174 129.331 245.511 128.683C245.249 128.868 242.126 133.497 242.117 133.543C242.113 133.559 242.11 133.574 242.104 133.605C242.289 133.468 243.798 131.294 244.309 130.571L244.287 130.566Z" fill="#5837D0"/>
<path d="M241.327 136.861C241.455 136.68 242.627 135.042 242.611 134.799C242.233 134.895 239.09 139.201 238.689 140.043C238.682 140.073 238.676 140.104 238.672 140.119C238.978 139.944 240.347 138.22 241.306 136.856L241.327 136.861Z" fill="#5837D0"/>
<path d="M239.427 143.33C239.58 143.139 240.839 141.407 240.719 141.126C240.103 141.188 236.66 145.639 236.36 146.534C236.353 146.564 236.344 146.61 236.359 146.645C236.812 146.613 238.591 144.432 239.406 143.326L239.427 143.33Z" fill="#5837D0"/>
<path d="M264.315 99.0003C264.549 98.6342 264.758 98.2789 264.967 97.9235C264.802 98.1763 264.655 98.4489 264.49 98.7016L263.395 100.5C263.333 100.583 263.299 100.639 263.258 100.726C263.255 100.742 263.248 100.772 263.227 100.768C263.595 100.19 263.944 99.5931 264.312 99.0156L264.315 99.0003Z" fill="#5837D0"/>
<path d="M260.887 105.915C261.055 105.647 261.601 104.755 261.608 104.613C261.436 104.689 259.756 107.354 259.477 107.934C259.474 107.949 259.468 107.98 259.464 107.995C259.6 107.88 260.348 106.776 260.887 105.915Z" fill="#5837D0"/>
<path d="M258.535 113.055C258.735 112.746 259.38 111.7 259.33 111.513C259.008 111.557 256.974 114.627 256.743 115.298C256.74 115.313 256.734 115.343 256.73 115.359C256.961 115.327 257.994 113.82 258.517 113.035L258.535 113.055Z" fill="#5837D0"/>
<path d="M257.234 120.386C257.374 120.144 258.165 118.937 258.057 118.707C257.564 118.715 255.28 122.019 255.122 122.769C255.115 122.799 255.109 122.83 255.105 122.845C255.464 122.841 256.655 121.223 257.215 120.367L257.234 120.386Z" fill="#5837D0"/>
<path d="M280.382 71.9044L280.158 72.2245L279.826 72.8416L280.06 72.4755L280.382 71.9044Z" fill="#5837D0"/>
<path d="M277.483 79.3935L277.141 79.8486L276.666 80.723L277.014 80.2373L277.483 79.3935Z" fill="#5837D0"/>
<path d="M275.382 87.7688C275.482 87.614 275.773 87.0842 275.749 86.9834C275.571 86.9779 274.58 88.606 274.509 88.9425C274.509 88.9425 274.506 88.9578 274.502 88.9731C274.662 88.9588 275.204 88.0827 275.382 87.7688Z" fill="#5837D0"/>
<path d="M274.609 95.8829C274.685 95.739 275.096 95.0589 275.012 94.9293C274.727 94.9012 273.527 96.7731 273.477 97.2257C273.474 97.241 273.467 97.2716 273.507 97.2959C273.712 97.2753 274.288 96.4541 274.606 95.8982L274.609 95.8829Z" fill="#5837D0"/>
<path d="M53.8853 247.541C56.8583 247.545 58.6257 247.646 59.6855 247.709C54.6783 247.916 49.547 247.968 44.3163 247.856C46.2735 247.694 49.9992 247.52 53.8639 247.536L53.8853 247.541Z" fill="#5837D0"/>
<path d="M83.4348 243.897C87.7928 243.378 92.8637 242.978 92.2429 244.013C92.2397 244.028 92.1904 244.05 92.1839 244.08C84.8959 245.452 77.3727 246.454 69.5435 247.104C70.0438 245.58 81.2097 244.163 83.4348 243.897Z" fill="#5837D0"/>
<path d="M110.733 237.239C117.187 235.58 117.622 235.847 117.86 235.993C118.142 237.411 103.87 242.214 99.395 241.59C98.2005 241.211 100.12 240.273 105.153 238.778C106.777 238.29 108.889 237.713 110.754 237.243L110.733 237.239Z" fill="#5837D0"/>
<path d="M142.272 227.113C145.528 225.562 146.614 225.184 146.973 225.068C143.124 227.101 139.212 229.008 135.193 230.78C137.315 229.518 140.211 228.084 142.25 227.108L142.272 227.113Z" fill="#5837D0"/>
<path d="M135.947 227.728C140.429 225.877 141.135 225.706 141.543 225.681C141.558 225.716 141.594 225.755 141.613 225.775C140.562 227.151 129.92 232.24 126.454 232.452C126.39 232.439 126.283 232.416 126.197 232.398C126.196 232.19 126.18 231.739 135.947 227.728Z" fill="#5837D0"/>
<path d="M164.611 213.529C168.342 211.104 168.723 210.993 169.009 210.909C169.03 210.914 169.07 210.938 169.088 210.958C168.894 211.349 167.672 212.369 166.684 213.135C164.174 214.859 161.631 216.527 159.033 218.136C158.235 218.527 157.943 218.641 157.605 218.762C157.537 218.763 157.445 218.776 157.381 218.762C157.426 218.548 157.513 218.135 164.635 213.518L164.611 213.529Z" fill="#5837D0"/>
<path d="M159.384 215.51C162.12 213.914 163.593 213.08 163.802 213.006C163.386 213.813 153.987 219.58 151.44 220.417C151.394 220.423 151.348 220.43 151.324 220.44C151.327 220.425 151.309 220.405 151.294 220.37C151.519 220.151 154.223 218.533 159.405 215.514L159.384 215.51Z" fill="#5837D0"/>
<path d="M185.445 197.535C188.157 195.279 188.509 194.986 188.821 194.78C188.764 195.263 181.814 201.291 179.717 202.542C179.689 202.568 179.643 202.574 179.618 202.585C179.617 202.377 180.053 202.006 185.445 197.535Z" fill="#5837D0"/>
<path d="M183.212 199.124C178.134 203.165 175.586 204.961 174.704 205.542C174.697 205.572 174.651 205.579 174.626 205.589C175.038 205.229 175.525 204.932 175.973 204.611L183.187 199.135L183.212 199.124Z" fill="#5837D0"/>
<path d="M209.443 174.937C211.563 172.62 211.804 172.432 211.944 172.301L211.959 172.336C209.787 174.786 207.58 177.196 205.358 179.572C205.492 179.36 205.729 178.979 209.446 174.922L209.443 174.937Z" fill="#5837D0"/>
<path d="M207.139 177.056C204.728 179.583 202.435 181.976 200.422 183.884C200.416 183.914 200.37 183.921 200.363 183.951C200.509 183.79 200.676 183.634 200.847 183.462L207.142 177.041L207.139 177.056Z" fill="#5837D0"/>
<path d="M227.241 153.607C227.85 152.841 228.444 152.04 229.056 151.258C228.729 151.748 225.519 155.944 224.154 157.541C224.151 157.557 224.123 157.583 224.119 157.598C224.999 156.186 226.201 154.937 227.245 153.592L227.241 153.607Z" fill="#5837D0"/>
<path d="M264.494 98.6874C264.123 99.2802 263.773 99.8775 263.399 100.486L264.494 98.6874Z" fill="#5837D0"/>
<path d="M865.23 240.296C865.859 239.326 866.798 238.901 867.059 239.467C867.35 240.104 866.578 241.539 865.55 241.961C864.787 242.184 864.641 241.498 864.983 240.723C865.058 240.579 865.13 240.451 865.205 240.307L865.23 240.296Z" fill="#5837D0"/>
<path d="M840.919 248.175C841.641 247.082 842.796 246.59 843.123 247.266C843.428 247.938 842.631 249.703 841.345 250.182C840.377 250.426 840.237 249.501 840.737 248.505C840.781 248.402 840.853 248.274 840.919 248.175Z" fill="#5837D0"/>
<path d="M816.17 255.467C817.057 254.121 818.451 253.552 818.853 254.404C819.282 255.341 818.228 257.371 816.733 257.887C815.51 258.172 815.344 257.051 815.929 255.864C815.998 255.751 816.076 255.592 816.166 255.483L816.17 255.467Z" fill="#5837D0"/>
<path d="M791.08 262.258C792.077 260.71 793.797 260.082 794.28 261.079C794.833 262.17 793.542 264.582 791.792 265.139C790.275 265.443 790.101 263.936 790.946 262.469C790.981 262.412 791.046 262.314 791.08 262.258Z" fill="#5837D0"/>
<path d="M765.784 268.554C766.936 266.8 768.77 266.164 769.355 267.31C770.01 268.55 768.635 271.152 766.609 271.747C764.886 272.071 764.672 270.221 765.784 268.554Z" fill="#5837D0"/>
<path d="M740.213 274.347C741.486 272.443 743.602 271.738 744.297 273.003C745.033 274.389 743.51 277.374 741.232 277.997C739.098 278.361 739.095 276.044 740.216 274.332L740.213 274.347Z" fill="#5837D0"/>
<path d="M714.577 279.695C715.935 277.601 718.253 276.891 719.002 278.327C719.753 279.748 718.373 283.003 715.724 283.691C713.348 284.037 713.387 281.521 714.577 279.695Z" fill="#5837D0"/>
<path d="M688.828 284.62C690.325 282.395 692.803 281.672 693.639 283.222C694.563 284.886 692.814 288.304 690.128 288.952C687.759 289.267 687.389 286.777 688.828 284.62Z" fill="#5837D0"/>
<path d="M663.004 289.08C664.607 286.67 667.383 285.913 668.321 287.613C669.257 289.328 667.697 293.121 664.529 293.827C661.915 294.138 661.459 291.422 663.004 289.08Z" fill="#5837D0"/>
<path d="M637.235 293.154C638.904 290.646 641.863 289.864 642.886 291.694C643.991 293.668 642 297.594 638.889 298.248C636.103 298.523 635.6 295.605 637.235 293.154Z" fill="#5837D0"/>
<path d="M611.464 296.812C613.36 293.969 616.763 293.312 617.711 295.605C618.647 297.847 616.516 301.695 613.276 302.322C610.067 302.588 609.867 299.191 611.443 296.807L611.464 296.812Z" fill="#5837D0"/>
<path d="M585.803 300.06C587.727 297.191 591.159 296.397 592.359 298.551C593.692 300.925 591.47 305.313 587.822 305.966C584.598 306.197 583.944 302.831 585.827 300.049L585.803 300.06Z" fill="#5837D0"/>
<path d="M560.279 302.972C562.417 299.828 566.218 299.192 567.297 301.816C568.263 304.128 566.252 308.577 562.387 309.2C559.016 309.384 558.33 305.852 560.279 302.972Z" fill="#5837D0"/>
<path d="M534.841 305.47C537.111 302.13 541.15 301.528 542.322 304.347C543.345 306.815 541.313 311.467 537.089 312.094C533.434 312.25 532.79 308.52 534.863 305.474L534.841 305.47Z" fill="#5837D0"/>
<path d="M509.636 307.617C511.948 304.286 516.23 303.703 517.417 306.557C518.481 309.146 516.258 313.965 511.955 314.544C507.951 314.658 507.679 310.431 509.636 307.617Z" fill="#5837D0"/>
<path d="M484.532 309.37C487.039 305.856 491.493 305.309 492.751 308.355C493.977 311.345 491.199 316.144 486.954 316.655C482.987 316.697 482.221 312.589 484.532 309.37Z" fill="#5837D0"/>
<path d="M459.664 310.773C462.332 307.134 466.999 306.632 468.29 309.844C469.428 312.72 466.875 317.933 462.119 318.432C457.984 318.423 457.238 314.112 459.664 310.773Z" fill="#5837D0"/>
<path d="M435.047 311.814C437.838 308.121 442.652 307.666 443.941 310.989C445.219 314.262 442.196 319.265 437.505 319.666C433.117 319.588 432.476 315.203 435.047 311.814Z" fill="#5837D0"/>
<path d="M410.626 312.466C413.593 308.682 418.636 308.307 419.921 311.758C421.081 314.846 418.327 320.273 413.06 320.648C408.154 320.477 408.206 315.567 410.647 312.471L410.626 312.466Z" fill="#5837D0"/>
<path d="M386.525 312.768C389.648 308.985 394.813 308.668 396.061 312.19C397.183 315.351 394.242 320.818 388.813 321.111C384.144 320.878 383.644 316.251 386.525 312.768Z" fill="#5837D0"/>
<path d="M362.604 312.645C365.936 308.826 371.309 308.584 372.515 312.194C373.594 315.457 370.428 321.036 364.777 321.219C359.925 320.899 359.539 316.152 362.607 312.629L362.604 312.645Z" fill="#5837D0"/>
<path d="M338.963 312.136C342.519 308.316 348.096 308.166 349.216 311.869C350.233 315.215 346.79 320.832 340.913 320.919C335.554 320.46 336.04 315.29 338.963 312.136Z" fill="#5837D0"/>
<path d="M315.654 311.231C319.504 307.394 325.083 307.34 326.134 311.156C327.074 314.55 323.325 320.134 317.293 320.109C312.259 319.59 312.19 314.719 315.651 311.247L315.654 311.231Z" fill="#5837D0"/>
<path d="M292.589 309.899C296.718 306.12 302.498 306.172 303.408 310.023C304.224 313.47 300.123 319.028 293.915 318.886C288.729 318.24 288.869 313.332 292.586 309.914L292.589 309.899Z" fill="#5837D0"/>
<path d="M269.86 308.143C274.278 304.474 280.143 304.656 280.897 308.505C281.65 312.355 276.669 317.424 270.737 317.132C265.375 316.369 265.787 311.551 269.86 308.143Z" fill="#5837D0"/>
<path d="M247.514 305.956C252.213 302.441 258.183 302.757 258.744 306.566C259.248 310.012 254.371 315.326 247.874 314.851C242.495 313.957 243.182 309.213 247.517 305.941L247.514 305.956Z" fill="#5837D0"/>
<path d="M225.474 303.273C230.653 299.812 236.638 300.275 236.959 304.161C237.235 307.622 231.876 312.787 225.237 312.138C219.345 311.024 221.285 306.065 225.477 303.258L225.474 303.273Z" fill="#5837D0"/>
<path d="M203.904 300.149C209.418 296.902 215.527 297.519 215.576 301.316C215.616 305.159 209.223 309.706 202.859 308.924C197.228 307.737 198.821 303.152 203.904 300.149Z" fill="#5837D0"/>
<path d="M183.12 296.806C189.111 293.739 195.069 294.436 194.729 298.167C194.408 301.598 188.043 306.232 181.12 305.235C175.643 303.953 177.727 299.583 183.142 296.81L183.12 296.806Z" fill="#5837D0"/>
<path d="M163.09 293.188C169.474 290.38 175.448 291.209 174.697 294.773C173.92 298.459 166.522 302.364 159.995 301.291C154.031 299.778 157.846 295.47 163.093 293.173L163.09 293.188Z" fill="#5837D0"/>
<path d="M143.841 289.339C150.77 286.806 156.59 287.73 155.374 291.164C154.118 294.685 146.13 298.21 139.635 296.984C133.846 295.381 138.244 291.387 143.841 289.339Z" fill="#5837D0"/>
<path d="M125.423 285.183C132.507 283.082 138.062 283.885 137.056 286.853C135.99 289.999 127.137 293.916 119.932 292.349C114.3 290.635 119.415 286.952 125.426 285.168L125.423 285.183Z" fill="#5837D0"/>
<path d="M107.818 280.753C115.503 278.986 120.921 279.905 119.43 282.737C117.71 286.018 107.682 289.032 100.987 287.381C96.2646 285.81 99.7359 283.027 105.829 281.276C106.401 281.109 107.207 280.895 107.818 280.753Z" fill="#5837D0"/>
<path d="M91.0526 276.068C99.1436 274.707 104.506 275.789 102.554 278.365C100.198 281.479 89.6037 283.895 82.8217 282.018C78.2387 280.317 82.2437 278.077 87.8979 276.713C88.6294 276.532 89.984 276.258 91.0526 276.068Z" fill="#5837D0"/>
<path d="M75.1805 271.059C83.3953 270.171 88.5249 271.189 86.8775 273.382C84.6115 276.387 72.491 278.513 65.4245 276.288C61.3467 274.63 65.1331 272.792 70.68 271.724C72.0774 271.46 73.6247 271.227 75.1805 271.059Z" fill="#5837D0"/>
<path d="M60.2194 265.764C68.9873 265.328 73.9284 266.498 71.765 268.486C68.7756 271.211 55.7553 272.62 48.8688 270.178C43.9329 267.923 52.4468 266.57 54.2211 266.321C54.8903 266.223 57.26 265.907 60.2194 265.764Z" fill="#5837D0"/>
<path d="M46.2608 260.169C54.993 260.221 59.842 261.403 58.0194 263.048C55.3396 265.471 40.7242 266.703 33.2183 263.699C29.4438 261.768 34.9273 260.895 37.4533 260.581C39.8593 260.306 43.1559 260.154 46.2822 260.174L46.2608 260.169Z" fill="#5837D0"/>
<path d="M33.3456 254.299C42.6458 254.838 47.3245 256.192 44.9828 257.647C41.2217 260.002 25.2745 259.915 18.4774 256.836C14.9493 254.798 21.0481 254.295 23.8266 254.161C26.4669 254.047 30.0128 254.092 33.3488 254.284L33.3456 254.299Z" fill="#5837D0"/>
<path d="M21.557 248.17C30.7573 249.183 35.2732 250.566 33.3139 251.799C30.0681 253.831 12.0195 253.317 4.85792 249.634C1.97202 247.731 6.9283 247.45 10.1499 247.442C11.2901 247.443 15.5288 247.49 21.5603 248.155L21.557 248.17Z" fill="#5837D0"/>
<path d="M825.033 224.998C825.924 223.636 827.343 223.057 827.763 223.928C828.213 224.869 827.118 226.987 825.623 227.503C824.305 227.816 824.273 226.483 824.818 225.384C824.886 225.27 824.964 225.111 825.033 224.998Z" fill="#5837D0"/>
<path d="M799.674 231.907C800.73 230.292 802.428 229.66 802.926 230.692C803.399 231.734 802.316 234.221 800.394 234.855C798.753 235.212 798.79 233.446 799.537 232.134C799.574 232.062 799.636 231.979 799.674 231.907Z" fill="#5837D0"/>
<path d="M774.094 238.353C775.25 236.584 777.108 235.937 777.715 237.087C778.349 238.323 776.926 241.043 774.897 241.653C773.174 241.977 772.98 240.035 774.094 238.353Z" fill="#5837D0"/>
<path d="M748.275 244.268C749.558 242.318 751.72 241.608 752.409 242.903C753.157 244.339 751.574 247.392 749.268 248.04C747.11 248.416 747.119 246.038 748.275 244.268Z" fill="#5837D0"/>
<path d="M722.332 249.808C723.715 247.703 726.082 246.972 726.83 248.408C727.557 249.839 726.106 253.224 723.453 253.927C721.096 254.292 721.107 251.691 722.335 249.793L722.332 249.808Z" fill="#5837D0"/>
<path d="M696.325 254.902C697.857 252.621 700.363 251.871 701.192 253.451C702.085 255.157 700.267 258.688 697.582 259.336C695.187 259.662 694.852 257.115 696.329 254.886L696.325 254.902Z" fill="#5837D0"/>
<path d="M670.233 259.561C671.867 257.11 674.671 256.327 675.603 258.057C676.613 259.948 674.642 263.782 671.677 264.482C669.016 264.8 668.604 261.982 670.229 259.576L670.233 259.561Z" fill="#5837D0"/>
<path d="M644.241 263.843C645.972 261.252 648.957 260.46 649.952 262.315C651.046 264.335 648.963 268.385 645.799 269.076C643.009 269.366 642.544 266.377 644.241 263.843Z" fill="#5837D0"/>
<path d="M618.261 267.745C620.092 265 623.328 264.181 624.429 266.17C625.644 268.359 623.413 272.682 619.979 273.38C616.764 273.676 616.629 270.181 618.264 267.73L618.261 267.745Z" fill="#5837D0"/>
<path d="M592.433 271.245C594.419 268.293 597.882 267.458 599.03 269.649C600.293 272.04 597.951 276.674 594.318 277.362C591.067 277.619 590.506 274.13 592.433 271.245Z" fill="#5837D0"/>
<path d="M566.805 274.455C568.86 271.39 572.476 270.57 573.711 272.876C575.061 275.381 572.617 280.186 568.788 280.848C565.408 281.078 564.794 277.418 566.805 274.455Z" fill="#5837D0"/>
<path d="M541.301 277.273C543.474 274.073 547.317 273.238 548.634 275.688C550.083 278.358 547.468 283.446 543.394 284.105C539.821 284.294 539.163 280.417 541.301 277.273Z" fill="#5837D0"/>
<path d="M516.105 279.79C518.371 276.466 522.343 275.658 523.723 278.233C525.211 281.039 522.523 286.256 518.296 286.898C514.169 287.067 514.129 282.697 516.105 279.79Z" fill="#5837D0"/>
<path d="M491.072 281.957C493.506 278.476 497.63 277.684 499.092 280.405C500.679 283.376 497.805 288.841 493.336 289.464C489.38 289.557 488.707 285.325 491.072 281.957Z" fill="#5837D0"/>
<path d="M466.356 283.793C468.96 280.14 473.263 279.354 474.75 282.272C476.24 285.174 473.732 291.02 468.681 291.649C464.576 291.71 463.902 287.27 466.36 283.778L466.356 283.793Z" fill="#5837D0"/>
<path d="M441.996 285.335C444.677 281.634 449.126 280.895 450.618 283.893C452.24 287.127 449.071 292.93 444.308 293.459C439.769 293.461 439.664 288.55 441.996 285.335Z" fill="#5837D0"/>
<path d="M417.894 286.484C420.673 282.741 425.389 282.009 426.887 285.089C428.417 288.224 425.597 294.387 420.163 294.919C415.324 294.858 415.46 289.758 417.897 286.469L417.894 286.484Z" fill="#5837D0"/>
<path d="M394.182 287.381C397.134 283.562 401.879 282.9 403.375 286.092C405.013 289.568 401.455 295.625 396.313 296.042C391.533 295.913 391.624 290.708 394.203 287.385L394.182 287.381Z" fill="#5837D0"/>
<path d="M370.773 287.894C373.922 283.988 378.839 283.363 380.306 286.692C381.944 290.377 378.206 296.443 372.807 296.806C368.086 296.61 367.742 291.664 370.795 287.898L370.773 287.894Z" fill="#5837D0"/>
<path d="M347.743 288.102C351.101 284.161 356.14 283.594 357.566 287.01C358.986 290.457 355.519 296.932 349.576 297.228C344.362 296.928 344.882 291.493 347.765 288.107L347.743 288.102Z" fill="#5837D0"/>
<path d="M325.141 287.972C328.652 284.047 333.785 283.563 335.137 287.012C336.626 290.873 332.357 297.018 326.66 297.207C321.793 296.852 321.751 291.747 325.141 287.972Z" fill="#5837D0"/>
<path d="M302.913 287.455C306.663 283.564 311.939 283.143 313.19 286.65C314.449 290.223 310.372 296.728 304.136 296.82C299.154 296.376 299.306 291.2 302.938 287.444L302.913 287.455Z" fill="#5837D0"/>
<path d="M281.104 286.628C285.169 282.724 290.445 282.415 291.566 286.006C292.805 289.99 287.856 296.072 281.913 296.05C276.864 295.497 277.28 290.344 281.101 286.644L281.104 286.628Z" fill="#5837D0"/>
<path d="M259.763 285.403C264.051 281.61 269.393 281.41 270.361 284.986C271.341 288.611 266.517 294.944 260.067 294.782C254.535 294.079 256.051 288.695 259.763 285.403Z" fill="#5837D0"/>
<path d="M238.862 283.776C243.461 280.097 248.919 279.985 249.66 283.576C250.431 287.238 245.154 293.491 238.58 293.175C232.988 292.332 234.853 286.989 238.862 283.776Z" fill="#5837D0"/>
<path d="M218.607 281.855C223.595 278.242 228.986 278.228 229.504 281.82C230.008 285.473 224.182 291.578 217.544 291.138C212.036 290.216 214.375 284.957 218.607 281.855Z" fill="#5837D0"/>
<path d="M199.25 279.802C204.512 276.374 209.869 276.417 210.05 279.906C210.233 283.492 203.858 289.337 197.264 288.794C192.165 287.847 194.191 283.113 199.271 279.807L199.25 279.802Z" fill="#5837D0"/>
<path d="M180.72 277.542C186.446 274.244 191.695 274.376 191.528 277.823C191.321 281.774 184.024 286.898 177.741 286.261C172.251 285.151 175.832 280.362 180.72 277.542Z" fill="#5837D0"/>
<path d="M163.028 275.121C169.08 272.083 174.289 272.303 173.73 275.588C173.154 279.062 165.642 284.252 158.993 283.441C153.675 282.256 157.83 277.716 163.028 275.121Z" fill="#5837D0"/>
<path d="M146.197 272.437C152.392 269.781 157.311 269.892 156.941 272.705C156.492 276.11 147.87 281.37 140.971 280.363C135.761 279.088 140.517 274.882 146.219 272.442L146.197 272.437Z" fill="#5837D0"/>
<path d="M130.212 269.562C136.771 267.19 141.686 267.427 140.95 270.068C140.015 273.338 130.566 278.168 123.725 276.997C118.733 275.641 124.138 271.748 130.215 269.546L130.212 269.562Z" fill="#5837D0"/>
<path d="M115.118 266.492C122.153 264.412 126.906 264.775 125.731 267.275C124.113 270.705 113.785 274.615 107.328 273.317C103.02 272.01 107.518 268.916 114.137 266.796C114.426 266.697 114.807 266.586 115.115 266.507L115.118 266.492Z" fill="#5837D0"/>
<path d="M100.888 263.139C108.031 261.498 112.549 261.811 111.62 263.884C110.305 266.834 98.6571 270.961 91.6672 269.327C87.6813 267.976 92.238 265.454 98.8069 263.675C99.4248 263.502 100.273 263.297 100.884 263.154L100.888 263.139Z" fill="#5837D0"/>
<path d="M87.6146 259.591C95.2173 258.318 99.5744 258.757 98.2088 260.674C96.23 263.484 83.8171 266.89 76.9184 265.037C73.2762 263.646 77.9963 261.621 84.2789 260.246C85.2406 260.033 86.6134 259.779 87.6114 259.606L87.6146 259.591Z" fill="#5837D0"/>
<path d="M75.3144 255.797C82.891 254.966 87.1101 255.424 86.0456 256.973C84.2436 259.581 69.9649 262.61 63.0236 260.427C59.6609 258.983 64.7104 257.412 70.5719 256.443C72.494 256.129 74.2158 255.917 75.3144 255.797Z" fill="#5837D0"/>
<path d="M64.0448 251.76C72.0493 251.339 76.1226 251.958 74.6643 253.36C72.1097 255.825 56.85 257.992 50.0128 255.528C46.4908 253.779 54.193 252.671 57.6729 252.286C58.5873 252.191 61.0608 251.914 64.0234 251.756L64.0448 251.76Z" fill="#5837D0"/>
<path d="M59.6904 247.695C61.3413 247.82 66.358 248.206 64.3087 249.548C60.9878 251.724 44.6037 252.967 38.2131 250.293C36.2783 249.182 38.3315 248.353 44.3201 247.842C49.5544 247.939 54.6614 247.897 59.6904 247.695Z" fill="#5837D0"/>
<path d="M757.377 213.818C758.168 212.611 759.42 212.188 759.831 212.994C760.254 213.85 759.31 215.68 757.951 216.08C756.649 216.317 756.707 214.875 757.373 213.834L757.377 213.818Z" fill="#5837D0"/>
<path d="M731.181 219.496C732.106 218.078 733.637 217.602 734.108 218.548C734.58 219.494 733.587 221.761 731.857 222.227C730.31 222.46 730.337 220.74 731.159 219.492L731.181 219.496Z" fill="#5837D0"/>
<path d="M704.912 224.789C705.951 223.251 707.695 222.724 708.254 223.785C708.813 224.845 707.726 227.348 705.744 227.841C704.129 228.075 703.924 226.291 704.912 224.789Z" fill="#5837D0"/>
<path d="M678.62 229.631C679.824 227.84 681.78 227.262 682.432 228.518C683.129 229.879 681.714 232.664 679.597 233.16C677.575 233.421 677.549 231.21 678.601 229.611L678.62 229.631Z" fill="#5837D0"/>
<path d="M652.427 234.128C653.7 232.223 655.883 231.629 656.604 232.979C657.386 234.47 655.837 237.467 653.536 237.988C651.339 238.228 651.306 235.84 652.427 234.128Z" fill="#5837D0"/>
<path d="M626.27 238.245C627.705 236.103 630.096 235.473 630.907 237.034C631.785 238.705 630.073 242.051 627.496 242.609C625.259 242.825 624.918 240.309 626.288 238.265L626.27 238.245Z" fill="#5837D0"/>
<path d="M600.254 242.012C601.814 239.705 604.481 239.037 605.331 240.734C606.28 242.595 604.422 246.213 601.639 246.793C598.951 247.025 598.881 244.071 600.254 242.012Z" fill="#5837D0"/>
<path d="M574.501 245.466C576.17 242.958 578.948 242.298 579.894 244.175C580.906 246.161 578.95 250.03 575.968 250.6C573.333 250.795 572.919 247.88 574.519 245.486L574.501 245.466Z" fill="#5837D0"/>
<path d="M548.938 248.574C550.676 245.953 553.727 245.27 554.742 247.242C555.872 249.413 553.747 253.55 550.492 254.142C547.453 254.348 547.369 250.927 548.935 248.59L548.938 248.574Z" fill="#5837D0"/>
<path d="M523.718 251.423C525.57 248.682 528.762 247.965 529.813 250.088C530.981 252.395 528.744 256.748 525.36 257.313C522.15 257.482 522.083 253.874 523.718 251.423Z" fill="#5837D0"/>
<path d="M498.701 253.945C500.708 250.998 504.075 250.302 505.203 252.584C506.453 255.037 504.069 259.662 500.44 260.223C497.012 260.363 496.927 256.527 498.701 253.945Z" fill="#5837D0"/>
<path d="M474.121 256.192C476.212 253.166 479.738 252.455 480.869 254.835C482.003 257.198 479.875 262.198 475.863 262.774C472.332 262.876 472.26 258.867 474.121 256.192Z" fill="#5837D0"/>
<path d="M449.912 258.182C452.087 255.078 455.745 254.379 456.902 256.844C458.164 259.554 455.538 264.48 451.674 264.992C448.013 265.067 447.971 260.92 449.894 258.162L449.912 258.182Z" fill="#5837D0"/>
<path d="M426.059 259.847C428.401 256.586 432.166 255.91 433.38 258.531C434.705 261.366 431.899 266.51 427.814 267.007C423.986 267.03 424.028 262.694 426.062 259.832L426.059 259.847Z" fill="#5837D0"/>
<path d="M402.601 261.229C405.107 257.827 409.049 257.157 410.253 259.935C411.588 262.932 408.559 268.285 404.296 268.776C400.343 268.758 400.43 264.207 402.601 261.229Z" fill="#5837D0"/>
<path d="M379.641 262.378C382.246 258.933 386.271 258.296 387.461 261.135C388.778 264.224 385.598 269.657 381.238 270.08C377.048 270.012 377.379 265.368 379.645 262.363L379.641 262.378Z" fill="#5837D0"/>
<path d="M357.086 263.2C359.873 259.633 364.051 259.013 365.209 262.005C366.364 265.012 363.44 270.819 358.526 271.22C354.236 271.099 354.697 266.259 357.089 263.185L357.086 263.2Z" fill="#5837D0"/>
<path d="M335.054 263.763C337.994 260.213 342.251 259.641 343.338 262.65C344.438 265.71 341.33 271.541 336.287 271.916C332.209 271.743 332.204 267.205 335.054 263.763Z" fill="#5837D0"/>
<path d="M313.468 264.006C316.598 260.4 321.006 259.859 322.006 262.962C323.15 266.446 319.296 272.104 314.45 272.393C310.275 272.152 310.427 267.503 313.468 264.006Z" fill="#5837D0"/>
<path d="M292.418 263.946C295.754 260.319 300.262 259.832 301.2 263.017C302.236 266.591 298.056 272.308 293.073 272.504C288.825 272.183 289.172 267.463 292.418 263.946Z" fill="#5837D0"/>
<path d="M271.935 263.62C275.526 259.951 280.015 259.556 280.824 262.826C281.718 266.433 277.229 272.133 272.173 272.25C267.963 271.857 268.54 267.106 271.957 263.624L271.935 263.62Z" fill="#5837D0"/>
<path d="M252.024 262.938C255.875 259.309 260.439 258.977 261.067 262.257C261.703 265.602 257.26 271.615 251.776 271.642C247.098 271.135 248.677 266.083 252.027 262.923L252.024 262.938Z" fill="#5837D0"/>
<path d="M232.96 262.145C236.792 258.815 241.104 258.302 241.832 261.108C242.702 264.407 237.691 270.78 231.999 270.73C227.463 270.189 229.427 265.219 232.96 262.145Z" fill="#5837D0"/>
<path d="M214.796 261.223C218.96 257.915 223.216 257.454 223.717 260.276C224.323 263.551 218.777 269.811 213.074 269.711C208.635 269.127 211.028 264.247 214.793 261.239L214.796 261.223Z" fill="#5837D0"/>
<path d="M197.549 260.192C201.981 256.988 206.224 256.589 206.475 259.326C206.778 262.553 200.682 268.665 194.995 268.489C190.502 267.845 193.543 263.07 197.528 260.187L197.549 260.192Z" fill="#5837D0"/>
<path d="M181.22 259.05C185.963 255.96 190.102 255.634 190.071 258.328C190.013 261.783 183.006 267.335 177.758 267.092C173.452 266.407 176.995 261.802 181.22 259.05Z" fill="#5837D0"/>
<path d="M165.71 257.744C170.518 254.987 174.498 254.564 174.588 256.788C174.713 259.802 167.152 265.861 161.28 265.501C157.055 264.754 161.079 260.41 165.707 257.759L165.71 257.744Z" fill="#5837D0"/>
<path d="M151.145 256.289C156.297 253.7 160.172 253.351 159.941 255.507C159.662 258.42 151.394 264.122 145.658 263.648C141.602 262.84 146.116 258.823 151.145 256.289Z" fill="#5837D0"/>
<path d="M137.468 254.667C143.008 252.256 146.793 252.016 146.268 254.078C145.545 256.977 136.635 262.224 130.839 261.61C126.87 260.709 132.227 256.933 137.468 254.667Z" fill="#5837D0"/>
<path d="M124.698 252.869C130.224 250.838 133.835 250.577 133.493 252.198C132.938 254.83 122.71 260.071 116.864 259.269C113.15 258.326 119.009 254.928 124.677 252.864L124.698 252.869Z" fill="#5837D0"/>
<path d="M112.884 250.89C118.782 249.114 122.327 248.95 121.646 250.484C120.546 253.049 109.567 257.716 103.778 256.751C100.658 255.853 105.358 253.393 111.036 251.491C111.59 251.304 112.331 251.077 112.881 250.905L112.884 250.89Z" fill="#5837D0"/>
<path d="M102.024 248.743C106.64 247.639 111.367 246.958 110.844 248.381C109.977 250.691 97.4793 255.134 91.5821 253.939C88.7842 252.997 93.8662 250.953 99.0922 249.499C100.064 249.24 101.035 248.981 102.024 248.743Z" fill="#5837D0"/>
<path d="M92.2098 246.403C98.5297 245.275 101.727 245.278 100.983 246.367C99.5226 248.52 85.8986 252.262 80.3281 250.896C77.8279 249.921 83.2126 248.244 89.0862 247.006C90.1153 246.792 91.1625 246.597 92.2312 246.407L92.2098 246.403Z" fill="#5837D0"/>
<path d="M92.1807 244.096C90.4092 246.135 75.4988 249.191 70.087 247.602C69.843 247.487 69.4769 247.314 69.5403 247.119C77.3662 246.485 84.8927 245.467 92.1775 244.111L92.1807 244.096Z" fill="#5837D0"/>
<path d="M713.901 193.915C714.437 193.069 715.347 192.782 715.623 193.383C715.902 193.969 715.333 195.287 714.295 195.548C713.487 195.665 713.393 194.734 713.901 193.915Z" fill="#5837D0"/>
<path d="M687.457 198.966C688.114 197.97 689.236 197.631 689.578 198.343C689.95 199.124 689.156 200.666 688 200.949C686.874 201.095 686.89 199.853 687.479 198.97L687.457 198.966Z" fill="#5837D0"/>
<path d="M661.026 203.635C661.842 202.417 663.176 202.027 663.617 202.903C664.113 203.838 663.128 205.755 661.668 206.103C660.41 206.237 660.244 204.796 661.026 203.635Z" fill="#5837D0"/>
<path d="M634.773 207.988C635.692 206.6 637.235 206.175 637.736 207.191C638.24 208.192 637.304 210.407 635.522 210.798C634.104 210.947 633.903 209.354 634.794 207.993L634.773 207.988Z" fill="#5837D0"/>
<path d="M608.597 211.976C609.65 210.376 611.423 209.919 612.002 211.096C612.605 212.373 611.341 214.871 609.467 215.274C607.801 215.434 607.572 213.549 608.594 211.991L608.597 211.976Z" fill="#5837D0"/>
<path d="M582.722 215.708C583.844 213.995 585.829 213.487 586.453 214.769C587.08 216.035 585.883 218.85 583.666 219.293C581.663 219.462 581.707 217.235 582.701 215.703L582.722 215.708Z" fill="#5837D0"/>
<path d="M557.057 219.084C558.368 217.107 560.509 216.6 561.226 218.077C561.947 219.539 560.642 222.651 558.127 223.127C555.967 223.295 555.935 220.796 557.078 219.088L557.057 219.084Z" fill="#5837D0"/>
<path d="M531.712 222.193C533.12 220.077 535.519 219.513 536.3 221.115C537.158 222.878 535.443 226.239 532.888 226.69C530.508 226.844 530.467 224.071 531.712 222.193Z" fill="#5837D0"/>
<path d="M506.755 225.079C508.297 222.752 510.831 222.184 511.661 223.972C512.558 225.871 510.706 229.458 507.992 229.925C505.437 230.057 505.413 227.096 506.752 225.094L506.755 225.079Z" fill="#5837D0"/>
<path d="M482.152 227.657C483.787 225.206 486.548 224.622 487.402 226.511C488.352 228.581 486.353 232.441 483.436 232.912C480.683 233.034 480.689 229.825 482.127 227.668L482.152 227.657Z" fill="#5837D0"/>
<path d="M458.062 230.023C459.811 227.452 462.69 226.845 463.564 228.85C464.431 230.886 462.684 235.039 459.38 235.541C456.498 235.636 456.537 232.273 458.041 230.018L458.062 230.023Z" fill="#5837D0"/>
<path d="M434.366 232.121C436.267 229.359 439.281 228.748 440.208 230.924C441.213 233.261 438.915 237.585 435.686 238.055C432.853 238.128 432.533 234.77 434.366 232.121Z" fill="#5837D0"/>
<path d="M411.207 233.996C413.202 231.109 416.329 230.491 417.27 232.814C418.196 235.102 416.131 239.699 412.494 240.194C409.508 240.252 409.303 236.773 411.207 233.996Z" fill="#5837D0"/>
<path d="M388.502 235.631C390.66 232.604 393.919 231.997 394.859 234.431C395.874 237.042 393.253 241.729 389.736 242.186C386.355 242.208 386.657 238.23 388.502 235.631Z" fill="#5837D0"/>
<path d="M366.339 237.014C368.5 234.083 371.699 233.335 372.807 235.502C374.171 238.154 371.311 243.446 367.46 243.896C364.199 243.88 364.113 240.043 366.336 237.029L366.339 237.014Z" fill="#5837D0"/>
<path d="M344.807 238.178C347.07 235.189 350.357 234.444 351.428 236.683C352.747 239.437 349.681 244.861 345.723 245.289C342.425 245.233 342.458 241.262 344.786 238.174L344.807 238.178Z" fill="#5837D0"/>
<path d="M323.77 239.112C326.205 236.047 329.606 235.294 330.658 237.624C331.955 240.486 328.629 246.08 324.542 246.48C321.116 246.397 321.245 242.286 323.749 239.108L323.77 239.112Z" fill="#5837D0"/>
<path d="M303.412 239.804C305.991 236.689 309.453 235.965 310.425 238.359C311.644 241.38 308.14 246.968 303.903 247.337C300.469 247.188 300.77 243.002 303.412 239.804Z" fill="#5837D0"/>
<path d="M283.64 240.237C286.383 237.093 289.949 236.407 290.843 238.848C291.999 241.952 288.182 247.649 283.802 247.956C280.309 247.763 280.786 243.486 283.64 240.237Z" fill="#5837D0"/>
<path d="M264.624 240.494C267.581 237.283 271.098 236.619 271.841 239.14C272.807 242.299 268.695 248.015 264.367 248.285C260.594 248.048 261.895 243.466 264.62 240.509L264.624 240.494Z" fill="#5837D0"/>
<path d="M246.564 240.68C249.724 237.464 253.262 236.804 253.849 239.324C254.532 242.232 250.405 248.232 245.743 248.496C242.019 248.238 243.658 243.646 246.564 240.68Z" fill="#5837D0"/>
<path d="M229.49 240.851C232.623 237.869 235.966 237.072 236.618 239.175C237.589 242.207 232.608 248.331 228.042 248.566C224.474 248.309 226.412 243.781 229.49 240.851Z" fill="#5837D0"/>
<path d="M213.369 240.937C216.741 237.989 220.103 237.212 220.562 239.274C221.242 242.309 215.777 248.395 211.238 248.604C207.591 248.298 210.109 243.78 213.372 240.922L213.369 240.937Z" fill="#5837D0"/>
<path d="M198.184 240.961C201.795 238.048 205.079 237.318 205.34 239.37C205.713 242.373 199.766 248.309 195.301 248.486C192.076 248.189 194.227 244.137 198.181 240.977L198.184 240.961Z" fill="#5837D0"/>
<path d="M183.928 240.897C187.863 238.035 191.074 237.338 191.092 239.371C191.116 242.332 184.637 248.14 180.21 248.245C176.817 247.897 180.148 243.662 183.928 240.897Z" fill="#5837D0"/>
<path d="M170.596 240.722C174.568 238.108 177.656 237.353 177.783 238.978C177.965 241.509 170.942 247.777 165.988 247.835C162.758 247.457 166.549 243.368 170.599 240.707L170.596 240.722Z" fill="#5837D0"/>
<path d="M158.216 240.461C161.84 238.333 165.479 237.087 165.351 238.865C165.193 241.309 157.495 247.275 152.689 247.268C149.647 246.85 153.874 243.028 158.238 240.465L158.216 240.461Z" fill="#5837D0"/>
<path d="M146.742 240.054C151.011 237.838 153.905 237.155 153.924 238.341C153.959 240.505 145.11 246.628 140.149 246.509C137.205 246.048 142.077 242.457 146.742 240.054Z" fill="#5837D0"/>
<path d="M136.251 239.552C140.772 237.517 143.558 236.922 143.366 238.048C142.995 240.127 133.351 245.778 128.586 245.573C126.172 245.144 130.08 242.517 134.735 240.271C135.182 240.061 135.78 239.772 136.248 239.567L136.251 239.552Z" fill="#5837D0"/>
<path d="M126.726 238.902C131.616 237.025 134.269 236.53 133.823 237.587C132.968 239.627 122.558 244.781 117.887 244.451C115.361 243.919 121.523 241.096 123.469 240.244C124.969 239.602 126.335 239.059 126.723 238.917L126.726 238.902Z" fill="#5837D0"/>
<path d="M118.214 238.129C121.668 237.02 125.726 235.91 125.394 236.847C124.791 238.541 112.766 243.611 108.102 243.139C106.152 242.632 110.868 240.734 113.849 239.637C114.649 239.343 116.271 238.758 118.239 238.118L118.214 238.129Z" fill="#5837D0"/>
<path d="M670.297 173.252L670.291 173.284L670.234 173.223C670.234 173.223 670.279 173.232 670.301 173.237L670.297 173.252Z" fill="#5837D0"/>
<path d="M643.595 176.969C644.022 176.324 644.735 176.123 644.973 176.588C645.21 177.054 644.77 178.079 643.928 178.253C643.287 178.326 643.197 177.588 643.617 176.973L643.595 176.969Z" fill="#5837D0"/>
<path d="M617.305 181.172C617.896 180.274 618.846 180.011 619.13 180.678C619.43 181.38 618.738 182.752 617.755 182.96C616.795 183.061 616.785 181.941 617.305 181.172Z" fill="#5837D0"/>
<path d="M591.319 185.119C592.007 184.081 593.12 183.789 593.495 184.555C593.879 185.387 593.046 187 591.855 187.244C590.805 187.343 590.659 186.13 591.319 185.119Z" fill="#5837D0"/>
<path d="M565.554 188.747C566.386 187.452 567.754 187.118 568.179 188.07C568.604 189.022 567.752 191.047 566.164 191.368C564.799 191.479 564.825 189.871 565.554 188.747Z" fill="#5837D0"/>
<path d="M540.194 192.154C541.116 190.751 542.649 190.371 543.141 191.433C543.68 192.586 542.548 194.775 540.914 195.102C539.347 195.219 539.396 193.392 540.191 192.169L540.194 192.154Z" fill="#5837D0"/>
<path d="M515.137 195.291C516.214 193.681 517.981 193.255 518.529 194.472C519.122 195.796 517.824 198.35 515.963 198.692C514.171 198.81 514.187 196.72 515.137 195.291Z" fill="#5837D0"/>
<path d="M490.555 198.193C491.794 196.346 493.723 195.89 494.343 197.298C495.001 198.843 493.559 201.654 491.443 202.039C489.609 202.148 489.378 199.958 490.555 198.193Z" fill="#5837D0"/>
<path d="M466.511 200.872C467.788 198.953 469.902 198.472 470.527 199.961C471.233 201.596 469.665 204.684 467.415 205.072C465.289 205.184 465.341 202.606 466.49 200.868L466.511 200.872Z" fill="#5837D0"/>
<path d="M442.972 203.388C444.277 201.442 446.37 200.845 447.131 202.22C448.091 203.924 446.362 207.457 443.881 207.877C441.667 207.985 441.733 205.235 442.972 203.388Z" fill="#5837D0"/>
<path d="M419.93 205.655C421.334 203.555 423.612 202.932 424.439 204.417C425.456 206.277 423.546 210.14 420.838 210.575C418.449 210.663 418.591 207.657 419.93 205.655Z" fill="#5837D0"/>
<path d="M397.526 207.77C399.076 205.508 401.402 204.865 402.244 206.496C403.259 208.467 401.218 212.526 398.4 212.954C395.926 213.024 396.079 209.861 397.526 207.77Z" fill="#5837D0"/>
<path d="M375.684 209.668C377.324 207.298 379.835 206.629 380.66 208.336C381.69 210.455 379.453 214.808 376.496 215.255C373.891 215.312 374.138 211.914 375.706 209.672L375.684 209.668Z" fill="#5837D0"/>
<path d="M354.477 211.396C356.257 208.895 358.814 208.22 359.638 210.04C360.644 212.265 358.243 216.759 355.198 217.203C352.51 217.228 352.847 213.72 354.477 211.396Z" fill="#5837D0"/>
<path d="M333.942 212.928C335.879 210.317 338.552 209.619 339.354 211.545C340.331 213.908 337.723 218.646 334.521 219.089C331.882 219.092 331.964 215.627 333.939 212.944L333.942 212.928Z" fill="#5837D0"/>
<path d="M314.075 214.252C316.151 211.511 318.939 210.805 319.696 212.833C320.66 215.369 317.841 220.254 314.462 220.692C311.762 220.666 311.965 217.051 314.075 214.252Z" fill="#5837D0"/>
<path d="M294.977 215.42C297.173 212.64 300.003 211.942 300.705 214.023C301.584 216.637 298.551 221.589 295.11 221.998C292.346 221.958 292.74 218.287 294.977 215.42Z" fill="#5837D0"/>
<path d="M276.732 216.477C278.958 213.767 281.685 212.921 282.424 214.722C283.482 217.229 280.04 222.846 276.483 223.278C273.495 223.24 274.586 219.124 276.732 216.477Z" fill="#5837D0"/>
<path d="M259.567 217.604C261.962 214.834 264.597 213.999 265.265 215.818C266.143 218.335 262.424 223.989 258.867 224.422C255.968 224.386 257.283 220.269 259.564 217.619L259.567 217.604Z" fill="#5837D0"/>
<path d="M243.438 218.693C245.999 215.879 248.684 215.023 249.192 216.855C249.912 219.483 245.872 225.181 242.223 225.626C239.327 225.575 240.958 221.445 243.438 218.693Z" fill="#5837D0"/>
<path d="M228.291 219.797C230.866 217.129 233.439 216.169 233.997 217.661C234.918 220.076 230.299 226.292 226.511 226.755C223.683 226.702 225.605 222.57 228.27 219.793L228.291 219.797Z" fill="#5837D0"/>
<path d="M214.154 220.891C216.876 218.27 219.424 217.321 219.877 218.775C220.579 221.175 215.524 227.331 211.758 227.799C209.04 227.754 211.293 223.643 214.154 220.891Z" fill="#5837D0"/>
<path d="M200.982 221.948C203.956 219.3 206.458 218.357 206.709 219.816C207.1 221.992 201.811 228.306 197.882 228.804C195.189 228.747 197.957 224.633 200.979 221.964L200.982 221.948Z" fill="#5837D0"/>
<path d="M188.78 222.987C191.751 220.561 194.125 219.592 194.453 220.684C195.004 222.525 189.083 229.186 184.977 229.678C182.418 229.618 185.531 225.673 188.78 222.987Z" fill="#5837D0"/>
<path d="M177.532 223.938C180.744 221.531 183.087 220.603 183.241 221.674C183.507 223.488 176.898 230.019 172.911 230.473C170.58 230.397 173.783 226.87 176.997 224.352C177.158 224.226 177.371 224.064 177.532 223.938Z" fill="#5837D0"/>
<path d="M167.256 224.839C170.704 222.482 172.991 221.606 172.977 222.626C172.939 224.503 165.677 230.737 161.718 231.165C159.788 231.093 162.353 228.471 165.52 226.071C166.08 225.645 166.66 225.225 167.259 224.824L167.256 224.839Z" fill="#5837D0"/>
<path d="M157.935 225.685C161.377 223.567 163.572 222.704 163.647 223.407C163.785 224.874 155.482 231.271 151.531 231.668C149.671 231.579 153.159 228.928 154.268 228.123C155.037 227.551 156.294 226.681 157.938 225.67L157.935 225.685Z" fill="#5837D0"/>
<path d="M149.587 226.451C153.274 224.448 155.339 223.669 155.246 224.321C155.01 225.757 146.06 231.73 142.206 232.084C141.37 232.019 141.797 231.374 143.483 230.164C145.141 228.98 147.716 227.478 149.584 226.466L149.587 226.451Z" fill="#5837D0"/>
<path d="M146.972 225.068C147.671 224.832 147.817 224.879 147.942 224.921C148.419 225.949 137.606 232.056 133.812 232.343C133.726 232.325 133.598 232.297 133.512 232.279C133.464 232.189 133.323 231.904 135.21 230.8C139.207 229.023 143.141 227.12 146.991 225.088L146.972 225.068Z" fill="#5837D0"/>
<path d="M600.648 153.597L600.853 153.896L600.471 154.327L600.297 153.987L600.648 153.597Z" fill="#5837D0"/>
<path d="M575.08 157.251L575.469 157.844L574.719 158.645L574.383 158.014L575.08 157.251Z" fill="#5837D0"/>
<path d="M549.028 161.28C549.433 160.631 550.15 160.414 550.415 160.854C550.728 161.383 550.158 162.605 549.341 162.768C548.543 162.839 548.688 161.831 549.025 161.295L549.028 161.28Z" fill="#5837D0"/>
<path d="M523.978 164.706C524.556 163.869 525.454 163.643 525.748 164.264C526.071 164.956 525.361 166.308 524.382 166.5C523.474 166.565 523.486 165.449 524.002 164.695L523.978 164.706Z" fill="#5837D0"/>
<path d="M499.382 167.876C500.046 166.85 501.1 166.513 501.485 167.233C501.925 168.013 501.163 169.929 499.836 170.176C498.793 170.244 498.694 168.913 499.382 167.876Z" fill="#5837D0"/>
<path d="M475.335 170.906C476.092 169.756 477.309 169.389 477.724 170.18C478.256 171.154 477.278 173.249 475.859 173.509C474.565 173.603 474.612 172 475.335 170.906Z" fill="#5837D0"/>
<path d="M451.804 173.694C452.695 172.332 454.103 171.91 454.574 172.856C455.178 174.022 454.012 176.476 452.36 176.782C450.888 176.872 450.975 174.973 451.804 173.694Z" fill="#5837D0"/>
<path d="M428.903 176.36C429.922 174.817 431.474 174.346 432.03 175.421C432.715 176.732 431.365 179.531 429.483 179.869C427.833 179.952 427.954 177.789 428.907 176.345L428.903 176.36Z" fill="#5837D0"/>
<path d="M406.661 178.877C407.77 177.225 409.418 176.726 410 177.887C410.727 179.319 409.246 182.313 407.247 182.675C405.484 182.766 405.618 180.43 406.661 178.877Z" fill="#5837D0"/>
<path d="M385.038 181.203C386.274 179.371 388.091 178.811 388.688 180.119C389.4 181.723 387.735 185.062 385.594 185.458C383.7 185.538 383.889 182.942 385.035 181.218L385.038 181.203Z" fill="#5837D0"/>
<path d="M364.157 183.416C365.52 181.402 367.384 180.837 367.997 182.276C368.723 184.027 366.955 187.536 364.658 187.931C362.788 188 362.79 185.444 364.178 183.42L364.157 183.416Z" fill="#5837D0"/>
<path d="M343.998 185.476C345.387 183.453 347.294 182.784 348.007 184.069C348.957 185.819 346.949 189.933 344.416 190.389C342.414 190.446 342.504 187.686 344.017 185.496L343.998 185.476Z" fill="#5837D0"/>
<path d="M324.603 187.426C326.071 185.339 328.028 184.649 328.734 185.964C329.69 187.795 327.509 192.096 324.868 192.53C322.71 192.586 323.166 189.471 324.603 187.426Z" fill="#5837D0"/>
<path d="M306.01 189.179C307.593 186.972 309.651 186.224 310.317 187.627C311.265 189.6 308.823 194.181 306.042 194.649C303.727 194.704 304.43 191.37 305.988 189.174L306.01 189.179Z" fill="#5837D0"/>
<path d="M288.495 191.014C290.214 188.692 292.325 187.907 292.913 189.357C293.735 191.399 291.043 196.216 288.254 196.714C285.915 196.78 286.803 193.309 288.495 191.014Z" fill="#5837D0"/>
<path d="M272.1 192.942C273.824 190.701 275.801 189.808 276.442 191.013C277.412 192.879 274.404 198.236 271.493 198.789C269.239 198.873 270.303 195.311 272.121 192.946L272.1 192.942Z" fill="#5837D0"/>
<path d="M256.789 194.936C258.612 192.653 260.592 191.744 261.147 192.932C261.982 194.801 258.689 200.242 255.795 200.814C253.606 200.911 254.904 197.303 256.792 194.921L256.789 194.936Z" fill="#5837D0"/>
<path d="M242.525 196.946C244.53 194.542 246.517 193.602 246.948 194.844C247.645 196.844 243.995 202.385 241.07 202.998C238.878 203.111 240.409 199.456 242.525 196.946Z" fill="#5837D0"/>
<path d="M229.27 199.042C231.407 196.649 233.397 195.694 233.7 196.909C234.219 198.903 230.256 204.442 227.35 205.075C225.243 205.206 227.019 201.555 229.27 199.042Z" fill="#5837D0"/>
<path d="M217.049 201.115C219.213 198.807 221.13 197.773 221.488 198.727C222.042 200.234 217.698 206.523 214.548 207.249C212.53 207.383 214.653 203.677 217.046 201.13L217.049 201.115Z" fill="#5837D0"/>
<path d="M205.85 203.211C208.173 200.889 210.115 199.845 210.323 200.767C210.74 202.501 205.696 208.61 202.731 209.311C200.866 209.461 202.996 206.252 205.051 204.033C205.283 203.779 205.6 203.446 205.829 203.207L205.85 203.211Z" fill="#5837D0"/>
<path d="M195.612 205.317C197.973 203.131 199.759 202.086 200.025 202.733C200.618 204.056 194.837 210.585 191.816 211.338C190.38 211.467 191.819 209.31 193.509 207.446C193.8 207.124 194.588 206.251 195.587 205.328L195.612 205.317Z" fill="#5837D0"/>
<path d="M186.388 207.399C188.948 205.222 190.684 204.199 190.847 204.808C191.144 205.941 185.044 212.499 181.875 213.317C180.826 213.415 181.691 212.176 182.585 211.118C183.507 210.034 184.915 208.654 186.384 207.414L186.388 207.399Z" fill="#5837D0"/>
<path d="M178.123 209.475C180.83 207.346 182.535 206.364 182.551 206.926C182.572 208.097 175.914 214.329 172.899 215.163C172.647 215.19 172.141 215.259 172.887 214.266C173.806 213.086 176.17 210.996 178.123 209.475Z" fill="#5837D0"/>
<path d="M170.847 211.52C174.664 208.794 175.105 208.823 175.258 208.84C175.495 209.944 167.316 216.287 164.721 217.034C164.654 217.036 164.54 217.044 164.454 217.026C163.995 216.45 170.137 212.025 170.826 211.516L170.847 211.52Z" fill="#5837D0"/>
<path d="M166.659 213.146C163.93 215.271 160.759 217.27 159.009 218.147C161.585 216.533 164.149 214.869 166.659 213.146Z" fill="#5837D0"/>
<path d="M558.294 129.522L558.369 129.697L558.189 129.915L558.093 129.735L558.294 129.522Z" fill="#5837D0"/>
<path d="M533.357 133.276L533.457 133.441L533.255 133.655L533.155 133.49L533.357 133.276Z" fill="#5837D0"/>
<path d="M508.973 136.506L509.232 136.976L508.683 137.563L508.428 137.078L508.973 136.506Z" fill="#5837D0"/>
<path d="M485.154 139.601L485.514 140.332L484.733 141.174L484.339 140.499L485.154 139.601Z" fill="#5837D0"/>
<path d="M461.063 143.246C461.486 142.617 462.11 142.413 462.333 142.843C462.6 143.379 462.045 144.524 461.296 144.685C460.661 144.727 460.63 143.922 461.063 143.246Z" fill="#5837D0"/>
<path d="M438.215 146.194C438.754 145.333 439.594 145.063 439.873 145.649C440.2 146.325 439.58 147.888 438.487 148.088C437.671 148.14 437.651 147.066 438.218 146.179L438.215 146.194Z" fill="#5837D0"/>
<path d="M416.076 149.067C416.684 148.093 417.665 147.788 417.995 148.449C418.397 149.301 417.526 151.098 416.383 151.32C415.341 151.388 415.478 149.995 416.076 149.067Z" fill="#5837D0"/>
<path d="M394.639 151.784C395.405 150.588 396.509 150.23 396.875 151.042C397.327 152.08 396.299 154.195 394.923 154.465C393.838 154.523 393.845 153.007 394.617 151.78L394.639 151.784Z" fill="#5837D0"/>
<path d="M373.941 154.404C374.798 153.098 375.989 152.647 376.446 153.446C377.063 154.551 375.827 157.23 374.218 157.545C372.976 157.603 372.992 155.833 373.941 154.404Z" fill="#5837D0"/>
<path d="M354.107 156.948C355.06 155.504 356.331 154.989 356.79 155.885C357.431 157.09 356.03 160.022 354.35 160.354C352.97 160.431 353.064 158.502 354.089 156.928L354.107 156.948Z" fill="#5837D0"/>
<path d="M335.058 159.369C336.111 157.77 337.505 157.201 338.01 158.202C338.664 159.554 337.079 162.831 335.208 163.219C333.668 163.31 334.009 160.953 335.055 159.385L335.058 159.369Z" fill="#5837D0"/>
<path d="M316.979 161.773C318.149 160.039 319.55 159.44 320.017 160.513C320.63 161.952 318.89 165.435 316.948 165.841C315.455 165.925 315.712 163.647 316.979 161.773Z" fill="#5837D0"/>
<path d="M300.036 164.289C301.231 162.544 302.654 161.837 303.16 162.727C303.921 164.101 301.913 168.215 299.803 168.681C298.143 168.81 298.803 166.106 300.036 164.289Z" fill="#5837D0"/>
<path d="M284.271 166.925C285.577 165.075 287.06 164.301 287.513 165.228C288.215 166.67 285.929 171.044 283.781 171.582C282.096 171.722 282.923 168.861 284.274 166.909L284.271 166.925Z" fill="#5837D0"/>
<path d="M269.667 169.693C271.061 167.75 272.553 166.93 272.932 167.889C273.511 169.385 270.984 173.949 268.847 174.537C267.224 174.706 268.212 171.719 269.667 169.693Z" fill="#5837D0"/>
<path d="M256.145 172.53C257.578 170.611 259.019 169.717 259.443 170.461C260.192 171.786 257.279 176.907 254.989 177.59C253.359 177.79 254.575 174.675 256.142 172.545L256.145 172.53Z" fill="#5837D0"/>
<path d="M243.697 175.481C245.232 173.505 246.685 172.549 247.039 173.31C247.644 174.684 244.494 179.867 242.172 180.592C240.653 180.799 241.909 177.916 243.424 175.823C243.514 175.714 243.607 175.59 243.7 175.466L243.697 175.481Z" fill="#5837D0"/>
<path d="M232.303 178.496C233.992 176.424 235.452 175.438 235.689 176.222C236.081 177.439 232.679 182.969 230.295 183.776C228.926 184.015 230.129 181.489 231.439 179.624C231.697 179.247 231.977 178.875 232.278 178.507L232.303 178.496Z" fill="#5837D0"/>
<path d="M221.971 181.59C223.634 179.64 225.061 178.599 225.332 179.119C225.894 180.164 221.824 186 219.519 186.856C218.306 187.095 219.564 184.948 219.972 184.284C220.508 183.438 221.23 182.456 221.971 181.59Z" fill="#5837D0"/>
<path d="M212.663 184.692C214.471 182.693 215.873 181.662 216.061 182.149C216.467 183.193 211.927 189.138 209.631 190.059C209.419 190.111 208.786 190.249 209.611 188.777C210.189 187.733 211.38 186.115 212.685 184.696L212.663 184.692Z" fill="#5837D0"/>
<path d="M204.346 187.86C206.351 185.774 207.71 184.735 207.785 185.23C207.953 186.128 203.075 192.193 200.685 193.239C200.495 193.294 200.141 193.38 200.461 192.712C200.957 191.634 202.825 189.456 204.343 187.875L204.346 187.86Z" fill="#5837D0"/>
<path d="M197.032 191.061C198.883 189.279 200.018 188.352 200.383 188.317C200.773 189.118 194.832 195.342 192.741 196.355C192.67 196.372 192.599 196.389 192.532 196.391C192.241 195.755 196.549 191.55 197.029 191.076L197.032 191.061Z" fill="#5837D0"/>
<path d="M190.739 194.289C193.467 191.845 193.871 191.627 194.068 191.541C194.09 191.545 194.133 191.554 194.154 191.559C193.887 192.509 187.877 198.319 185.815 199.402C185.787 199.428 185.741 199.434 185.692 199.456C185.649 199.447 185.628 199.442 185.585 199.433C185.732 198.841 189.244 195.652 190.739 194.289Z" fill="#5837D0"/>
<path d="M448.062 115.085L448.198 115.289L447.906 115.611L447.826 115.355L448.062 115.085Z" fill="#5837D0"/>
<path d="M426.231 118.073L426.422 118.544L425.923 119.11L425.729 118.654L426.231 118.073Z" fill="#5837D0"/>
<path d="M404.502 121.446C404.836 120.925 405.294 120.766 405.465 121.122C405.681 121.583 405.165 122.544 404.603 122.666C404.149 122.698 404.163 121.998 404.502 121.446Z" fill="#5837D0"/>
<path d="M384.007 124.475C384.436 123.815 385.003 123.567 385.207 123.977C385.463 124.463 384.927 125.836 384.132 126.003C383.54 126.054 383.567 125.181 384.007 124.475Z" fill="#5837D0"/>
<path d="M364.341 127.391C364.874 126.561 365.585 126.264 365.858 126.769C366.185 127.445 365.392 129.194 364.455 129.396C363.636 129.463 363.805 128.237 364.341 127.391Z" fill="#5837D0"/>
<path d="M345.56 130.238C346.158 129.31 347.031 128.775 347.358 129.451C347.738 130.298 346.735 132.403 345.629 132.665C344.743 132.734 344.855 131.351 345.56 130.238Z" fill="#5837D0"/>
<path d="M327.941 133.217C328.639 132.134 329.492 131.691 329.827 132.225C330.324 133.049 329.178 135.619 327.882 135.937C326.9 136.033 327.209 134.357 327.941 133.217Z" fill="#5837D0"/>
<path d="M311.497 136.333C312.301 135.065 313.266 134.517 313.556 135.154C314.021 136.131 312.673 139.025 311.296 139.406C310.197 139.526 310.643 137.623 311.478 136.313L311.497 136.333Z" fill="#5837D0"/>
<path d="M296.311 139.618C297.15 138.293 298.17 137.693 298.461 138.33C298.919 139.337 297.363 142.476 295.927 142.924C294.822 143.074 295.389 141.021 296.311 139.618Z" fill="#5837D0"/>
<path d="M282.299 143.087C283.189 141.725 284.156 141.066 284.472 141.58C285.024 142.464 283.226 146.111 281.682 146.648C280.571 146.829 281.287 144.599 282.299 143.087Z" fill="#5837D0"/>
<path d="M269.399 146.678C270.404 145.197 271.411 144.45 271.721 144.995C272.214 145.946 270.131 149.884 268.55 150.493C267.57 150.686 268.03 148.93 269.041 147.21C269.144 147.04 269.278 146.828 269.399 146.678Z" fill="#5837D0"/>
<path d="M257.617 150.392C258.761 148.78 259.806 147.962 260.042 148.539C260.433 149.548 258.056 153.823 256.436 154.504C255.546 154.7 256.006 153.151 256.871 151.593C257.093 151.176 257.355 150.784 257.613 150.407L257.617 150.392Z" fill="#5837D0"/>
<path d="M246.963 154.25C248.098 152.684 249.106 151.826 249.359 152.215C249.869 152.977 247.178 157.682 245.448 158.467C244.642 158.681 245.199 157.313 245.478 156.732C245.644 156.368 246.135 155.417 246.963 154.25Z" fill="#5837D0"/>
<path d="M237.367 158.202C238.607 156.562 239.628 155.643 239.839 156.023C240.217 156.774 237.082 161.784 235.451 162.623C235.285 162.668 234.806 162.822 235.309 161.602C235.674 160.72 236.49 159.391 237.367 158.202Z" fill="#5837D0"/>
<path d="M228.839 162.267C230.187 160.539 231.211 159.604 231.333 159.982C231.573 160.751 228.137 165.81 226.512 166.729C226.367 166.779 226.1 166.882 226.283 166.33C226.536 165.552 227.584 163.872 228.863 162.257L228.839 162.267Z" fill="#5837D0"/>
<path d="M221.345 166.407C222.09 165.525 223.372 164.006 223.817 163.909C224.237 164.461 220.048 170.015 218.477 170.994C218.428 171.016 218.358 171.033 218.308 171.055C217.97 170.536 221.317 166.433 221.348 166.392L221.345 166.407Z" fill="#5837D0"/>
<path d="M214.885 170.637C216.282 168.998 217.13 168.154 217.373 168.062C217.524 168.621 213.003 174.154 211.527 175.217C211.478 175.238 211.425 175.275 211.379 175.281C211.246 174.854 214.504 171.067 214.885 170.637Z" fill="#5837D0"/>
<path d="M211.977 172.357C211.307 173.413 207.007 178.322 205.492 179.568C205.471 179.564 205.44 179.605 205.412 179.631C205.412 179.631 205.419 179.601 205.376 179.592C207.598 177.217 209.802 174.822 211.977 172.357Z" fill="#5837D0"/>
<path d="M356.792 99.884L356.955 100.382L356.39 101.045L356.258 100.506L356.792 99.884Z" fill="#5837D0"/>
<path d="M339.11 103.682C339.415 103.188 339.757 103.052 339.871 103.252C340.052 103.562 339.611 104.699 339.042 104.85C338.649 104.911 338.804 104.177 339.11 103.682Z" fill="#5837D0"/>
<path d="M323.088 107.334C323.465 106.711 323.949 106.429 324.091 106.715C324.331 107.165 323.632 108.679 322.958 108.904C322.381 108.99 322.717 107.927 323.088 107.334Z" fill="#5837D0"/>
<path d="M308.323 111.188C308.8 110.409 309.325 110.041 309.512 110.32C309.832 110.819 308.906 112.876 308.06 113.177C307.501 113.283 307.746 112.12 308.326 111.172L308.323 111.188Z" fill="#5837D0"/>
<path d="M294.785 115.267C295.325 114.406 295.887 113.965 296.089 114.279C296.405 114.793 295.284 117.145 294.4 117.518C293.789 117.661 294.176 116.352 294.71 115.411C294.741 115.369 294.776 115.312 294.81 115.256L294.785 115.267Z" fill="#5837D0"/>
<path d="M282.444 119.501C283.086 118.471 283.735 117.937 283.903 118.307C284.172 118.939 282.813 121.672 281.843 122.139C281.228 122.297 281.639 121.089 282.037 120.263C282.16 120.001 282.3 119.759 282.465 119.506L282.444 119.501Z" fill="#5837D0"/>
<path d="M271.219 123.943C271.948 122.818 272.631 122.227 272.774 122.609C273.016 123.267 271.452 126.228 270.444 126.767C269.919 126.927 270.222 126.017 270.374 125.618C270.506 125.31 270.77 124.695 271.24 123.947L271.219 123.943Z" fill="#5837D0"/>
<path d="M261.199 128.524C261.863 127.498 262.65 126.625 262.813 126.915C263.147 127.449 261.238 130.992 260.09 131.661C259.992 131.704 259.657 131.809 259.951 130.945C260.125 130.438 260.539 129.535 261.202 128.509L261.199 128.524Z" fill="#5837D0"/>
<path d="M252.237 133.266C253.119 131.95 253.834 131.206 253.954 131.487C254.175 132.029 251.974 135.894 250.832 136.644C250.734 136.687 250.537 136.773 250.624 136.36C250.749 135.764 251.428 134.453 252.241 133.25L252.237 133.266Z" fill="#5837D0"/>
<path d="M244.406 138.166C244.796 137.593 245.766 136.28 246.098 136.19C246.479 136.606 243.608 141.001 242.653 141.71C242.625 141.736 242.576 141.758 242.53 141.764C242.242 141.432 243.952 138.837 244.41 138.151L244.406 138.166Z" fill="#5837D0"/>
<path d="M237.621 143.204C238.159 142.455 239.123 141.172 239.391 141.069C239.604 141.434 236.51 146.037 235.449 146.932C235.424 146.943 235.372 146.98 235.347 146.99C235.173 146.65 237.593 143.23 237.621 143.204Z" fill="#5837D0"/>
<path d="M231.906 148.358C233.557 146.15 233.673 146.127 233.719 146.121C233.613 146.625 230.406 151.125 229.334 152.178C229.307 152.204 229.254 152.241 229.211 152.231C229.302 151.803 231.788 148.493 231.906 148.358Z" fill="#5837D0"/>
<path d="M307.718 86.0548L307.707 86.5317L307.227 87.2134L307.217 86.7319L307.718 86.0548Z" fill="#5837D0"/>
<path d="M295.438 91.2626C295.716 90.7939 296.016 90.5377 296.073 90.6934C296.195 90.9589 295.603 92.1761 295.175 92.4053C294.957 92.487 295.059 92.1091 295.115 91.9454C295.188 91.7052 295.301 91.4893 295.438 91.2626Z" fill="#5837D0"/>
<path d="M284.725 96.2737C285.034 95.7637 285.4 95.2978 285.503 95.4472C285.672 95.7065 284.804 97.4886 284.264 97.8221C284.116 97.8868 284.099 97.7554 284.157 97.4801C284.225 97.1589 284.457 96.6965 284.728 96.2584L284.725 96.2737Z" fill="#5837D0"/>
<path d="M275.186 101.533C275.598 100.853 275.973 100.452 276.058 100.582C276.23 100.826 275.135 102.944 274.557 103.349C274.508 103.371 274.406 103.429 274.433 103.195C274.48 102.869 274.784 102.167 275.186 101.533Z" fill="#5837D0"/>
<path d="M266.795 106.954C266.964 106.685 267.531 105.799 267.764 105.752C268.028 105.983 266.477 108.676 265.911 109.132C265.908 109.147 265.859 109.168 265.837 109.164C265.631 108.977 266.549 107.381 266.795 106.954Z" fill="#5837D0"/>
<path d="M259.544 112.614C259.781 112.232 260.37 111.35 260.567 111.264C260.77 111.466 258.952 114.47 258.422 114.965C258.419 114.981 258.37 115.002 258.345 115.013C258.206 114.824 259.245 113.078 259.544 112.614Z" fill="#5837D0"/>
<path d="M253.378 118.423C253.65 117.985 254.335 116.963 254.492 116.852C254.6 117.083 252.487 120.424 251.907 121.052C251.904 121.068 251.855 121.089 251.83 121.1C251.759 120.909 253.329 118.444 253.357 118.418L253.378 118.423Z" fill="#5837D0"/>
<path d="M248.29 124.412C248.682 123.824 249.032 123.227 249.485 122.667C249.427 122.943 246.977 126.612 246.476 127.289L246.445 127.33C246.458 127.269 246.48 127.162 248.311 124.417L248.29 124.412Z" fill="#5837D0"/>
<path d="M289.405 73.1037L289.319 73.4051L289.017 73.8846L289.103 73.5832L289.405 73.1037Z" fill="#5837D0"/>
<path d="M281.603 78.9355L281.422 79.4726L280.879 80.3486L281.066 79.7809L281.603 78.9355Z" fill="#5837D0"/>
<path d="M274.489 85.7443C274.558 85.631 274.87 85.1057 274.972 85.0472C275.041 85.1418 274.192 86.6242 273.956 86.894C273.956 86.894 273.953 86.9093 273.928 86.9201C273.877 86.8454 274.267 86.1608 274.514 85.7336L274.489 85.7443Z" fill="#5837D0"/>
<path d="M268.844 92.2551C269.022 91.9411 269.136 91.6137 269.418 91.3376C269.379 91.5211 268.262 93.4263 268.01 93.7726C268.007 93.7879 268.007 93.7879 267.982 93.7987C267.977 93.7177 268.61 92.6212 268.844 92.2551Z" fill="#5837D0"/>
<path d="M971.996 193.034L972.041 193.139L971.857 193.373L971.862 193.246L971.996 193.034Z" fill="#5837D0"/>
<path d="M952.987 203.437L953.02 203.492L952.926 203.617L952.893 203.562L952.987 203.437Z" fill="#5837D0"/>
<path d="M932.98 213.071L933.125 213.341L932.702 213.859L932.554 213.604L932.98 213.071Z" fill="#5837D0"/>
<path d="M911.881 222.236L912.173 222.761L911.39 223.715L911.092 223.22L911.881 222.236Z" fill="#5837D0"/>
<path d="M888.816 231.847C889.228 231.167 889.884 230.81 890.08 231.155C890.33 231.559 889.748 232.731 889.006 233.069C888.427 233.267 888.461 232.683 888.619 232.253C888.648 232.115 888.72 231.987 888.816 231.847Z" fill="#5837D0"/>
<path d="M921.434 192.63L921.757 193.114L920.971 194.083L920.682 193.542L921.434 192.63Z" fill="#5837D0"/>
<path d="M898.204 201.746C898.619 201.05 899.336 200.722 899.498 201.124C899.695 201.565 899.154 202.649 898.421 202.942C897.8 203.13 897.816 202.527 898.032 202.029C898.055 201.922 898.12 201.824 898.186 201.726L898.204 201.746Z" fill="#5837D0"/>
<path d="M874.421 209.864C875.047 208.91 875.958 208.511 876.247 209.051C876.566 209.661 875.784 211.142 874.784 211.538C873.954 211.763 873.904 210.937 874.202 210.265C874.274 210.137 874.328 209.988 874.421 209.864Z" fill="#5837D0"/>
<path d="M850.002 217.61C850.734 216.47 851.885 215.994 852.209 216.685C852.529 217.392 851.736 219.142 850.425 219.632C849.362 219.903 849.364 218.833 849.82 217.939C849.864 217.837 849.936 217.708 849.998 217.625L850.002 217.61Z" fill="#5837D0"/>
<path d="M883.886 180.019L884.002 180.108L883.797 180.337L883.716 180.192L883.886 180.019Z" fill="#5837D0"/>
<path d="M859.77 187.076L860.023 187.465L859.483 188.118L859.215 187.694L859.77 187.076Z" fill="#5837D0"/>
<path d="M835.154 193.964L835.528 194.522L834.7 195.481L834.292 194.868L835.154 193.964Z" fill="#5837D0"/>
<path d="M809.114 201.224C809.613 200.45 810.413 200.156 810.643 200.652C810.907 201.203 810.269 202.426 809.427 202.712C808.656 202.869 808.662 201.991 809.046 201.337C809.052 201.307 809.083 201.265 809.114 201.224Z" fill="#5837D0"/>
<path d="M783.42 207.71C784.043 206.771 785.058 206.41 785.355 207.016C785.67 207.641 785.017 209.149 783.821 209.52C782.841 209.713 782.866 208.536 783.42 207.71Z" fill="#5837D0"/>
<path d="M767.031 182.461L767.376 182.949L766.709 183.671L766.368 183.168L767.031 182.461Z" fill="#5837D0"/>
<path d="M740.325 188.526C740.724 187.907 741.348 187.704 741.549 188.129C741.802 188.63 741.262 189.491 740.598 189.67C740.018 189.772 739.954 189.119 740.301 188.537L740.325 188.526Z" fill="#5837D0"/>
<path d="M696.829 167.452L697.016 167.732L696.635 168.162L696.411 167.844L696.829 167.452Z" fill="#5837D0"/>
<path d="M670.594 172.035L670.953 172.559L670.293 173.25C670.293 173.25 670.25 173.241 670.229 173.237L669.924 172.773L670.591 172.051L670.594 172.035Z" fill="#5837D0"/>
</g>
<defs>
<clipPath id="clip0_2932_40210">
<rect width="273.458" height="935.775" fill="white" transform="matrix(-0.206297 0.978489 0.978489 0.206297 56.4141 0)"/>
</clipPath>
</defs>
</svg>
