<svg width="48" height="49" viewBox="0 0 48 49" fill="none" xmlns="http://www.w3.org/2000/svg">
<path opacity="0.4" fill-rule="evenodd" clip-rule="evenodd" d="M8 0.796875C3.58172 0.796875 0 4.3786 0 8.79688V40.7969C0 45.2152 3.58172 48.7969 8 48.7969H40C44.4183 48.7969 48 45.2152 48 40.7969V8.79688C48 4.3786 44.4183 0.796875 40 0.796875H8ZM35.9901 15.3515C36.1905 13.0388 33.7853 13.9911 33.7853 13.9911C32.0095 14.7375 30.1779 15.4961 28.3267 16.2629C22.5864 18.6404 16.656 21.0966 11.6041 23.514C8.86489 24.5343 10.4684 25.5546 10.4684 25.5546L14.8111 26.915C16.8154 27.5272 17.8844 26.847 17.8844 26.847L27.2379 20.3851C30.5784 18.0724 29.7767 19.9769 28.975 20.7932L21.9598 27.5952C20.8908 28.5475 21.4253 29.3638 21.893 29.7719C23.2184 30.9593 26.4789 33.1319 27.9024 34.0804C28.2729 34.3272 28.5189 34.4912 28.5741 34.5333C28.9082 34.8054 30.712 36.0297 31.9146 35.7577C33.1173 35.4856 33.2509 33.9211 33.2509 33.9211L34.8543 23.2419C35.0948 21.3879 35.3707 19.6059 35.591 18.1827C35.7991 16.8383 35.9576 15.8141 35.9901 15.3515Z" fill="white"/>
</svg>
