<svg width="48" height="49" viewBox="0 0 48 49" fill="none" xmlns="http://www.w3.org/2000/svg">
<g clip-path="url(#clip0_2932_46145)">
<path opacity="0.4" fill-rule="evenodd" clip-rule="evenodd" d="M8 0.796875C3.58172 0.796875 0 4.3786 0 8.79688V40.7969C0 45.2152 3.58172 48.7969 8 48.7969H40C44.4183 48.7969 48 45.2152 48 40.7969V8.79688C48 4.3786 44.4183 0.796875 40 0.796875H8ZM33.8269 14.5537C31.6397 14.227 28.0557 13.7969 24 13.7969C19.9443 13.7969 16.3603 14.227 14.1731 14.5537C12.3638 14.8243 10.9046 16.2158 10.5718 18.0594C10.2908 19.628 10 21.9226 10 24.7969C10 27.6712 10.2908 29.9658 10.5718 31.5344C10.9046 33.378 12.3638 34.7739 14.1731 35.0401C16.3689 35.3668 19.9658 35.7969 24 35.7969C28.0342 35.7969 31.6311 35.3668 33.8269 35.0401C35.6362 34.7739 37.0954 33.378 37.4282 31.5344C37.7092 29.9614 38 27.6624 38 24.7969C38 21.9314 37.7135 19.6324 37.4282 18.0594C37.0954 16.2158 35.6362 14.8243 33.8269 14.5537ZM20.7692 30.6936V18.8981L22.3846 19.7685L29.9231 23.8935L31.5385 24.7958L29.9231 25.6982L22.3846 29.8232L20.7692 30.6936Z" fill="white"/>
</g>
<defs>
<clipPath id="clip0_2932_46145">
<rect y="0.796875" width="48.0004" height="48.0004" rx="8" fill="white"/>
</clipPath>
</defs>
</svg>
