<svg width="48" height="49" viewBox="0 0 48 49" fill="none" xmlns="http://www.w3.org/2000/svg">
<g clip-path="url(#clip0_2932_46140)">
<path opacity="0.4" fill-rule="evenodd" clip-rule="evenodd" d="M8 0.796875C3.58172 0.796875 0 4.3786 0 8.79688V40.7969C0 45.2152 3.58172 48.7969 8 48.7969H40C44.4183 48.7969 48 45.2152 48 40.7969V8.79688C48 4.3786 44.4183 0.796875 40 0.796875H8ZM10 15.7969C10.2274 27.0401 15.6839 33.7969 25.2504 33.7969H25.7927V27.3644C29.308 27.7248 31.9661 30.3735 33.0329 33.7969H38C36.6359 28.6798 33.0504 25.8509 30.8118 24.7698C33.0504 23.4365 36.1985 20.1933 36.9505 15.7969H32.4382C31.4588 19.3644 28.556 22.6077 25.7927 22.914V15.7969H21.2804V28.2653C18.4821 27.5446 14.9494 24.0491 14.792 15.7969H10Z" fill="white"/>
</g>
<defs>
<clipPath id="clip0_2932_46140">
<rect y="0.796875" width="48.0004" height="48.0004" rx="8" fill="white"/>
</clipPath>
</defs>
</svg>
