<svg width="22" height="16" viewBox="0 0 22 16" fill="none" xmlns="http://www.w3.org/2000/svg">
<path fill-rule="evenodd" clip-rule="evenodd" d="M11 0C14.1866 0 17.0026 0.3128 18.7212 0.5504C20.1427 0.7472 21.2892 1.7592 21.5507 3.1C21.7749 4.244 22 5.916 22 8C22 10.084 21.7715 11.756 21.5507 12.9C21.2892 14.2408 20.1427 15.256 18.7212 15.4496C16.9958 15.6872 14.1697 16 11 16C7.83031 16 5.00415 15.6872 3.27885 15.4496C1.85731 15.256 0.710769 14.2408 0.449308 12.9C0.228462 11.7592 0 10.0904 0 8C0 5.9096 0.228462 4.2408 0.449308 3.1C0.710769 1.7592 1.85731 0.7472 3.27885 0.5504C4.99739 0.3128 7.81338 0 11 0ZM8.46154 3.71V12.2885L9.73077 11.6555L15.6538 8.6555L16.9231 7.99925L15.6538 7.343L9.73077 4.343L8.46154 3.71Z" fill="white"/>
</svg>
